%TF.GenerationSoftware,KiCad,Pcbnew,5.1.12-84ad8e8a86~92~ubuntu20.04.1*%
%TF.CreationDate,2022-01-19T00:30:43+02:00*%
%TF.ProjectId,LED_Wled,4c45445f-576c-4656-942e-6b696361645f,rev?*%
%TF.SameCoordinates,Original*%
%TF.FileFunction,Copper,L1,Top*%
%TF.FilePolarity,Positive*%
%FSLAX46Y46*%
G04 Gerber Fmt 4.6, Leading zero omitted, Abs format (unit mm)*
G04 Created by KiCad (PCBNEW 5.1.12-84ad8e8a86~92~ubuntu20.04.1) date 2022-01-19 00:30:43*
%MOMM*%
%LPD*%
G01*
G04 APERTURE LIST*
%TA.AperFunction,EtchedComponent*%
%ADD10C,0.100000*%
%TD*%
%TA.AperFunction,ComponentPad*%
%ADD11C,1.600000*%
%TD*%
%TA.AperFunction,ComponentPad*%
%ADD12C,2.100000*%
%TD*%
%TA.AperFunction,ComponentPad*%
%ADD13R,2.100000X2.100000*%
%TD*%
%TA.AperFunction,SMDPad,CuDef*%
%ADD14C,2.000000*%
%TD*%
%TA.AperFunction,ComponentPad*%
%ADD15O,1.000000X1.000000*%
%TD*%
%TA.AperFunction,ComponentPad*%
%ADD16R,1.000000X1.000000*%
%TD*%
%TA.AperFunction,SMDPad,CuDef*%
%ADD17R,5.800000X6.400000*%
%TD*%
%TA.AperFunction,SMDPad,CuDef*%
%ADD18R,1.200000X2.200000*%
%TD*%
%TA.AperFunction,SMDPad,CuDef*%
%ADD19R,2.900000X5.400000*%
%TD*%
%TA.AperFunction,SMDPad,CuDef*%
%ADD20R,2.000000X1.200000*%
%TD*%
%TA.AperFunction,SMDPad,CuDef*%
%ADD21R,1.100000X1.700000*%
%TD*%
%TA.AperFunction,SMDPad,CuDef*%
%ADD22R,0.800000X0.900000*%
%TD*%
%TA.AperFunction,ComponentPad*%
%ADD23C,1.750000*%
%TD*%
%TA.AperFunction,SMDPad,CuDef*%
%ADD24R,2.500000X3.300000*%
%TD*%
%TA.AperFunction,ViaPad*%
%ADD25C,0.800000*%
%TD*%
%TA.AperFunction,Conductor*%
%ADD26C,2.000000*%
%TD*%
%TA.AperFunction,Conductor*%
%ADD27C,0.350000*%
%TD*%
%TA.AperFunction,Conductor*%
%ADD28C,0.250000*%
%TD*%
%TA.AperFunction,Conductor*%
%ADD29C,0.254000*%
%TD*%
%TA.AperFunction,Conductor*%
%ADD30C,0.100000*%
%TD*%
G04 APERTURE END LIST*
D10*
%TO.C,NT1*%
G36*
X74000000Y-57250000D02*
G01*
X78000000Y-57250000D01*
X78000000Y-59250000D01*
X74000000Y-59250000D01*
X74000000Y-57250000D01*
G37*
%TD*%
D11*
%TO.P,C1,2*%
%TO.N,GND*%
X95750000Y-66500000D03*
%TO.P,C1,1*%
%TO.N,+5V*%
X100750000Y-66500000D03*
%TD*%
D12*
%TO.P,J3,3*%
%TO.N,GNDPWR*%
X68269977Y-65000076D03*
X73349987Y-65000076D03*
%TO.P,J3,1*%
%TO.N,LED_OUT_HV*%
X73349987Y-70080086D03*
%TO.P,J3,2*%
%TO.N,VIN*%
X73349987Y-67540081D03*
X68269977Y-67540081D03*
D13*
%TO.P,J3,1*%
%TO.N,LED_OUT_HV*%
X68269977Y-70080086D03*
%TD*%
D12*
%TO.P,J2,1*%
%TO.N,GNDPWR*%
X73350000Y-54310135D03*
%TO.P,J2,2*%
%TO.N,VIN*%
X73350000Y-51770130D03*
X68269990Y-51770130D03*
D13*
%TO.P,J2,1*%
%TO.N,GNDPWR*%
X68269990Y-54310135D03*
%TD*%
%TO.P,F1,2*%
%TO.N,Net-(C2-Pad1)*%
%TA.AperFunction,SMDPad,CuDef*%
G36*
G01*
X91849999Y-52175000D02*
X94750001Y-52175000D01*
G75*
G02*
X95000000Y-52424999I0J-249999D01*
G01*
X95000000Y-53050001D01*
G75*
G02*
X94750001Y-53300000I-249999J0D01*
G01*
X91849999Y-53300000D01*
G75*
G02*
X91600000Y-53050001I0J249999D01*
G01*
X91600000Y-52424999D01*
G75*
G02*
X91849999Y-52175000I249999J0D01*
G01*
G37*
%TD.AperFunction*%
%TO.P,F1,1*%
%TO.N,VIN*%
%TA.AperFunction,SMDPad,CuDef*%
G36*
G01*
X91849999Y-47900000D02*
X94750001Y-47900000D01*
G75*
G02*
X95000000Y-48149999I0J-249999D01*
G01*
X95000000Y-48775001D01*
G75*
G02*
X94750001Y-49025000I-249999J0D01*
G01*
X91849999Y-49025000D01*
G75*
G02*
X91600000Y-48775001I0J249999D01*
G01*
X91600000Y-48149999D01*
G75*
G02*
X91849999Y-47900000I249999J0D01*
G01*
G37*
%TD.AperFunction*%
%TD*%
D14*
%TO.P,NT1,2*%
%TO.N,GND*%
X78000000Y-58250000D03*
%TO.P,NT1,1*%
%TO.N,GNDPWR*%
X74000000Y-58250000D03*
%TD*%
D15*
%TO.P,BOOT1,2*%
%TO.N,Net-(BOOT1-Pad2)*%
X112900000Y-69930000D03*
D16*
%TO.P,BOOT1,1*%
%TO.N,GND*%
X112900000Y-71200000D03*
%TD*%
D17*
%TO.P,U3,2*%
%TO.N,+3V3*%
X107500000Y-68850000D03*
D18*
%TO.P,U3,3*%
%TO.N,+5V*%
X105220000Y-62550000D03*
%TO.P,U3,1*%
%TO.N,GND*%
X109780000Y-62550000D03*
%TD*%
D19*
%TO.P,L1,2*%
%TO.N,+5V*%
X88450000Y-66300000D03*
%TO.P,L1,1*%
%TO.N,Net-(D1-Pad1)*%
X78550000Y-66300000D03*
%TD*%
%TO.P,C5,2*%
%TO.N,GND*%
%TA.AperFunction,SMDPad,CuDef*%
G36*
G01*
X112925000Y-62725000D02*
X111675000Y-62725000D01*
G75*
G02*
X111425000Y-62475000I0J250000D01*
G01*
X111425000Y-61725000D01*
G75*
G02*
X111675000Y-61475000I250000J0D01*
G01*
X112925000Y-61475000D01*
G75*
G02*
X113175000Y-61725000I0J-250000D01*
G01*
X113175000Y-62475000D01*
G75*
G02*
X112925000Y-62725000I-250000J0D01*
G01*
G37*
%TD.AperFunction*%
%TO.P,C5,1*%
%TO.N,+3V3*%
%TA.AperFunction,SMDPad,CuDef*%
G36*
G01*
X112925000Y-65525000D02*
X111675000Y-65525000D01*
G75*
G02*
X111425000Y-65275000I0J250000D01*
G01*
X111425000Y-64525000D01*
G75*
G02*
X111675000Y-64275000I250000J0D01*
G01*
X112925000Y-64275000D01*
G75*
G02*
X113175000Y-64525000I0J-250000D01*
G01*
X113175000Y-65275000D01*
G75*
G02*
X112925000Y-65525000I-250000J0D01*
G01*
G37*
%TD.AperFunction*%
%TD*%
%TO.P,C4,2*%
%TO.N,GND*%
%TA.AperFunction,SMDPad,CuDef*%
G36*
G01*
X111112500Y-60356250D02*
X111112500Y-59443750D01*
G75*
G02*
X111356250Y-59200000I243750J0D01*
G01*
X111843750Y-59200000D01*
G75*
G02*
X112087500Y-59443750I0J-243750D01*
G01*
X112087500Y-60356250D01*
G75*
G02*
X111843750Y-60600000I-243750J0D01*
G01*
X111356250Y-60600000D01*
G75*
G02*
X111112500Y-60356250I0J243750D01*
G01*
G37*
%TD.AperFunction*%
%TO.P,C4,1*%
%TO.N,+5V*%
%TA.AperFunction,SMDPad,CuDef*%
G36*
G01*
X109237500Y-60356250D02*
X109237500Y-59443750D01*
G75*
G02*
X109481250Y-59200000I243750J0D01*
G01*
X109968750Y-59200000D01*
G75*
G02*
X110212500Y-59443750I0J-243750D01*
G01*
X110212500Y-60356250D01*
G75*
G02*
X109968750Y-60600000I-243750J0D01*
G01*
X109481250Y-60600000D01*
G75*
G02*
X109237500Y-60356250I0J243750D01*
G01*
G37*
%TD.AperFunction*%
%TD*%
%TO.P,U2,8*%
%TO.N,GND*%
%TA.AperFunction,SMDPad,CuDef*%
G36*
G01*
X102800000Y-59355000D02*
X102800000Y-59655000D01*
G75*
G02*
X102650000Y-59805000I-150000J0D01*
G01*
X101300000Y-59805000D01*
G75*
G02*
X101150000Y-59655000I0J150000D01*
G01*
X101150000Y-59355000D01*
G75*
G02*
X101300000Y-59205000I150000J0D01*
G01*
X102650000Y-59205000D01*
G75*
G02*
X102800000Y-59355000I0J-150000D01*
G01*
G37*
%TD.AperFunction*%
%TO.P,U2,7*%
%TA.AperFunction,SMDPad,CuDef*%
G36*
G01*
X102800000Y-58085000D02*
X102800000Y-58385000D01*
G75*
G02*
X102650000Y-58535000I-150000J0D01*
G01*
X101300000Y-58535000D01*
G75*
G02*
X101150000Y-58385000I0J150000D01*
G01*
X101150000Y-58085000D01*
G75*
G02*
X101300000Y-57935000I150000J0D01*
G01*
X102650000Y-57935000D01*
G75*
G02*
X102800000Y-58085000I0J-150000D01*
G01*
G37*
%TD.AperFunction*%
%TO.P,U2,6*%
%TA.AperFunction,SMDPad,CuDef*%
G36*
G01*
X102800000Y-56815000D02*
X102800000Y-57115000D01*
G75*
G02*
X102650000Y-57265000I-150000J0D01*
G01*
X101300000Y-57265000D01*
G75*
G02*
X101150000Y-57115000I0J150000D01*
G01*
X101150000Y-56815000D01*
G75*
G02*
X101300000Y-56665000I150000J0D01*
G01*
X102650000Y-56665000D01*
G75*
G02*
X102800000Y-56815000I0J-150000D01*
G01*
G37*
%TD.AperFunction*%
%TO.P,U2,5*%
%TA.AperFunction,SMDPad,CuDef*%
G36*
G01*
X102800000Y-55545000D02*
X102800000Y-55845000D01*
G75*
G02*
X102650000Y-55995000I-150000J0D01*
G01*
X101300000Y-55995000D01*
G75*
G02*
X101150000Y-55845000I0J150000D01*
G01*
X101150000Y-55545000D01*
G75*
G02*
X101300000Y-55395000I150000J0D01*
G01*
X102650000Y-55395000D01*
G75*
G02*
X102800000Y-55545000I0J-150000D01*
G01*
G37*
%TD.AperFunction*%
%TO.P,U2,4*%
%TO.N,N/C*%
%TA.AperFunction,SMDPad,CuDef*%
G36*
G01*
X108050000Y-55545000D02*
X108050000Y-55845000D01*
G75*
G02*
X107900000Y-55995000I-150000J0D01*
G01*
X106550000Y-55995000D01*
G75*
G02*
X106400000Y-55845000I0J150000D01*
G01*
X106400000Y-55545000D01*
G75*
G02*
X106550000Y-55395000I150000J0D01*
G01*
X107900000Y-55395000D01*
G75*
G02*
X108050000Y-55545000I0J-150000D01*
G01*
G37*
%TD.AperFunction*%
%TO.P,U2,3*%
%TO.N,+5V*%
%TA.AperFunction,SMDPad,CuDef*%
G36*
G01*
X108050000Y-56815000D02*
X108050000Y-57115000D01*
G75*
G02*
X107900000Y-57265000I-150000J0D01*
G01*
X106550000Y-57265000D01*
G75*
G02*
X106400000Y-57115000I0J150000D01*
G01*
X106400000Y-56815000D01*
G75*
G02*
X106550000Y-56665000I150000J0D01*
G01*
X107900000Y-56665000D01*
G75*
G02*
X108050000Y-56815000I0J-150000D01*
G01*
G37*
%TD.AperFunction*%
%TO.P,U2,2*%
%TO.N,Net-(D1-Pad1)*%
%TA.AperFunction,SMDPad,CuDef*%
G36*
G01*
X108050000Y-58085000D02*
X108050000Y-58385000D01*
G75*
G02*
X107900000Y-58535000I-150000J0D01*
G01*
X106550000Y-58535000D01*
G75*
G02*
X106400000Y-58385000I0J150000D01*
G01*
X106400000Y-58085000D01*
G75*
G02*
X106550000Y-57935000I150000J0D01*
G01*
X107900000Y-57935000D01*
G75*
G02*
X108050000Y-58085000I0J-150000D01*
G01*
G37*
%TD.AperFunction*%
%TO.P,U2,1*%
%TO.N,Net-(C2-Pad1)*%
%TA.AperFunction,SMDPad,CuDef*%
G36*
G01*
X108050000Y-59355000D02*
X108050000Y-59655000D01*
G75*
G02*
X107900000Y-59805000I-150000J0D01*
G01*
X106550000Y-59805000D01*
G75*
G02*
X106400000Y-59655000I0J150000D01*
G01*
X106400000Y-59355000D01*
G75*
G02*
X106550000Y-59205000I150000J0D01*
G01*
X107900000Y-59205000D01*
G75*
G02*
X108050000Y-59355000I0J-150000D01*
G01*
G37*
%TD.AperFunction*%
%TD*%
D20*
%TO.P,U1,1*%
%TO.N,Net-(R2-Pad1)*%
X116000000Y-55500000D03*
%TO.P,U1,2*%
%TO.N,N/C*%
X116000000Y-57500000D03*
%TO.P,U1,3*%
%TO.N,Net-(R1-Pad2)*%
X116000000Y-59500000D03*
%TO.P,U1,4*%
%TO.N,N/C*%
X116000000Y-61500000D03*
%TO.P,U1,5*%
X116000000Y-63500000D03*
%TO.P,U1,6*%
X116000000Y-65500000D03*
%TO.P,U1,7*%
X116000000Y-67500000D03*
%TO.P,U1,8*%
%TO.N,+3V3*%
X116000000Y-69500000D03*
%TO.P,U1,15*%
%TO.N,GND*%
X131000000Y-69500000D03*
%TO.P,U1,16*%
%TO.N,Net-(R3-Pad1)*%
X131000000Y-67500000D03*
%TO.P,U1,17*%
%TO.N,N/C*%
X131000000Y-65500000D03*
%TO.P,U1,18*%
%TO.N,Net-(BOOT1-Pad2)*%
X131000000Y-63500000D03*
%TO.P,U1,19*%
%TO.N,LED_OUT_LV*%
X131000000Y-61500000D03*
%TO.P,U1,20*%
%TO.N,N/C*%
X131000000Y-59500000D03*
%TO.P,U1,21*%
%TO.N,RXD*%
X131000000Y-57500000D03*
%TO.P,U1,22*%
%TO.N,TXD*%
X131000000Y-55500000D03*
D21*
%TO.P,U1,9*%
%TO.N,N/C*%
X118500000Y-71000000D03*
%TO.P,U1,10*%
X120500000Y-71000000D03*
%TO.P,U1,11*%
X122500000Y-71000000D03*
%TO.P,U1,12*%
X124500000Y-71000000D03*
%TO.P,U1,13*%
X126500000Y-71000000D03*
%TO.P,U1,14*%
X128500000Y-71000000D03*
%TD*%
%TO.P,R5,2*%
%TO.N,LED_OUT_HV*%
%TA.AperFunction,SMDPad,CuDef*%
G36*
G01*
X111112500Y-48556250D02*
X111112500Y-47643750D01*
G75*
G02*
X111356250Y-47400000I243750J0D01*
G01*
X111843750Y-47400000D01*
G75*
G02*
X112087500Y-47643750I0J-243750D01*
G01*
X112087500Y-48556250D01*
G75*
G02*
X111843750Y-48800000I-243750J0D01*
G01*
X111356250Y-48800000D01*
G75*
G02*
X111112500Y-48556250I0J243750D01*
G01*
G37*
%TD.AperFunction*%
%TO.P,R5,1*%
%TO.N,+5V*%
%TA.AperFunction,SMDPad,CuDef*%
G36*
G01*
X109237500Y-48556250D02*
X109237500Y-47643750D01*
G75*
G02*
X109481250Y-47400000I243750J0D01*
G01*
X109968750Y-47400000D01*
G75*
G02*
X110212500Y-47643750I0J-243750D01*
G01*
X110212500Y-48556250D01*
G75*
G02*
X109968750Y-48800000I-243750J0D01*
G01*
X109481250Y-48800000D01*
G75*
G02*
X109237500Y-48556250I0J243750D01*
G01*
G37*
%TD.AperFunction*%
%TD*%
%TO.P,R4,2*%
%TO.N,LED_OUT_LV*%
%TA.AperFunction,SMDPad,CuDef*%
G36*
G01*
X114056250Y-50450000D02*
X113143750Y-50450000D01*
G75*
G02*
X112900000Y-50206250I0J243750D01*
G01*
X112900000Y-49718750D01*
G75*
G02*
X113143750Y-49475000I243750J0D01*
G01*
X114056250Y-49475000D01*
G75*
G02*
X114300000Y-49718750I0J-243750D01*
G01*
X114300000Y-50206250D01*
G75*
G02*
X114056250Y-50450000I-243750J0D01*
G01*
G37*
%TD.AperFunction*%
%TO.P,R4,1*%
%TO.N,+3V3*%
%TA.AperFunction,SMDPad,CuDef*%
G36*
G01*
X114056250Y-52325000D02*
X113143750Y-52325000D01*
G75*
G02*
X112900000Y-52081250I0J243750D01*
G01*
X112900000Y-51593750D01*
G75*
G02*
X113143750Y-51350000I243750J0D01*
G01*
X114056250Y-51350000D01*
G75*
G02*
X114300000Y-51593750I0J-243750D01*
G01*
X114300000Y-52081250D01*
G75*
G02*
X114056250Y-52325000I-243750J0D01*
G01*
G37*
%TD.AperFunction*%
%TD*%
%TO.P,R3,2*%
%TO.N,GND*%
%TA.AperFunction,SMDPad,CuDef*%
G36*
G01*
X110250000Y-57393750D02*
X110250000Y-58306250D01*
G75*
G02*
X110006250Y-58550000I-243750J0D01*
G01*
X109518750Y-58550000D01*
G75*
G02*
X109275000Y-58306250I0J243750D01*
G01*
X109275000Y-57393750D01*
G75*
G02*
X109518750Y-57150000I243750J0D01*
G01*
X110006250Y-57150000D01*
G75*
G02*
X110250000Y-57393750I0J-243750D01*
G01*
G37*
%TD.AperFunction*%
%TO.P,R3,1*%
%TO.N,Net-(R3-Pad1)*%
%TA.AperFunction,SMDPad,CuDef*%
G36*
G01*
X112125000Y-57393750D02*
X112125000Y-58306250D01*
G75*
G02*
X111881250Y-58550000I-243750J0D01*
G01*
X111393750Y-58550000D01*
G75*
G02*
X111150000Y-58306250I0J243750D01*
G01*
X111150000Y-57393750D01*
G75*
G02*
X111393750Y-57150000I243750J0D01*
G01*
X111881250Y-57150000D01*
G75*
G02*
X112125000Y-57393750I0J-243750D01*
G01*
G37*
%TD.AperFunction*%
%TD*%
%TO.P,R2,2*%
%TO.N,+3V3*%
%TA.AperFunction,SMDPad,CuDef*%
G36*
G01*
X110250000Y-53293750D02*
X110250000Y-54206250D01*
G75*
G02*
X110006250Y-54450000I-243750J0D01*
G01*
X109518750Y-54450000D01*
G75*
G02*
X109275000Y-54206250I0J243750D01*
G01*
X109275000Y-53293750D01*
G75*
G02*
X109518750Y-53050000I243750J0D01*
G01*
X110006250Y-53050000D01*
G75*
G02*
X110250000Y-53293750I0J-243750D01*
G01*
G37*
%TD.AperFunction*%
%TO.P,R2,1*%
%TO.N,Net-(R2-Pad1)*%
%TA.AperFunction,SMDPad,CuDef*%
G36*
G01*
X112125000Y-53293750D02*
X112125000Y-54206250D01*
G75*
G02*
X111881250Y-54450000I-243750J0D01*
G01*
X111393750Y-54450000D01*
G75*
G02*
X111150000Y-54206250I0J243750D01*
G01*
X111150000Y-53293750D01*
G75*
G02*
X111393750Y-53050000I243750J0D01*
G01*
X111881250Y-53050000D01*
G75*
G02*
X112125000Y-53293750I0J-243750D01*
G01*
G37*
%TD.AperFunction*%
%TD*%
%TO.P,R1,2*%
%TO.N,Net-(R1-Pad2)*%
%TA.AperFunction,SMDPad,CuDef*%
G36*
G01*
X111150000Y-56256250D02*
X111150000Y-55343750D01*
G75*
G02*
X111393750Y-55100000I243750J0D01*
G01*
X111881250Y-55100000D01*
G75*
G02*
X112125000Y-55343750I0J-243750D01*
G01*
X112125000Y-56256250D01*
G75*
G02*
X111881250Y-56500000I-243750J0D01*
G01*
X111393750Y-56500000D01*
G75*
G02*
X111150000Y-56256250I0J243750D01*
G01*
G37*
%TD.AperFunction*%
%TO.P,R1,1*%
%TO.N,+3V3*%
%TA.AperFunction,SMDPad,CuDef*%
G36*
G01*
X109275000Y-56256250D02*
X109275000Y-55343750D01*
G75*
G02*
X109518750Y-55100000I243750J0D01*
G01*
X110006250Y-55100000D01*
G75*
G02*
X110250000Y-55343750I0J-243750D01*
G01*
X110250000Y-56256250D01*
G75*
G02*
X110006250Y-56500000I-243750J0D01*
G01*
X109518750Y-56500000D01*
G75*
G02*
X109275000Y-56256250I0J243750D01*
G01*
G37*
%TD.AperFunction*%
%TD*%
D22*
%TO.P,Q1,3*%
%TO.N,LED_OUT_HV*%
X110700000Y-49900000D03*
%TO.P,Q1,2*%
%TO.N,LED_OUT_LV*%
X111650000Y-51900000D03*
%TO.P,Q1,1*%
%TO.N,+3V3*%
X109750000Y-51900000D03*
%TD*%
D23*
%TO.P,J1,4*%
%TO.N,GND*%
X103905000Y-48730000D03*
%TO.P,J1,3*%
%TO.N,RXD*%
X102635000Y-51270000D03*
%TO.P,J1,2*%
%TO.N,TXD*%
X101365000Y-48730000D03*
%TO.P,J1,1*%
%TO.N,+3V3*%
X100095000Y-51270000D03*
%TD*%
D24*
%TO.P,D1,2*%
%TO.N,GND*%
X98900000Y-57500000D03*
%TO.P,D1,1*%
%TO.N,Net-(D1-Pad1)*%
X92100000Y-57500000D03*
%TD*%
%TO.P,C3,2*%
%TO.N,GND*%
%TA.AperFunction,SMDPad,CuDef*%
G36*
G01*
X85125000Y-57675000D02*
X85125000Y-58925000D01*
G75*
G02*
X84875000Y-59175000I-250000J0D01*
G01*
X84125000Y-59175000D01*
G75*
G02*
X83875000Y-58925000I0J250000D01*
G01*
X83875000Y-57675000D01*
G75*
G02*
X84125000Y-57425000I250000J0D01*
G01*
X84875000Y-57425000D01*
G75*
G02*
X85125000Y-57675000I0J-250000D01*
G01*
G37*
%TD.AperFunction*%
%TO.P,C3,1*%
%TO.N,Net-(C2-Pad1)*%
%TA.AperFunction,SMDPad,CuDef*%
G36*
G01*
X87925000Y-57675000D02*
X87925000Y-58925000D01*
G75*
G02*
X87675000Y-59175000I-250000J0D01*
G01*
X86925000Y-59175000D01*
G75*
G02*
X86675000Y-58925000I0J250000D01*
G01*
X86675000Y-57675000D01*
G75*
G02*
X86925000Y-57425000I250000J0D01*
G01*
X87675000Y-57425000D01*
G75*
G02*
X87925000Y-57675000I0J-250000D01*
G01*
G37*
%TD.AperFunction*%
%TD*%
%TO.P,C2,2*%
%TO.N,GND*%
%TA.AperFunction,SMDPad,CuDef*%
G36*
G01*
X82100000Y-50700000D02*
X82100000Y-52300000D01*
G75*
G02*
X81850000Y-52550000I-250000J0D01*
G01*
X77750000Y-52550000D01*
G75*
G02*
X77500000Y-52300000I0J250000D01*
G01*
X77500000Y-50700000D01*
G75*
G02*
X77750000Y-50450000I250000J0D01*
G01*
X81850000Y-50450000D01*
G75*
G02*
X82100000Y-50700000I0J-250000D01*
G01*
G37*
%TD.AperFunction*%
%TO.P,C2,1*%
%TO.N,Net-(C2-Pad1)*%
%TA.AperFunction,SMDPad,CuDef*%
G36*
G01*
X90900000Y-50700000D02*
X90900000Y-52300000D01*
G75*
G02*
X90650000Y-52550000I-250000J0D01*
G01*
X86550000Y-52550000D01*
G75*
G02*
X86300000Y-52300000I0J250000D01*
G01*
X86300000Y-50700000D01*
G75*
G02*
X86550000Y-50450000I250000J0D01*
G01*
X90650000Y-50450000D01*
G75*
G02*
X90900000Y-50700000I0J-250000D01*
G01*
G37*
%TD.AperFunction*%
%TD*%
D25*
%TO.N,GND*%
X91500000Y-65500000D03*
X94500000Y-65500000D03*
X94500000Y-67500000D03*
X91500000Y-67500000D03*
X127500000Y-67500000D03*
X127500000Y-65500000D03*
X127500000Y-63500000D03*
X127500000Y-61500000D03*
X127500000Y-59500000D03*
X119500000Y-67500000D03*
X119500000Y-65500000D03*
X119500000Y-63500000D03*
X119500000Y-61500000D03*
X119500000Y-59500000D03*
X123500000Y-59500000D03*
X123500000Y-61500000D03*
X123500000Y-63500000D03*
X123500000Y-65500000D03*
X123500000Y-67500000D03*
X114000000Y-67500000D03*
X114000000Y-65500000D03*
X114000000Y-63500000D03*
X114000000Y-61500000D03*
X113000000Y-59500000D03*
X109750000Y-57750000D03*
X105250000Y-64750000D03*
X107500000Y-64750000D03*
X109750000Y-64750000D03*
X107500000Y-63500000D03*
X103500000Y-57000000D03*
X103500000Y-55750000D03*
X103500000Y-58250000D03*
X103500000Y-59500000D03*
X94250000Y-56250000D03*
X96500000Y-56250000D03*
X94250000Y-58750000D03*
X96500000Y-58750000D03*
X90000000Y-47000000D03*
X92000000Y-47000000D03*
X83000000Y-52000000D03*
X83000000Y-53000000D03*
X83000000Y-54000000D03*
X83000000Y-55000000D03*
X83000000Y-56000000D03*
X84000000Y-56000000D03*
X85000000Y-56000000D03*
X85000000Y-55000000D03*
X85000000Y-54000000D03*
X85000000Y-53000000D03*
X85000000Y-52000000D03*
X84000000Y-52000000D03*
X84000000Y-53000000D03*
X84000000Y-54000000D03*
X84000000Y-55000000D03*
X79900000Y-54100000D03*
X79900000Y-55100000D03*
X79900000Y-56100000D03*
X79900000Y-57100000D03*
X81500000Y-63500000D03*
X83000000Y-62000000D03*
X84500000Y-60500000D03*
X84500000Y-58325000D03*
X81500000Y-65500000D03*
X81500000Y-67500000D03*
X83000000Y-69500000D03*
X84500000Y-70500000D03*
X97000000Y-65500000D03*
X91500000Y-63500000D03*
X94500000Y-63500000D03*
X97000000Y-63500000D03*
%TO.N,+3V3*%
X109762500Y-55800000D03*
%TO.N,RXD*%
X128500000Y-57500000D03*
%TO.N,TXD*%
X126000000Y-56500000D03*
%TO.N,Net-(R3-Pad1)*%
X113000000Y-57500000D03*
X129000000Y-67500000D03*
%TO.N,LED_OUT_HV*%
X113250000Y-48000000D03*
%TO.N,LED_OUT_LV*%
X124701260Y-56875032D03*
X113249958Y-54746943D03*
%TO.N,Net-(D1-Pad1)*%
X91900000Y-57500000D03*
X81650002Y-57849998D03*
%TD*%
D26*
%TO.N,GND*%
X79900000Y-57100000D02*
X79900000Y-56100000D01*
X79300000Y-57700000D02*
X79900000Y-57100000D01*
D27*
X109762500Y-57850000D02*
X109762500Y-57762500D01*
X109762500Y-57762500D02*
X109750000Y-57750000D01*
D26*
X79900000Y-54100000D02*
X79900000Y-52200000D01*
X79900000Y-55100000D02*
X79900000Y-54100000D01*
X79900000Y-56100000D02*
X79900000Y-55100000D01*
X79900000Y-57100000D02*
X79900000Y-57100000D01*
X79000000Y-58000000D02*
X79300000Y-57700000D01*
X78500000Y-58000000D02*
X79000000Y-58000000D01*
X78000000Y-58500000D02*
X78000000Y-54000000D01*
D27*
%TO.N,+3V3*%
X109750000Y-55787500D02*
X109762500Y-55800000D01*
X109750000Y-51900000D02*
X109750000Y-55787500D01*
X112762500Y-51000000D02*
X113600000Y-51837500D01*
X110500000Y-51000000D02*
X112762500Y-51000000D01*
X109750000Y-51900000D02*
X109750000Y-51750000D01*
X109750000Y-51750000D02*
X110500000Y-51000000D01*
X111850000Y-64900000D02*
X112300000Y-64900000D01*
X111000000Y-61394998D02*
X111000000Y-64050000D01*
X110625010Y-56662510D02*
X110625010Y-61020008D01*
X109762500Y-55800000D02*
X110625010Y-56662510D01*
X110625010Y-61020008D02*
X111000000Y-61394998D01*
X111000000Y-64050000D02*
X111850000Y-64900000D01*
X115350000Y-68850000D02*
X116000000Y-69500000D01*
X110650000Y-68850000D02*
X107500000Y-68850000D01*
X112300000Y-68800000D02*
X112350000Y-68850000D01*
X112300000Y-64900000D02*
X112300000Y-68800000D01*
X110650000Y-68850000D02*
X112350000Y-68850000D01*
X112350000Y-68850000D02*
X115350000Y-68850000D01*
%TO.N,VIN*%
X73350000Y-51150000D02*
X73350000Y-51770130D01*
X76037500Y-48462500D02*
X73350000Y-51150000D01*
X93300000Y-48462500D02*
X76037500Y-48462500D01*
X68269990Y-51770130D02*
X73350000Y-51770130D01*
%TO.N,RXD*%
X128500000Y-57500000D02*
X131000000Y-57500000D01*
%TO.N,TXD*%
X127000000Y-55500000D02*
X131000000Y-55500000D01*
X126000000Y-56500000D02*
X127000000Y-55500000D01*
%TO.N,Net-(R1-Pad2)*%
X114000000Y-56871811D02*
X114000000Y-58850000D01*
X111637500Y-55800000D02*
X112123027Y-56285527D01*
X113413716Y-56285527D02*
X114000000Y-56871811D01*
X112123027Y-56285527D02*
X113413716Y-56285527D01*
X114650000Y-59500000D02*
X116000000Y-59500000D01*
X114000000Y-58850000D02*
X114650000Y-59500000D01*
%TO.N,Net-(R2-Pad1)*%
X112474956Y-54587456D02*
X112474956Y-55118945D01*
X112877956Y-55521945D02*
X115978055Y-55521945D01*
X112474956Y-55118945D02*
X112877956Y-55521945D01*
X115978055Y-55521945D02*
X116000000Y-55500000D01*
X111637500Y-53750000D02*
X112474956Y-54587456D01*
%TO.N,Net-(R3-Pad1)*%
X111637500Y-57850000D02*
X112650000Y-57850000D01*
X112650000Y-57850000D02*
X113000000Y-57500000D01*
X129000000Y-67500000D02*
X131000000Y-67500000D01*
%TO.N,+5V*%
X105220000Y-62550000D02*
X107450000Y-62550000D01*
X109725000Y-60275000D02*
X109725000Y-59900000D01*
X108700000Y-57615000D02*
X108700000Y-58875000D01*
X108700000Y-57615000D02*
X108700000Y-49125000D01*
X108700000Y-49125000D02*
X109725000Y-48100000D01*
X107450000Y-62550000D02*
X109725000Y-60275000D01*
X108700000Y-58875000D02*
X109725000Y-59900000D01*
X108700000Y-56965000D02*
X108700000Y-57615000D01*
X107225000Y-56965000D02*
X108700000Y-56965000D01*
X87950000Y-66300000D02*
X87950000Y-65700000D01*
X87950000Y-68750000D02*
X87950000Y-66300000D01*
X89200000Y-70000000D02*
X87950000Y-68750000D01*
X99000000Y-70000000D02*
X89200000Y-70000000D01*
X100750000Y-68250000D02*
X99000000Y-70000000D01*
X100750000Y-64050000D02*
X100750000Y-68250000D01*
X102250000Y-62550000D02*
X100750000Y-64050000D01*
X105220000Y-62550000D02*
X102250000Y-62550000D01*
%TO.N,LED_OUT_HV*%
X110700000Y-49000000D02*
X111600000Y-48100000D01*
X110700000Y-49900000D02*
X110700000Y-49000000D01*
X111700000Y-48000000D02*
X111600000Y-48100000D01*
X113250000Y-48000000D02*
X111700000Y-48000000D01*
%TO.N,LED_OUT_LV*%
X114531250Y-49962500D02*
X113600000Y-49962500D01*
X112750000Y-53000000D02*
X114500000Y-53000000D01*
X111650000Y-51900000D02*
X112750000Y-53000000D01*
X115000000Y-50431250D02*
X114531250Y-49962500D01*
X114500000Y-53000000D02*
X115000000Y-52500000D01*
X115000000Y-52500000D02*
X115000000Y-50431250D01*
D28*
X129286501Y-59586501D02*
X126975031Y-57275031D01*
X125101259Y-57275031D02*
X124701260Y-56875032D01*
X126975031Y-57275031D02*
X125101259Y-57275031D01*
X129286501Y-61036501D02*
X129286501Y-59586501D01*
X131000000Y-61500000D02*
X129750000Y-61500000D01*
X129750000Y-61500000D02*
X129286501Y-61036501D01*
X112750000Y-53000000D02*
X113249958Y-53499958D01*
X113249958Y-53499958D02*
X113249958Y-54746943D01*
D27*
%TO.N,Net-(D1-Pad1)*%
X81650002Y-58415683D02*
X81650002Y-57849998D01*
X81584317Y-58415683D02*
X81650002Y-58415683D01*
X78050000Y-61950000D02*
X81584317Y-58415683D01*
X78050000Y-65700000D02*
X78050000Y-61950000D01*
X104735000Y-58235000D02*
X107225000Y-58235000D01*
X104500000Y-58000000D02*
X104735000Y-58235000D01*
X104500000Y-55000000D02*
X104500000Y-58000000D01*
X94000000Y-54500000D02*
X104000000Y-54500000D01*
X104000000Y-54500000D02*
X104500000Y-55000000D01*
X91900000Y-56600000D02*
X94000000Y-54500000D01*
X91900000Y-57500000D02*
X91900000Y-56600000D01*
D26*
%TO.N,GNDPWR*%
X74000000Y-57220016D02*
X74910008Y-56310008D01*
X74000000Y-59000000D02*
X74000000Y-57220016D01*
X74000000Y-61000000D02*
X74943999Y-60056001D01*
X74943999Y-56343999D02*
X74910008Y-56310008D01*
X74943999Y-60056001D02*
X74943999Y-56343999D01*
X74000000Y-59000000D02*
X74000000Y-61000000D01*
X74910008Y-56310008D02*
X74910008Y-62410008D01*
D27*
%TO.N,Net-(BOOT1-Pad2)*%
X132350000Y-63500000D02*
X131000000Y-63500000D01*
X132500000Y-63650000D02*
X132350000Y-63500000D01*
X114154998Y-69930000D02*
X116724998Y-72500000D01*
X132000000Y-72500000D02*
X132500000Y-72000000D01*
X112900000Y-69930000D02*
X114154998Y-69930000D01*
X116724998Y-72500000D02*
X132000000Y-72500000D01*
X132500000Y-72000000D02*
X132500000Y-63650000D01*
%TO.N,Net-(C2-Pad1)*%
X88700000Y-58300000D02*
X87300000Y-58300000D01*
X106230000Y-60500000D02*
X107225000Y-59505000D01*
X90900000Y-60500000D02*
X106230000Y-60500000D01*
X88700000Y-58300000D02*
X90900000Y-60500000D01*
X89837500Y-52737500D02*
X88600000Y-51500000D01*
X93300000Y-52737500D02*
X89837500Y-52737500D01*
X88600000Y-58200000D02*
X88700000Y-58300000D01*
X88600000Y-51500000D02*
X88600000Y-58200000D01*
%TD*%
D29*
%TO.N,GND*%
X111765000Y-69818212D02*
X111765000Y-70041788D01*
X111808617Y-70261067D01*
X111894176Y-70467624D01*
X112018388Y-70653520D01*
X112176480Y-70811612D01*
X112362376Y-70935824D01*
X112568933Y-71021383D01*
X112788212Y-71065000D01*
X113011788Y-71065000D01*
X113231067Y-71021383D01*
X113437624Y-70935824D01*
X113623520Y-70811612D01*
X113695132Y-70740000D01*
X113819486Y-70740000D01*
X115419485Y-72340000D01*
X110965010Y-72340000D01*
X110989502Y-72294180D01*
X111025812Y-72174482D01*
X111038072Y-72050000D01*
X111038072Y-69660000D01*
X111796470Y-69660000D01*
X111765000Y-69818212D01*
%TA.AperFunction,Conductor*%
D30*
G36*
X111765000Y-69818212D02*
G01*
X111765000Y-70041788D01*
X111808617Y-70261067D01*
X111894176Y-70467624D01*
X112018388Y-70653520D01*
X112176480Y-70811612D01*
X112362376Y-70935824D01*
X112568933Y-71021383D01*
X112788212Y-71065000D01*
X113011788Y-71065000D01*
X113231067Y-71021383D01*
X113437624Y-70935824D01*
X113623520Y-70811612D01*
X113695132Y-70740000D01*
X113819486Y-70740000D01*
X115419485Y-72340000D01*
X110965010Y-72340000D01*
X110989502Y-72294180D01*
X111025812Y-72174482D01*
X111038072Y-72050000D01*
X111038072Y-69660000D01*
X111796470Y-69660000D01*
X111765000Y-69818212D01*
G37*
%TD.AperFunction*%
D29*
X115373000Y-49658738D02*
X115132150Y-49417888D01*
X115106778Y-49386972D01*
X114983439Y-49285751D01*
X114842723Y-49210537D01*
X114751806Y-49182957D01*
X114679792Y-49095208D01*
X114546164Y-48985542D01*
X114393709Y-48904053D01*
X114228285Y-48853872D01*
X114056250Y-48836928D01*
X113860399Y-48836928D01*
X113909774Y-48803937D01*
X114053937Y-48659774D01*
X114167205Y-48490256D01*
X114245226Y-48301898D01*
X114285000Y-48101939D01*
X114285000Y-47898061D01*
X114245226Y-47698102D01*
X114167205Y-47509744D01*
X114053937Y-47340226D01*
X113909774Y-47196063D01*
X113740256Y-47082795D01*
X113551898Y-47004774D01*
X113351939Y-46965000D01*
X113148061Y-46965000D01*
X112948102Y-47004774D01*
X112759744Y-47082795D01*
X112599300Y-47190000D01*
X112596288Y-47190000D01*
X112576958Y-47153836D01*
X112467292Y-47020208D01*
X112333664Y-46910542D01*
X112181209Y-46829053D01*
X112015785Y-46778872D01*
X111843750Y-46761928D01*
X111356250Y-46761928D01*
X111184215Y-46778872D01*
X111018791Y-46829053D01*
X110866336Y-46910542D01*
X110732708Y-47020208D01*
X110662500Y-47105756D01*
X110592292Y-47020208D01*
X110458664Y-46910542D01*
X110306209Y-46829053D01*
X110140785Y-46778872D01*
X109968750Y-46761928D01*
X109481250Y-46761928D01*
X109309215Y-46778872D01*
X109143791Y-46829053D01*
X108991336Y-46910542D01*
X108857708Y-47020208D01*
X108748042Y-47153836D01*
X108666553Y-47306291D01*
X108616372Y-47471715D01*
X108599428Y-47643750D01*
X108599428Y-48080060D01*
X108155383Y-48524105D01*
X108124473Y-48549472D01*
X108099108Y-48580380D01*
X108023251Y-48672811D01*
X107967696Y-48776749D01*
X107948038Y-48813527D01*
X107907169Y-48948255D01*
X107901721Y-48966213D01*
X107886081Y-49125000D01*
X107890001Y-49164798D01*
X107890000Y-54756928D01*
X106550000Y-54756928D01*
X106396255Y-54772071D01*
X106248418Y-54816916D01*
X106112171Y-54889742D01*
X105992749Y-54987749D01*
X105894742Y-55107171D01*
X105821916Y-55243418D01*
X105777071Y-55391255D01*
X105761928Y-55545000D01*
X105761928Y-55845000D01*
X105777071Y-55998745D01*
X105821916Y-56146582D01*
X105894742Y-56282829D01*
X105933454Y-56330000D01*
X105894742Y-56377171D01*
X105821916Y-56513418D01*
X105777071Y-56661255D01*
X105761928Y-56815000D01*
X105761928Y-57115000D01*
X105777071Y-57268745D01*
X105821916Y-57416582D01*
X105826416Y-57425000D01*
X105310000Y-57425000D01*
X105310000Y-55039788D01*
X105313919Y-55000000D01*
X105309210Y-54952189D01*
X105298280Y-54841212D01*
X105251963Y-54688527D01*
X105176749Y-54547811D01*
X105075528Y-54424472D01*
X105044614Y-54399102D01*
X104600900Y-53955388D01*
X104575528Y-53924472D01*
X104452189Y-53823251D01*
X104311473Y-53748037D01*
X104158788Y-53701720D01*
X104039791Y-53690000D01*
X104039788Y-53690000D01*
X104000000Y-53686081D01*
X103960212Y-53690000D01*
X95363294Y-53690000D01*
X95377962Y-53677962D01*
X95488405Y-53543387D01*
X95570472Y-53389851D01*
X95621008Y-53223255D01*
X95638072Y-53050001D01*
X95638072Y-52424999D01*
X95621008Y-52251745D01*
X95570472Y-52085149D01*
X95488405Y-51931613D01*
X95377962Y-51797038D01*
X95243387Y-51686595D01*
X95089851Y-51604528D01*
X94923255Y-51553992D01*
X94750001Y-51536928D01*
X91849999Y-51536928D01*
X91676745Y-51553992D01*
X91538072Y-51596058D01*
X91538072Y-50700000D01*
X91521008Y-50526746D01*
X91470472Y-50360150D01*
X91388405Y-50206614D01*
X91277962Y-50072038D01*
X91143386Y-49961595D01*
X90989850Y-49879528D01*
X90823254Y-49828992D01*
X90650000Y-49811928D01*
X86550000Y-49811928D01*
X86376746Y-49828992D01*
X86210150Y-49879528D01*
X86056614Y-49961595D01*
X85922038Y-50072038D01*
X85811595Y-50206614D01*
X85729528Y-50360150D01*
X85678992Y-50526746D01*
X85661928Y-50700000D01*
X85661928Y-52300000D01*
X85678992Y-52473254D01*
X85729528Y-52639850D01*
X85811595Y-52793386D01*
X85922038Y-52927962D01*
X86056614Y-53038405D01*
X86210150Y-53120472D01*
X86376746Y-53171008D01*
X86550000Y-53188072D01*
X87790000Y-53188072D01*
X87790001Y-56798255D01*
X87675000Y-56786928D01*
X86925000Y-56786928D01*
X86751746Y-56803992D01*
X86585150Y-56854528D01*
X86431614Y-56936595D01*
X86297038Y-57047038D01*
X86186595Y-57181614D01*
X86104528Y-57335150D01*
X86053992Y-57501746D01*
X86036928Y-57675000D01*
X86036928Y-58925000D01*
X86053992Y-59098254D01*
X86104528Y-59264850D01*
X86186595Y-59418386D01*
X86297038Y-59552962D01*
X86431614Y-59663405D01*
X86585150Y-59745472D01*
X86751746Y-59796008D01*
X86925000Y-59813072D01*
X87675000Y-59813072D01*
X87848254Y-59796008D01*
X88014850Y-59745472D01*
X88168386Y-59663405D01*
X88302962Y-59552962D01*
X88413405Y-59418386D01*
X88495472Y-59264850D01*
X88501027Y-59246539D01*
X90299105Y-61044618D01*
X90324472Y-61075528D01*
X90355380Y-61100893D01*
X90447810Y-61176749D01*
X90523024Y-61216951D01*
X90588527Y-61251963D01*
X90741212Y-61298280D01*
X90860209Y-61310000D01*
X90860212Y-61310000D01*
X90900000Y-61313919D01*
X90939788Y-61310000D01*
X103998895Y-61310000D01*
X103994188Y-61325518D01*
X103981928Y-61450000D01*
X103981928Y-61740000D01*
X102289787Y-61740000D01*
X102249999Y-61736081D01*
X102210211Y-61740000D01*
X102210209Y-61740000D01*
X102091212Y-61751720D01*
X101938527Y-61798037D01*
X101900640Y-61818288D01*
X101797810Y-61873251D01*
X101752777Y-61910209D01*
X101674472Y-61974472D01*
X101649107Y-62005380D01*
X100205387Y-63449101D01*
X100174472Y-63474472D01*
X100104703Y-63559487D01*
X100073251Y-63597811D01*
X100045356Y-63650000D01*
X99998037Y-63738528D01*
X99951720Y-63891213D01*
X99940563Y-64004494D01*
X99936081Y-64050000D01*
X99940000Y-64089788D01*
X99940000Y-65315365D01*
X99835241Y-65385363D01*
X99635363Y-65585241D01*
X99478320Y-65820273D01*
X99370147Y-66081426D01*
X99315000Y-66358665D01*
X99315000Y-66641335D01*
X99370147Y-66918574D01*
X99478320Y-67179727D01*
X99635363Y-67414759D01*
X99835241Y-67614637D01*
X99940001Y-67684635D01*
X99940001Y-67914486D01*
X98664488Y-69190000D01*
X90505937Y-69190000D01*
X90525812Y-69124482D01*
X90538072Y-69000000D01*
X90538072Y-63600000D01*
X90525812Y-63475518D01*
X90489502Y-63355820D01*
X90430537Y-63245506D01*
X90351185Y-63148815D01*
X90254494Y-63069463D01*
X90144180Y-63010498D01*
X90024482Y-62974188D01*
X89900000Y-62961928D01*
X87000000Y-62961928D01*
X86875518Y-62974188D01*
X86755820Y-63010498D01*
X86645506Y-63069463D01*
X86548815Y-63148815D01*
X86469463Y-63245506D01*
X86410498Y-63355820D01*
X86374188Y-63475518D01*
X86361928Y-63600000D01*
X86361928Y-69000000D01*
X86374188Y-69124482D01*
X86410498Y-69244180D01*
X86469463Y-69354494D01*
X86548815Y-69451185D01*
X86645506Y-69530537D01*
X86755820Y-69589502D01*
X86875518Y-69625812D01*
X87000000Y-69638072D01*
X87692560Y-69638072D01*
X88599105Y-70544618D01*
X88624472Y-70575528D01*
X88655380Y-70600893D01*
X88747810Y-70676749D01*
X88771670Y-70689502D01*
X88888527Y-70751963D01*
X89041212Y-70798280D01*
X89160209Y-70810000D01*
X89160212Y-70810000D01*
X89200000Y-70813919D01*
X89239788Y-70810000D01*
X98960212Y-70810000D01*
X99000000Y-70813919D01*
X99039788Y-70810000D01*
X99039791Y-70810000D01*
X99158788Y-70798280D01*
X99311473Y-70751963D01*
X99452189Y-70676749D01*
X99575528Y-70575528D01*
X99600899Y-70544613D01*
X101294618Y-68850895D01*
X101325528Y-68825528D01*
X101426749Y-68702189D01*
X101501963Y-68561473D01*
X101548280Y-68408788D01*
X101560000Y-68289791D01*
X101560000Y-68289788D01*
X101563919Y-68250000D01*
X101560000Y-68210212D01*
X101560000Y-67684635D01*
X101664759Y-67614637D01*
X101864637Y-67414759D01*
X102021680Y-67179727D01*
X102129853Y-66918574D01*
X102185000Y-66641335D01*
X102185000Y-66358665D01*
X102129853Y-66081426D01*
X102021680Y-65820273D01*
X101864637Y-65585241D01*
X101664759Y-65385363D01*
X101560000Y-65315365D01*
X101560000Y-64385512D01*
X102585513Y-63360000D01*
X103981928Y-63360000D01*
X103981928Y-63650000D01*
X103994188Y-63774482D01*
X104030498Y-63894180D01*
X104089463Y-64004494D01*
X104168815Y-64101185D01*
X104265506Y-64180537D01*
X104375820Y-64239502D01*
X104495518Y-64275812D01*
X104620000Y-64288072D01*
X105820000Y-64288072D01*
X105944482Y-64275812D01*
X106064180Y-64239502D01*
X106174494Y-64180537D01*
X106271185Y-64101185D01*
X106350537Y-64004494D01*
X106409502Y-63894180D01*
X106445812Y-63774482D01*
X106458072Y-63650000D01*
X106458072Y-63360000D01*
X107410212Y-63360000D01*
X107450000Y-63363919D01*
X107489788Y-63360000D01*
X107489791Y-63360000D01*
X107608788Y-63348280D01*
X107761473Y-63301963D01*
X107902189Y-63226749D01*
X108025528Y-63125528D01*
X108050899Y-63094613D01*
X109859312Y-61286201D01*
X109866532Y-61310000D01*
X109873048Y-61331481D01*
X109948261Y-61472197D01*
X109971079Y-61500000D01*
X110049483Y-61595536D01*
X110080393Y-61620903D01*
X110190000Y-61730510D01*
X110190001Y-64010202D01*
X110186081Y-64050000D01*
X110199393Y-64185150D01*
X110201721Y-64208788D01*
X110242792Y-64344180D01*
X110248038Y-64361473D01*
X110323251Y-64502189D01*
X110378852Y-64569939D01*
X110424473Y-64625528D01*
X110455383Y-64650895D01*
X110786928Y-64982440D01*
X110786928Y-65146081D01*
X110754494Y-65119463D01*
X110644180Y-65060498D01*
X110524482Y-65024188D01*
X110400000Y-65011928D01*
X104600000Y-65011928D01*
X104475518Y-65024188D01*
X104355820Y-65060498D01*
X104245506Y-65119463D01*
X104148815Y-65198815D01*
X104069463Y-65295506D01*
X104010498Y-65405820D01*
X103974188Y-65525518D01*
X103961928Y-65650000D01*
X103961928Y-72050000D01*
X103974188Y-72174482D01*
X104010498Y-72294180D01*
X104034990Y-72340000D01*
X77127000Y-72340000D01*
X77127000Y-69638072D01*
X80000000Y-69638072D01*
X80124482Y-69625812D01*
X80244180Y-69589502D01*
X80354494Y-69530537D01*
X80451185Y-69451185D01*
X80530537Y-69354494D01*
X80589502Y-69244180D01*
X80625812Y-69124482D01*
X80638072Y-69000000D01*
X80638072Y-63600000D01*
X80625812Y-63475518D01*
X80589502Y-63355820D01*
X80530537Y-63245506D01*
X80451185Y-63148815D01*
X80354494Y-63069463D01*
X80244180Y-63010498D01*
X80124482Y-62974188D01*
X80000000Y-62961928D01*
X78860000Y-62961928D01*
X78860000Y-62285512D01*
X81996689Y-59148824D01*
X82102191Y-59092432D01*
X82225530Y-58991211D01*
X82326751Y-58867872D01*
X82401965Y-58727156D01*
X82448282Y-58574471D01*
X82454778Y-58508517D01*
X82567207Y-58340254D01*
X82645228Y-58151896D01*
X82685002Y-57951937D01*
X82685002Y-57748059D01*
X82645228Y-57548100D01*
X82567207Y-57359742D01*
X82453939Y-57190224D01*
X82309776Y-57046061D01*
X82140258Y-56932793D01*
X81951900Y-56854772D01*
X81751941Y-56814998D01*
X81548063Y-56814998D01*
X81348104Y-56854772D01*
X81159746Y-56932793D01*
X80990228Y-57046061D01*
X80846065Y-57190224D01*
X80732797Y-57359742D01*
X80654776Y-57548100D01*
X80615002Y-57748059D01*
X80615002Y-57951937D01*
X80654776Y-58151896D01*
X80668781Y-58185706D01*
X77505383Y-61349105D01*
X77474473Y-61374472D01*
X77449108Y-61405380D01*
X77373251Y-61497811D01*
X77298038Y-61638527D01*
X77251721Y-61791213D01*
X77236081Y-61950000D01*
X77240001Y-61989798D01*
X77240001Y-62961928D01*
X77127000Y-62961928D01*
X77127000Y-59885000D01*
X78000000Y-59885000D01*
X78059505Y-59879166D01*
X78118987Y-59873752D01*
X78121118Y-59873125D01*
X78123339Y-59872907D01*
X78180621Y-59855612D01*
X78237875Y-59838762D01*
X78239847Y-59837731D01*
X78241980Y-59837087D01*
X78294781Y-59809012D01*
X78347703Y-59781345D01*
X78349437Y-59779951D01*
X78351404Y-59778905D01*
X78397737Y-59741117D01*
X78444286Y-59703690D01*
X78445717Y-59701985D01*
X78447443Y-59700577D01*
X78485539Y-59654527D01*
X78523947Y-59608754D01*
X78525020Y-59606802D01*
X78526439Y-59605087D01*
X78554851Y-59552539D01*
X78583651Y-59500153D01*
X78584325Y-59498029D01*
X78585383Y-59496072D01*
X78603034Y-59439050D01*
X78621124Y-59382024D01*
X78621373Y-59379808D01*
X78622030Y-59377684D01*
X78628276Y-59318257D01*
X78634938Y-59258866D01*
X78634968Y-59254596D01*
X78634985Y-59254433D01*
X78634970Y-59254270D01*
X78635000Y-59250000D01*
X78635000Y-57250000D01*
X78629166Y-57190495D01*
X78623752Y-57131013D01*
X78623125Y-57128882D01*
X78622907Y-57126661D01*
X78605612Y-57069379D01*
X78588762Y-57012125D01*
X78587731Y-57010153D01*
X78587087Y-57008020D01*
X78559012Y-56955219D01*
X78531345Y-56902297D01*
X78529951Y-56900563D01*
X78528905Y-56898596D01*
X78491117Y-56852263D01*
X78453690Y-56805714D01*
X78451985Y-56804283D01*
X78450577Y-56802557D01*
X78404527Y-56764461D01*
X78358754Y-56726053D01*
X78356802Y-56724980D01*
X78355087Y-56723561D01*
X78302539Y-56695149D01*
X78250153Y-56666349D01*
X78248029Y-56665675D01*
X78246072Y-56664617D01*
X78189050Y-56646966D01*
X78132024Y-56628876D01*
X78129808Y-56628627D01*
X78127684Y-56627970D01*
X78068257Y-56621724D01*
X78008866Y-56615062D01*
X78004596Y-56615032D01*
X78004433Y-56615015D01*
X78004270Y-56615030D01*
X78000000Y-56615000D01*
X77127000Y-56615000D01*
X77127000Y-49272500D01*
X91114970Y-49272500D01*
X91222038Y-49402962D01*
X91356613Y-49513405D01*
X91510149Y-49595472D01*
X91676745Y-49646008D01*
X91849999Y-49663072D01*
X94750001Y-49663072D01*
X94923255Y-49646008D01*
X95089851Y-49595472D01*
X95243387Y-49513405D01*
X95377962Y-49402962D01*
X95488405Y-49268387D01*
X95570472Y-49114851D01*
X95621008Y-48948255D01*
X95638072Y-48775001D01*
X95638072Y-48544344D01*
X96880000Y-48544344D01*
X96880000Y-48915656D01*
X96952439Y-49279834D01*
X97094534Y-49622882D01*
X97300825Y-49931618D01*
X97563382Y-50194175D01*
X97872118Y-50400466D01*
X98215166Y-50542561D01*
X98579344Y-50615000D01*
X98731898Y-50615000D01*
X98643029Y-50829549D01*
X98585000Y-51121278D01*
X98585000Y-51418722D01*
X98643029Y-51710451D01*
X98756856Y-51985253D01*
X98922107Y-52232569D01*
X99132431Y-52442893D01*
X99379747Y-52608144D01*
X99654549Y-52721971D01*
X99946278Y-52780000D01*
X100243722Y-52780000D01*
X100535451Y-52721971D01*
X100810253Y-52608144D01*
X101057569Y-52442893D01*
X101267893Y-52232569D01*
X101365000Y-52087238D01*
X101462107Y-52232569D01*
X101672431Y-52442893D01*
X101919747Y-52608144D01*
X102194549Y-52721971D01*
X102486278Y-52780000D01*
X102783722Y-52780000D01*
X103075451Y-52721971D01*
X103350253Y-52608144D01*
X103597569Y-52442893D01*
X103807893Y-52232569D01*
X103829764Y-52199836D01*
X103926175Y-52344125D01*
X104160875Y-52578825D01*
X104436853Y-52763228D01*
X104743504Y-52890246D01*
X105069042Y-52955000D01*
X105400958Y-52955000D01*
X105726496Y-52890246D01*
X106033147Y-52763228D01*
X106309125Y-52578825D01*
X106543825Y-52344125D01*
X106728228Y-52068147D01*
X106855246Y-51761496D01*
X106920000Y-51435958D01*
X106920000Y-51104042D01*
X106855246Y-50778504D01*
X106728228Y-50471853D01*
X106543825Y-50195875D01*
X106309125Y-49961175D01*
X106033147Y-49776772D01*
X105726496Y-49649754D01*
X105400958Y-49585000D01*
X105069042Y-49585000D01*
X104743504Y-49649754D01*
X104436853Y-49776772D01*
X104160875Y-49961175D01*
X103926175Y-50195875D01*
X103829764Y-50340164D01*
X103807893Y-50307431D01*
X103597569Y-50097107D01*
X103350253Y-49931856D01*
X103075451Y-49818029D01*
X102783722Y-49760000D01*
X102486278Y-49760000D01*
X102466535Y-49763927D01*
X102537893Y-49692569D01*
X102703144Y-49445253D01*
X102816971Y-49170451D01*
X102875000Y-48878722D01*
X102875000Y-48581278D01*
X102816971Y-48289549D01*
X102703144Y-48014747D01*
X102537893Y-47767431D01*
X102327569Y-47557107D01*
X102080253Y-47391856D01*
X101805451Y-47278029D01*
X101513722Y-47220000D01*
X101216278Y-47220000D01*
X100924549Y-47278029D01*
X100649747Y-47391856D01*
X100402431Y-47557107D01*
X100310077Y-47649461D01*
X100229175Y-47528382D01*
X99966618Y-47265825D01*
X99657882Y-47059534D01*
X99314834Y-46917439D01*
X98950656Y-46845000D01*
X98579344Y-46845000D01*
X98215166Y-46917439D01*
X97872118Y-47059534D01*
X97563382Y-47265825D01*
X97300825Y-47528382D01*
X97094534Y-47837118D01*
X96952439Y-48180166D01*
X96880000Y-48544344D01*
X95638072Y-48544344D01*
X95638072Y-48149999D01*
X95621008Y-47976745D01*
X95570472Y-47810149D01*
X95488405Y-47656613D01*
X95377962Y-47522038D01*
X95243387Y-47411595D01*
X95089851Y-47329528D01*
X94923255Y-47278992D01*
X94750001Y-47261928D01*
X91849999Y-47261928D01*
X91676745Y-47278992D01*
X91510149Y-47329528D01*
X91356613Y-47411595D01*
X91222038Y-47522038D01*
X91114970Y-47652500D01*
X77127000Y-47652500D01*
X77127000Y-46660000D01*
X115373000Y-46660000D01*
X115373000Y-49658738D01*
%TA.AperFunction,Conductor*%
D30*
G36*
X115373000Y-49658738D02*
G01*
X115132150Y-49417888D01*
X115106778Y-49386972D01*
X114983439Y-49285751D01*
X114842723Y-49210537D01*
X114751806Y-49182957D01*
X114679792Y-49095208D01*
X114546164Y-48985542D01*
X114393709Y-48904053D01*
X114228285Y-48853872D01*
X114056250Y-48836928D01*
X113860399Y-48836928D01*
X113909774Y-48803937D01*
X114053937Y-48659774D01*
X114167205Y-48490256D01*
X114245226Y-48301898D01*
X114285000Y-48101939D01*
X114285000Y-47898061D01*
X114245226Y-47698102D01*
X114167205Y-47509744D01*
X114053937Y-47340226D01*
X113909774Y-47196063D01*
X113740256Y-47082795D01*
X113551898Y-47004774D01*
X113351939Y-46965000D01*
X113148061Y-46965000D01*
X112948102Y-47004774D01*
X112759744Y-47082795D01*
X112599300Y-47190000D01*
X112596288Y-47190000D01*
X112576958Y-47153836D01*
X112467292Y-47020208D01*
X112333664Y-46910542D01*
X112181209Y-46829053D01*
X112015785Y-46778872D01*
X111843750Y-46761928D01*
X111356250Y-46761928D01*
X111184215Y-46778872D01*
X111018791Y-46829053D01*
X110866336Y-46910542D01*
X110732708Y-47020208D01*
X110662500Y-47105756D01*
X110592292Y-47020208D01*
X110458664Y-46910542D01*
X110306209Y-46829053D01*
X110140785Y-46778872D01*
X109968750Y-46761928D01*
X109481250Y-46761928D01*
X109309215Y-46778872D01*
X109143791Y-46829053D01*
X108991336Y-46910542D01*
X108857708Y-47020208D01*
X108748042Y-47153836D01*
X108666553Y-47306291D01*
X108616372Y-47471715D01*
X108599428Y-47643750D01*
X108599428Y-48080060D01*
X108155383Y-48524105D01*
X108124473Y-48549472D01*
X108099108Y-48580380D01*
X108023251Y-48672811D01*
X107967696Y-48776749D01*
X107948038Y-48813527D01*
X107907169Y-48948255D01*
X107901721Y-48966213D01*
X107886081Y-49125000D01*
X107890001Y-49164798D01*
X107890000Y-54756928D01*
X106550000Y-54756928D01*
X106396255Y-54772071D01*
X106248418Y-54816916D01*
X106112171Y-54889742D01*
X105992749Y-54987749D01*
X105894742Y-55107171D01*
X105821916Y-55243418D01*
X105777071Y-55391255D01*
X105761928Y-55545000D01*
X105761928Y-55845000D01*
X105777071Y-55998745D01*
X105821916Y-56146582D01*
X105894742Y-56282829D01*
X105933454Y-56330000D01*
X105894742Y-56377171D01*
X105821916Y-56513418D01*
X105777071Y-56661255D01*
X105761928Y-56815000D01*
X105761928Y-57115000D01*
X105777071Y-57268745D01*
X105821916Y-57416582D01*
X105826416Y-57425000D01*
X105310000Y-57425000D01*
X105310000Y-55039788D01*
X105313919Y-55000000D01*
X105309210Y-54952189D01*
X105298280Y-54841212D01*
X105251963Y-54688527D01*
X105176749Y-54547811D01*
X105075528Y-54424472D01*
X105044614Y-54399102D01*
X104600900Y-53955388D01*
X104575528Y-53924472D01*
X104452189Y-53823251D01*
X104311473Y-53748037D01*
X104158788Y-53701720D01*
X104039791Y-53690000D01*
X104039788Y-53690000D01*
X104000000Y-53686081D01*
X103960212Y-53690000D01*
X95363294Y-53690000D01*
X95377962Y-53677962D01*
X95488405Y-53543387D01*
X95570472Y-53389851D01*
X95621008Y-53223255D01*
X95638072Y-53050001D01*
X95638072Y-52424999D01*
X95621008Y-52251745D01*
X95570472Y-52085149D01*
X95488405Y-51931613D01*
X95377962Y-51797038D01*
X95243387Y-51686595D01*
X95089851Y-51604528D01*
X94923255Y-51553992D01*
X94750001Y-51536928D01*
X91849999Y-51536928D01*
X91676745Y-51553992D01*
X91538072Y-51596058D01*
X91538072Y-50700000D01*
X91521008Y-50526746D01*
X91470472Y-50360150D01*
X91388405Y-50206614D01*
X91277962Y-50072038D01*
X91143386Y-49961595D01*
X90989850Y-49879528D01*
X90823254Y-49828992D01*
X90650000Y-49811928D01*
X86550000Y-49811928D01*
X86376746Y-49828992D01*
X86210150Y-49879528D01*
X86056614Y-49961595D01*
X85922038Y-50072038D01*
X85811595Y-50206614D01*
X85729528Y-50360150D01*
X85678992Y-50526746D01*
X85661928Y-50700000D01*
X85661928Y-52300000D01*
X85678992Y-52473254D01*
X85729528Y-52639850D01*
X85811595Y-52793386D01*
X85922038Y-52927962D01*
X86056614Y-53038405D01*
X86210150Y-53120472D01*
X86376746Y-53171008D01*
X86550000Y-53188072D01*
X87790000Y-53188072D01*
X87790001Y-56798255D01*
X87675000Y-56786928D01*
X86925000Y-56786928D01*
X86751746Y-56803992D01*
X86585150Y-56854528D01*
X86431614Y-56936595D01*
X86297038Y-57047038D01*
X86186595Y-57181614D01*
X86104528Y-57335150D01*
X86053992Y-57501746D01*
X86036928Y-57675000D01*
X86036928Y-58925000D01*
X86053992Y-59098254D01*
X86104528Y-59264850D01*
X86186595Y-59418386D01*
X86297038Y-59552962D01*
X86431614Y-59663405D01*
X86585150Y-59745472D01*
X86751746Y-59796008D01*
X86925000Y-59813072D01*
X87675000Y-59813072D01*
X87848254Y-59796008D01*
X88014850Y-59745472D01*
X88168386Y-59663405D01*
X88302962Y-59552962D01*
X88413405Y-59418386D01*
X88495472Y-59264850D01*
X88501027Y-59246539D01*
X90299105Y-61044618D01*
X90324472Y-61075528D01*
X90355380Y-61100893D01*
X90447810Y-61176749D01*
X90523024Y-61216951D01*
X90588527Y-61251963D01*
X90741212Y-61298280D01*
X90860209Y-61310000D01*
X90860212Y-61310000D01*
X90900000Y-61313919D01*
X90939788Y-61310000D01*
X103998895Y-61310000D01*
X103994188Y-61325518D01*
X103981928Y-61450000D01*
X103981928Y-61740000D01*
X102289787Y-61740000D01*
X102249999Y-61736081D01*
X102210211Y-61740000D01*
X102210209Y-61740000D01*
X102091212Y-61751720D01*
X101938527Y-61798037D01*
X101900640Y-61818288D01*
X101797810Y-61873251D01*
X101752777Y-61910209D01*
X101674472Y-61974472D01*
X101649107Y-62005380D01*
X100205387Y-63449101D01*
X100174472Y-63474472D01*
X100104703Y-63559487D01*
X100073251Y-63597811D01*
X100045356Y-63650000D01*
X99998037Y-63738528D01*
X99951720Y-63891213D01*
X99940563Y-64004494D01*
X99936081Y-64050000D01*
X99940000Y-64089788D01*
X99940000Y-65315365D01*
X99835241Y-65385363D01*
X99635363Y-65585241D01*
X99478320Y-65820273D01*
X99370147Y-66081426D01*
X99315000Y-66358665D01*
X99315000Y-66641335D01*
X99370147Y-66918574D01*
X99478320Y-67179727D01*
X99635363Y-67414759D01*
X99835241Y-67614637D01*
X99940001Y-67684635D01*
X99940001Y-67914486D01*
X98664488Y-69190000D01*
X90505937Y-69190000D01*
X90525812Y-69124482D01*
X90538072Y-69000000D01*
X90538072Y-63600000D01*
X90525812Y-63475518D01*
X90489502Y-63355820D01*
X90430537Y-63245506D01*
X90351185Y-63148815D01*
X90254494Y-63069463D01*
X90144180Y-63010498D01*
X90024482Y-62974188D01*
X89900000Y-62961928D01*
X87000000Y-62961928D01*
X86875518Y-62974188D01*
X86755820Y-63010498D01*
X86645506Y-63069463D01*
X86548815Y-63148815D01*
X86469463Y-63245506D01*
X86410498Y-63355820D01*
X86374188Y-63475518D01*
X86361928Y-63600000D01*
X86361928Y-69000000D01*
X86374188Y-69124482D01*
X86410498Y-69244180D01*
X86469463Y-69354494D01*
X86548815Y-69451185D01*
X86645506Y-69530537D01*
X86755820Y-69589502D01*
X86875518Y-69625812D01*
X87000000Y-69638072D01*
X87692560Y-69638072D01*
X88599105Y-70544618D01*
X88624472Y-70575528D01*
X88655380Y-70600893D01*
X88747810Y-70676749D01*
X88771670Y-70689502D01*
X88888527Y-70751963D01*
X89041212Y-70798280D01*
X89160209Y-70810000D01*
X89160212Y-70810000D01*
X89200000Y-70813919D01*
X89239788Y-70810000D01*
X98960212Y-70810000D01*
X99000000Y-70813919D01*
X99039788Y-70810000D01*
X99039791Y-70810000D01*
X99158788Y-70798280D01*
X99311473Y-70751963D01*
X99452189Y-70676749D01*
X99575528Y-70575528D01*
X99600899Y-70544613D01*
X101294618Y-68850895D01*
X101325528Y-68825528D01*
X101426749Y-68702189D01*
X101501963Y-68561473D01*
X101548280Y-68408788D01*
X101560000Y-68289791D01*
X101560000Y-68289788D01*
X101563919Y-68250000D01*
X101560000Y-68210212D01*
X101560000Y-67684635D01*
X101664759Y-67614637D01*
X101864637Y-67414759D01*
X102021680Y-67179727D01*
X102129853Y-66918574D01*
X102185000Y-66641335D01*
X102185000Y-66358665D01*
X102129853Y-66081426D01*
X102021680Y-65820273D01*
X101864637Y-65585241D01*
X101664759Y-65385363D01*
X101560000Y-65315365D01*
X101560000Y-64385512D01*
X102585513Y-63360000D01*
X103981928Y-63360000D01*
X103981928Y-63650000D01*
X103994188Y-63774482D01*
X104030498Y-63894180D01*
X104089463Y-64004494D01*
X104168815Y-64101185D01*
X104265506Y-64180537D01*
X104375820Y-64239502D01*
X104495518Y-64275812D01*
X104620000Y-64288072D01*
X105820000Y-64288072D01*
X105944482Y-64275812D01*
X106064180Y-64239502D01*
X106174494Y-64180537D01*
X106271185Y-64101185D01*
X106350537Y-64004494D01*
X106409502Y-63894180D01*
X106445812Y-63774482D01*
X106458072Y-63650000D01*
X106458072Y-63360000D01*
X107410212Y-63360000D01*
X107450000Y-63363919D01*
X107489788Y-63360000D01*
X107489791Y-63360000D01*
X107608788Y-63348280D01*
X107761473Y-63301963D01*
X107902189Y-63226749D01*
X108025528Y-63125528D01*
X108050899Y-63094613D01*
X109859312Y-61286201D01*
X109866532Y-61310000D01*
X109873048Y-61331481D01*
X109948261Y-61472197D01*
X109971079Y-61500000D01*
X110049483Y-61595536D01*
X110080393Y-61620903D01*
X110190000Y-61730510D01*
X110190001Y-64010202D01*
X110186081Y-64050000D01*
X110199393Y-64185150D01*
X110201721Y-64208788D01*
X110242792Y-64344180D01*
X110248038Y-64361473D01*
X110323251Y-64502189D01*
X110378852Y-64569939D01*
X110424473Y-64625528D01*
X110455383Y-64650895D01*
X110786928Y-64982440D01*
X110786928Y-65146081D01*
X110754494Y-65119463D01*
X110644180Y-65060498D01*
X110524482Y-65024188D01*
X110400000Y-65011928D01*
X104600000Y-65011928D01*
X104475518Y-65024188D01*
X104355820Y-65060498D01*
X104245506Y-65119463D01*
X104148815Y-65198815D01*
X104069463Y-65295506D01*
X104010498Y-65405820D01*
X103974188Y-65525518D01*
X103961928Y-65650000D01*
X103961928Y-72050000D01*
X103974188Y-72174482D01*
X104010498Y-72294180D01*
X104034990Y-72340000D01*
X77127000Y-72340000D01*
X77127000Y-69638072D01*
X80000000Y-69638072D01*
X80124482Y-69625812D01*
X80244180Y-69589502D01*
X80354494Y-69530537D01*
X80451185Y-69451185D01*
X80530537Y-69354494D01*
X80589502Y-69244180D01*
X80625812Y-69124482D01*
X80638072Y-69000000D01*
X80638072Y-63600000D01*
X80625812Y-63475518D01*
X80589502Y-63355820D01*
X80530537Y-63245506D01*
X80451185Y-63148815D01*
X80354494Y-63069463D01*
X80244180Y-63010498D01*
X80124482Y-62974188D01*
X80000000Y-62961928D01*
X78860000Y-62961928D01*
X78860000Y-62285512D01*
X81996689Y-59148824D01*
X82102191Y-59092432D01*
X82225530Y-58991211D01*
X82326751Y-58867872D01*
X82401965Y-58727156D01*
X82448282Y-58574471D01*
X82454778Y-58508517D01*
X82567207Y-58340254D01*
X82645228Y-58151896D01*
X82685002Y-57951937D01*
X82685002Y-57748059D01*
X82645228Y-57548100D01*
X82567207Y-57359742D01*
X82453939Y-57190224D01*
X82309776Y-57046061D01*
X82140258Y-56932793D01*
X81951900Y-56854772D01*
X81751941Y-56814998D01*
X81548063Y-56814998D01*
X81348104Y-56854772D01*
X81159746Y-56932793D01*
X80990228Y-57046061D01*
X80846065Y-57190224D01*
X80732797Y-57359742D01*
X80654776Y-57548100D01*
X80615002Y-57748059D01*
X80615002Y-57951937D01*
X80654776Y-58151896D01*
X80668781Y-58185706D01*
X77505383Y-61349105D01*
X77474473Y-61374472D01*
X77449108Y-61405380D01*
X77373251Y-61497811D01*
X77298038Y-61638527D01*
X77251721Y-61791213D01*
X77236081Y-61950000D01*
X77240001Y-61989798D01*
X77240001Y-62961928D01*
X77127000Y-62961928D01*
X77127000Y-59885000D01*
X78000000Y-59885000D01*
X78059505Y-59879166D01*
X78118987Y-59873752D01*
X78121118Y-59873125D01*
X78123339Y-59872907D01*
X78180621Y-59855612D01*
X78237875Y-59838762D01*
X78239847Y-59837731D01*
X78241980Y-59837087D01*
X78294781Y-59809012D01*
X78347703Y-59781345D01*
X78349437Y-59779951D01*
X78351404Y-59778905D01*
X78397737Y-59741117D01*
X78444286Y-59703690D01*
X78445717Y-59701985D01*
X78447443Y-59700577D01*
X78485539Y-59654527D01*
X78523947Y-59608754D01*
X78525020Y-59606802D01*
X78526439Y-59605087D01*
X78554851Y-59552539D01*
X78583651Y-59500153D01*
X78584325Y-59498029D01*
X78585383Y-59496072D01*
X78603034Y-59439050D01*
X78621124Y-59382024D01*
X78621373Y-59379808D01*
X78622030Y-59377684D01*
X78628276Y-59318257D01*
X78634938Y-59258866D01*
X78634968Y-59254596D01*
X78634985Y-59254433D01*
X78634970Y-59254270D01*
X78635000Y-59250000D01*
X78635000Y-57250000D01*
X78629166Y-57190495D01*
X78623752Y-57131013D01*
X78623125Y-57128882D01*
X78622907Y-57126661D01*
X78605612Y-57069379D01*
X78588762Y-57012125D01*
X78587731Y-57010153D01*
X78587087Y-57008020D01*
X78559012Y-56955219D01*
X78531345Y-56902297D01*
X78529951Y-56900563D01*
X78528905Y-56898596D01*
X78491117Y-56852263D01*
X78453690Y-56805714D01*
X78451985Y-56804283D01*
X78450577Y-56802557D01*
X78404527Y-56764461D01*
X78358754Y-56726053D01*
X78356802Y-56724980D01*
X78355087Y-56723561D01*
X78302539Y-56695149D01*
X78250153Y-56666349D01*
X78248029Y-56665675D01*
X78246072Y-56664617D01*
X78189050Y-56646966D01*
X78132024Y-56628876D01*
X78129808Y-56628627D01*
X78127684Y-56627970D01*
X78068257Y-56621724D01*
X78008866Y-56615062D01*
X78004596Y-56615032D01*
X78004433Y-56615015D01*
X78004270Y-56615030D01*
X78000000Y-56615000D01*
X77127000Y-56615000D01*
X77127000Y-49272500D01*
X91114970Y-49272500D01*
X91222038Y-49402962D01*
X91356613Y-49513405D01*
X91510149Y-49595472D01*
X91676745Y-49646008D01*
X91849999Y-49663072D01*
X94750001Y-49663072D01*
X94923255Y-49646008D01*
X95089851Y-49595472D01*
X95243387Y-49513405D01*
X95377962Y-49402962D01*
X95488405Y-49268387D01*
X95570472Y-49114851D01*
X95621008Y-48948255D01*
X95638072Y-48775001D01*
X95638072Y-48544344D01*
X96880000Y-48544344D01*
X96880000Y-48915656D01*
X96952439Y-49279834D01*
X97094534Y-49622882D01*
X97300825Y-49931618D01*
X97563382Y-50194175D01*
X97872118Y-50400466D01*
X98215166Y-50542561D01*
X98579344Y-50615000D01*
X98731898Y-50615000D01*
X98643029Y-50829549D01*
X98585000Y-51121278D01*
X98585000Y-51418722D01*
X98643029Y-51710451D01*
X98756856Y-51985253D01*
X98922107Y-52232569D01*
X99132431Y-52442893D01*
X99379747Y-52608144D01*
X99654549Y-52721971D01*
X99946278Y-52780000D01*
X100243722Y-52780000D01*
X100535451Y-52721971D01*
X100810253Y-52608144D01*
X101057569Y-52442893D01*
X101267893Y-52232569D01*
X101365000Y-52087238D01*
X101462107Y-52232569D01*
X101672431Y-52442893D01*
X101919747Y-52608144D01*
X102194549Y-52721971D01*
X102486278Y-52780000D01*
X102783722Y-52780000D01*
X103075451Y-52721971D01*
X103350253Y-52608144D01*
X103597569Y-52442893D01*
X103807893Y-52232569D01*
X103829764Y-52199836D01*
X103926175Y-52344125D01*
X104160875Y-52578825D01*
X104436853Y-52763228D01*
X104743504Y-52890246D01*
X105069042Y-52955000D01*
X105400958Y-52955000D01*
X105726496Y-52890246D01*
X106033147Y-52763228D01*
X106309125Y-52578825D01*
X106543825Y-52344125D01*
X106728228Y-52068147D01*
X106855246Y-51761496D01*
X106920000Y-51435958D01*
X106920000Y-51104042D01*
X106855246Y-50778504D01*
X106728228Y-50471853D01*
X106543825Y-50195875D01*
X106309125Y-49961175D01*
X106033147Y-49776772D01*
X105726496Y-49649754D01*
X105400958Y-49585000D01*
X105069042Y-49585000D01*
X104743504Y-49649754D01*
X104436853Y-49776772D01*
X104160875Y-49961175D01*
X103926175Y-50195875D01*
X103829764Y-50340164D01*
X103807893Y-50307431D01*
X103597569Y-50097107D01*
X103350253Y-49931856D01*
X103075451Y-49818029D01*
X102783722Y-49760000D01*
X102486278Y-49760000D01*
X102466535Y-49763927D01*
X102537893Y-49692569D01*
X102703144Y-49445253D01*
X102816971Y-49170451D01*
X102875000Y-48878722D01*
X102875000Y-48581278D01*
X102816971Y-48289549D01*
X102703144Y-48014747D01*
X102537893Y-47767431D01*
X102327569Y-47557107D01*
X102080253Y-47391856D01*
X101805451Y-47278029D01*
X101513722Y-47220000D01*
X101216278Y-47220000D01*
X100924549Y-47278029D01*
X100649747Y-47391856D01*
X100402431Y-47557107D01*
X100310077Y-47649461D01*
X100229175Y-47528382D01*
X99966618Y-47265825D01*
X99657882Y-47059534D01*
X99314834Y-46917439D01*
X98950656Y-46845000D01*
X98579344Y-46845000D01*
X98215166Y-46917439D01*
X97872118Y-47059534D01*
X97563382Y-47265825D01*
X97300825Y-47528382D01*
X97094534Y-47837118D01*
X96952439Y-48180166D01*
X96880000Y-48544344D01*
X95638072Y-48544344D01*
X95638072Y-48149999D01*
X95621008Y-47976745D01*
X95570472Y-47810149D01*
X95488405Y-47656613D01*
X95377962Y-47522038D01*
X95243387Y-47411595D01*
X95089851Y-47329528D01*
X94923255Y-47278992D01*
X94750001Y-47261928D01*
X91849999Y-47261928D01*
X91676745Y-47278992D01*
X91510149Y-47329528D01*
X91356613Y-47411595D01*
X91222038Y-47522038D01*
X91114970Y-47652500D01*
X77127000Y-47652500D01*
X77127000Y-46660000D01*
X115373000Y-46660000D01*
X115373000Y-49658738D01*
G37*
%TD.AperFunction*%
D29*
X129410498Y-54655820D02*
X129400130Y-54690000D01*
X127039791Y-54690000D01*
X127000000Y-54686081D01*
X126841212Y-54701720D01*
X126688526Y-54748037D01*
X126569846Y-54811473D01*
X126547811Y-54823251D01*
X126424472Y-54924472D01*
X126399105Y-54955382D01*
X125887359Y-55467129D01*
X125698102Y-55504774D01*
X125509744Y-55582795D01*
X125340226Y-55696063D01*
X125196063Y-55840226D01*
X125133533Y-55933809D01*
X125003158Y-55879806D01*
X124803199Y-55840032D01*
X124599321Y-55840032D01*
X124399362Y-55879806D01*
X124211004Y-55957827D01*
X124041486Y-56071095D01*
X123897323Y-56215258D01*
X123784055Y-56384776D01*
X123706034Y-56573134D01*
X123666260Y-56773093D01*
X123666260Y-56976971D01*
X123706034Y-57176930D01*
X123784055Y-57365288D01*
X123897323Y-57534806D01*
X124041486Y-57678969D01*
X124211004Y-57792237D01*
X124399362Y-57870258D01*
X124599321Y-57910032D01*
X124677034Y-57910032D01*
X124809012Y-57980577D01*
X124952273Y-58024034D01*
X125063926Y-58035031D01*
X125063936Y-58035031D01*
X125101258Y-58038707D01*
X125138581Y-58035031D01*
X126660230Y-58035031D01*
X128526502Y-59901304D01*
X128526501Y-60999178D01*
X128522825Y-61036501D01*
X128526501Y-61073823D01*
X128526501Y-61073833D01*
X128537498Y-61185486D01*
X128564121Y-61273251D01*
X128580955Y-61328747D01*
X128651527Y-61460777D01*
X128683717Y-61500000D01*
X128746500Y-61576502D01*
X128775504Y-61600305D01*
X129186196Y-62010997D01*
X129209999Y-62040001D01*
X129293815Y-62108787D01*
X129325724Y-62134974D01*
X129367576Y-62157345D01*
X129374188Y-62224482D01*
X129410498Y-62344180D01*
X129469463Y-62454494D01*
X129506809Y-62500000D01*
X129469463Y-62545506D01*
X129410498Y-62655820D01*
X129374188Y-62775518D01*
X129361928Y-62900000D01*
X129361928Y-64100000D01*
X129374188Y-64224482D01*
X129410498Y-64344180D01*
X129469463Y-64454494D01*
X129506809Y-64500000D01*
X129469463Y-64545506D01*
X129410498Y-64655820D01*
X129374188Y-64775518D01*
X129361928Y-64900000D01*
X129361928Y-66100000D01*
X129374188Y-66224482D01*
X129410498Y-66344180D01*
X129469463Y-66454494D01*
X129506809Y-66500000D01*
X129469463Y-66545506D01*
X129456914Y-66568984D01*
X129301898Y-66504774D01*
X129101939Y-66465000D01*
X128898061Y-66465000D01*
X128698102Y-66504774D01*
X128509744Y-66582795D01*
X128340226Y-66696063D01*
X128196063Y-66840226D01*
X128082795Y-67009744D01*
X128004774Y-67198102D01*
X127965000Y-67398061D01*
X127965000Y-67601939D01*
X128004774Y-67801898D01*
X128082795Y-67990256D01*
X128196063Y-68159774D01*
X128340226Y-68303937D01*
X128509744Y-68417205D01*
X128698102Y-68495226D01*
X128898061Y-68535000D01*
X129101939Y-68535000D01*
X129301898Y-68495226D01*
X129456914Y-68431016D01*
X129469463Y-68454494D01*
X129548815Y-68551185D01*
X129645506Y-68630537D01*
X129755820Y-68689502D01*
X129875518Y-68725812D01*
X130000000Y-68738072D01*
X131690000Y-68738072D01*
X131690000Y-71664488D01*
X131664488Y-71690000D01*
X129688072Y-71690000D01*
X129688072Y-70150000D01*
X129675812Y-70025518D01*
X129639502Y-69905820D01*
X129580537Y-69795506D01*
X129501185Y-69698815D01*
X129404494Y-69619463D01*
X129294180Y-69560498D01*
X129174482Y-69524188D01*
X129050000Y-69511928D01*
X127950000Y-69511928D01*
X127825518Y-69524188D01*
X127705820Y-69560498D01*
X127595506Y-69619463D01*
X127500000Y-69697842D01*
X127404494Y-69619463D01*
X127294180Y-69560498D01*
X127174482Y-69524188D01*
X127050000Y-69511928D01*
X125950000Y-69511928D01*
X125825518Y-69524188D01*
X125705820Y-69560498D01*
X125595506Y-69619463D01*
X125500000Y-69697842D01*
X125404494Y-69619463D01*
X125294180Y-69560498D01*
X125174482Y-69524188D01*
X125050000Y-69511928D01*
X123950000Y-69511928D01*
X123825518Y-69524188D01*
X123705820Y-69560498D01*
X123595506Y-69619463D01*
X123500000Y-69697842D01*
X123404494Y-69619463D01*
X123294180Y-69560498D01*
X123174482Y-69524188D01*
X123050000Y-69511928D01*
X121950000Y-69511928D01*
X121825518Y-69524188D01*
X121705820Y-69560498D01*
X121595506Y-69619463D01*
X121500000Y-69697842D01*
X121404494Y-69619463D01*
X121294180Y-69560498D01*
X121174482Y-69524188D01*
X121050000Y-69511928D01*
X119950000Y-69511928D01*
X119825518Y-69524188D01*
X119705820Y-69560498D01*
X119595506Y-69619463D01*
X119500000Y-69697842D01*
X119404494Y-69619463D01*
X119294180Y-69560498D01*
X119174482Y-69524188D01*
X119050000Y-69511928D01*
X117950000Y-69511928D01*
X117825518Y-69524188D01*
X117705820Y-69560498D01*
X117638072Y-69596711D01*
X117638072Y-68900000D01*
X117625812Y-68775518D01*
X117589502Y-68655820D01*
X117530537Y-68545506D01*
X117493191Y-68500000D01*
X117530537Y-68454494D01*
X117589502Y-68344180D01*
X117625812Y-68224482D01*
X117638072Y-68100000D01*
X117638072Y-66900000D01*
X117625812Y-66775518D01*
X117589502Y-66655820D01*
X117530537Y-66545506D01*
X117493191Y-66500000D01*
X117530537Y-66454494D01*
X117589502Y-66344180D01*
X117625812Y-66224482D01*
X117638072Y-66100000D01*
X117638072Y-64900000D01*
X117625812Y-64775518D01*
X117589502Y-64655820D01*
X117530537Y-64545506D01*
X117493191Y-64500000D01*
X117530537Y-64454494D01*
X117589502Y-64344180D01*
X117625812Y-64224482D01*
X117638072Y-64100000D01*
X117638072Y-62900000D01*
X117625812Y-62775518D01*
X117589502Y-62655820D01*
X117530537Y-62545506D01*
X117493191Y-62500000D01*
X117530537Y-62454494D01*
X117589502Y-62344180D01*
X117625812Y-62224482D01*
X117638072Y-62100000D01*
X117638072Y-60900000D01*
X117625812Y-60775518D01*
X117589502Y-60655820D01*
X117530537Y-60545506D01*
X117493191Y-60500000D01*
X117530537Y-60454494D01*
X117589502Y-60344180D01*
X117625812Y-60224482D01*
X117638072Y-60100000D01*
X117638072Y-58900000D01*
X117625812Y-58775518D01*
X117589502Y-58655820D01*
X117530537Y-58545506D01*
X117493191Y-58500000D01*
X117530537Y-58454494D01*
X117589502Y-58344180D01*
X117625812Y-58224482D01*
X117638072Y-58100000D01*
X117638072Y-56900000D01*
X117625812Y-56775518D01*
X117589502Y-56655820D01*
X117530537Y-56545506D01*
X117493191Y-56500000D01*
X117530537Y-56454494D01*
X117589502Y-56344180D01*
X117625812Y-56224482D01*
X117638072Y-56100000D01*
X117638072Y-54900000D01*
X117625812Y-54775518D01*
X117589502Y-54655820D01*
X117574097Y-54627000D01*
X129425903Y-54627000D01*
X129410498Y-54655820D01*
%TA.AperFunction,Conductor*%
D30*
G36*
X129410498Y-54655820D02*
G01*
X129400130Y-54690000D01*
X127039791Y-54690000D01*
X127000000Y-54686081D01*
X126841212Y-54701720D01*
X126688526Y-54748037D01*
X126569846Y-54811473D01*
X126547811Y-54823251D01*
X126424472Y-54924472D01*
X126399105Y-54955382D01*
X125887359Y-55467129D01*
X125698102Y-55504774D01*
X125509744Y-55582795D01*
X125340226Y-55696063D01*
X125196063Y-55840226D01*
X125133533Y-55933809D01*
X125003158Y-55879806D01*
X124803199Y-55840032D01*
X124599321Y-55840032D01*
X124399362Y-55879806D01*
X124211004Y-55957827D01*
X124041486Y-56071095D01*
X123897323Y-56215258D01*
X123784055Y-56384776D01*
X123706034Y-56573134D01*
X123666260Y-56773093D01*
X123666260Y-56976971D01*
X123706034Y-57176930D01*
X123784055Y-57365288D01*
X123897323Y-57534806D01*
X124041486Y-57678969D01*
X124211004Y-57792237D01*
X124399362Y-57870258D01*
X124599321Y-57910032D01*
X124677034Y-57910032D01*
X124809012Y-57980577D01*
X124952273Y-58024034D01*
X125063926Y-58035031D01*
X125063936Y-58035031D01*
X125101258Y-58038707D01*
X125138581Y-58035031D01*
X126660230Y-58035031D01*
X128526502Y-59901304D01*
X128526501Y-60999178D01*
X128522825Y-61036501D01*
X128526501Y-61073823D01*
X128526501Y-61073833D01*
X128537498Y-61185486D01*
X128564121Y-61273251D01*
X128580955Y-61328747D01*
X128651527Y-61460777D01*
X128683717Y-61500000D01*
X128746500Y-61576502D01*
X128775504Y-61600305D01*
X129186196Y-62010997D01*
X129209999Y-62040001D01*
X129293815Y-62108787D01*
X129325724Y-62134974D01*
X129367576Y-62157345D01*
X129374188Y-62224482D01*
X129410498Y-62344180D01*
X129469463Y-62454494D01*
X129506809Y-62500000D01*
X129469463Y-62545506D01*
X129410498Y-62655820D01*
X129374188Y-62775518D01*
X129361928Y-62900000D01*
X129361928Y-64100000D01*
X129374188Y-64224482D01*
X129410498Y-64344180D01*
X129469463Y-64454494D01*
X129506809Y-64500000D01*
X129469463Y-64545506D01*
X129410498Y-64655820D01*
X129374188Y-64775518D01*
X129361928Y-64900000D01*
X129361928Y-66100000D01*
X129374188Y-66224482D01*
X129410498Y-66344180D01*
X129469463Y-66454494D01*
X129506809Y-66500000D01*
X129469463Y-66545506D01*
X129456914Y-66568984D01*
X129301898Y-66504774D01*
X129101939Y-66465000D01*
X128898061Y-66465000D01*
X128698102Y-66504774D01*
X128509744Y-66582795D01*
X128340226Y-66696063D01*
X128196063Y-66840226D01*
X128082795Y-67009744D01*
X128004774Y-67198102D01*
X127965000Y-67398061D01*
X127965000Y-67601939D01*
X128004774Y-67801898D01*
X128082795Y-67990256D01*
X128196063Y-68159774D01*
X128340226Y-68303937D01*
X128509744Y-68417205D01*
X128698102Y-68495226D01*
X128898061Y-68535000D01*
X129101939Y-68535000D01*
X129301898Y-68495226D01*
X129456914Y-68431016D01*
X129469463Y-68454494D01*
X129548815Y-68551185D01*
X129645506Y-68630537D01*
X129755820Y-68689502D01*
X129875518Y-68725812D01*
X130000000Y-68738072D01*
X131690000Y-68738072D01*
X131690000Y-71664488D01*
X131664488Y-71690000D01*
X129688072Y-71690000D01*
X129688072Y-70150000D01*
X129675812Y-70025518D01*
X129639502Y-69905820D01*
X129580537Y-69795506D01*
X129501185Y-69698815D01*
X129404494Y-69619463D01*
X129294180Y-69560498D01*
X129174482Y-69524188D01*
X129050000Y-69511928D01*
X127950000Y-69511928D01*
X127825518Y-69524188D01*
X127705820Y-69560498D01*
X127595506Y-69619463D01*
X127500000Y-69697842D01*
X127404494Y-69619463D01*
X127294180Y-69560498D01*
X127174482Y-69524188D01*
X127050000Y-69511928D01*
X125950000Y-69511928D01*
X125825518Y-69524188D01*
X125705820Y-69560498D01*
X125595506Y-69619463D01*
X125500000Y-69697842D01*
X125404494Y-69619463D01*
X125294180Y-69560498D01*
X125174482Y-69524188D01*
X125050000Y-69511928D01*
X123950000Y-69511928D01*
X123825518Y-69524188D01*
X123705820Y-69560498D01*
X123595506Y-69619463D01*
X123500000Y-69697842D01*
X123404494Y-69619463D01*
X123294180Y-69560498D01*
X123174482Y-69524188D01*
X123050000Y-69511928D01*
X121950000Y-69511928D01*
X121825518Y-69524188D01*
X121705820Y-69560498D01*
X121595506Y-69619463D01*
X121500000Y-69697842D01*
X121404494Y-69619463D01*
X121294180Y-69560498D01*
X121174482Y-69524188D01*
X121050000Y-69511928D01*
X119950000Y-69511928D01*
X119825518Y-69524188D01*
X119705820Y-69560498D01*
X119595506Y-69619463D01*
X119500000Y-69697842D01*
X119404494Y-69619463D01*
X119294180Y-69560498D01*
X119174482Y-69524188D01*
X119050000Y-69511928D01*
X117950000Y-69511928D01*
X117825518Y-69524188D01*
X117705820Y-69560498D01*
X117638072Y-69596711D01*
X117638072Y-68900000D01*
X117625812Y-68775518D01*
X117589502Y-68655820D01*
X117530537Y-68545506D01*
X117493191Y-68500000D01*
X117530537Y-68454494D01*
X117589502Y-68344180D01*
X117625812Y-68224482D01*
X117638072Y-68100000D01*
X117638072Y-66900000D01*
X117625812Y-66775518D01*
X117589502Y-66655820D01*
X117530537Y-66545506D01*
X117493191Y-66500000D01*
X117530537Y-66454494D01*
X117589502Y-66344180D01*
X117625812Y-66224482D01*
X117638072Y-66100000D01*
X117638072Y-64900000D01*
X117625812Y-64775518D01*
X117589502Y-64655820D01*
X117530537Y-64545506D01*
X117493191Y-64500000D01*
X117530537Y-64454494D01*
X117589502Y-64344180D01*
X117625812Y-64224482D01*
X117638072Y-64100000D01*
X117638072Y-62900000D01*
X117625812Y-62775518D01*
X117589502Y-62655820D01*
X117530537Y-62545506D01*
X117493191Y-62500000D01*
X117530537Y-62454494D01*
X117589502Y-62344180D01*
X117625812Y-62224482D01*
X117638072Y-62100000D01*
X117638072Y-60900000D01*
X117625812Y-60775518D01*
X117589502Y-60655820D01*
X117530537Y-60545506D01*
X117493191Y-60500000D01*
X117530537Y-60454494D01*
X117589502Y-60344180D01*
X117625812Y-60224482D01*
X117638072Y-60100000D01*
X117638072Y-58900000D01*
X117625812Y-58775518D01*
X117589502Y-58655820D01*
X117530537Y-58545506D01*
X117493191Y-58500000D01*
X117530537Y-58454494D01*
X117589502Y-58344180D01*
X117625812Y-58224482D01*
X117638072Y-58100000D01*
X117638072Y-56900000D01*
X117625812Y-56775518D01*
X117589502Y-56655820D01*
X117530537Y-56545506D01*
X117493191Y-56500000D01*
X117530537Y-56454494D01*
X117589502Y-56344180D01*
X117625812Y-56224482D01*
X117638072Y-56100000D01*
X117638072Y-54900000D01*
X117625812Y-54775518D01*
X117589502Y-54655820D01*
X117574097Y-54627000D01*
X129425903Y-54627000D01*
X129410498Y-54655820D01*
G37*
%TD.AperFunction*%
D29*
X113190001Y-58810202D02*
X113186081Y-58850000D01*
X113196081Y-58951527D01*
X113201721Y-59008788D01*
X113236160Y-59122316D01*
X113248038Y-59161473D01*
X113323251Y-59302189D01*
X113366904Y-59355380D01*
X113424473Y-59425528D01*
X113455383Y-59450895D01*
X114049105Y-60044618D01*
X114074472Y-60075528D01*
X114197811Y-60176749D01*
X114338527Y-60251963D01*
X114386983Y-60266662D01*
X114410498Y-60344180D01*
X114469463Y-60454494D01*
X114506809Y-60500000D01*
X114469463Y-60545506D01*
X114410498Y-60655820D01*
X114374188Y-60775518D01*
X114361928Y-60900000D01*
X114361928Y-62100000D01*
X114374188Y-62224482D01*
X114410498Y-62344180D01*
X114469463Y-62454494D01*
X114506809Y-62500000D01*
X114469463Y-62545506D01*
X114410498Y-62655820D01*
X114374188Y-62775518D01*
X114361928Y-62900000D01*
X114361928Y-64100000D01*
X114374188Y-64224482D01*
X114410498Y-64344180D01*
X114469463Y-64454494D01*
X114506809Y-64500000D01*
X114469463Y-64545506D01*
X114410498Y-64655820D01*
X114374188Y-64775518D01*
X114361928Y-64900000D01*
X114361928Y-66100000D01*
X114374188Y-66224482D01*
X114410498Y-66344180D01*
X114469463Y-66454494D01*
X114506809Y-66500000D01*
X114469463Y-66545506D01*
X114410498Y-66655820D01*
X114374188Y-66775518D01*
X114361928Y-66900000D01*
X114361928Y-68040000D01*
X113110000Y-68040000D01*
X113110000Y-66142445D01*
X113264850Y-66095472D01*
X113418386Y-66013405D01*
X113552962Y-65902962D01*
X113663405Y-65768386D01*
X113745472Y-65614850D01*
X113796008Y-65448254D01*
X113813072Y-65275000D01*
X113813072Y-64525000D01*
X113796008Y-64351746D01*
X113745472Y-64185150D01*
X113663405Y-64031614D01*
X113552962Y-63897038D01*
X113418386Y-63786595D01*
X113264850Y-63704528D01*
X113098254Y-63653992D01*
X112925000Y-63636928D01*
X111810000Y-63636928D01*
X111810000Y-61434786D01*
X111813919Y-61394998D01*
X111807394Y-61328747D01*
X111798280Y-61236210D01*
X111751963Y-61083525D01*
X111676749Y-60942809D01*
X111575528Y-60819470D01*
X111544614Y-60794100D01*
X111435010Y-60684496D01*
X111435010Y-59188072D01*
X111881250Y-59188072D01*
X112053285Y-59171128D01*
X112218709Y-59120947D01*
X112371164Y-59039458D01*
X112504792Y-58929792D01*
X112614458Y-58796164D01*
X112687098Y-58660265D01*
X112689788Y-58660000D01*
X112689791Y-58660000D01*
X112808788Y-58648280D01*
X112961473Y-58601963D01*
X113086752Y-58535000D01*
X113101939Y-58535000D01*
X113190001Y-58517484D01*
X113190001Y-58810202D01*
%TA.AperFunction,Conductor*%
D30*
G36*
X113190001Y-58810202D02*
G01*
X113186081Y-58850000D01*
X113196081Y-58951527D01*
X113201721Y-59008788D01*
X113236160Y-59122316D01*
X113248038Y-59161473D01*
X113323251Y-59302189D01*
X113366904Y-59355380D01*
X113424473Y-59425528D01*
X113455383Y-59450895D01*
X114049105Y-60044618D01*
X114074472Y-60075528D01*
X114197811Y-60176749D01*
X114338527Y-60251963D01*
X114386983Y-60266662D01*
X114410498Y-60344180D01*
X114469463Y-60454494D01*
X114506809Y-60500000D01*
X114469463Y-60545506D01*
X114410498Y-60655820D01*
X114374188Y-60775518D01*
X114361928Y-60900000D01*
X114361928Y-62100000D01*
X114374188Y-62224482D01*
X114410498Y-62344180D01*
X114469463Y-62454494D01*
X114506809Y-62500000D01*
X114469463Y-62545506D01*
X114410498Y-62655820D01*
X114374188Y-62775518D01*
X114361928Y-62900000D01*
X114361928Y-64100000D01*
X114374188Y-64224482D01*
X114410498Y-64344180D01*
X114469463Y-64454494D01*
X114506809Y-64500000D01*
X114469463Y-64545506D01*
X114410498Y-64655820D01*
X114374188Y-64775518D01*
X114361928Y-64900000D01*
X114361928Y-66100000D01*
X114374188Y-66224482D01*
X114410498Y-66344180D01*
X114469463Y-66454494D01*
X114506809Y-66500000D01*
X114469463Y-66545506D01*
X114410498Y-66655820D01*
X114374188Y-66775518D01*
X114361928Y-66900000D01*
X114361928Y-68040000D01*
X113110000Y-68040000D01*
X113110000Y-66142445D01*
X113264850Y-66095472D01*
X113418386Y-66013405D01*
X113552962Y-65902962D01*
X113663405Y-65768386D01*
X113745472Y-65614850D01*
X113796008Y-65448254D01*
X113813072Y-65275000D01*
X113813072Y-64525000D01*
X113796008Y-64351746D01*
X113745472Y-64185150D01*
X113663405Y-64031614D01*
X113552962Y-63897038D01*
X113418386Y-63786595D01*
X113264850Y-63704528D01*
X113098254Y-63653992D01*
X112925000Y-63636928D01*
X111810000Y-63636928D01*
X111810000Y-61434786D01*
X111813919Y-61394998D01*
X111807394Y-61328747D01*
X111798280Y-61236210D01*
X111751963Y-61083525D01*
X111676749Y-60942809D01*
X111575528Y-60819470D01*
X111544614Y-60794100D01*
X111435010Y-60684496D01*
X111435010Y-59188072D01*
X111881250Y-59188072D01*
X112053285Y-59171128D01*
X112218709Y-59120947D01*
X112371164Y-59039458D01*
X112504792Y-58929792D01*
X112614458Y-58796164D01*
X112687098Y-58660265D01*
X112689788Y-58660000D01*
X112689791Y-58660000D01*
X112808788Y-58648280D01*
X112961473Y-58601963D01*
X113086752Y-58535000D01*
X113101939Y-58535000D01*
X113190001Y-58517484D01*
X113190001Y-58810202D01*
G37*
%TD.AperFunction*%
D29*
X103690000Y-55335512D02*
X103690001Y-57960202D01*
X103686081Y-58000000D01*
X103698200Y-58123038D01*
X103701721Y-58158788D01*
X103713692Y-58198251D01*
X103748038Y-58311473D01*
X103823251Y-58452189D01*
X103844668Y-58478285D01*
X103924473Y-58575528D01*
X103955383Y-58600895D01*
X104134100Y-58779612D01*
X104159472Y-58810528D01*
X104282811Y-58911749D01*
X104423527Y-58986963D01*
X104576212Y-59033280D01*
X104695209Y-59045000D01*
X104695211Y-59045000D01*
X104734999Y-59048919D01*
X104774787Y-59045000D01*
X105826416Y-59045000D01*
X105821916Y-59053418D01*
X105777071Y-59201255D01*
X105761928Y-59355000D01*
X105761928Y-59655000D01*
X105765375Y-59690000D01*
X93686790Y-59690000D01*
X93704494Y-59680537D01*
X93801185Y-59601185D01*
X93880537Y-59504494D01*
X93939502Y-59394180D01*
X93975812Y-59274482D01*
X93988072Y-59150000D01*
X93988072Y-55850000D01*
X93975812Y-55725518D01*
X93962821Y-55682692D01*
X94335513Y-55310000D01*
X103664488Y-55310000D01*
X103690000Y-55335512D01*
%TA.AperFunction,Conductor*%
D30*
G36*
X103690000Y-55335512D02*
G01*
X103690001Y-57960202D01*
X103686081Y-58000000D01*
X103698200Y-58123038D01*
X103701721Y-58158788D01*
X103713692Y-58198251D01*
X103748038Y-58311473D01*
X103823251Y-58452189D01*
X103844668Y-58478285D01*
X103924473Y-58575528D01*
X103955383Y-58600895D01*
X104134100Y-58779612D01*
X104159472Y-58810528D01*
X104282811Y-58911749D01*
X104423527Y-58986963D01*
X104576212Y-59033280D01*
X104695209Y-59045000D01*
X104695211Y-59045000D01*
X104734999Y-59048919D01*
X104774787Y-59045000D01*
X105826416Y-59045000D01*
X105821916Y-59053418D01*
X105777071Y-59201255D01*
X105761928Y-59355000D01*
X105761928Y-59655000D01*
X105765375Y-59690000D01*
X93686790Y-59690000D01*
X93704494Y-59680537D01*
X93801185Y-59601185D01*
X93880537Y-59504494D01*
X93939502Y-59394180D01*
X93975812Y-59274482D01*
X93988072Y-59150000D01*
X93988072Y-55850000D01*
X93975812Y-55725518D01*
X93962821Y-55682692D01*
X94335513Y-55310000D01*
X103664488Y-55310000D01*
X103690000Y-55335512D01*
G37*
%TD.AperFunction*%
D29*
X109518750Y-57138072D02*
X109815010Y-57138072D01*
X109815010Y-58561928D01*
X109532440Y-58561928D01*
X109510000Y-58539488D01*
X109510000Y-57137210D01*
X109518750Y-57138072D01*
%TA.AperFunction,Conductor*%
D30*
G36*
X109518750Y-57138072D02*
G01*
X109815010Y-57138072D01*
X109815010Y-58561928D01*
X109532440Y-58561928D01*
X109510000Y-58539488D01*
X109510000Y-57137210D01*
X109518750Y-57138072D01*
G37*
%TD.AperFunction*%
%TD*%
D29*
%TO.N,GNDPWR*%
X67471843Y-53263358D02*
X67778494Y-53390376D01*
X68104032Y-53455130D01*
X68435948Y-53455130D01*
X68761486Y-53390376D01*
X69068137Y-53263358D01*
X69272211Y-53127000D01*
X72347779Y-53127000D01*
X72551853Y-53263358D01*
X72858504Y-53390376D01*
X73184042Y-53455130D01*
X73515958Y-53455130D01*
X73841496Y-53390376D01*
X74148147Y-53263358D01*
X74352221Y-53127000D01*
X75873000Y-53127000D01*
X75873000Y-56615000D01*
X74000000Y-56615000D01*
X73940495Y-56620834D01*
X73881013Y-56626248D01*
X73878882Y-56626875D01*
X73876661Y-56627093D01*
X73819379Y-56644388D01*
X73762125Y-56661238D01*
X73760153Y-56662269D01*
X73758020Y-56662913D01*
X73705219Y-56690988D01*
X73652297Y-56718655D01*
X73650563Y-56720049D01*
X73648596Y-56721095D01*
X73602263Y-56758883D01*
X73555714Y-56796310D01*
X73554283Y-56798015D01*
X73552557Y-56799423D01*
X73514461Y-56845473D01*
X73476053Y-56891246D01*
X73474980Y-56893198D01*
X73473561Y-56894913D01*
X73445149Y-56947461D01*
X73416349Y-56999847D01*
X73415675Y-57001971D01*
X73414617Y-57003928D01*
X73396966Y-57060950D01*
X73378876Y-57117976D01*
X73378627Y-57120192D01*
X73377970Y-57122316D01*
X73371724Y-57181743D01*
X73365062Y-57241134D01*
X73365032Y-57245404D01*
X73365015Y-57245567D01*
X73365030Y-57245730D01*
X73365000Y-57250000D01*
X73365000Y-59250000D01*
X73370834Y-59309505D01*
X73376248Y-59368987D01*
X73376875Y-59371118D01*
X73377093Y-59373339D01*
X73394388Y-59430621D01*
X73411238Y-59487875D01*
X73412269Y-59489847D01*
X73412913Y-59491980D01*
X73440988Y-59544781D01*
X73468655Y-59597703D01*
X73470049Y-59599437D01*
X73471095Y-59601404D01*
X73508883Y-59647737D01*
X73546310Y-59694286D01*
X73548015Y-59695717D01*
X73549423Y-59697443D01*
X73595473Y-59735539D01*
X73641246Y-59773947D01*
X73643198Y-59775020D01*
X73644913Y-59776439D01*
X73697461Y-59804851D01*
X73749847Y-59833651D01*
X73751971Y-59834325D01*
X73753928Y-59835383D01*
X73810950Y-59853034D01*
X73867976Y-59871124D01*
X73870192Y-59871373D01*
X73872316Y-59872030D01*
X73931743Y-59878276D01*
X73991134Y-59884938D01*
X73995404Y-59884968D01*
X73995567Y-59884985D01*
X73995730Y-59884970D01*
X74000000Y-59885000D01*
X75873000Y-59885000D01*
X75873000Y-66123000D01*
X74262096Y-66123000D01*
X74148134Y-66046853D01*
X73841483Y-65919835D01*
X73515945Y-65855081D01*
X73184029Y-65855081D01*
X72858491Y-65919835D01*
X72551840Y-66046853D01*
X72437878Y-66123000D01*
X69182086Y-66123000D01*
X69068124Y-66046853D01*
X68761473Y-65919835D01*
X68435935Y-65855081D01*
X68104019Y-65855081D01*
X67778481Y-65919835D01*
X67471830Y-66046853D01*
X67357868Y-66123000D01*
X66660000Y-66123000D01*
X66660000Y-53127000D01*
X67267769Y-53127000D01*
X67471843Y-53263358D01*
%TA.AperFunction,Conductor*%
D30*
G36*
X67471843Y-53263358D02*
G01*
X67778494Y-53390376D01*
X68104032Y-53455130D01*
X68435948Y-53455130D01*
X68761486Y-53390376D01*
X69068137Y-53263358D01*
X69272211Y-53127000D01*
X72347779Y-53127000D01*
X72551853Y-53263358D01*
X72858504Y-53390376D01*
X73184042Y-53455130D01*
X73515958Y-53455130D01*
X73841496Y-53390376D01*
X74148147Y-53263358D01*
X74352221Y-53127000D01*
X75873000Y-53127000D01*
X75873000Y-56615000D01*
X74000000Y-56615000D01*
X73940495Y-56620834D01*
X73881013Y-56626248D01*
X73878882Y-56626875D01*
X73876661Y-56627093D01*
X73819379Y-56644388D01*
X73762125Y-56661238D01*
X73760153Y-56662269D01*
X73758020Y-56662913D01*
X73705219Y-56690988D01*
X73652297Y-56718655D01*
X73650563Y-56720049D01*
X73648596Y-56721095D01*
X73602263Y-56758883D01*
X73555714Y-56796310D01*
X73554283Y-56798015D01*
X73552557Y-56799423D01*
X73514461Y-56845473D01*
X73476053Y-56891246D01*
X73474980Y-56893198D01*
X73473561Y-56894913D01*
X73445149Y-56947461D01*
X73416349Y-56999847D01*
X73415675Y-57001971D01*
X73414617Y-57003928D01*
X73396966Y-57060950D01*
X73378876Y-57117976D01*
X73378627Y-57120192D01*
X73377970Y-57122316D01*
X73371724Y-57181743D01*
X73365062Y-57241134D01*
X73365032Y-57245404D01*
X73365015Y-57245567D01*
X73365030Y-57245730D01*
X73365000Y-57250000D01*
X73365000Y-59250000D01*
X73370834Y-59309505D01*
X73376248Y-59368987D01*
X73376875Y-59371118D01*
X73377093Y-59373339D01*
X73394388Y-59430621D01*
X73411238Y-59487875D01*
X73412269Y-59489847D01*
X73412913Y-59491980D01*
X73440988Y-59544781D01*
X73468655Y-59597703D01*
X73470049Y-59599437D01*
X73471095Y-59601404D01*
X73508883Y-59647737D01*
X73546310Y-59694286D01*
X73548015Y-59695717D01*
X73549423Y-59697443D01*
X73595473Y-59735539D01*
X73641246Y-59773947D01*
X73643198Y-59775020D01*
X73644913Y-59776439D01*
X73697461Y-59804851D01*
X73749847Y-59833651D01*
X73751971Y-59834325D01*
X73753928Y-59835383D01*
X73810950Y-59853034D01*
X73867976Y-59871124D01*
X73870192Y-59871373D01*
X73872316Y-59872030D01*
X73931743Y-59878276D01*
X73991134Y-59884938D01*
X73995404Y-59884968D01*
X73995567Y-59884985D01*
X73995730Y-59884970D01*
X74000000Y-59885000D01*
X75873000Y-59885000D01*
X75873000Y-66123000D01*
X74262096Y-66123000D01*
X74148134Y-66046853D01*
X73841483Y-65919835D01*
X73515945Y-65855081D01*
X73184029Y-65855081D01*
X72858491Y-65919835D01*
X72551840Y-66046853D01*
X72437878Y-66123000D01*
X69182086Y-66123000D01*
X69068124Y-66046853D01*
X68761473Y-65919835D01*
X68435935Y-65855081D01*
X68104019Y-65855081D01*
X67778481Y-65919835D01*
X67471830Y-66046853D01*
X67357868Y-66123000D01*
X66660000Y-66123000D01*
X66660000Y-53127000D01*
X67267769Y-53127000D01*
X67471843Y-53263358D01*
G37*
%TD.AperFunction*%
%TD*%
M02*
