M48
; DRILL file {KiCad 5.1.5+dfsg1-2build2} date Thu Nov  4 16:47:03 2021
; FORMAT={-:-/ absolute / metric / decimal}
; #@! TF.CreationDate,2021-11-04T16:47:03+02:00
; #@! TF.GenerationSoftware,Kicad,Pcbnew,5.1.5+dfsg1-2build2
FMAT,2
METRIC
T1C0.300
T2C0.400
T3C1.100
T4C1.400
T5C0.500
T6C2.100
T7C2.500
%
G90
G05
T1
X77.4Y-79.7
X77.4Y-107.7
X77.4Y-135.7
X77.5Y-75.2
X77.5Y-103.2
X77.5Y-131.2
X78.0Y-84.2
X78.0Y-112.2
X78.0Y-140.2
X82.787Y-73.4
X82.787Y-101.4
X82.787Y-129.4
X83.25Y-82.85
X83.25Y-110.85
X83.25Y-138.85
X83.7Y-76.0
X83.7Y-104.0
X83.7Y-132.0
X86.388Y-77.7
X86.388Y-105.7
X86.388Y-133.7
X87.7Y-75.7
X87.7Y-103.7
X87.7Y-131.7
X89.7Y-75.6
X89.7Y-103.6
X89.7Y-131.6
X90.7Y-69.6
X90.7Y-97.6
X90.7Y-125.6
X107.0Y-84.0
X107.0Y-112.0
X107.0Y-140.0
X113.0Y-72.0
X113.0Y-100.0
X113.0Y-128.0
X129.3Y-86.4
X129.3Y-114.4
X129.3Y-142.4
X130.3Y-80.4
X130.3Y-108.4
X130.3Y-136.4
X132.3Y-80.3
X132.3Y-108.3
X132.3Y-136.3
X133.612Y-78.3
X133.612Y-106.3
X133.612Y-134.3
X136.3Y-80.0
X136.3Y-108.0
X136.3Y-136.0
X136.75Y-73.15
X136.75Y-101.15
X136.75Y-129.15
X137.213Y-82.6
X137.213Y-110.6
X137.213Y-138.6
X142.0Y-71.8
X142.0Y-99.8
X142.0Y-127.8
X142.5Y-80.8
X142.5Y-108.8
X142.5Y-136.8
X142.6Y-76.3
X142.6Y-104.3
X142.6Y-132.3
T2
X84.5Y-85.0
X84.5Y-87.0
X84.5Y-113.0
X84.5Y-115.0
X84.5Y-141.0
X84.5Y-143.0
X86.5Y-85.0
X86.5Y-87.0
X86.5Y-113.0
X86.5Y-115.0
X86.5Y-141.0
X86.5Y-143.0
X86.6Y-80.25
X86.6Y-108.25
X86.6Y-136.25
X89.0Y-80.0
X89.0Y-86.0
X89.0Y-108.0
X89.0Y-114.0
X89.0Y-136.0
X89.0Y-142.0
X106.5Y-90.0
X106.5Y-118.0
X106.5Y-146.0
X107.0Y-82.0
X107.0Y-86.0
X107.0Y-110.0
X107.0Y-114.0
X107.0Y-138.0
X107.0Y-142.0
X107.5Y-90.0
X107.5Y-118.0
X107.5Y-146.0
X108.0Y-89.0
X108.0Y-117.0
X108.0Y-145.0
X112.0Y-67.0
X112.0Y-95.0
X112.0Y-123.0
X112.5Y-66.0
X112.5Y-94.0
X112.5Y-122.0
X113.0Y-70.0
X113.0Y-74.0
X113.0Y-98.0
X113.0Y-102.0
X113.0Y-126.0
X113.0Y-130.0
X113.5Y-66.0
X113.5Y-94.0
X113.5Y-122.0
X131.0Y-70.0
X131.0Y-76.0
X131.0Y-98.0
X131.0Y-104.0
X131.0Y-126.0
X131.0Y-132.0
X133.4Y-75.75
X133.4Y-103.75
X133.4Y-131.75
X133.5Y-69.0
X133.5Y-71.0
X133.5Y-97.0
X133.5Y-99.0
X133.5Y-125.0
X133.5Y-127.0
X135.5Y-69.0
X135.5Y-71.0
X135.5Y-97.0
X135.5Y-99.0
X135.5Y-125.0
X135.5Y-127.0
T3
X147.0Y-76.72
X147.0Y-79.26
X147.0Y-81.8
X73.0Y-123.2
X73.0Y-125.74
X147.0Y-132.72
X147.0Y-135.26
X147.0Y-137.8
X73.0Y-95.2
X73.0Y-97.74
X73.0Y-130.2
X73.0Y-132.74
X73.0Y-135.28
X147.0Y-114.26
X147.0Y-116.8
X73.0Y-67.2
X73.0Y-69.74
X147.0Y-86.26
X147.0Y-88.8
X147.0Y-104.72
X147.0Y-107.26
X147.0Y-109.8
X147.0Y-142.26
X147.0Y-144.8
X73.0Y-74.2
X73.0Y-76.74
X73.0Y-79.28
X73.0Y-102.2
X73.0Y-104.74
X73.0Y-107.28
T4
X134.345Y-88.94
X135.615Y-86.4
X136.885Y-88.94
X138.155Y-86.4
X81.845Y-97.6
X83.115Y-95.06
X84.385Y-97.6
X85.655Y-95.06
X81.845Y-125.6
X83.115Y-123.06
X84.385Y-125.6
X85.655Y-123.06
X134.345Y-144.94
X135.615Y-142.4
X136.885Y-144.94
X138.155Y-142.4
X81.845Y-69.6
X83.115Y-67.06
X84.385Y-69.6
X85.655Y-67.06
X134.345Y-116.94
X135.615Y-114.4
X136.885Y-116.94
X138.155Y-114.4
T5
X152.25Y-133.25
X152.25Y-134.0
X152.25Y-134.75
X153.75Y-133.25
X153.75Y-134.0
X153.75Y-134.75
X109.25Y-77.25
X109.25Y-78.0
X109.25Y-78.75
X110.75Y-77.25
X110.75Y-78.0
X110.75Y-78.75
X130.75Y-147.25
X130.75Y-148.75
X131.5Y-147.25
X131.5Y-148.75
X132.25Y-147.25
X132.25Y-148.75
X87.75Y-119.25
X87.75Y-120.75
X88.5Y-119.25
X88.5Y-120.75
X89.25Y-119.25
X89.25Y-120.75
X130.75Y-91.25
X130.75Y-92.75
X131.5Y-91.25
X131.5Y-92.75
X132.25Y-91.25
X132.25Y-92.75
X66.25Y-77.25
X66.25Y-78.0
X66.25Y-78.75
X67.75Y-77.25
X67.75Y-78.0
X67.75Y-78.75
X109.25Y-105.25
X109.25Y-106.0
X109.25Y-106.75
X110.75Y-105.25
X110.75Y-106.0
X110.75Y-106.75
X152.25Y-77.25
X152.25Y-78.0
X152.25Y-78.75
X153.75Y-77.25
X153.75Y-78.0
X153.75Y-78.75
X87.75Y-91.25
X87.75Y-92.75
X88.5Y-91.25
X88.5Y-92.75
X89.25Y-91.25
X89.25Y-92.75
X130.75Y-63.25
X130.75Y-64.75
X131.5Y-63.25
X131.5Y-64.75
X132.25Y-63.25
X132.25Y-64.75
X66.25Y-133.25
X66.25Y-134.0
X66.25Y-134.75
X67.75Y-133.25
X67.75Y-134.0
X67.75Y-134.75
X130.75Y-119.25
X130.75Y-120.75
X131.5Y-119.25
X131.5Y-120.75
X132.25Y-119.25
X132.25Y-120.75
X66.25Y-105.25
X66.25Y-106.0
X66.25Y-106.75
X67.75Y-105.25
X67.75Y-106.0
X67.75Y-106.75
X152.25Y-105.25
X152.25Y-106.0
X152.25Y-106.75
X153.75Y-105.25
X153.75Y-106.0
X153.75Y-106.75
X87.75Y-147.25
X87.75Y-148.75
X88.5Y-147.25
X88.5Y-148.75
X89.25Y-147.25
X89.25Y-148.75
X87.75Y-63.25
X87.75Y-64.75
X88.5Y-63.25
X88.5Y-64.75
X89.25Y-63.25
X89.25Y-64.75
X109.25Y-133.25
X109.25Y-134.0
X109.25Y-134.75
X110.75Y-133.25
X110.75Y-134.0
X110.75Y-134.75
T6
X86.985Y-125.6
X133.015Y-142.4
X86.985Y-69.6
X133.015Y-114.4
X133.015Y-86.4
X86.985Y-97.6
T7
X80.515Y-95.06
X80.515Y-123.06
X139.485Y-144.94
X80.515Y-67.06
X139.485Y-116.94
X139.485Y-88.94
T0
M30
