M48
; DRILL file {KiCad 5.1.12-84ad8e8a86~92~ubuntu20.04.1} date Wed Jan 19 00:30:43 2022
; FORMAT={-:-/ absolute / metric / decimal}
; #@! TF.CreationDate,2022-01-19T00:30:43+02:00
; #@! TF.GenerationSoftware,Kicad,Pcbnew,5.1.12-84ad8e8a86~92~ubuntu20.04.1
FMAT,2
METRIC
T1C0.400
T2C0.650
T3C0.800
T4C1.400
T5C2.100
T6C2.500
%
G90
G05
T1
X79.9Y-54.1
X79.9Y-55.1
X79.9Y-56.1
X79.9Y-57.1
X81.5Y-63.5
X81.5Y-65.5
X81.5Y-67.5
X81.65Y-57.85
X83.0Y-52.0
X83.0Y-53.0
X83.0Y-54.0
X83.0Y-55.0
X83.0Y-56.0
X83.0Y-62.0
X83.0Y-69.5
X84.0Y-52.0
X84.0Y-53.0
X84.0Y-54.0
X84.0Y-55.0
X84.0Y-56.0
X84.5Y-58.325
X84.5Y-60.5
X84.5Y-70.5
X85.0Y-52.0
X85.0Y-53.0
X85.0Y-54.0
X85.0Y-55.0
X85.0Y-56.0
X90.0Y-47.0
X91.5Y-63.5
X91.5Y-65.5
X91.5Y-67.5
X91.9Y-57.5
X92.0Y-47.0
X94.25Y-56.25
X94.25Y-58.75
X94.5Y-63.5
X94.5Y-65.5
X94.5Y-67.5
X96.5Y-56.25
X96.5Y-58.75
X97.0Y-63.5
X97.0Y-65.5
X103.5Y-55.75
X103.5Y-57.0
X103.5Y-58.25
X103.5Y-59.5
X105.25Y-64.75
X107.5Y-63.5
X107.5Y-64.75
X109.75Y-57.75
X109.75Y-64.75
X109.762Y-55.8
X113.0Y-57.5
X113.0Y-59.5
X113.25Y-54.747
X113.25Y-48.0
X114.0Y-61.5
X114.0Y-63.5
X114.0Y-65.5
X114.0Y-67.5
X119.5Y-59.5
X119.5Y-61.5
X119.5Y-63.5
X119.5Y-65.5
X119.5Y-67.5
X123.5Y-59.5
X123.5Y-61.5
X123.5Y-63.5
X123.5Y-65.5
X123.5Y-67.5
X124.701Y-56.875
X126.0Y-56.5
X127.5Y-59.5
X127.5Y-61.5
X127.5Y-63.5
X127.5Y-65.5
X127.5Y-67.5
X128.5Y-57.5
X129.0Y-67.5
T2
X112.9Y-69.93
X112.9Y-71.2
T3
X95.75Y-66.5
X100.75Y-66.5
T4
X68.27Y-65.0
X68.27Y-67.54
X68.27Y-70.08
X68.27Y-51.77
X68.27Y-54.31
X73.35Y-65.0
X73.35Y-67.54
X73.35Y-70.08
X73.35Y-51.77
X73.35Y-54.31
X100.095Y-51.27
X101.365Y-48.73
X102.635Y-51.27
X103.905Y-48.73
T5
X105.235Y-51.27
T6
X98.765Y-48.73
T0
M30
