%TF.GenerationSoftware,KiCad,Pcbnew,5.1.5+dfsg1-2build2*%
%TF.CreationDate,2021-11-04T16:47:03+02:00*%
%TF.ProjectId,LED_Wled,4c45445f-576c-4656-942e-6b696361645f,rev?*%
%TF.SameCoordinates,Original*%
%TF.FileFunction,Legend,Top*%
%TF.FilePolarity,Positive*%
%FSLAX46Y46*%
G04 Gerber Fmt 4.6, Leading zero omitted, Abs format (unit mm)*
G04 Created by KiCad (PCBNEW 5.1.5+dfsg1-2build2) date 2021-11-04 16:47:03*
%MOMM*%
%LPD*%
G04 APERTURE LIST*
%ADD10C,0.125000*%
%ADD11C,0.150000*%
%ADD12C,0.100000*%
%ADD13C,0.120000*%
%ADD14C,0.200000*%
%ADD15C,0.127000*%
G04 APERTURE END LIST*
D10*
X132571428Y-145375000D02*
X132642857Y-145410714D01*
X132750000Y-145410714D01*
X132857142Y-145375000D01*
X132928571Y-145303571D01*
X132964285Y-145232142D01*
X133000000Y-145089285D01*
X133000000Y-144982142D01*
X132964285Y-144839285D01*
X132928571Y-144767857D01*
X132857142Y-144696428D01*
X132750000Y-144660714D01*
X132678571Y-144660714D01*
X132571428Y-144696428D01*
X132535714Y-144732142D01*
X132535714Y-144982142D01*
X132678571Y-144982142D01*
X132214285Y-144660714D02*
X132214285Y-145410714D01*
X131785714Y-144660714D01*
X131785714Y-145410714D01*
X131428571Y-144660714D02*
X131428571Y-145410714D01*
X131250000Y-145410714D01*
X131142857Y-145375000D01*
X131071428Y-145303571D01*
X131035714Y-145232142D01*
X131000000Y-145089285D01*
X131000000Y-144982142D01*
X131035714Y-144839285D01*
X131071428Y-144767857D01*
X131142857Y-144696428D01*
X131250000Y-144660714D01*
X131428571Y-144660714D01*
D11*
X150852380Y-146300000D02*
X151852380Y-145966666D01*
X150852380Y-145633333D01*
X151852380Y-145300000D02*
X150852380Y-145300000D01*
X151852380Y-144823809D02*
X150852380Y-144823809D01*
X151852380Y-144252380D01*
X150852380Y-144252380D01*
X150900000Y-142490476D02*
X150852380Y-142585714D01*
X150852380Y-142728571D01*
X150900000Y-142871428D01*
X150995238Y-142966666D01*
X151090476Y-143014285D01*
X151280952Y-143061904D01*
X151423809Y-143061904D01*
X151614285Y-143014285D01*
X151709523Y-142966666D01*
X151804761Y-142871428D01*
X151852380Y-142728571D01*
X151852380Y-142633333D01*
X151804761Y-142490476D01*
X151757142Y-142442857D01*
X151423809Y-142442857D01*
X151423809Y-142633333D01*
X151852380Y-142014285D02*
X150852380Y-142014285D01*
X151852380Y-141442857D01*
X150852380Y-141442857D01*
X151852380Y-140966666D02*
X150852380Y-140966666D01*
X150852380Y-140728571D01*
X150900000Y-140585714D01*
X150995238Y-140490476D01*
X151090476Y-140442857D01*
X151280952Y-140395238D01*
X151423809Y-140395238D01*
X151614285Y-140442857D01*
X151709523Y-140490476D01*
X151804761Y-140585714D01*
X151852380Y-140728571D01*
X151852380Y-140966666D01*
X151852380Y-138676190D02*
X150852380Y-138676190D01*
X150852380Y-138438095D01*
X150900000Y-138295238D01*
X150995238Y-138200000D01*
X151090476Y-138152380D01*
X151280952Y-138104761D01*
X151423809Y-138104761D01*
X151614285Y-138152380D01*
X151709523Y-138200000D01*
X151804761Y-138295238D01*
X151852380Y-138438095D01*
X151852380Y-138676190D01*
X151852380Y-137676190D02*
X150852380Y-137676190D01*
X150852380Y-136580952D02*
X151852380Y-136247619D01*
X150852380Y-135914285D01*
X151852380Y-135580952D02*
X150852380Y-135580952D01*
X151852380Y-135104761D02*
X150852380Y-135104761D01*
X151852380Y-134533333D01*
X150852380Y-134533333D01*
X150900000Y-132771428D02*
X150852380Y-132866666D01*
X150852380Y-133009523D01*
X150900000Y-133152380D01*
X150995238Y-133247619D01*
X151090476Y-133295238D01*
X151280952Y-133342857D01*
X151423809Y-133342857D01*
X151614285Y-133295238D01*
X151709523Y-133247619D01*
X151804761Y-133152380D01*
X151852380Y-133009523D01*
X151852380Y-132914285D01*
X151804761Y-132771428D01*
X151757142Y-132723809D01*
X151423809Y-132723809D01*
X151423809Y-132914285D01*
X151852380Y-132295238D02*
X150852380Y-132295238D01*
X151852380Y-131723809D01*
X150852380Y-131723809D01*
X151852380Y-131247619D02*
X150852380Y-131247619D01*
X150852380Y-131009523D01*
X150900000Y-130866666D01*
X150995238Y-130771428D01*
X151090476Y-130723809D01*
X151280952Y-130676190D01*
X151423809Y-130676190D01*
X151614285Y-130723809D01*
X151709523Y-130771428D01*
X151804761Y-130866666D01*
X151852380Y-131009523D01*
X151852380Y-131247619D01*
D10*
X131025000Y-141960714D02*
X131275000Y-142317857D01*
X131453571Y-141960714D02*
X131453571Y-142710714D01*
X131167857Y-142710714D01*
X131096428Y-142675000D01*
X131060714Y-142639285D01*
X131025000Y-142567857D01*
X131025000Y-142460714D01*
X131060714Y-142389285D01*
X131096428Y-142353571D01*
X131167857Y-142317857D01*
X131453571Y-142317857D01*
X130775000Y-142710714D02*
X130275000Y-141960714D01*
X130275000Y-142710714D02*
X130775000Y-141960714D01*
X142271428Y-145410714D02*
X141842857Y-145410714D01*
X142057142Y-144660714D02*
X142057142Y-145410714D01*
X141664285Y-145410714D02*
X141164285Y-144660714D01*
X141164285Y-145410714D02*
X141664285Y-144660714D01*
X142285714Y-142246428D02*
X141714285Y-142246428D01*
X142000000Y-141960714D02*
X142000000Y-142532142D01*
X141428571Y-142710714D02*
X140964285Y-142710714D01*
X141214285Y-142425000D01*
X141107142Y-142425000D01*
X141035714Y-142389285D01*
X141000000Y-142353571D01*
X140964285Y-142282142D01*
X140964285Y-142103571D01*
X141000000Y-142032142D01*
X141035714Y-141996428D01*
X141107142Y-141960714D01*
X141321428Y-141960714D01*
X141392857Y-141996428D01*
X141428571Y-142032142D01*
X140714285Y-142460714D02*
X140535714Y-141960714D01*
X140357142Y-142460714D01*
X140142857Y-142710714D02*
X139678571Y-142710714D01*
X139928571Y-142425000D01*
X139821428Y-142425000D01*
X139750000Y-142389285D01*
X139714285Y-142353571D01*
X139678571Y-142282142D01*
X139678571Y-142103571D01*
X139714285Y-142032142D01*
X139750000Y-141996428D01*
X139821428Y-141960714D01*
X140035714Y-141960714D01*
X140107142Y-141996428D01*
X140142857Y-142032142D01*
D11*
X69147619Y-121700000D02*
X68147619Y-122033333D01*
X69147619Y-122366666D01*
X68147619Y-122700000D02*
X69147619Y-122700000D01*
X68147619Y-123176190D02*
X69147619Y-123176190D01*
X68147619Y-123747619D01*
X69147619Y-123747619D01*
X69100000Y-125509523D02*
X69147619Y-125414285D01*
X69147619Y-125271428D01*
X69100000Y-125128571D01*
X69004761Y-125033333D01*
X68909523Y-124985714D01*
X68719047Y-124938095D01*
X68576190Y-124938095D01*
X68385714Y-124985714D01*
X68290476Y-125033333D01*
X68195238Y-125128571D01*
X68147619Y-125271428D01*
X68147619Y-125366666D01*
X68195238Y-125509523D01*
X68242857Y-125557142D01*
X68576190Y-125557142D01*
X68576190Y-125366666D01*
X68147619Y-125985714D02*
X69147619Y-125985714D01*
X68147619Y-126557142D01*
X69147619Y-126557142D01*
X68147619Y-127033333D02*
X69147619Y-127033333D01*
X69147619Y-127271428D01*
X69100000Y-127414285D01*
X69004761Y-127509523D01*
X68909523Y-127557142D01*
X68719047Y-127604761D01*
X68576190Y-127604761D01*
X68385714Y-127557142D01*
X68290476Y-127509523D01*
X68195238Y-127414285D01*
X68147619Y-127271428D01*
X68147619Y-127033333D01*
X68147619Y-129323809D02*
X69147619Y-129323809D01*
X69147619Y-129561904D01*
X69100000Y-129704761D01*
X69004761Y-129800000D01*
X68909523Y-129847619D01*
X68719047Y-129895238D01*
X68576190Y-129895238D01*
X68385714Y-129847619D01*
X68290476Y-129800000D01*
X68195238Y-129704761D01*
X68147619Y-129561904D01*
X68147619Y-129323809D01*
X68147619Y-130323809D02*
X69147619Y-130323809D01*
X69147619Y-131419047D02*
X68147619Y-131752380D01*
X69147619Y-132085714D01*
X68147619Y-132419047D02*
X69147619Y-132419047D01*
X68147619Y-132895238D02*
X69147619Y-132895238D01*
X68147619Y-133466666D01*
X69147619Y-133466666D01*
X69100000Y-135228571D02*
X69147619Y-135133333D01*
X69147619Y-134990476D01*
X69100000Y-134847619D01*
X69004761Y-134752380D01*
X68909523Y-134704761D01*
X68719047Y-134657142D01*
X68576190Y-134657142D01*
X68385714Y-134704761D01*
X68290476Y-134752380D01*
X68195238Y-134847619D01*
X68147619Y-134990476D01*
X68147619Y-135085714D01*
X68195238Y-135228571D01*
X68242857Y-135276190D01*
X68576190Y-135276190D01*
X68576190Y-135085714D01*
X68147619Y-135704761D02*
X69147619Y-135704761D01*
X68147619Y-136276190D01*
X69147619Y-136276190D01*
X68147619Y-136752380D02*
X69147619Y-136752380D01*
X69147619Y-136990476D01*
X69100000Y-137133333D01*
X69004761Y-137228571D01*
X68909523Y-137276190D01*
X68719047Y-137323809D01*
X68576190Y-137323809D01*
X68385714Y-137276190D01*
X68290476Y-137228571D01*
X68195238Y-137133333D01*
X68147619Y-136990476D01*
X68147619Y-136752380D01*
D10*
X88975000Y-126039285D02*
X88725000Y-125682142D01*
X88546428Y-126039285D02*
X88546428Y-125289285D01*
X88832142Y-125289285D01*
X88903571Y-125325000D01*
X88939285Y-125360714D01*
X88975000Y-125432142D01*
X88975000Y-125539285D01*
X88939285Y-125610714D01*
X88903571Y-125646428D01*
X88832142Y-125682142D01*
X88546428Y-125682142D01*
X89225000Y-125289285D02*
X89725000Y-126039285D01*
X89725000Y-125289285D02*
X89225000Y-126039285D01*
X77728571Y-122589285D02*
X78157142Y-122589285D01*
X77942857Y-123339285D02*
X77942857Y-122589285D01*
X78335714Y-122589285D02*
X78835714Y-123339285D01*
X78835714Y-122589285D02*
X78335714Y-123339285D01*
X87428571Y-122625000D02*
X87357142Y-122589285D01*
X87250000Y-122589285D01*
X87142857Y-122625000D01*
X87071428Y-122696428D01*
X87035714Y-122767857D01*
X87000000Y-122910714D01*
X87000000Y-123017857D01*
X87035714Y-123160714D01*
X87071428Y-123232142D01*
X87142857Y-123303571D01*
X87250000Y-123339285D01*
X87321428Y-123339285D01*
X87428571Y-123303571D01*
X87464285Y-123267857D01*
X87464285Y-123017857D01*
X87321428Y-123017857D01*
X87785714Y-123339285D02*
X87785714Y-122589285D01*
X88214285Y-123339285D01*
X88214285Y-122589285D01*
X88571428Y-123339285D02*
X88571428Y-122589285D01*
X88750000Y-122589285D01*
X88857142Y-122625000D01*
X88928571Y-122696428D01*
X88964285Y-122767857D01*
X89000000Y-122910714D01*
X89000000Y-123017857D01*
X88964285Y-123160714D01*
X88928571Y-123232142D01*
X88857142Y-123303571D01*
X88750000Y-123339285D01*
X88571428Y-123339285D01*
X77714285Y-125753571D02*
X78285714Y-125753571D01*
X78000000Y-126039285D02*
X78000000Y-125467857D01*
X78571428Y-125289285D02*
X79035714Y-125289285D01*
X78785714Y-125575000D01*
X78892857Y-125575000D01*
X78964285Y-125610714D01*
X79000000Y-125646428D01*
X79035714Y-125717857D01*
X79035714Y-125896428D01*
X79000000Y-125967857D01*
X78964285Y-126003571D01*
X78892857Y-126039285D01*
X78678571Y-126039285D01*
X78607142Y-126003571D01*
X78571428Y-125967857D01*
X79285714Y-125539285D02*
X79464285Y-126039285D01*
X79642857Y-125539285D01*
X79857142Y-125289285D02*
X80321428Y-125289285D01*
X80071428Y-125575000D01*
X80178571Y-125575000D01*
X80250000Y-125610714D01*
X80285714Y-125646428D01*
X80321428Y-125717857D01*
X80321428Y-125896428D01*
X80285714Y-125967857D01*
X80250000Y-126003571D01*
X80178571Y-126039285D01*
X79964285Y-126039285D01*
X79892857Y-126003571D01*
X79857142Y-125967857D01*
X132571428Y-117375000D02*
X132642857Y-117410714D01*
X132750000Y-117410714D01*
X132857142Y-117375000D01*
X132928571Y-117303571D01*
X132964285Y-117232142D01*
X133000000Y-117089285D01*
X133000000Y-116982142D01*
X132964285Y-116839285D01*
X132928571Y-116767857D01*
X132857142Y-116696428D01*
X132750000Y-116660714D01*
X132678571Y-116660714D01*
X132571428Y-116696428D01*
X132535714Y-116732142D01*
X132535714Y-116982142D01*
X132678571Y-116982142D01*
X132214285Y-116660714D02*
X132214285Y-117410714D01*
X131785714Y-116660714D01*
X131785714Y-117410714D01*
X131428571Y-116660714D02*
X131428571Y-117410714D01*
X131250000Y-117410714D01*
X131142857Y-117375000D01*
X131071428Y-117303571D01*
X131035714Y-117232142D01*
X131000000Y-117089285D01*
X131000000Y-116982142D01*
X131035714Y-116839285D01*
X131071428Y-116767857D01*
X131142857Y-116696428D01*
X131250000Y-116660714D01*
X131428571Y-116660714D01*
D11*
X150852380Y-118300000D02*
X151852380Y-117966666D01*
X150852380Y-117633333D01*
X151852380Y-117300000D02*
X150852380Y-117300000D01*
X151852380Y-116823809D02*
X150852380Y-116823809D01*
X151852380Y-116252380D01*
X150852380Y-116252380D01*
X150900000Y-114490476D02*
X150852380Y-114585714D01*
X150852380Y-114728571D01*
X150900000Y-114871428D01*
X150995238Y-114966666D01*
X151090476Y-115014285D01*
X151280952Y-115061904D01*
X151423809Y-115061904D01*
X151614285Y-115014285D01*
X151709523Y-114966666D01*
X151804761Y-114871428D01*
X151852380Y-114728571D01*
X151852380Y-114633333D01*
X151804761Y-114490476D01*
X151757142Y-114442857D01*
X151423809Y-114442857D01*
X151423809Y-114633333D01*
X151852380Y-114014285D02*
X150852380Y-114014285D01*
X151852380Y-113442857D01*
X150852380Y-113442857D01*
X151852380Y-112966666D02*
X150852380Y-112966666D01*
X150852380Y-112728571D01*
X150900000Y-112585714D01*
X150995238Y-112490476D01*
X151090476Y-112442857D01*
X151280952Y-112395238D01*
X151423809Y-112395238D01*
X151614285Y-112442857D01*
X151709523Y-112490476D01*
X151804761Y-112585714D01*
X151852380Y-112728571D01*
X151852380Y-112966666D01*
X151852380Y-110676190D02*
X150852380Y-110676190D01*
X150852380Y-110438095D01*
X150900000Y-110295238D01*
X150995238Y-110200000D01*
X151090476Y-110152380D01*
X151280952Y-110104761D01*
X151423809Y-110104761D01*
X151614285Y-110152380D01*
X151709523Y-110200000D01*
X151804761Y-110295238D01*
X151852380Y-110438095D01*
X151852380Y-110676190D01*
X151852380Y-109676190D02*
X150852380Y-109676190D01*
X150852380Y-108580952D02*
X151852380Y-108247619D01*
X150852380Y-107914285D01*
X151852380Y-107580952D02*
X150852380Y-107580952D01*
X151852380Y-107104761D02*
X150852380Y-107104761D01*
X151852380Y-106533333D01*
X150852380Y-106533333D01*
X150900000Y-104771428D02*
X150852380Y-104866666D01*
X150852380Y-105009523D01*
X150900000Y-105152380D01*
X150995238Y-105247619D01*
X151090476Y-105295238D01*
X151280952Y-105342857D01*
X151423809Y-105342857D01*
X151614285Y-105295238D01*
X151709523Y-105247619D01*
X151804761Y-105152380D01*
X151852380Y-105009523D01*
X151852380Y-104914285D01*
X151804761Y-104771428D01*
X151757142Y-104723809D01*
X151423809Y-104723809D01*
X151423809Y-104914285D01*
X151852380Y-104295238D02*
X150852380Y-104295238D01*
X151852380Y-103723809D01*
X150852380Y-103723809D01*
X151852380Y-103247619D02*
X150852380Y-103247619D01*
X150852380Y-103009523D01*
X150900000Y-102866666D01*
X150995238Y-102771428D01*
X151090476Y-102723809D01*
X151280952Y-102676190D01*
X151423809Y-102676190D01*
X151614285Y-102723809D01*
X151709523Y-102771428D01*
X151804761Y-102866666D01*
X151852380Y-103009523D01*
X151852380Y-103247619D01*
D10*
X131025000Y-113960714D02*
X131275000Y-114317857D01*
X131453571Y-113960714D02*
X131453571Y-114710714D01*
X131167857Y-114710714D01*
X131096428Y-114675000D01*
X131060714Y-114639285D01*
X131025000Y-114567857D01*
X131025000Y-114460714D01*
X131060714Y-114389285D01*
X131096428Y-114353571D01*
X131167857Y-114317857D01*
X131453571Y-114317857D01*
X130775000Y-114710714D02*
X130275000Y-113960714D01*
X130275000Y-114710714D02*
X130775000Y-113960714D01*
X142271428Y-117410714D02*
X141842857Y-117410714D01*
X142057142Y-116660714D02*
X142057142Y-117410714D01*
X141664285Y-117410714D02*
X141164285Y-116660714D01*
X141164285Y-117410714D02*
X141664285Y-116660714D01*
X142285714Y-114246428D02*
X141714285Y-114246428D01*
X142000000Y-113960714D02*
X142000000Y-114532142D01*
X141428571Y-114710714D02*
X140964285Y-114710714D01*
X141214285Y-114425000D01*
X141107142Y-114425000D01*
X141035714Y-114389285D01*
X141000000Y-114353571D01*
X140964285Y-114282142D01*
X140964285Y-114103571D01*
X141000000Y-114032142D01*
X141035714Y-113996428D01*
X141107142Y-113960714D01*
X141321428Y-113960714D01*
X141392857Y-113996428D01*
X141428571Y-114032142D01*
X140714285Y-114460714D02*
X140535714Y-113960714D01*
X140357142Y-114460714D01*
X140142857Y-114710714D02*
X139678571Y-114710714D01*
X139928571Y-114425000D01*
X139821428Y-114425000D01*
X139750000Y-114389285D01*
X139714285Y-114353571D01*
X139678571Y-114282142D01*
X139678571Y-114103571D01*
X139714285Y-114032142D01*
X139750000Y-113996428D01*
X139821428Y-113960714D01*
X140035714Y-113960714D01*
X140107142Y-113996428D01*
X140142857Y-114032142D01*
D11*
X69147619Y-93700000D02*
X68147619Y-94033333D01*
X69147619Y-94366666D01*
X68147619Y-94700000D02*
X69147619Y-94700000D01*
X68147619Y-95176190D02*
X69147619Y-95176190D01*
X68147619Y-95747619D01*
X69147619Y-95747619D01*
X69100000Y-97509523D02*
X69147619Y-97414285D01*
X69147619Y-97271428D01*
X69100000Y-97128571D01*
X69004761Y-97033333D01*
X68909523Y-96985714D01*
X68719047Y-96938095D01*
X68576190Y-96938095D01*
X68385714Y-96985714D01*
X68290476Y-97033333D01*
X68195238Y-97128571D01*
X68147619Y-97271428D01*
X68147619Y-97366666D01*
X68195238Y-97509523D01*
X68242857Y-97557142D01*
X68576190Y-97557142D01*
X68576190Y-97366666D01*
X68147619Y-97985714D02*
X69147619Y-97985714D01*
X68147619Y-98557142D01*
X69147619Y-98557142D01*
X68147619Y-99033333D02*
X69147619Y-99033333D01*
X69147619Y-99271428D01*
X69100000Y-99414285D01*
X69004761Y-99509523D01*
X68909523Y-99557142D01*
X68719047Y-99604761D01*
X68576190Y-99604761D01*
X68385714Y-99557142D01*
X68290476Y-99509523D01*
X68195238Y-99414285D01*
X68147619Y-99271428D01*
X68147619Y-99033333D01*
X68147619Y-101323809D02*
X69147619Y-101323809D01*
X69147619Y-101561904D01*
X69100000Y-101704761D01*
X69004761Y-101800000D01*
X68909523Y-101847619D01*
X68719047Y-101895238D01*
X68576190Y-101895238D01*
X68385714Y-101847619D01*
X68290476Y-101800000D01*
X68195238Y-101704761D01*
X68147619Y-101561904D01*
X68147619Y-101323809D01*
X68147619Y-102323809D02*
X69147619Y-102323809D01*
X69147619Y-103419047D02*
X68147619Y-103752380D01*
X69147619Y-104085714D01*
X68147619Y-104419047D02*
X69147619Y-104419047D01*
X68147619Y-104895238D02*
X69147619Y-104895238D01*
X68147619Y-105466666D01*
X69147619Y-105466666D01*
X69100000Y-107228571D02*
X69147619Y-107133333D01*
X69147619Y-106990476D01*
X69100000Y-106847619D01*
X69004761Y-106752380D01*
X68909523Y-106704761D01*
X68719047Y-106657142D01*
X68576190Y-106657142D01*
X68385714Y-106704761D01*
X68290476Y-106752380D01*
X68195238Y-106847619D01*
X68147619Y-106990476D01*
X68147619Y-107085714D01*
X68195238Y-107228571D01*
X68242857Y-107276190D01*
X68576190Y-107276190D01*
X68576190Y-107085714D01*
X68147619Y-107704761D02*
X69147619Y-107704761D01*
X68147619Y-108276190D01*
X69147619Y-108276190D01*
X68147619Y-108752380D02*
X69147619Y-108752380D01*
X69147619Y-108990476D01*
X69100000Y-109133333D01*
X69004761Y-109228571D01*
X68909523Y-109276190D01*
X68719047Y-109323809D01*
X68576190Y-109323809D01*
X68385714Y-109276190D01*
X68290476Y-109228571D01*
X68195238Y-109133333D01*
X68147619Y-108990476D01*
X68147619Y-108752380D01*
D10*
X88975000Y-98039285D02*
X88725000Y-97682142D01*
X88546428Y-98039285D02*
X88546428Y-97289285D01*
X88832142Y-97289285D01*
X88903571Y-97325000D01*
X88939285Y-97360714D01*
X88975000Y-97432142D01*
X88975000Y-97539285D01*
X88939285Y-97610714D01*
X88903571Y-97646428D01*
X88832142Y-97682142D01*
X88546428Y-97682142D01*
X89225000Y-97289285D02*
X89725000Y-98039285D01*
X89725000Y-97289285D02*
X89225000Y-98039285D01*
X77728571Y-94589285D02*
X78157142Y-94589285D01*
X77942857Y-95339285D02*
X77942857Y-94589285D01*
X78335714Y-94589285D02*
X78835714Y-95339285D01*
X78835714Y-94589285D02*
X78335714Y-95339285D01*
X87428571Y-94625000D02*
X87357142Y-94589285D01*
X87250000Y-94589285D01*
X87142857Y-94625000D01*
X87071428Y-94696428D01*
X87035714Y-94767857D01*
X87000000Y-94910714D01*
X87000000Y-95017857D01*
X87035714Y-95160714D01*
X87071428Y-95232142D01*
X87142857Y-95303571D01*
X87250000Y-95339285D01*
X87321428Y-95339285D01*
X87428571Y-95303571D01*
X87464285Y-95267857D01*
X87464285Y-95017857D01*
X87321428Y-95017857D01*
X87785714Y-95339285D02*
X87785714Y-94589285D01*
X88214285Y-95339285D01*
X88214285Y-94589285D01*
X88571428Y-95339285D02*
X88571428Y-94589285D01*
X88750000Y-94589285D01*
X88857142Y-94625000D01*
X88928571Y-94696428D01*
X88964285Y-94767857D01*
X89000000Y-94910714D01*
X89000000Y-95017857D01*
X88964285Y-95160714D01*
X88928571Y-95232142D01*
X88857142Y-95303571D01*
X88750000Y-95339285D01*
X88571428Y-95339285D01*
X77714285Y-97753571D02*
X78285714Y-97753571D01*
X78000000Y-98039285D02*
X78000000Y-97467857D01*
X78571428Y-97289285D02*
X79035714Y-97289285D01*
X78785714Y-97575000D01*
X78892857Y-97575000D01*
X78964285Y-97610714D01*
X79000000Y-97646428D01*
X79035714Y-97717857D01*
X79035714Y-97896428D01*
X79000000Y-97967857D01*
X78964285Y-98003571D01*
X78892857Y-98039285D01*
X78678571Y-98039285D01*
X78607142Y-98003571D01*
X78571428Y-97967857D01*
X79285714Y-97539285D02*
X79464285Y-98039285D01*
X79642857Y-97539285D01*
X79857142Y-97289285D02*
X80321428Y-97289285D01*
X80071428Y-97575000D01*
X80178571Y-97575000D01*
X80250000Y-97610714D01*
X80285714Y-97646428D01*
X80321428Y-97717857D01*
X80321428Y-97896428D01*
X80285714Y-97967857D01*
X80250000Y-98003571D01*
X80178571Y-98039285D01*
X79964285Y-98039285D01*
X79892857Y-98003571D01*
X79857142Y-97967857D01*
D11*
X150852380Y-90300000D02*
X151852380Y-89966666D01*
X150852380Y-89633333D01*
X151852380Y-89300000D02*
X150852380Y-89300000D01*
X151852380Y-88823809D02*
X150852380Y-88823809D01*
X151852380Y-88252380D01*
X150852380Y-88252380D01*
X150900000Y-86490476D02*
X150852380Y-86585714D01*
X150852380Y-86728571D01*
X150900000Y-86871428D01*
X150995238Y-86966666D01*
X151090476Y-87014285D01*
X151280952Y-87061904D01*
X151423809Y-87061904D01*
X151614285Y-87014285D01*
X151709523Y-86966666D01*
X151804761Y-86871428D01*
X151852380Y-86728571D01*
X151852380Y-86633333D01*
X151804761Y-86490476D01*
X151757142Y-86442857D01*
X151423809Y-86442857D01*
X151423809Y-86633333D01*
X151852380Y-86014285D02*
X150852380Y-86014285D01*
X151852380Y-85442857D01*
X150852380Y-85442857D01*
X151852380Y-84966666D02*
X150852380Y-84966666D01*
X150852380Y-84728571D01*
X150900000Y-84585714D01*
X150995238Y-84490476D01*
X151090476Y-84442857D01*
X151280952Y-84395238D01*
X151423809Y-84395238D01*
X151614285Y-84442857D01*
X151709523Y-84490476D01*
X151804761Y-84585714D01*
X151852380Y-84728571D01*
X151852380Y-84966666D01*
X151852380Y-82676190D02*
X150852380Y-82676190D01*
X150852380Y-82438095D01*
X150900000Y-82295238D01*
X150995238Y-82200000D01*
X151090476Y-82152380D01*
X151280952Y-82104761D01*
X151423809Y-82104761D01*
X151614285Y-82152380D01*
X151709523Y-82200000D01*
X151804761Y-82295238D01*
X151852380Y-82438095D01*
X151852380Y-82676190D01*
X151852380Y-81676190D02*
X150852380Y-81676190D01*
X150852380Y-80580952D02*
X151852380Y-80247619D01*
X150852380Y-79914285D01*
X151852380Y-79580952D02*
X150852380Y-79580952D01*
X151852380Y-79104761D02*
X150852380Y-79104761D01*
X151852380Y-78533333D01*
X150852380Y-78533333D01*
X150900000Y-76771428D02*
X150852380Y-76866666D01*
X150852380Y-77009523D01*
X150900000Y-77152380D01*
X150995238Y-77247619D01*
X151090476Y-77295238D01*
X151280952Y-77342857D01*
X151423809Y-77342857D01*
X151614285Y-77295238D01*
X151709523Y-77247619D01*
X151804761Y-77152380D01*
X151852380Y-77009523D01*
X151852380Y-76914285D01*
X151804761Y-76771428D01*
X151757142Y-76723809D01*
X151423809Y-76723809D01*
X151423809Y-76914285D01*
X151852380Y-76295238D02*
X150852380Y-76295238D01*
X151852380Y-75723809D01*
X150852380Y-75723809D01*
X151852380Y-75247619D02*
X150852380Y-75247619D01*
X150852380Y-75009523D01*
X150900000Y-74866666D01*
X150995238Y-74771428D01*
X151090476Y-74723809D01*
X151280952Y-74676190D01*
X151423809Y-74676190D01*
X151614285Y-74723809D01*
X151709523Y-74771428D01*
X151804761Y-74866666D01*
X151852380Y-75009523D01*
X151852380Y-75247619D01*
D10*
X131025000Y-85960714D02*
X131275000Y-86317857D01*
X131453571Y-85960714D02*
X131453571Y-86710714D01*
X131167857Y-86710714D01*
X131096428Y-86675000D01*
X131060714Y-86639285D01*
X131025000Y-86567857D01*
X131025000Y-86460714D01*
X131060714Y-86389285D01*
X131096428Y-86353571D01*
X131167857Y-86317857D01*
X131453571Y-86317857D01*
X130775000Y-86710714D02*
X130275000Y-85960714D01*
X130275000Y-86710714D02*
X130775000Y-85960714D01*
X142271428Y-89410714D02*
X141842857Y-89410714D01*
X142057142Y-88660714D02*
X142057142Y-89410714D01*
X141664285Y-89410714D02*
X141164285Y-88660714D01*
X141164285Y-89410714D02*
X141664285Y-88660714D01*
X132571428Y-89375000D02*
X132642857Y-89410714D01*
X132750000Y-89410714D01*
X132857142Y-89375000D01*
X132928571Y-89303571D01*
X132964285Y-89232142D01*
X133000000Y-89089285D01*
X133000000Y-88982142D01*
X132964285Y-88839285D01*
X132928571Y-88767857D01*
X132857142Y-88696428D01*
X132750000Y-88660714D01*
X132678571Y-88660714D01*
X132571428Y-88696428D01*
X132535714Y-88732142D01*
X132535714Y-88982142D01*
X132678571Y-88982142D01*
X132214285Y-88660714D02*
X132214285Y-89410714D01*
X131785714Y-88660714D01*
X131785714Y-89410714D01*
X131428571Y-88660714D02*
X131428571Y-89410714D01*
X131250000Y-89410714D01*
X131142857Y-89375000D01*
X131071428Y-89303571D01*
X131035714Y-89232142D01*
X131000000Y-89089285D01*
X131000000Y-88982142D01*
X131035714Y-88839285D01*
X131071428Y-88767857D01*
X131142857Y-88696428D01*
X131250000Y-88660714D01*
X131428571Y-88660714D01*
X142285714Y-86246428D02*
X141714285Y-86246428D01*
X142000000Y-85960714D02*
X142000000Y-86532142D01*
X141428571Y-86710714D02*
X140964285Y-86710714D01*
X141214285Y-86425000D01*
X141107142Y-86425000D01*
X141035714Y-86389285D01*
X141000000Y-86353571D01*
X140964285Y-86282142D01*
X140964285Y-86103571D01*
X141000000Y-86032142D01*
X141035714Y-85996428D01*
X141107142Y-85960714D01*
X141321428Y-85960714D01*
X141392857Y-85996428D01*
X141428571Y-86032142D01*
X140714285Y-86460714D02*
X140535714Y-85960714D01*
X140357142Y-86460714D01*
X140142857Y-86710714D02*
X139678571Y-86710714D01*
X139928571Y-86425000D01*
X139821428Y-86425000D01*
X139750000Y-86389285D01*
X139714285Y-86353571D01*
X139678571Y-86282142D01*
X139678571Y-86103571D01*
X139714285Y-86032142D01*
X139750000Y-85996428D01*
X139821428Y-85960714D01*
X140035714Y-85960714D01*
X140107142Y-85996428D01*
X140142857Y-86032142D01*
X88975000Y-70039285D02*
X88725000Y-69682142D01*
X88546428Y-70039285D02*
X88546428Y-69289285D01*
X88832142Y-69289285D01*
X88903571Y-69325000D01*
X88939285Y-69360714D01*
X88975000Y-69432142D01*
X88975000Y-69539285D01*
X88939285Y-69610714D01*
X88903571Y-69646428D01*
X88832142Y-69682142D01*
X88546428Y-69682142D01*
X89225000Y-69289285D02*
X89725000Y-70039285D01*
X89725000Y-69289285D02*
X89225000Y-70039285D01*
X87428571Y-66625000D02*
X87357142Y-66589285D01*
X87250000Y-66589285D01*
X87142857Y-66625000D01*
X87071428Y-66696428D01*
X87035714Y-66767857D01*
X87000000Y-66910714D01*
X87000000Y-67017857D01*
X87035714Y-67160714D01*
X87071428Y-67232142D01*
X87142857Y-67303571D01*
X87250000Y-67339285D01*
X87321428Y-67339285D01*
X87428571Y-67303571D01*
X87464285Y-67267857D01*
X87464285Y-67017857D01*
X87321428Y-67017857D01*
X87785714Y-67339285D02*
X87785714Y-66589285D01*
X88214285Y-67339285D01*
X88214285Y-66589285D01*
X88571428Y-67339285D02*
X88571428Y-66589285D01*
X88750000Y-66589285D01*
X88857142Y-66625000D01*
X88928571Y-66696428D01*
X88964285Y-66767857D01*
X89000000Y-66910714D01*
X89000000Y-67017857D01*
X88964285Y-67160714D01*
X88928571Y-67232142D01*
X88857142Y-67303571D01*
X88750000Y-67339285D01*
X88571428Y-67339285D01*
X77728571Y-66589285D02*
X78157142Y-66589285D01*
X77942857Y-67339285D02*
X77942857Y-66589285D01*
X78335714Y-66589285D02*
X78835714Y-67339285D01*
X78835714Y-66589285D02*
X78335714Y-67339285D01*
X77714285Y-69753571D02*
X78285714Y-69753571D01*
X78000000Y-70039285D02*
X78000000Y-69467857D01*
X78571428Y-69289285D02*
X79035714Y-69289285D01*
X78785714Y-69575000D01*
X78892857Y-69575000D01*
X78964285Y-69610714D01*
X79000000Y-69646428D01*
X79035714Y-69717857D01*
X79035714Y-69896428D01*
X79000000Y-69967857D01*
X78964285Y-70003571D01*
X78892857Y-70039285D01*
X78678571Y-70039285D01*
X78607142Y-70003571D01*
X78571428Y-69967857D01*
X79285714Y-69539285D02*
X79464285Y-70039285D01*
X79642857Y-69539285D01*
X79857142Y-69289285D02*
X80321428Y-69289285D01*
X80071428Y-69575000D01*
X80178571Y-69575000D01*
X80250000Y-69610714D01*
X80285714Y-69646428D01*
X80321428Y-69717857D01*
X80321428Y-69896428D01*
X80285714Y-69967857D01*
X80250000Y-70003571D01*
X80178571Y-70039285D01*
X79964285Y-70039285D01*
X79892857Y-70003571D01*
X79857142Y-69967857D01*
D11*
X68147619Y-73323809D02*
X69147619Y-73323809D01*
X69147619Y-73561904D01*
X69100000Y-73704761D01*
X69004761Y-73800000D01*
X68909523Y-73847619D01*
X68719047Y-73895238D01*
X68576190Y-73895238D01*
X68385714Y-73847619D01*
X68290476Y-73800000D01*
X68195238Y-73704761D01*
X68147619Y-73561904D01*
X68147619Y-73323809D01*
X68147619Y-74323809D02*
X69147619Y-74323809D01*
X69147619Y-75419047D02*
X68147619Y-75752380D01*
X69147619Y-76085714D01*
X68147619Y-76419047D02*
X69147619Y-76419047D01*
X68147619Y-76895238D02*
X69147619Y-76895238D01*
X68147619Y-77466666D01*
X69147619Y-77466666D01*
X69100000Y-79228571D02*
X69147619Y-79133333D01*
X69147619Y-78990476D01*
X69100000Y-78847619D01*
X69004761Y-78752380D01*
X68909523Y-78704761D01*
X68719047Y-78657142D01*
X68576190Y-78657142D01*
X68385714Y-78704761D01*
X68290476Y-78752380D01*
X68195238Y-78847619D01*
X68147619Y-78990476D01*
X68147619Y-79085714D01*
X68195238Y-79228571D01*
X68242857Y-79276190D01*
X68576190Y-79276190D01*
X68576190Y-79085714D01*
X68147619Y-79704761D02*
X69147619Y-79704761D01*
X68147619Y-80276190D01*
X69147619Y-80276190D01*
X68147619Y-80752380D02*
X69147619Y-80752380D01*
X69147619Y-80990476D01*
X69100000Y-81133333D01*
X69004761Y-81228571D01*
X68909523Y-81276190D01*
X68719047Y-81323809D01*
X68576190Y-81323809D01*
X68385714Y-81276190D01*
X68290476Y-81228571D01*
X68195238Y-81133333D01*
X68147619Y-80990476D01*
X68147619Y-80752380D01*
X69147619Y-65700000D02*
X68147619Y-66033333D01*
X69147619Y-66366666D01*
X68147619Y-66700000D02*
X69147619Y-66700000D01*
X68147619Y-67176190D02*
X69147619Y-67176190D01*
X68147619Y-67747619D01*
X69147619Y-67747619D01*
X69100000Y-69509523D02*
X69147619Y-69414285D01*
X69147619Y-69271428D01*
X69100000Y-69128571D01*
X69004761Y-69033333D01*
X68909523Y-68985714D01*
X68719047Y-68938095D01*
X68576190Y-68938095D01*
X68385714Y-68985714D01*
X68290476Y-69033333D01*
X68195238Y-69128571D01*
X68147619Y-69271428D01*
X68147619Y-69366666D01*
X68195238Y-69509523D01*
X68242857Y-69557142D01*
X68576190Y-69557142D01*
X68576190Y-69366666D01*
X68147619Y-69985714D02*
X69147619Y-69985714D01*
X68147619Y-70557142D01*
X69147619Y-70557142D01*
X68147619Y-71033333D02*
X69147619Y-71033333D01*
X69147619Y-71271428D01*
X69100000Y-71414285D01*
X69004761Y-71509523D01*
X68909523Y-71557142D01*
X68719047Y-71604761D01*
X68576190Y-71604761D01*
X68385714Y-71557142D01*
X68290476Y-71509523D01*
X68195238Y-71414285D01*
X68147619Y-71271428D01*
X68147619Y-71033333D01*
D12*
%TO.C,mouse-bite-2mm-slot*%
X90500000Y-147000000D02*
G75*
G03X90500000Y-149000000I0J-1000000D01*
G01*
X86500000Y-149000000D02*
G75*
G03X86500000Y-147000000I0J1000000D01*
G01*
X133500000Y-147000000D02*
G75*
G03X133500000Y-149000000I0J-1000000D01*
G01*
X129500000Y-149000000D02*
G75*
G03X129500000Y-147000000I0J1000000D01*
G01*
X133500000Y-63000000D02*
G75*
G03X133500000Y-65000000I0J-1000000D01*
G01*
X129500000Y-65000000D02*
G75*
G03X129500000Y-63000000I0J1000000D01*
G01*
X86500000Y-65000000D02*
G75*
G03X86500000Y-63000000I0J1000000D01*
G01*
X90500000Y-63000000D02*
G75*
G03X90500000Y-65000000I0J-1000000D01*
G01*
X66000000Y-76000000D02*
G75*
G03X68000000Y-76000000I1000000J0D01*
G01*
X68000000Y-80000000D02*
G75*
G03X66000000Y-80000000I-1000000J0D01*
G01*
X66000000Y-104000000D02*
G75*
G03X68000000Y-104000000I1000000J0D01*
G01*
X68000000Y-108000000D02*
G75*
G03X66000000Y-108000000I-1000000J0D01*
G01*
X66000000Y-132000000D02*
G75*
G03X68000000Y-132000000I1000000J0D01*
G01*
X68000000Y-136000000D02*
G75*
G03X66000000Y-136000000I-1000000J0D01*
G01*
X152000000Y-132000000D02*
G75*
G03X154000000Y-132000000I1000000J0D01*
G01*
X154000000Y-136000000D02*
G75*
G03X152000000Y-136000000I-1000000J0D01*
G01*
X152000000Y-104000000D02*
G75*
G03X154000000Y-104000000I1000000J0D01*
G01*
X154000000Y-108000000D02*
G75*
G03X152000000Y-108000000I-1000000J0D01*
G01*
X152000000Y-76000000D02*
G75*
G03X154000000Y-76000000I1000000J0D01*
G01*
X154000000Y-80000000D02*
G75*
G03X152000000Y-80000000I-1000000J0D01*
G01*
X111000000Y-136000000D02*
G75*
G03X109000000Y-136000000I-1000000J0D01*
G01*
X109000000Y-132000000D02*
G75*
G03X111000000Y-132000000I1000000J0D01*
G01*
D13*
%TO.C,Q1*%
X139240000Y-136720000D02*
X140700000Y-136720000D01*
X139240000Y-139880000D02*
X141400000Y-139880000D01*
X139240000Y-139880000D02*
X139240000Y-138950000D01*
X139240000Y-136720000D02*
X139240000Y-137650000D01*
D14*
%TO.C,J1*%
X139550000Y-141470000D02*
G75*
G03X139550000Y-141470000I-100000J0D01*
G01*
X129815000Y-146570000D02*
X129815000Y-140770000D01*
X142685000Y-146570000D02*
X129815000Y-146570000D01*
X142685000Y-140770000D02*
X142685000Y-146570000D01*
X129815000Y-140770000D02*
X142685000Y-140770000D01*
D13*
%TO.C,R4*%
X136072936Y-139335000D02*
X136527064Y-139335000D01*
X136072936Y-137865000D02*
X136527064Y-137865000D01*
%TO.C,C3*%
X140261252Y-130965000D02*
X139738748Y-130965000D01*
X140261252Y-132435000D02*
X139738748Y-132435000D01*
%TO.C,JP1*%
X132050000Y-130750000D02*
X133450000Y-130750000D01*
X134150000Y-131450000D02*
X134150000Y-132050000D01*
X133450000Y-132750000D02*
X132050000Y-132750000D01*
X131350000Y-132050000D02*
X131350000Y-131450000D01*
X131350000Y-131450000D02*
G75*
G02X132050000Y-130750000I700000J0D01*
G01*
X132050000Y-132750000D02*
G75*
G02X131350000Y-132050000I0J700000D01*
G01*
X134150000Y-132050000D02*
G75*
G02X133450000Y-132750000I-700000J0D01*
G01*
X133450000Y-130750000D02*
G75*
G02X134150000Y-131450000I0J-700000D01*
G01*
%TO.C,U3*%
X150810000Y-121900000D02*
X150810000Y-127910000D01*
X143990000Y-124150000D02*
X143990000Y-127910000D01*
X150810000Y-127910000D02*
X149550000Y-127910000D01*
X143990000Y-127910000D02*
X145250000Y-127910000D01*
%TO.C,R1*%
X132927064Y-133565000D02*
X132472936Y-133565000D01*
X132927064Y-135035000D02*
X132472936Y-135035000D01*
%TO.C,U2*%
X133340000Y-130100000D02*
X133340000Y-124090000D01*
X140160000Y-127850000D02*
X140160000Y-124090000D01*
X133340000Y-124090000D02*
X134600000Y-124090000D01*
X140160000Y-124090000D02*
X138900000Y-124090000D01*
%TO.C,R2*%
X132472936Y-138935000D02*
X132927064Y-138935000D01*
X132472936Y-137465000D02*
X132927064Y-137465000D01*
%TO.C,R3*%
X131265000Y-128522936D02*
X131265000Y-128977064D01*
X132735000Y-128522936D02*
X132735000Y-128977064D01*
D15*
%TO.C,U1*%
X130000000Y-138875000D02*
G75*
G03X130000000Y-138875000I-250000J0D01*
G01*
X112500000Y-122500000D02*
X114500000Y-122500000D01*
X112500000Y-123000000D02*
X112500000Y-122500000D01*
X128500000Y-122500000D02*
X126500000Y-122500000D01*
X128500000Y-123000000D02*
X128500000Y-122500000D01*
X112500000Y-146500000D02*
X112500000Y-139000000D01*
X128500000Y-146500000D02*
X112500000Y-146500000D01*
X128500000Y-139000000D02*
X128500000Y-146500000D01*
X126500000Y-123740000D02*
X126500000Y-138740000D01*
X114500000Y-123740000D02*
X126500000Y-123740000D01*
X114500000Y-138740000D02*
X114500000Y-123740000D01*
X126500000Y-138740000D02*
X114500000Y-138740000D01*
D13*
%TO.C,R5*%
X138465000Y-134285436D02*
X138465000Y-134739564D01*
X139935000Y-134285436D02*
X139935000Y-134739564D01*
%TO.C,D1*%
X137950000Y-130600000D02*
X137950000Y-136000000D01*
X134650000Y-130600000D02*
X134650000Y-136000000D01*
X137950000Y-130600000D02*
X134650000Y-130600000D01*
%TO.C,C1*%
X142735000Y-129011252D02*
X142735000Y-128488748D01*
X141265000Y-129011252D02*
X141265000Y-128488748D01*
%TO.C,C2*%
X141265000Y-122988748D02*
X141265000Y-123511252D01*
X142735000Y-122988748D02*
X142735000Y-123511252D01*
%TO.C,J2*%
X150610000Y-146660000D02*
X150610000Y-146260000D01*
X149970000Y-146660000D02*
X150610000Y-146660000D01*
X143630000Y-140640000D02*
X150370000Y-140640000D01*
X143630000Y-146420000D02*
X150370000Y-146420000D01*
X150370000Y-146420000D02*
X150370000Y-140640000D01*
X143630000Y-146420000D02*
X143630000Y-140640000D01*
X144750000Y-146420000D02*
X144750000Y-140640000D01*
X149850000Y-146420000D02*
X149850000Y-140640000D01*
%TO.C,C4*%
X142035000Y-134811252D02*
X142035000Y-134288748D01*
X140565000Y-134811252D02*
X140565000Y-134288748D01*
%TO.C,J3*%
X150610000Y-139660000D02*
X150610000Y-139260000D01*
X149970000Y-139660000D02*
X150610000Y-139660000D01*
X143630000Y-131100000D02*
X150370000Y-131100000D01*
X143630000Y-139420000D02*
X150370000Y-139420000D01*
X150370000Y-139420000D02*
X150370000Y-131100000D01*
X143630000Y-139420000D02*
X143630000Y-131100000D01*
X144750000Y-139420000D02*
X144750000Y-131100000D01*
X149850000Y-139420000D02*
X149850000Y-131100000D01*
%TO.C,Q1*%
X80760000Y-131280000D02*
X79300000Y-131280000D01*
X80760000Y-128120000D02*
X78600000Y-128120000D01*
X80760000Y-128120000D02*
X80760000Y-129050000D01*
X80760000Y-131280000D02*
X80760000Y-130350000D01*
D14*
%TO.C,J1*%
X80650000Y-126530000D02*
G75*
G03X80650000Y-126530000I-100000J0D01*
G01*
X90185000Y-121430000D02*
X90185000Y-127230000D01*
X77315000Y-121430000D02*
X90185000Y-121430000D01*
X77315000Y-127230000D02*
X77315000Y-121430000D01*
X90185000Y-127230000D02*
X77315000Y-127230000D01*
D13*
%TO.C,JP1*%
X87950000Y-137250000D02*
X86550000Y-137250000D01*
X85850000Y-136550000D02*
X85850000Y-135950000D01*
X86550000Y-135250000D02*
X87950000Y-135250000D01*
X88650000Y-135950000D02*
X88650000Y-136550000D01*
X86550000Y-137250000D02*
G75*
G02X85850000Y-136550000I0J700000D01*
G01*
X85850000Y-135950000D02*
G75*
G02X86550000Y-135250000I700000J0D01*
G01*
X87950000Y-135250000D02*
G75*
G02X88650000Y-135950000I0J-700000D01*
G01*
X88650000Y-136550000D02*
G75*
G02X87950000Y-137250000I-700000J0D01*
G01*
%TO.C,U3*%
X69190000Y-146100000D02*
X69190000Y-140090000D01*
X76010000Y-143850000D02*
X76010000Y-140090000D01*
X69190000Y-140090000D02*
X70450000Y-140090000D01*
X76010000Y-140090000D02*
X74750000Y-140090000D01*
%TO.C,R1*%
X87072936Y-134435000D02*
X87527064Y-134435000D01*
X87072936Y-132965000D02*
X87527064Y-132965000D01*
%TO.C,U2*%
X86660000Y-137900000D02*
X86660000Y-143910000D01*
X79840000Y-140150000D02*
X79840000Y-143910000D01*
X86660000Y-143910000D02*
X85400000Y-143910000D01*
X79840000Y-143910000D02*
X81100000Y-143910000D01*
%TO.C,R2*%
X87527064Y-129065000D02*
X87072936Y-129065000D01*
X87527064Y-130535000D02*
X87072936Y-130535000D01*
%TO.C,R4*%
X83927064Y-128665000D02*
X83472936Y-128665000D01*
X83927064Y-130135000D02*
X83472936Y-130135000D01*
%TO.C,R3*%
X88735000Y-139477064D02*
X88735000Y-139022936D01*
X87265000Y-139477064D02*
X87265000Y-139022936D01*
D15*
%TO.C,U1*%
X90500000Y-129125000D02*
G75*
G03X90500000Y-129125000I-250000J0D01*
G01*
X107500000Y-145500000D02*
X105500000Y-145500000D01*
X107500000Y-145000000D02*
X107500000Y-145500000D01*
X91500000Y-145500000D02*
X93500000Y-145500000D01*
X91500000Y-145000000D02*
X91500000Y-145500000D01*
X107500000Y-121500000D02*
X107500000Y-129000000D01*
X91500000Y-121500000D02*
X107500000Y-121500000D01*
X91500000Y-129000000D02*
X91500000Y-121500000D01*
X93500000Y-144260000D02*
X93500000Y-129260000D01*
X105500000Y-144260000D02*
X93500000Y-144260000D01*
X105500000Y-129260000D02*
X105500000Y-144260000D01*
X93500000Y-129260000D02*
X105500000Y-129260000D01*
D13*
%TO.C,C3*%
X79738748Y-137035000D02*
X80261252Y-137035000D01*
X79738748Y-135565000D02*
X80261252Y-135565000D01*
%TO.C,C4*%
X77965000Y-133188748D02*
X77965000Y-133711252D01*
X79435000Y-133188748D02*
X79435000Y-133711252D01*
%TO.C,R5*%
X81535000Y-133714564D02*
X81535000Y-133260436D01*
X80065000Y-133714564D02*
X80065000Y-133260436D01*
%TO.C,D1*%
X82050000Y-137400000D02*
X82050000Y-132000000D01*
X85350000Y-137400000D02*
X85350000Y-132000000D01*
X82050000Y-137400000D02*
X85350000Y-137400000D01*
%TO.C,C1*%
X77265000Y-138988748D02*
X77265000Y-139511252D01*
X78735000Y-138988748D02*
X78735000Y-139511252D01*
%TO.C,C2*%
X78735000Y-145011252D02*
X78735000Y-144488748D01*
X77265000Y-145011252D02*
X77265000Y-144488748D01*
%TO.C,J3*%
X69390000Y-128340000D02*
X69390000Y-128740000D01*
X70030000Y-128340000D02*
X69390000Y-128340000D01*
X76370000Y-136900000D02*
X69630000Y-136900000D01*
X76370000Y-128580000D02*
X69630000Y-128580000D01*
X69630000Y-128580000D02*
X69630000Y-136900000D01*
X76370000Y-128580000D02*
X76370000Y-136900000D01*
X75250000Y-128580000D02*
X75250000Y-136900000D01*
X70150000Y-128580000D02*
X70150000Y-136900000D01*
%TO.C,J2*%
X69390000Y-121340000D02*
X69390000Y-121740000D01*
X70030000Y-121340000D02*
X69390000Y-121340000D01*
X76370000Y-127360000D02*
X69630000Y-127360000D01*
X76370000Y-121580000D02*
X69630000Y-121580000D01*
X69630000Y-121580000D02*
X69630000Y-127360000D01*
X76370000Y-121580000D02*
X76370000Y-127360000D01*
X75250000Y-121580000D02*
X75250000Y-127360000D01*
X70150000Y-121580000D02*
X70150000Y-127360000D01*
D12*
%TO.C,mouse-bite-2mm-slot*%
X111000000Y-108000000D02*
G75*
G03X109000000Y-108000000I-1000000J0D01*
G01*
X109000000Y-104000000D02*
G75*
G03X111000000Y-104000000I1000000J0D01*
G01*
X129500000Y-121000000D02*
G75*
G03X129500000Y-119000000I0J1000000D01*
G01*
X133500000Y-119000000D02*
G75*
G03X133500000Y-121000000I0J-1000000D01*
G01*
D13*
%TO.C,Q1*%
X139240000Y-108720000D02*
X140700000Y-108720000D01*
X139240000Y-111880000D02*
X141400000Y-111880000D01*
X139240000Y-111880000D02*
X139240000Y-110950000D01*
X139240000Y-108720000D02*
X139240000Y-109650000D01*
D14*
%TO.C,J1*%
X139550000Y-113470000D02*
G75*
G03X139550000Y-113470000I-100000J0D01*
G01*
X129815000Y-118570000D02*
X129815000Y-112770000D01*
X142685000Y-118570000D02*
X129815000Y-118570000D01*
X142685000Y-112770000D02*
X142685000Y-118570000D01*
X129815000Y-112770000D02*
X142685000Y-112770000D01*
D13*
%TO.C,R4*%
X136072936Y-111335000D02*
X136527064Y-111335000D01*
X136072936Y-109865000D02*
X136527064Y-109865000D01*
%TO.C,C3*%
X140261252Y-102965000D02*
X139738748Y-102965000D01*
X140261252Y-104435000D02*
X139738748Y-104435000D01*
%TO.C,JP1*%
X132050000Y-102750000D02*
X133450000Y-102750000D01*
X134150000Y-103450000D02*
X134150000Y-104050000D01*
X133450000Y-104750000D02*
X132050000Y-104750000D01*
X131350000Y-104050000D02*
X131350000Y-103450000D01*
X131350000Y-103450000D02*
G75*
G02X132050000Y-102750000I700000J0D01*
G01*
X132050000Y-104750000D02*
G75*
G02X131350000Y-104050000I0J700000D01*
G01*
X134150000Y-104050000D02*
G75*
G02X133450000Y-104750000I-700000J0D01*
G01*
X133450000Y-102750000D02*
G75*
G02X134150000Y-103450000I0J-700000D01*
G01*
%TO.C,U3*%
X150810000Y-93900000D02*
X150810000Y-99910000D01*
X143990000Y-96150000D02*
X143990000Y-99910000D01*
X150810000Y-99910000D02*
X149550000Y-99910000D01*
X143990000Y-99910000D02*
X145250000Y-99910000D01*
%TO.C,R1*%
X132927064Y-105565000D02*
X132472936Y-105565000D01*
X132927064Y-107035000D02*
X132472936Y-107035000D01*
%TO.C,U2*%
X133340000Y-102100000D02*
X133340000Y-96090000D01*
X140160000Y-99850000D02*
X140160000Y-96090000D01*
X133340000Y-96090000D02*
X134600000Y-96090000D01*
X140160000Y-96090000D02*
X138900000Y-96090000D01*
%TO.C,R2*%
X132472936Y-110935000D02*
X132927064Y-110935000D01*
X132472936Y-109465000D02*
X132927064Y-109465000D01*
%TO.C,R3*%
X131265000Y-100522936D02*
X131265000Y-100977064D01*
X132735000Y-100522936D02*
X132735000Y-100977064D01*
D15*
%TO.C,U1*%
X130000000Y-110875000D02*
G75*
G03X130000000Y-110875000I-250000J0D01*
G01*
X112500000Y-94500000D02*
X114500000Y-94500000D01*
X112500000Y-95000000D02*
X112500000Y-94500000D01*
X128500000Y-94500000D02*
X126500000Y-94500000D01*
X128500000Y-95000000D02*
X128500000Y-94500000D01*
X112500000Y-118500000D02*
X112500000Y-111000000D01*
X128500000Y-118500000D02*
X112500000Y-118500000D01*
X128500000Y-111000000D02*
X128500000Y-118500000D01*
X126500000Y-95740000D02*
X126500000Y-110740000D01*
X114500000Y-95740000D02*
X126500000Y-95740000D01*
X114500000Y-110740000D02*
X114500000Y-95740000D01*
X126500000Y-110740000D02*
X114500000Y-110740000D01*
D13*
%TO.C,R5*%
X138465000Y-106285436D02*
X138465000Y-106739564D01*
X139935000Y-106285436D02*
X139935000Y-106739564D01*
%TO.C,D1*%
X137950000Y-102600000D02*
X137950000Y-108000000D01*
X134650000Y-102600000D02*
X134650000Y-108000000D01*
X137950000Y-102600000D02*
X134650000Y-102600000D01*
%TO.C,C1*%
X142735000Y-101011252D02*
X142735000Y-100488748D01*
X141265000Y-101011252D02*
X141265000Y-100488748D01*
%TO.C,C2*%
X141265000Y-94988748D02*
X141265000Y-95511252D01*
X142735000Y-94988748D02*
X142735000Y-95511252D01*
%TO.C,J2*%
X150610000Y-118660000D02*
X150610000Y-118260000D01*
X149970000Y-118660000D02*
X150610000Y-118660000D01*
X143630000Y-112640000D02*
X150370000Y-112640000D01*
X143630000Y-118420000D02*
X150370000Y-118420000D01*
X150370000Y-118420000D02*
X150370000Y-112640000D01*
X143630000Y-118420000D02*
X143630000Y-112640000D01*
X144750000Y-118420000D02*
X144750000Y-112640000D01*
X149850000Y-118420000D02*
X149850000Y-112640000D01*
D12*
%TO.C,mouse-bite-2mm-slot*%
X86500000Y-121000000D02*
G75*
G03X86500000Y-119000000I0J1000000D01*
G01*
X90500000Y-119000000D02*
G75*
G03X90500000Y-121000000I0J-1000000D01*
G01*
D13*
%TO.C,C4*%
X142035000Y-106811252D02*
X142035000Y-106288748D01*
X140565000Y-106811252D02*
X140565000Y-106288748D01*
%TO.C,J3*%
X150610000Y-111660000D02*
X150610000Y-111260000D01*
X149970000Y-111660000D02*
X150610000Y-111660000D01*
X143630000Y-103100000D02*
X150370000Y-103100000D01*
X143630000Y-111420000D02*
X150370000Y-111420000D01*
X150370000Y-111420000D02*
X150370000Y-103100000D01*
X143630000Y-111420000D02*
X143630000Y-103100000D01*
X144750000Y-111420000D02*
X144750000Y-103100000D01*
X149850000Y-111420000D02*
X149850000Y-103100000D01*
%TO.C,Q1*%
X80760000Y-103280000D02*
X79300000Y-103280000D01*
X80760000Y-100120000D02*
X78600000Y-100120000D01*
X80760000Y-100120000D02*
X80760000Y-101050000D01*
X80760000Y-103280000D02*
X80760000Y-102350000D01*
D14*
%TO.C,J1*%
X80650000Y-98530000D02*
G75*
G03X80650000Y-98530000I-100000J0D01*
G01*
X90185000Y-93430000D02*
X90185000Y-99230000D01*
X77315000Y-93430000D02*
X90185000Y-93430000D01*
X77315000Y-99230000D02*
X77315000Y-93430000D01*
X90185000Y-99230000D02*
X77315000Y-99230000D01*
D13*
%TO.C,JP1*%
X87950000Y-109250000D02*
X86550000Y-109250000D01*
X85850000Y-108550000D02*
X85850000Y-107950000D01*
X86550000Y-107250000D02*
X87950000Y-107250000D01*
X88650000Y-107950000D02*
X88650000Y-108550000D01*
X86550000Y-109250000D02*
G75*
G02X85850000Y-108550000I0J700000D01*
G01*
X85850000Y-107950000D02*
G75*
G02X86550000Y-107250000I700000J0D01*
G01*
X87950000Y-107250000D02*
G75*
G02X88650000Y-107950000I0J-700000D01*
G01*
X88650000Y-108550000D02*
G75*
G02X87950000Y-109250000I-700000J0D01*
G01*
%TO.C,U3*%
X69190000Y-118100000D02*
X69190000Y-112090000D01*
X76010000Y-115850000D02*
X76010000Y-112090000D01*
X69190000Y-112090000D02*
X70450000Y-112090000D01*
X76010000Y-112090000D02*
X74750000Y-112090000D01*
%TO.C,R1*%
X87072936Y-106435000D02*
X87527064Y-106435000D01*
X87072936Y-104965000D02*
X87527064Y-104965000D01*
%TO.C,U2*%
X86660000Y-109900000D02*
X86660000Y-115910000D01*
X79840000Y-112150000D02*
X79840000Y-115910000D01*
X86660000Y-115910000D02*
X85400000Y-115910000D01*
X79840000Y-115910000D02*
X81100000Y-115910000D01*
%TO.C,R2*%
X87527064Y-101065000D02*
X87072936Y-101065000D01*
X87527064Y-102535000D02*
X87072936Y-102535000D01*
%TO.C,R4*%
X83927064Y-100665000D02*
X83472936Y-100665000D01*
X83927064Y-102135000D02*
X83472936Y-102135000D01*
%TO.C,R3*%
X88735000Y-111477064D02*
X88735000Y-111022936D01*
X87265000Y-111477064D02*
X87265000Y-111022936D01*
D15*
%TO.C,U1*%
X90500000Y-101125000D02*
G75*
G03X90500000Y-101125000I-250000J0D01*
G01*
X107500000Y-117500000D02*
X105500000Y-117500000D01*
X107500000Y-117000000D02*
X107500000Y-117500000D01*
X91500000Y-117500000D02*
X93500000Y-117500000D01*
X91500000Y-117000000D02*
X91500000Y-117500000D01*
X107500000Y-93500000D02*
X107500000Y-101000000D01*
X91500000Y-93500000D02*
X107500000Y-93500000D01*
X91500000Y-101000000D02*
X91500000Y-93500000D01*
X93500000Y-116260000D02*
X93500000Y-101260000D01*
X105500000Y-116260000D02*
X93500000Y-116260000D01*
X105500000Y-101260000D02*
X105500000Y-116260000D01*
X93500000Y-101260000D02*
X105500000Y-101260000D01*
D13*
%TO.C,C3*%
X79738748Y-109035000D02*
X80261252Y-109035000D01*
X79738748Y-107565000D02*
X80261252Y-107565000D01*
%TO.C,C4*%
X77965000Y-105188748D02*
X77965000Y-105711252D01*
X79435000Y-105188748D02*
X79435000Y-105711252D01*
%TO.C,R5*%
X81535000Y-105714564D02*
X81535000Y-105260436D01*
X80065000Y-105714564D02*
X80065000Y-105260436D01*
%TO.C,D1*%
X82050000Y-109400000D02*
X82050000Y-104000000D01*
X85350000Y-109400000D02*
X85350000Y-104000000D01*
X82050000Y-109400000D02*
X85350000Y-109400000D01*
%TO.C,C1*%
X77265000Y-110988748D02*
X77265000Y-111511252D01*
X78735000Y-110988748D02*
X78735000Y-111511252D01*
%TO.C,C2*%
X78735000Y-117011252D02*
X78735000Y-116488748D01*
X77265000Y-117011252D02*
X77265000Y-116488748D01*
%TO.C,J3*%
X69390000Y-100340000D02*
X69390000Y-100740000D01*
X70030000Y-100340000D02*
X69390000Y-100340000D01*
X76370000Y-108900000D02*
X69630000Y-108900000D01*
X76370000Y-100580000D02*
X69630000Y-100580000D01*
X69630000Y-100580000D02*
X69630000Y-108900000D01*
X76370000Y-100580000D02*
X76370000Y-108900000D01*
X75250000Y-100580000D02*
X75250000Y-108900000D01*
X70150000Y-100580000D02*
X70150000Y-108900000D01*
%TO.C,J2*%
X69390000Y-93340000D02*
X69390000Y-93740000D01*
X70030000Y-93340000D02*
X69390000Y-93340000D01*
X76370000Y-99360000D02*
X69630000Y-99360000D01*
X76370000Y-93580000D02*
X69630000Y-93580000D01*
X69630000Y-93580000D02*
X69630000Y-99360000D01*
X76370000Y-93580000D02*
X76370000Y-99360000D01*
X75250000Y-93580000D02*
X75250000Y-99360000D01*
X70150000Y-93580000D02*
X70150000Y-99360000D01*
D12*
%TO.C,mouse-bite-2mm-slot*%
X133500000Y-91000000D02*
G75*
G03X133500000Y-93000000I0J-1000000D01*
G01*
X129500000Y-93000000D02*
G75*
G03X129500000Y-91000000I0J1000000D01*
G01*
X90500000Y-91000000D02*
G75*
G03X90500000Y-93000000I0J-1000000D01*
G01*
X86500000Y-93000000D02*
G75*
G03X86500000Y-91000000I0J1000000D01*
G01*
X109000000Y-76000000D02*
G75*
G03X111000000Y-76000000I1000000J0D01*
G01*
X111000000Y-80000000D02*
G75*
G03X109000000Y-80000000I-1000000J0D01*
G01*
D13*
%TO.C,Q1*%
X139240000Y-80720000D02*
X140700000Y-80720000D01*
X139240000Y-83880000D02*
X141400000Y-83880000D01*
X139240000Y-83880000D02*
X139240000Y-82950000D01*
X139240000Y-80720000D02*
X139240000Y-81650000D01*
D14*
%TO.C,J1*%
X139550000Y-85470000D02*
G75*
G03X139550000Y-85470000I-100000J0D01*
G01*
X129815000Y-90570000D02*
X129815000Y-84770000D01*
X142685000Y-90570000D02*
X129815000Y-90570000D01*
X142685000Y-84770000D02*
X142685000Y-90570000D01*
X129815000Y-84770000D02*
X142685000Y-84770000D01*
D13*
%TO.C,JP1*%
X132050000Y-74750000D02*
X133450000Y-74750000D01*
X134150000Y-75450000D02*
X134150000Y-76050000D01*
X133450000Y-76750000D02*
X132050000Y-76750000D01*
X131350000Y-76050000D02*
X131350000Y-75450000D01*
X133450000Y-74750000D02*
G75*
G02X134150000Y-75450000I0J-700000D01*
G01*
X134150000Y-76050000D02*
G75*
G02X133450000Y-76750000I-700000J0D01*
G01*
X132050000Y-76750000D02*
G75*
G02X131350000Y-76050000I0J700000D01*
G01*
X131350000Y-75450000D02*
G75*
G02X132050000Y-74750000I700000J0D01*
G01*
%TO.C,U3*%
X150810000Y-65900000D02*
X150810000Y-71910000D01*
X143990000Y-68150000D02*
X143990000Y-71910000D01*
X150810000Y-71910000D02*
X149550000Y-71910000D01*
X143990000Y-71910000D02*
X145250000Y-71910000D01*
%TO.C,R1*%
X132927064Y-77565000D02*
X132472936Y-77565000D01*
X132927064Y-79035000D02*
X132472936Y-79035000D01*
%TO.C,U2*%
X133340000Y-74100000D02*
X133340000Y-68090000D01*
X140160000Y-71850000D02*
X140160000Y-68090000D01*
X133340000Y-68090000D02*
X134600000Y-68090000D01*
X140160000Y-68090000D02*
X138900000Y-68090000D01*
%TO.C,R2*%
X132472936Y-82935000D02*
X132927064Y-82935000D01*
X132472936Y-81465000D02*
X132927064Y-81465000D01*
%TO.C,R4*%
X136072936Y-83335000D02*
X136527064Y-83335000D01*
X136072936Y-81865000D02*
X136527064Y-81865000D01*
%TO.C,R3*%
X131265000Y-72522936D02*
X131265000Y-72977064D01*
X132735000Y-72522936D02*
X132735000Y-72977064D01*
D15*
%TO.C,U1*%
X130000000Y-82875000D02*
G75*
G03X130000000Y-82875000I-250000J0D01*
G01*
X112500000Y-66500000D02*
X114500000Y-66500000D01*
X112500000Y-67000000D02*
X112500000Y-66500000D01*
X128500000Y-66500000D02*
X126500000Y-66500000D01*
X128500000Y-67000000D02*
X128500000Y-66500000D01*
X112500000Y-90500000D02*
X112500000Y-83000000D01*
X128500000Y-90500000D02*
X112500000Y-90500000D01*
X128500000Y-83000000D02*
X128500000Y-90500000D01*
X126500000Y-67740000D02*
X126500000Y-82740000D01*
X114500000Y-67740000D02*
X126500000Y-67740000D01*
X114500000Y-82740000D02*
X114500000Y-67740000D01*
X126500000Y-82740000D02*
X114500000Y-82740000D01*
D13*
%TO.C,C3*%
X140261252Y-74965000D02*
X139738748Y-74965000D01*
X140261252Y-76435000D02*
X139738748Y-76435000D01*
%TO.C,C4*%
X142035000Y-78811252D02*
X142035000Y-78288748D01*
X140565000Y-78811252D02*
X140565000Y-78288748D01*
%TO.C,R5*%
X138465000Y-78285436D02*
X138465000Y-78739564D01*
X139935000Y-78285436D02*
X139935000Y-78739564D01*
%TO.C,D1*%
X137950000Y-74600000D02*
X137950000Y-80000000D01*
X134650000Y-74600000D02*
X134650000Y-80000000D01*
X137950000Y-74600000D02*
X134650000Y-74600000D01*
%TO.C,C1*%
X142735000Y-73011252D02*
X142735000Y-72488748D01*
X141265000Y-73011252D02*
X141265000Y-72488748D01*
%TO.C,C2*%
X141265000Y-66988748D02*
X141265000Y-67511252D01*
X142735000Y-66988748D02*
X142735000Y-67511252D01*
%TO.C,J3*%
X150610000Y-83660000D02*
X150610000Y-83260000D01*
X149970000Y-83660000D02*
X150610000Y-83660000D01*
X143630000Y-75100000D02*
X150370000Y-75100000D01*
X143630000Y-83420000D02*
X150370000Y-83420000D01*
X150370000Y-83420000D02*
X150370000Y-75100000D01*
X143630000Y-83420000D02*
X143630000Y-75100000D01*
X144750000Y-83420000D02*
X144750000Y-75100000D01*
X149850000Y-83420000D02*
X149850000Y-75100000D01*
%TO.C,J2*%
X150610000Y-90660000D02*
X150610000Y-90260000D01*
X149970000Y-90660000D02*
X150610000Y-90660000D01*
X143630000Y-84640000D02*
X150370000Y-84640000D01*
X143630000Y-90420000D02*
X150370000Y-90420000D01*
X150370000Y-90420000D02*
X150370000Y-84640000D01*
X143630000Y-90420000D02*
X143630000Y-84640000D01*
X144750000Y-90420000D02*
X144750000Y-84640000D01*
X149850000Y-90420000D02*
X149850000Y-84640000D01*
D14*
%TO.C,J1*%
X80650000Y-70530000D02*
G75*
G03X80650000Y-70530000I-100000J0D01*
G01*
X90185000Y-65430000D02*
X90185000Y-71230000D01*
X77315000Y-65430000D02*
X90185000Y-65430000D01*
X77315000Y-71230000D02*
X77315000Y-65430000D01*
X90185000Y-71230000D02*
X77315000Y-71230000D01*
D13*
%TO.C,U3*%
X69190000Y-90100000D02*
X69190000Y-84090000D01*
X76010000Y-87850000D02*
X76010000Y-84090000D01*
X69190000Y-84090000D02*
X70450000Y-84090000D01*
X76010000Y-84090000D02*
X74750000Y-84090000D01*
%TO.C,R5*%
X81535000Y-77714564D02*
X81535000Y-77260436D01*
X80065000Y-77714564D02*
X80065000Y-77260436D01*
%TO.C,R4*%
X83927064Y-72665000D02*
X83472936Y-72665000D01*
X83927064Y-74135000D02*
X83472936Y-74135000D01*
%TO.C,Q1*%
X80760000Y-75280000D02*
X79300000Y-75280000D01*
X80760000Y-72120000D02*
X78600000Y-72120000D01*
X80760000Y-72120000D02*
X80760000Y-73050000D01*
X80760000Y-75280000D02*
X80760000Y-74350000D01*
%TO.C,C4*%
X77965000Y-77188748D02*
X77965000Y-77711252D01*
X79435000Y-77188748D02*
X79435000Y-77711252D01*
%TO.C,C3*%
X79738748Y-81035000D02*
X80261252Y-81035000D01*
X79738748Y-79565000D02*
X80261252Y-79565000D01*
%TO.C,U2*%
X86660000Y-81900000D02*
X86660000Y-87910000D01*
X79840000Y-84150000D02*
X79840000Y-87910000D01*
X86660000Y-87910000D02*
X85400000Y-87910000D01*
X79840000Y-87910000D02*
X81100000Y-87910000D01*
D15*
%TO.C,U1*%
X90500000Y-73125000D02*
G75*
G03X90500000Y-73125000I-250000J0D01*
G01*
X107500000Y-89500000D02*
X105500000Y-89500000D01*
X107500000Y-89000000D02*
X107500000Y-89500000D01*
X91500000Y-89500000D02*
X93500000Y-89500000D01*
X91500000Y-89000000D02*
X91500000Y-89500000D01*
X107500000Y-65500000D02*
X107500000Y-73000000D01*
X91500000Y-65500000D02*
X107500000Y-65500000D01*
X91500000Y-73000000D02*
X91500000Y-65500000D01*
X93500000Y-88260000D02*
X93500000Y-73260000D01*
X105500000Y-88260000D02*
X93500000Y-88260000D01*
X105500000Y-73260000D02*
X105500000Y-88260000D01*
X93500000Y-73260000D02*
X105500000Y-73260000D01*
D13*
%TO.C,R3*%
X88735000Y-83477064D02*
X88735000Y-83022936D01*
X87265000Y-83477064D02*
X87265000Y-83022936D01*
%TO.C,R2*%
X87527064Y-73065000D02*
X87072936Y-73065000D01*
X87527064Y-74535000D02*
X87072936Y-74535000D01*
%TO.C,R1*%
X87072936Y-78435000D02*
X87527064Y-78435000D01*
X87072936Y-76965000D02*
X87527064Y-76965000D01*
%TO.C,JP1*%
X87950000Y-81250000D02*
X86550000Y-81250000D01*
X85850000Y-80550000D02*
X85850000Y-79950000D01*
X86550000Y-79250000D02*
X87950000Y-79250000D01*
X88650000Y-79950000D02*
X88650000Y-80550000D01*
X88650000Y-80550000D02*
G75*
G02X87950000Y-81250000I-700000J0D01*
G01*
X87950000Y-79250000D02*
G75*
G02X88650000Y-79950000I0J-700000D01*
G01*
X85850000Y-79950000D02*
G75*
G02X86550000Y-79250000I700000J0D01*
G01*
X86550000Y-81250000D02*
G75*
G02X85850000Y-80550000I0J700000D01*
G01*
%TO.C,J3*%
X69390000Y-72340000D02*
X69390000Y-72740000D01*
X70030000Y-72340000D02*
X69390000Y-72340000D01*
X76370000Y-80900000D02*
X69630000Y-80900000D01*
X76370000Y-72580000D02*
X69630000Y-72580000D01*
X69630000Y-72580000D02*
X69630000Y-80900000D01*
X76370000Y-72580000D02*
X76370000Y-80900000D01*
X75250000Y-72580000D02*
X75250000Y-80900000D01*
X70150000Y-72580000D02*
X70150000Y-80900000D01*
%TO.C,J2*%
X69390000Y-65340000D02*
X69390000Y-65740000D01*
X70030000Y-65340000D02*
X69390000Y-65340000D01*
X76370000Y-71360000D02*
X69630000Y-71360000D01*
X76370000Y-65580000D02*
X69630000Y-65580000D01*
X69630000Y-65580000D02*
X69630000Y-71360000D01*
X76370000Y-65580000D02*
X76370000Y-71360000D01*
X75250000Y-65580000D02*
X75250000Y-71360000D01*
X70150000Y-65580000D02*
X70150000Y-71360000D01*
%TO.C,D1*%
X82050000Y-81400000D02*
X82050000Y-76000000D01*
X85350000Y-81400000D02*
X85350000Y-76000000D01*
X82050000Y-81400000D02*
X85350000Y-81400000D01*
%TO.C,C2*%
X78735000Y-89011252D02*
X78735000Y-88488748D01*
X77265000Y-89011252D02*
X77265000Y-88488748D01*
%TO.C,C1*%
X77265000Y-82988748D02*
X77265000Y-83511252D01*
X78735000Y-82988748D02*
X78735000Y-83511252D01*
%TD*%
%TO.C,Q1*%
D11*
X142947619Y-138395238D02*
X142900000Y-138490476D01*
X142804761Y-138585714D01*
X142661904Y-138728571D01*
X142614285Y-138823809D01*
X142614285Y-138919047D01*
X142852380Y-138871428D02*
X142804761Y-138966666D01*
X142709523Y-139061904D01*
X142519047Y-139109523D01*
X142185714Y-139109523D01*
X141995238Y-139061904D01*
X141900000Y-138966666D01*
X141852380Y-138871428D01*
X141852380Y-138680952D01*
X141900000Y-138585714D01*
X141995238Y-138490476D01*
X142185714Y-138442857D01*
X142519047Y-138442857D01*
X142709523Y-138490476D01*
X142804761Y-138585714D01*
X142852380Y-138680952D01*
X142852380Y-138871428D01*
X142852380Y-137490476D02*
X142852380Y-138061904D01*
X142852380Y-137776190D02*
X141852380Y-137776190D01*
X141995238Y-137871428D01*
X142090476Y-137966666D01*
X142138095Y-138061904D01*
%TO.C,J1*%
X131866666Y-139352380D02*
X131866666Y-140066666D01*
X131819047Y-140209523D01*
X131723809Y-140304761D01*
X131580952Y-140352380D01*
X131485714Y-140352380D01*
X132866666Y-140352380D02*
X132295238Y-140352380D01*
X132580952Y-140352380D02*
X132580952Y-139352380D01*
X132485714Y-139495238D01*
X132390476Y-139590476D01*
X132295238Y-139638095D01*
%TO.C,R4*%
X136133333Y-140552380D02*
X135800000Y-140076190D01*
X135561904Y-140552380D02*
X135561904Y-139552380D01*
X135942857Y-139552380D01*
X136038095Y-139600000D01*
X136085714Y-139647619D01*
X136133333Y-139742857D01*
X136133333Y-139885714D01*
X136085714Y-139980952D01*
X136038095Y-140028571D01*
X135942857Y-140076190D01*
X135561904Y-140076190D01*
X136990476Y-139885714D02*
X136990476Y-140552380D01*
X136752380Y-139504761D02*
X136514285Y-140219047D01*
X137133333Y-140219047D01*
%TO.C,C3*%
X142533333Y-131857142D02*
X142485714Y-131904761D01*
X142342857Y-131952380D01*
X142247619Y-131952380D01*
X142104761Y-131904761D01*
X142009523Y-131809523D01*
X141961904Y-131714285D01*
X141914285Y-131523809D01*
X141914285Y-131380952D01*
X141961904Y-131190476D01*
X142009523Y-131095238D01*
X142104761Y-131000000D01*
X142247619Y-130952380D01*
X142342857Y-130952380D01*
X142485714Y-131000000D01*
X142533333Y-131047619D01*
X142866666Y-130952380D02*
X143485714Y-130952380D01*
X143152380Y-131333333D01*
X143295238Y-131333333D01*
X143390476Y-131380952D01*
X143438095Y-131428571D01*
X143485714Y-131523809D01*
X143485714Y-131761904D01*
X143438095Y-131857142D01*
X143390476Y-131904761D01*
X143295238Y-131952380D01*
X143009523Y-131952380D01*
X142914285Y-131904761D01*
X142866666Y-131857142D01*
%TO.C,JP1*%
X129452380Y-132583333D02*
X130166666Y-132583333D01*
X130309523Y-132630952D01*
X130404761Y-132726190D01*
X130452380Y-132869047D01*
X130452380Y-132964285D01*
X130452380Y-132107142D02*
X129452380Y-132107142D01*
X129452380Y-131726190D01*
X129500000Y-131630952D01*
X129547619Y-131583333D01*
X129642857Y-131535714D01*
X129785714Y-131535714D01*
X129880952Y-131583333D01*
X129928571Y-131630952D01*
X129976190Y-131726190D01*
X129976190Y-132107142D01*
X130452380Y-130583333D02*
X130452380Y-131154761D01*
X130452380Y-130869047D02*
X129452380Y-130869047D01*
X129595238Y-130964285D01*
X129690476Y-131059523D01*
X129738095Y-131154761D01*
%TO.C,U3*%
X151352380Y-126761904D02*
X152161904Y-126761904D01*
X152257142Y-126714285D01*
X152304761Y-126666666D01*
X152352380Y-126571428D01*
X152352380Y-126380952D01*
X152304761Y-126285714D01*
X152257142Y-126238095D01*
X152161904Y-126190476D01*
X151352380Y-126190476D01*
X151352380Y-125809523D02*
X151352380Y-125190476D01*
X151733333Y-125523809D01*
X151733333Y-125380952D01*
X151780952Y-125285714D01*
X151828571Y-125238095D01*
X151923809Y-125190476D01*
X152161904Y-125190476D01*
X152257142Y-125238095D01*
X152304761Y-125285714D01*
X152352380Y-125380952D01*
X152352380Y-125666666D01*
X152304761Y-125761904D01*
X152257142Y-125809523D01*
%TO.C,R1*%
X130752380Y-134566666D02*
X130276190Y-134900000D01*
X130752380Y-135138095D02*
X129752380Y-135138095D01*
X129752380Y-134757142D01*
X129800000Y-134661904D01*
X129847619Y-134614285D01*
X129942857Y-134566666D01*
X130085714Y-134566666D01*
X130180952Y-134614285D01*
X130228571Y-134661904D01*
X130276190Y-134757142D01*
X130276190Y-135138095D01*
X130752380Y-133614285D02*
X130752380Y-134185714D01*
X130752380Y-133900000D02*
X129752380Y-133900000D01*
X129895238Y-133995238D01*
X129990476Y-134090476D01*
X130038095Y-134185714D01*
%TO.C,U2*%
X131652380Y-123261904D02*
X132461904Y-123261904D01*
X132557142Y-123214285D01*
X132604761Y-123166666D01*
X132652380Y-123071428D01*
X132652380Y-122880952D01*
X132604761Y-122785714D01*
X132557142Y-122738095D01*
X132461904Y-122690476D01*
X131652380Y-122690476D01*
X131747619Y-122261904D02*
X131700000Y-122214285D01*
X131652380Y-122119047D01*
X131652380Y-121880952D01*
X131700000Y-121785714D01*
X131747619Y-121738095D01*
X131842857Y-121690476D01*
X131938095Y-121690476D01*
X132080952Y-121738095D01*
X132652380Y-122309523D01*
X132652380Y-121690476D01*
%TO.C,R2*%
X130752380Y-138366666D02*
X130276190Y-138700000D01*
X130752380Y-138938095D02*
X129752380Y-138938095D01*
X129752380Y-138557142D01*
X129800000Y-138461904D01*
X129847619Y-138414285D01*
X129942857Y-138366666D01*
X130085714Y-138366666D01*
X130180952Y-138414285D01*
X130228571Y-138461904D01*
X130276190Y-138557142D01*
X130276190Y-138938095D01*
X129847619Y-137985714D02*
X129800000Y-137938095D01*
X129752380Y-137842857D01*
X129752380Y-137604761D01*
X129800000Y-137509523D01*
X129847619Y-137461904D01*
X129942857Y-137414285D01*
X130038095Y-137414285D01*
X130180952Y-137461904D01*
X130752380Y-138033333D01*
X130752380Y-137414285D01*
%TO.C,R3*%
X132452380Y-126166666D02*
X131976190Y-126500000D01*
X132452380Y-126738095D02*
X131452380Y-126738095D01*
X131452380Y-126357142D01*
X131500000Y-126261904D01*
X131547619Y-126214285D01*
X131642857Y-126166666D01*
X131785714Y-126166666D01*
X131880952Y-126214285D01*
X131928571Y-126261904D01*
X131976190Y-126357142D01*
X131976190Y-126738095D01*
X131452380Y-125833333D02*
X131452380Y-125214285D01*
X131833333Y-125547619D01*
X131833333Y-125404761D01*
X131880952Y-125309523D01*
X131928571Y-125261904D01*
X132023809Y-125214285D01*
X132261904Y-125214285D01*
X132357142Y-125261904D01*
X132404761Y-125309523D01*
X132452380Y-125404761D01*
X132452380Y-125690476D01*
X132404761Y-125785714D01*
X132357142Y-125833333D01*
%TO.C,U1*%
X119837507Y-130251958D02*
X119837507Y-131062106D01*
X119885162Y-131157418D01*
X119932818Y-131205074D01*
X120028130Y-131252730D01*
X120218753Y-131252730D01*
X120314065Y-131205074D01*
X120361720Y-131157418D01*
X120409376Y-131062106D01*
X120409376Y-130251958D01*
X121410148Y-131252730D02*
X120838279Y-131252730D01*
X121124213Y-131252730D02*
X121124213Y-130251958D01*
X121028902Y-130394925D01*
X120933590Y-130490237D01*
X120838279Y-130537893D01*
%TO.C,R5*%
X143352380Y-135566666D02*
X142876190Y-135900000D01*
X143352380Y-136138095D02*
X142352380Y-136138095D01*
X142352380Y-135757142D01*
X142400000Y-135661904D01*
X142447619Y-135614285D01*
X142542857Y-135566666D01*
X142685714Y-135566666D01*
X142780952Y-135614285D01*
X142828571Y-135661904D01*
X142876190Y-135757142D01*
X142876190Y-136138095D01*
X142352380Y-134661904D02*
X142352380Y-135138095D01*
X142828571Y-135185714D01*
X142780952Y-135138095D01*
X142733333Y-135042857D01*
X142733333Y-134804761D01*
X142780952Y-134709523D01*
X142828571Y-134661904D01*
X142923809Y-134614285D01*
X143161904Y-134614285D01*
X143257142Y-134661904D01*
X143304761Y-134709523D01*
X143352380Y-134804761D01*
X143352380Y-135042857D01*
X143304761Y-135138095D01*
X143257142Y-135185714D01*
%TO.C,D1*%
X132761904Y-136752380D02*
X132761904Y-135752380D01*
X133000000Y-135752380D01*
X133142857Y-135800000D01*
X133238095Y-135895238D01*
X133285714Y-135990476D01*
X133333333Y-136180952D01*
X133333333Y-136323809D01*
X133285714Y-136514285D01*
X133238095Y-136609523D01*
X133142857Y-136704761D01*
X133000000Y-136752380D01*
X132761904Y-136752380D01*
X134285714Y-136752380D02*
X133714285Y-136752380D01*
X134000000Y-136752380D02*
X134000000Y-135752380D01*
X133904761Y-135895238D01*
X133809523Y-135990476D01*
X133714285Y-136038095D01*
%TO.C,C1*%
X141357142Y-126566666D02*
X141404761Y-126614285D01*
X141452380Y-126757142D01*
X141452380Y-126852380D01*
X141404761Y-126995238D01*
X141309523Y-127090476D01*
X141214285Y-127138095D01*
X141023809Y-127185714D01*
X140880952Y-127185714D01*
X140690476Y-127138095D01*
X140595238Y-127090476D01*
X140500000Y-126995238D01*
X140452380Y-126852380D01*
X140452380Y-126757142D01*
X140500000Y-126614285D01*
X140547619Y-126566666D01*
X141452380Y-125614285D02*
X141452380Y-126185714D01*
X141452380Y-125900000D02*
X140452380Y-125900000D01*
X140595238Y-125995238D01*
X140690476Y-126090476D01*
X140738095Y-126185714D01*
%TO.C,C2*%
X143457142Y-125966666D02*
X143504761Y-126014285D01*
X143552380Y-126157142D01*
X143552380Y-126252380D01*
X143504761Y-126395238D01*
X143409523Y-126490476D01*
X143314285Y-126538095D01*
X143123809Y-126585714D01*
X142980952Y-126585714D01*
X142790476Y-126538095D01*
X142695238Y-126490476D01*
X142600000Y-126395238D01*
X142552380Y-126252380D01*
X142552380Y-126157142D01*
X142600000Y-126014285D01*
X142647619Y-125966666D01*
X142647619Y-125585714D02*
X142600000Y-125538095D01*
X142552380Y-125442857D01*
X142552380Y-125204761D01*
X142600000Y-125109523D01*
X142647619Y-125061904D01*
X142742857Y-125014285D01*
X142838095Y-125014285D01*
X142980952Y-125061904D01*
X143552380Y-125633333D01*
X143552380Y-125014285D01*
%TO.C,J2*%
X148452380Y-145133333D02*
X149166666Y-145133333D01*
X149309523Y-145180952D01*
X149404761Y-145276190D01*
X149452380Y-145419047D01*
X149452380Y-145514285D01*
X148547619Y-144704761D02*
X148500000Y-144657142D01*
X148452380Y-144561904D01*
X148452380Y-144323809D01*
X148500000Y-144228571D01*
X148547619Y-144180952D01*
X148642857Y-144133333D01*
X148738095Y-144133333D01*
X148880952Y-144180952D01*
X149452380Y-144752380D01*
X149452380Y-144133333D01*
%TO.C,C4*%
X143257142Y-133666666D02*
X143304761Y-133714285D01*
X143352380Y-133857142D01*
X143352380Y-133952380D01*
X143304761Y-134095238D01*
X143209523Y-134190476D01*
X143114285Y-134238095D01*
X142923809Y-134285714D01*
X142780952Y-134285714D01*
X142590476Y-134238095D01*
X142495238Y-134190476D01*
X142400000Y-134095238D01*
X142352380Y-133952380D01*
X142352380Y-133857142D01*
X142400000Y-133714285D01*
X142447619Y-133666666D01*
X142685714Y-132809523D02*
X143352380Y-132809523D01*
X142304761Y-133047619D02*
X143019047Y-133285714D01*
X143019047Y-132666666D01*
%TO.C,J3*%
X148452380Y-138133333D02*
X149166666Y-138133333D01*
X149309523Y-138180952D01*
X149404761Y-138276190D01*
X149452380Y-138419047D01*
X149452380Y-138514285D01*
X148452380Y-137752380D02*
X148452380Y-137133333D01*
X148833333Y-137466666D01*
X148833333Y-137323809D01*
X148880952Y-137228571D01*
X148928571Y-137180952D01*
X149023809Y-137133333D01*
X149261904Y-137133333D01*
X149357142Y-137180952D01*
X149404761Y-137228571D01*
X149452380Y-137323809D01*
X149452380Y-137609523D01*
X149404761Y-137704761D01*
X149357142Y-137752380D01*
%TO.C,Q1*%
X78147619Y-129795238D02*
X78100000Y-129890476D01*
X78004761Y-129985714D01*
X77861904Y-130128571D01*
X77814285Y-130223809D01*
X77814285Y-130319047D01*
X78052380Y-130271428D02*
X78004761Y-130366666D01*
X77909523Y-130461904D01*
X77719047Y-130509523D01*
X77385714Y-130509523D01*
X77195238Y-130461904D01*
X77100000Y-130366666D01*
X77052380Y-130271428D01*
X77052380Y-130080952D01*
X77100000Y-129985714D01*
X77195238Y-129890476D01*
X77385714Y-129842857D01*
X77719047Y-129842857D01*
X77909523Y-129890476D01*
X78004761Y-129985714D01*
X78052380Y-130080952D01*
X78052380Y-130271428D01*
X78052380Y-128890476D02*
X78052380Y-129461904D01*
X78052380Y-129176190D02*
X77052380Y-129176190D01*
X77195238Y-129271428D01*
X77290476Y-129366666D01*
X77338095Y-129461904D01*
%TO.C,J1*%
X87466666Y-127552380D02*
X87466666Y-128266666D01*
X87419047Y-128409523D01*
X87323809Y-128504761D01*
X87180952Y-128552380D01*
X87085714Y-128552380D01*
X88466666Y-128552380D02*
X87895238Y-128552380D01*
X88180952Y-128552380D02*
X88180952Y-127552380D01*
X88085714Y-127695238D01*
X87990476Y-127790476D01*
X87895238Y-127838095D01*
%TO.C,JP1*%
X89452380Y-137083333D02*
X90166666Y-137083333D01*
X90309523Y-137130952D01*
X90404761Y-137226190D01*
X90452380Y-137369047D01*
X90452380Y-137464285D01*
X90452380Y-136607142D02*
X89452380Y-136607142D01*
X89452380Y-136226190D01*
X89500000Y-136130952D01*
X89547619Y-136083333D01*
X89642857Y-136035714D01*
X89785714Y-136035714D01*
X89880952Y-136083333D01*
X89928571Y-136130952D01*
X89976190Y-136226190D01*
X89976190Y-136607142D01*
X90452380Y-135083333D02*
X90452380Y-135654761D01*
X90452380Y-135369047D02*
X89452380Y-135369047D01*
X89595238Y-135464285D01*
X89690476Y-135559523D01*
X89738095Y-135654761D01*
%TO.C,U3*%
X67552380Y-142761904D02*
X68361904Y-142761904D01*
X68457142Y-142714285D01*
X68504761Y-142666666D01*
X68552380Y-142571428D01*
X68552380Y-142380952D01*
X68504761Y-142285714D01*
X68457142Y-142238095D01*
X68361904Y-142190476D01*
X67552380Y-142190476D01*
X67552380Y-141809523D02*
X67552380Y-141190476D01*
X67933333Y-141523809D01*
X67933333Y-141380952D01*
X67980952Y-141285714D01*
X68028571Y-141238095D01*
X68123809Y-141190476D01*
X68361904Y-141190476D01*
X68457142Y-141238095D01*
X68504761Y-141285714D01*
X68552380Y-141380952D01*
X68552380Y-141666666D01*
X68504761Y-141761904D01*
X68457142Y-141809523D01*
%TO.C,R1*%
X90152380Y-133766666D02*
X89676190Y-134100000D01*
X90152380Y-134338095D02*
X89152380Y-134338095D01*
X89152380Y-133957142D01*
X89200000Y-133861904D01*
X89247619Y-133814285D01*
X89342857Y-133766666D01*
X89485714Y-133766666D01*
X89580952Y-133814285D01*
X89628571Y-133861904D01*
X89676190Y-133957142D01*
X89676190Y-134338095D01*
X90152380Y-132814285D02*
X90152380Y-133385714D01*
X90152380Y-133100000D02*
X89152380Y-133100000D01*
X89295238Y-133195238D01*
X89390476Y-133290476D01*
X89438095Y-133385714D01*
%TO.C,U2*%
X87252380Y-146261904D02*
X88061904Y-146261904D01*
X88157142Y-146214285D01*
X88204761Y-146166666D01*
X88252380Y-146071428D01*
X88252380Y-145880952D01*
X88204761Y-145785714D01*
X88157142Y-145738095D01*
X88061904Y-145690476D01*
X87252380Y-145690476D01*
X87347619Y-145261904D02*
X87300000Y-145214285D01*
X87252380Y-145119047D01*
X87252380Y-144880952D01*
X87300000Y-144785714D01*
X87347619Y-144738095D01*
X87442857Y-144690476D01*
X87538095Y-144690476D01*
X87680952Y-144738095D01*
X88252380Y-145309523D01*
X88252380Y-144690476D01*
%TO.C,R2*%
X90152380Y-129966666D02*
X89676190Y-130300000D01*
X90152380Y-130538095D02*
X89152380Y-130538095D01*
X89152380Y-130157142D01*
X89200000Y-130061904D01*
X89247619Y-130014285D01*
X89342857Y-129966666D01*
X89485714Y-129966666D01*
X89580952Y-130014285D01*
X89628571Y-130061904D01*
X89676190Y-130157142D01*
X89676190Y-130538095D01*
X89247619Y-129585714D02*
X89200000Y-129538095D01*
X89152380Y-129442857D01*
X89152380Y-129204761D01*
X89200000Y-129109523D01*
X89247619Y-129061904D01*
X89342857Y-129014285D01*
X89438095Y-129014285D01*
X89580952Y-129061904D01*
X90152380Y-129633333D01*
X90152380Y-129014285D01*
%TO.C,R4*%
X83533333Y-128352380D02*
X83200000Y-127876190D01*
X82961904Y-128352380D02*
X82961904Y-127352380D01*
X83342857Y-127352380D01*
X83438095Y-127400000D01*
X83485714Y-127447619D01*
X83533333Y-127542857D01*
X83533333Y-127685714D01*
X83485714Y-127780952D01*
X83438095Y-127828571D01*
X83342857Y-127876190D01*
X82961904Y-127876190D01*
X84390476Y-127685714D02*
X84390476Y-128352380D01*
X84152380Y-127304761D02*
X83914285Y-128019047D01*
X84533333Y-128019047D01*
%TO.C,R3*%
X88452380Y-142166666D02*
X87976190Y-142500000D01*
X88452380Y-142738095D02*
X87452380Y-142738095D01*
X87452380Y-142357142D01*
X87500000Y-142261904D01*
X87547619Y-142214285D01*
X87642857Y-142166666D01*
X87785714Y-142166666D01*
X87880952Y-142214285D01*
X87928571Y-142261904D01*
X87976190Y-142357142D01*
X87976190Y-142738095D01*
X87452380Y-141833333D02*
X87452380Y-141214285D01*
X87833333Y-141547619D01*
X87833333Y-141404761D01*
X87880952Y-141309523D01*
X87928571Y-141261904D01*
X88023809Y-141214285D01*
X88261904Y-141214285D01*
X88357142Y-141261904D01*
X88404761Y-141309523D01*
X88452380Y-141404761D01*
X88452380Y-141690476D01*
X88404761Y-141785714D01*
X88357142Y-141833333D01*
%TO.C,U1*%
X98637507Y-136651958D02*
X98637507Y-137462106D01*
X98685162Y-137557418D01*
X98732818Y-137605074D01*
X98828130Y-137652730D01*
X99018753Y-137652730D01*
X99114065Y-137605074D01*
X99161720Y-137557418D01*
X99209376Y-137462106D01*
X99209376Y-136651958D01*
X100210148Y-137652730D02*
X99638279Y-137652730D01*
X99924213Y-137652730D02*
X99924213Y-136651958D01*
X99828902Y-136794925D01*
X99733590Y-136890237D01*
X99638279Y-136937893D01*
%TO.C,C3*%
X77133333Y-136857142D02*
X77085714Y-136904761D01*
X76942857Y-136952380D01*
X76847619Y-136952380D01*
X76704761Y-136904761D01*
X76609523Y-136809523D01*
X76561904Y-136714285D01*
X76514285Y-136523809D01*
X76514285Y-136380952D01*
X76561904Y-136190476D01*
X76609523Y-136095238D01*
X76704761Y-136000000D01*
X76847619Y-135952380D01*
X76942857Y-135952380D01*
X77085714Y-136000000D01*
X77133333Y-136047619D01*
X77466666Y-135952380D02*
X78085714Y-135952380D01*
X77752380Y-136333333D01*
X77895238Y-136333333D01*
X77990476Y-136380952D01*
X78038095Y-136428571D01*
X78085714Y-136523809D01*
X78085714Y-136761904D01*
X78038095Y-136857142D01*
X77990476Y-136904761D01*
X77895238Y-136952380D01*
X77609523Y-136952380D01*
X77514285Y-136904761D01*
X77466666Y-136857142D01*
%TO.C,C4*%
X77457142Y-134666666D02*
X77504761Y-134714285D01*
X77552380Y-134857142D01*
X77552380Y-134952380D01*
X77504761Y-135095238D01*
X77409523Y-135190476D01*
X77314285Y-135238095D01*
X77123809Y-135285714D01*
X76980952Y-135285714D01*
X76790476Y-135238095D01*
X76695238Y-135190476D01*
X76600000Y-135095238D01*
X76552380Y-134952380D01*
X76552380Y-134857142D01*
X76600000Y-134714285D01*
X76647619Y-134666666D01*
X76885714Y-133809523D02*
X77552380Y-133809523D01*
X76504761Y-134047619D02*
X77219047Y-134285714D01*
X77219047Y-133666666D01*
%TO.C,R5*%
X77552380Y-132766666D02*
X77076190Y-133100000D01*
X77552380Y-133338095D02*
X76552380Y-133338095D01*
X76552380Y-132957142D01*
X76600000Y-132861904D01*
X76647619Y-132814285D01*
X76742857Y-132766666D01*
X76885714Y-132766666D01*
X76980952Y-132814285D01*
X77028571Y-132861904D01*
X77076190Y-132957142D01*
X77076190Y-133338095D01*
X76552380Y-131861904D02*
X76552380Y-132338095D01*
X77028571Y-132385714D01*
X76980952Y-132338095D01*
X76933333Y-132242857D01*
X76933333Y-132004761D01*
X76980952Y-131909523D01*
X77028571Y-131861904D01*
X77123809Y-131814285D01*
X77361904Y-131814285D01*
X77457142Y-131861904D01*
X77504761Y-131909523D01*
X77552380Y-132004761D01*
X77552380Y-132242857D01*
X77504761Y-132338095D01*
X77457142Y-132385714D01*
%TO.C,D1*%
X85761904Y-132152380D02*
X85761904Y-131152380D01*
X86000000Y-131152380D01*
X86142857Y-131200000D01*
X86238095Y-131295238D01*
X86285714Y-131390476D01*
X86333333Y-131580952D01*
X86333333Y-131723809D01*
X86285714Y-131914285D01*
X86238095Y-132009523D01*
X86142857Y-132104761D01*
X86000000Y-132152380D01*
X85761904Y-132152380D01*
X87285714Y-132152380D02*
X86714285Y-132152380D01*
X87000000Y-132152380D02*
X87000000Y-131152380D01*
X86904761Y-131295238D01*
X86809523Y-131390476D01*
X86714285Y-131438095D01*
%TO.C,C1*%
X79357142Y-141766666D02*
X79404761Y-141814285D01*
X79452380Y-141957142D01*
X79452380Y-142052380D01*
X79404761Y-142195238D01*
X79309523Y-142290476D01*
X79214285Y-142338095D01*
X79023809Y-142385714D01*
X78880952Y-142385714D01*
X78690476Y-142338095D01*
X78595238Y-142290476D01*
X78500000Y-142195238D01*
X78452380Y-142052380D01*
X78452380Y-141957142D01*
X78500000Y-141814285D01*
X78547619Y-141766666D01*
X79452380Y-140814285D02*
X79452380Y-141385714D01*
X79452380Y-141100000D02*
X78452380Y-141100000D01*
X78595238Y-141195238D01*
X78690476Y-141290476D01*
X78738095Y-141385714D01*
%TO.C,C2*%
X77257142Y-142366666D02*
X77304761Y-142414285D01*
X77352380Y-142557142D01*
X77352380Y-142652380D01*
X77304761Y-142795238D01*
X77209523Y-142890476D01*
X77114285Y-142938095D01*
X76923809Y-142985714D01*
X76780952Y-142985714D01*
X76590476Y-142938095D01*
X76495238Y-142890476D01*
X76400000Y-142795238D01*
X76352380Y-142652380D01*
X76352380Y-142557142D01*
X76400000Y-142414285D01*
X76447619Y-142366666D01*
X76447619Y-141985714D02*
X76400000Y-141938095D01*
X76352380Y-141842857D01*
X76352380Y-141604761D01*
X76400000Y-141509523D01*
X76447619Y-141461904D01*
X76542857Y-141414285D01*
X76638095Y-141414285D01*
X76780952Y-141461904D01*
X77352380Y-142033333D01*
X77352380Y-141414285D01*
%TO.C,J3*%
X70452380Y-130533333D02*
X71166666Y-130533333D01*
X71309523Y-130580952D01*
X71404761Y-130676190D01*
X71452380Y-130819047D01*
X71452380Y-130914285D01*
X70452380Y-130152380D02*
X70452380Y-129533333D01*
X70833333Y-129866666D01*
X70833333Y-129723809D01*
X70880952Y-129628571D01*
X70928571Y-129580952D01*
X71023809Y-129533333D01*
X71261904Y-129533333D01*
X71357142Y-129580952D01*
X71404761Y-129628571D01*
X71452380Y-129723809D01*
X71452380Y-130009523D01*
X71404761Y-130104761D01*
X71357142Y-130152380D01*
%TO.C,J2*%
X70452380Y-123533333D02*
X71166666Y-123533333D01*
X71309523Y-123580952D01*
X71404761Y-123676190D01*
X71452380Y-123819047D01*
X71452380Y-123914285D01*
X70547619Y-123104761D02*
X70500000Y-123057142D01*
X70452380Y-122961904D01*
X70452380Y-122723809D01*
X70500000Y-122628571D01*
X70547619Y-122580952D01*
X70642857Y-122533333D01*
X70738095Y-122533333D01*
X70880952Y-122580952D01*
X71452380Y-123152380D01*
X71452380Y-122533333D01*
%TO.C,Q1*%
X142947619Y-110395238D02*
X142900000Y-110490476D01*
X142804761Y-110585714D01*
X142661904Y-110728571D01*
X142614285Y-110823809D01*
X142614285Y-110919047D01*
X142852380Y-110871428D02*
X142804761Y-110966666D01*
X142709523Y-111061904D01*
X142519047Y-111109523D01*
X142185714Y-111109523D01*
X141995238Y-111061904D01*
X141900000Y-110966666D01*
X141852380Y-110871428D01*
X141852380Y-110680952D01*
X141900000Y-110585714D01*
X141995238Y-110490476D01*
X142185714Y-110442857D01*
X142519047Y-110442857D01*
X142709523Y-110490476D01*
X142804761Y-110585714D01*
X142852380Y-110680952D01*
X142852380Y-110871428D01*
X142852380Y-109490476D02*
X142852380Y-110061904D01*
X142852380Y-109776190D02*
X141852380Y-109776190D01*
X141995238Y-109871428D01*
X142090476Y-109966666D01*
X142138095Y-110061904D01*
%TO.C,J1*%
X131866666Y-111352380D02*
X131866666Y-112066666D01*
X131819047Y-112209523D01*
X131723809Y-112304761D01*
X131580952Y-112352380D01*
X131485714Y-112352380D01*
X132866666Y-112352380D02*
X132295238Y-112352380D01*
X132580952Y-112352380D02*
X132580952Y-111352380D01*
X132485714Y-111495238D01*
X132390476Y-111590476D01*
X132295238Y-111638095D01*
%TO.C,R4*%
X136133333Y-112552380D02*
X135800000Y-112076190D01*
X135561904Y-112552380D02*
X135561904Y-111552380D01*
X135942857Y-111552380D01*
X136038095Y-111600000D01*
X136085714Y-111647619D01*
X136133333Y-111742857D01*
X136133333Y-111885714D01*
X136085714Y-111980952D01*
X136038095Y-112028571D01*
X135942857Y-112076190D01*
X135561904Y-112076190D01*
X136990476Y-111885714D02*
X136990476Y-112552380D01*
X136752380Y-111504761D02*
X136514285Y-112219047D01*
X137133333Y-112219047D01*
%TO.C,C3*%
X142533333Y-103857142D02*
X142485714Y-103904761D01*
X142342857Y-103952380D01*
X142247619Y-103952380D01*
X142104761Y-103904761D01*
X142009523Y-103809523D01*
X141961904Y-103714285D01*
X141914285Y-103523809D01*
X141914285Y-103380952D01*
X141961904Y-103190476D01*
X142009523Y-103095238D01*
X142104761Y-103000000D01*
X142247619Y-102952380D01*
X142342857Y-102952380D01*
X142485714Y-103000000D01*
X142533333Y-103047619D01*
X142866666Y-102952380D02*
X143485714Y-102952380D01*
X143152380Y-103333333D01*
X143295238Y-103333333D01*
X143390476Y-103380952D01*
X143438095Y-103428571D01*
X143485714Y-103523809D01*
X143485714Y-103761904D01*
X143438095Y-103857142D01*
X143390476Y-103904761D01*
X143295238Y-103952380D01*
X143009523Y-103952380D01*
X142914285Y-103904761D01*
X142866666Y-103857142D01*
%TO.C,JP1*%
X129452380Y-104583333D02*
X130166666Y-104583333D01*
X130309523Y-104630952D01*
X130404761Y-104726190D01*
X130452380Y-104869047D01*
X130452380Y-104964285D01*
X130452380Y-104107142D02*
X129452380Y-104107142D01*
X129452380Y-103726190D01*
X129500000Y-103630952D01*
X129547619Y-103583333D01*
X129642857Y-103535714D01*
X129785714Y-103535714D01*
X129880952Y-103583333D01*
X129928571Y-103630952D01*
X129976190Y-103726190D01*
X129976190Y-104107142D01*
X130452380Y-102583333D02*
X130452380Y-103154761D01*
X130452380Y-102869047D02*
X129452380Y-102869047D01*
X129595238Y-102964285D01*
X129690476Y-103059523D01*
X129738095Y-103154761D01*
%TO.C,U3*%
X151352380Y-98761904D02*
X152161904Y-98761904D01*
X152257142Y-98714285D01*
X152304761Y-98666666D01*
X152352380Y-98571428D01*
X152352380Y-98380952D01*
X152304761Y-98285714D01*
X152257142Y-98238095D01*
X152161904Y-98190476D01*
X151352380Y-98190476D01*
X151352380Y-97809523D02*
X151352380Y-97190476D01*
X151733333Y-97523809D01*
X151733333Y-97380952D01*
X151780952Y-97285714D01*
X151828571Y-97238095D01*
X151923809Y-97190476D01*
X152161904Y-97190476D01*
X152257142Y-97238095D01*
X152304761Y-97285714D01*
X152352380Y-97380952D01*
X152352380Y-97666666D01*
X152304761Y-97761904D01*
X152257142Y-97809523D01*
%TO.C,R1*%
X130752380Y-106566666D02*
X130276190Y-106900000D01*
X130752380Y-107138095D02*
X129752380Y-107138095D01*
X129752380Y-106757142D01*
X129800000Y-106661904D01*
X129847619Y-106614285D01*
X129942857Y-106566666D01*
X130085714Y-106566666D01*
X130180952Y-106614285D01*
X130228571Y-106661904D01*
X130276190Y-106757142D01*
X130276190Y-107138095D01*
X130752380Y-105614285D02*
X130752380Y-106185714D01*
X130752380Y-105900000D02*
X129752380Y-105900000D01*
X129895238Y-105995238D01*
X129990476Y-106090476D01*
X130038095Y-106185714D01*
%TO.C,U2*%
X131652380Y-95261904D02*
X132461904Y-95261904D01*
X132557142Y-95214285D01*
X132604761Y-95166666D01*
X132652380Y-95071428D01*
X132652380Y-94880952D01*
X132604761Y-94785714D01*
X132557142Y-94738095D01*
X132461904Y-94690476D01*
X131652380Y-94690476D01*
X131747619Y-94261904D02*
X131700000Y-94214285D01*
X131652380Y-94119047D01*
X131652380Y-93880952D01*
X131700000Y-93785714D01*
X131747619Y-93738095D01*
X131842857Y-93690476D01*
X131938095Y-93690476D01*
X132080952Y-93738095D01*
X132652380Y-94309523D01*
X132652380Y-93690476D01*
%TO.C,R2*%
X130752380Y-110366666D02*
X130276190Y-110700000D01*
X130752380Y-110938095D02*
X129752380Y-110938095D01*
X129752380Y-110557142D01*
X129800000Y-110461904D01*
X129847619Y-110414285D01*
X129942857Y-110366666D01*
X130085714Y-110366666D01*
X130180952Y-110414285D01*
X130228571Y-110461904D01*
X130276190Y-110557142D01*
X130276190Y-110938095D01*
X129847619Y-109985714D02*
X129800000Y-109938095D01*
X129752380Y-109842857D01*
X129752380Y-109604761D01*
X129800000Y-109509523D01*
X129847619Y-109461904D01*
X129942857Y-109414285D01*
X130038095Y-109414285D01*
X130180952Y-109461904D01*
X130752380Y-110033333D01*
X130752380Y-109414285D01*
%TO.C,R3*%
X132452380Y-98166666D02*
X131976190Y-98500000D01*
X132452380Y-98738095D02*
X131452380Y-98738095D01*
X131452380Y-98357142D01*
X131500000Y-98261904D01*
X131547619Y-98214285D01*
X131642857Y-98166666D01*
X131785714Y-98166666D01*
X131880952Y-98214285D01*
X131928571Y-98261904D01*
X131976190Y-98357142D01*
X131976190Y-98738095D01*
X131452380Y-97833333D02*
X131452380Y-97214285D01*
X131833333Y-97547619D01*
X131833333Y-97404761D01*
X131880952Y-97309523D01*
X131928571Y-97261904D01*
X132023809Y-97214285D01*
X132261904Y-97214285D01*
X132357142Y-97261904D01*
X132404761Y-97309523D01*
X132452380Y-97404761D01*
X132452380Y-97690476D01*
X132404761Y-97785714D01*
X132357142Y-97833333D01*
%TO.C,U1*%
X119837507Y-102251958D02*
X119837507Y-103062106D01*
X119885162Y-103157418D01*
X119932818Y-103205074D01*
X120028130Y-103252730D01*
X120218753Y-103252730D01*
X120314065Y-103205074D01*
X120361720Y-103157418D01*
X120409376Y-103062106D01*
X120409376Y-102251958D01*
X121410148Y-103252730D02*
X120838279Y-103252730D01*
X121124213Y-103252730D02*
X121124213Y-102251958D01*
X121028902Y-102394925D01*
X120933590Y-102490237D01*
X120838279Y-102537893D01*
%TO.C,R5*%
X143352380Y-107566666D02*
X142876190Y-107900000D01*
X143352380Y-108138095D02*
X142352380Y-108138095D01*
X142352380Y-107757142D01*
X142400000Y-107661904D01*
X142447619Y-107614285D01*
X142542857Y-107566666D01*
X142685714Y-107566666D01*
X142780952Y-107614285D01*
X142828571Y-107661904D01*
X142876190Y-107757142D01*
X142876190Y-108138095D01*
X142352380Y-106661904D02*
X142352380Y-107138095D01*
X142828571Y-107185714D01*
X142780952Y-107138095D01*
X142733333Y-107042857D01*
X142733333Y-106804761D01*
X142780952Y-106709523D01*
X142828571Y-106661904D01*
X142923809Y-106614285D01*
X143161904Y-106614285D01*
X143257142Y-106661904D01*
X143304761Y-106709523D01*
X143352380Y-106804761D01*
X143352380Y-107042857D01*
X143304761Y-107138095D01*
X143257142Y-107185714D01*
%TO.C,D1*%
X132761904Y-108752380D02*
X132761904Y-107752380D01*
X133000000Y-107752380D01*
X133142857Y-107800000D01*
X133238095Y-107895238D01*
X133285714Y-107990476D01*
X133333333Y-108180952D01*
X133333333Y-108323809D01*
X133285714Y-108514285D01*
X133238095Y-108609523D01*
X133142857Y-108704761D01*
X133000000Y-108752380D01*
X132761904Y-108752380D01*
X134285714Y-108752380D02*
X133714285Y-108752380D01*
X134000000Y-108752380D02*
X134000000Y-107752380D01*
X133904761Y-107895238D01*
X133809523Y-107990476D01*
X133714285Y-108038095D01*
%TO.C,C1*%
X141357142Y-98566666D02*
X141404761Y-98614285D01*
X141452380Y-98757142D01*
X141452380Y-98852380D01*
X141404761Y-98995238D01*
X141309523Y-99090476D01*
X141214285Y-99138095D01*
X141023809Y-99185714D01*
X140880952Y-99185714D01*
X140690476Y-99138095D01*
X140595238Y-99090476D01*
X140500000Y-98995238D01*
X140452380Y-98852380D01*
X140452380Y-98757142D01*
X140500000Y-98614285D01*
X140547619Y-98566666D01*
X141452380Y-97614285D02*
X141452380Y-98185714D01*
X141452380Y-97900000D02*
X140452380Y-97900000D01*
X140595238Y-97995238D01*
X140690476Y-98090476D01*
X140738095Y-98185714D01*
%TO.C,C2*%
X143457142Y-97966666D02*
X143504761Y-98014285D01*
X143552380Y-98157142D01*
X143552380Y-98252380D01*
X143504761Y-98395238D01*
X143409523Y-98490476D01*
X143314285Y-98538095D01*
X143123809Y-98585714D01*
X142980952Y-98585714D01*
X142790476Y-98538095D01*
X142695238Y-98490476D01*
X142600000Y-98395238D01*
X142552380Y-98252380D01*
X142552380Y-98157142D01*
X142600000Y-98014285D01*
X142647619Y-97966666D01*
X142647619Y-97585714D02*
X142600000Y-97538095D01*
X142552380Y-97442857D01*
X142552380Y-97204761D01*
X142600000Y-97109523D01*
X142647619Y-97061904D01*
X142742857Y-97014285D01*
X142838095Y-97014285D01*
X142980952Y-97061904D01*
X143552380Y-97633333D01*
X143552380Y-97014285D01*
%TO.C,J2*%
X148452380Y-117133333D02*
X149166666Y-117133333D01*
X149309523Y-117180952D01*
X149404761Y-117276190D01*
X149452380Y-117419047D01*
X149452380Y-117514285D01*
X148547619Y-116704761D02*
X148500000Y-116657142D01*
X148452380Y-116561904D01*
X148452380Y-116323809D01*
X148500000Y-116228571D01*
X148547619Y-116180952D01*
X148642857Y-116133333D01*
X148738095Y-116133333D01*
X148880952Y-116180952D01*
X149452380Y-116752380D01*
X149452380Y-116133333D01*
%TO.C,C4*%
X143257142Y-105666666D02*
X143304761Y-105714285D01*
X143352380Y-105857142D01*
X143352380Y-105952380D01*
X143304761Y-106095238D01*
X143209523Y-106190476D01*
X143114285Y-106238095D01*
X142923809Y-106285714D01*
X142780952Y-106285714D01*
X142590476Y-106238095D01*
X142495238Y-106190476D01*
X142400000Y-106095238D01*
X142352380Y-105952380D01*
X142352380Y-105857142D01*
X142400000Y-105714285D01*
X142447619Y-105666666D01*
X142685714Y-104809523D02*
X143352380Y-104809523D01*
X142304761Y-105047619D02*
X143019047Y-105285714D01*
X143019047Y-104666666D01*
%TO.C,J3*%
X148452380Y-110133333D02*
X149166666Y-110133333D01*
X149309523Y-110180952D01*
X149404761Y-110276190D01*
X149452380Y-110419047D01*
X149452380Y-110514285D01*
X148452380Y-109752380D02*
X148452380Y-109133333D01*
X148833333Y-109466666D01*
X148833333Y-109323809D01*
X148880952Y-109228571D01*
X148928571Y-109180952D01*
X149023809Y-109133333D01*
X149261904Y-109133333D01*
X149357142Y-109180952D01*
X149404761Y-109228571D01*
X149452380Y-109323809D01*
X149452380Y-109609523D01*
X149404761Y-109704761D01*
X149357142Y-109752380D01*
%TO.C,Q1*%
X78147619Y-101795238D02*
X78100000Y-101890476D01*
X78004761Y-101985714D01*
X77861904Y-102128571D01*
X77814285Y-102223809D01*
X77814285Y-102319047D01*
X78052380Y-102271428D02*
X78004761Y-102366666D01*
X77909523Y-102461904D01*
X77719047Y-102509523D01*
X77385714Y-102509523D01*
X77195238Y-102461904D01*
X77100000Y-102366666D01*
X77052380Y-102271428D01*
X77052380Y-102080952D01*
X77100000Y-101985714D01*
X77195238Y-101890476D01*
X77385714Y-101842857D01*
X77719047Y-101842857D01*
X77909523Y-101890476D01*
X78004761Y-101985714D01*
X78052380Y-102080952D01*
X78052380Y-102271428D01*
X78052380Y-100890476D02*
X78052380Y-101461904D01*
X78052380Y-101176190D02*
X77052380Y-101176190D01*
X77195238Y-101271428D01*
X77290476Y-101366666D01*
X77338095Y-101461904D01*
%TO.C,J1*%
X87466666Y-99552380D02*
X87466666Y-100266666D01*
X87419047Y-100409523D01*
X87323809Y-100504761D01*
X87180952Y-100552380D01*
X87085714Y-100552380D01*
X88466666Y-100552380D02*
X87895238Y-100552380D01*
X88180952Y-100552380D02*
X88180952Y-99552380D01*
X88085714Y-99695238D01*
X87990476Y-99790476D01*
X87895238Y-99838095D01*
%TO.C,JP1*%
X89452380Y-109083333D02*
X90166666Y-109083333D01*
X90309523Y-109130952D01*
X90404761Y-109226190D01*
X90452380Y-109369047D01*
X90452380Y-109464285D01*
X90452380Y-108607142D02*
X89452380Y-108607142D01*
X89452380Y-108226190D01*
X89500000Y-108130952D01*
X89547619Y-108083333D01*
X89642857Y-108035714D01*
X89785714Y-108035714D01*
X89880952Y-108083333D01*
X89928571Y-108130952D01*
X89976190Y-108226190D01*
X89976190Y-108607142D01*
X90452380Y-107083333D02*
X90452380Y-107654761D01*
X90452380Y-107369047D02*
X89452380Y-107369047D01*
X89595238Y-107464285D01*
X89690476Y-107559523D01*
X89738095Y-107654761D01*
%TO.C,U3*%
X67552380Y-114761904D02*
X68361904Y-114761904D01*
X68457142Y-114714285D01*
X68504761Y-114666666D01*
X68552380Y-114571428D01*
X68552380Y-114380952D01*
X68504761Y-114285714D01*
X68457142Y-114238095D01*
X68361904Y-114190476D01*
X67552380Y-114190476D01*
X67552380Y-113809523D02*
X67552380Y-113190476D01*
X67933333Y-113523809D01*
X67933333Y-113380952D01*
X67980952Y-113285714D01*
X68028571Y-113238095D01*
X68123809Y-113190476D01*
X68361904Y-113190476D01*
X68457142Y-113238095D01*
X68504761Y-113285714D01*
X68552380Y-113380952D01*
X68552380Y-113666666D01*
X68504761Y-113761904D01*
X68457142Y-113809523D01*
%TO.C,R1*%
X90152380Y-105766666D02*
X89676190Y-106100000D01*
X90152380Y-106338095D02*
X89152380Y-106338095D01*
X89152380Y-105957142D01*
X89200000Y-105861904D01*
X89247619Y-105814285D01*
X89342857Y-105766666D01*
X89485714Y-105766666D01*
X89580952Y-105814285D01*
X89628571Y-105861904D01*
X89676190Y-105957142D01*
X89676190Y-106338095D01*
X90152380Y-104814285D02*
X90152380Y-105385714D01*
X90152380Y-105100000D02*
X89152380Y-105100000D01*
X89295238Y-105195238D01*
X89390476Y-105290476D01*
X89438095Y-105385714D01*
%TO.C,U2*%
X87252380Y-118261904D02*
X88061904Y-118261904D01*
X88157142Y-118214285D01*
X88204761Y-118166666D01*
X88252380Y-118071428D01*
X88252380Y-117880952D01*
X88204761Y-117785714D01*
X88157142Y-117738095D01*
X88061904Y-117690476D01*
X87252380Y-117690476D01*
X87347619Y-117261904D02*
X87300000Y-117214285D01*
X87252380Y-117119047D01*
X87252380Y-116880952D01*
X87300000Y-116785714D01*
X87347619Y-116738095D01*
X87442857Y-116690476D01*
X87538095Y-116690476D01*
X87680952Y-116738095D01*
X88252380Y-117309523D01*
X88252380Y-116690476D01*
%TO.C,R2*%
X90152380Y-101966666D02*
X89676190Y-102300000D01*
X90152380Y-102538095D02*
X89152380Y-102538095D01*
X89152380Y-102157142D01*
X89200000Y-102061904D01*
X89247619Y-102014285D01*
X89342857Y-101966666D01*
X89485714Y-101966666D01*
X89580952Y-102014285D01*
X89628571Y-102061904D01*
X89676190Y-102157142D01*
X89676190Y-102538095D01*
X89247619Y-101585714D02*
X89200000Y-101538095D01*
X89152380Y-101442857D01*
X89152380Y-101204761D01*
X89200000Y-101109523D01*
X89247619Y-101061904D01*
X89342857Y-101014285D01*
X89438095Y-101014285D01*
X89580952Y-101061904D01*
X90152380Y-101633333D01*
X90152380Y-101014285D01*
%TO.C,R4*%
X83533333Y-100352380D02*
X83200000Y-99876190D01*
X82961904Y-100352380D02*
X82961904Y-99352380D01*
X83342857Y-99352380D01*
X83438095Y-99400000D01*
X83485714Y-99447619D01*
X83533333Y-99542857D01*
X83533333Y-99685714D01*
X83485714Y-99780952D01*
X83438095Y-99828571D01*
X83342857Y-99876190D01*
X82961904Y-99876190D01*
X84390476Y-99685714D02*
X84390476Y-100352380D01*
X84152380Y-99304761D02*
X83914285Y-100019047D01*
X84533333Y-100019047D01*
%TO.C,R3*%
X88452380Y-114166666D02*
X87976190Y-114500000D01*
X88452380Y-114738095D02*
X87452380Y-114738095D01*
X87452380Y-114357142D01*
X87500000Y-114261904D01*
X87547619Y-114214285D01*
X87642857Y-114166666D01*
X87785714Y-114166666D01*
X87880952Y-114214285D01*
X87928571Y-114261904D01*
X87976190Y-114357142D01*
X87976190Y-114738095D01*
X87452380Y-113833333D02*
X87452380Y-113214285D01*
X87833333Y-113547619D01*
X87833333Y-113404761D01*
X87880952Y-113309523D01*
X87928571Y-113261904D01*
X88023809Y-113214285D01*
X88261904Y-113214285D01*
X88357142Y-113261904D01*
X88404761Y-113309523D01*
X88452380Y-113404761D01*
X88452380Y-113690476D01*
X88404761Y-113785714D01*
X88357142Y-113833333D01*
%TO.C,U1*%
X98637507Y-108651958D02*
X98637507Y-109462106D01*
X98685162Y-109557418D01*
X98732818Y-109605074D01*
X98828130Y-109652730D01*
X99018753Y-109652730D01*
X99114065Y-109605074D01*
X99161720Y-109557418D01*
X99209376Y-109462106D01*
X99209376Y-108651958D01*
X100210148Y-109652730D02*
X99638279Y-109652730D01*
X99924213Y-109652730D02*
X99924213Y-108651958D01*
X99828902Y-108794925D01*
X99733590Y-108890237D01*
X99638279Y-108937893D01*
%TO.C,C3*%
X77133333Y-108857142D02*
X77085714Y-108904761D01*
X76942857Y-108952380D01*
X76847619Y-108952380D01*
X76704761Y-108904761D01*
X76609523Y-108809523D01*
X76561904Y-108714285D01*
X76514285Y-108523809D01*
X76514285Y-108380952D01*
X76561904Y-108190476D01*
X76609523Y-108095238D01*
X76704761Y-108000000D01*
X76847619Y-107952380D01*
X76942857Y-107952380D01*
X77085714Y-108000000D01*
X77133333Y-108047619D01*
X77466666Y-107952380D02*
X78085714Y-107952380D01*
X77752380Y-108333333D01*
X77895238Y-108333333D01*
X77990476Y-108380952D01*
X78038095Y-108428571D01*
X78085714Y-108523809D01*
X78085714Y-108761904D01*
X78038095Y-108857142D01*
X77990476Y-108904761D01*
X77895238Y-108952380D01*
X77609523Y-108952380D01*
X77514285Y-108904761D01*
X77466666Y-108857142D01*
%TO.C,C4*%
X77457142Y-106666666D02*
X77504761Y-106714285D01*
X77552380Y-106857142D01*
X77552380Y-106952380D01*
X77504761Y-107095238D01*
X77409523Y-107190476D01*
X77314285Y-107238095D01*
X77123809Y-107285714D01*
X76980952Y-107285714D01*
X76790476Y-107238095D01*
X76695238Y-107190476D01*
X76600000Y-107095238D01*
X76552380Y-106952380D01*
X76552380Y-106857142D01*
X76600000Y-106714285D01*
X76647619Y-106666666D01*
X76885714Y-105809523D02*
X77552380Y-105809523D01*
X76504761Y-106047619D02*
X77219047Y-106285714D01*
X77219047Y-105666666D01*
%TO.C,R5*%
X77552380Y-104766666D02*
X77076190Y-105100000D01*
X77552380Y-105338095D02*
X76552380Y-105338095D01*
X76552380Y-104957142D01*
X76600000Y-104861904D01*
X76647619Y-104814285D01*
X76742857Y-104766666D01*
X76885714Y-104766666D01*
X76980952Y-104814285D01*
X77028571Y-104861904D01*
X77076190Y-104957142D01*
X77076190Y-105338095D01*
X76552380Y-103861904D02*
X76552380Y-104338095D01*
X77028571Y-104385714D01*
X76980952Y-104338095D01*
X76933333Y-104242857D01*
X76933333Y-104004761D01*
X76980952Y-103909523D01*
X77028571Y-103861904D01*
X77123809Y-103814285D01*
X77361904Y-103814285D01*
X77457142Y-103861904D01*
X77504761Y-103909523D01*
X77552380Y-104004761D01*
X77552380Y-104242857D01*
X77504761Y-104338095D01*
X77457142Y-104385714D01*
%TO.C,D1*%
X85761904Y-104152380D02*
X85761904Y-103152380D01*
X86000000Y-103152380D01*
X86142857Y-103200000D01*
X86238095Y-103295238D01*
X86285714Y-103390476D01*
X86333333Y-103580952D01*
X86333333Y-103723809D01*
X86285714Y-103914285D01*
X86238095Y-104009523D01*
X86142857Y-104104761D01*
X86000000Y-104152380D01*
X85761904Y-104152380D01*
X87285714Y-104152380D02*
X86714285Y-104152380D01*
X87000000Y-104152380D02*
X87000000Y-103152380D01*
X86904761Y-103295238D01*
X86809523Y-103390476D01*
X86714285Y-103438095D01*
%TO.C,C1*%
X79357142Y-113766666D02*
X79404761Y-113814285D01*
X79452380Y-113957142D01*
X79452380Y-114052380D01*
X79404761Y-114195238D01*
X79309523Y-114290476D01*
X79214285Y-114338095D01*
X79023809Y-114385714D01*
X78880952Y-114385714D01*
X78690476Y-114338095D01*
X78595238Y-114290476D01*
X78500000Y-114195238D01*
X78452380Y-114052380D01*
X78452380Y-113957142D01*
X78500000Y-113814285D01*
X78547619Y-113766666D01*
X79452380Y-112814285D02*
X79452380Y-113385714D01*
X79452380Y-113100000D02*
X78452380Y-113100000D01*
X78595238Y-113195238D01*
X78690476Y-113290476D01*
X78738095Y-113385714D01*
%TO.C,C2*%
X77257142Y-114366666D02*
X77304761Y-114414285D01*
X77352380Y-114557142D01*
X77352380Y-114652380D01*
X77304761Y-114795238D01*
X77209523Y-114890476D01*
X77114285Y-114938095D01*
X76923809Y-114985714D01*
X76780952Y-114985714D01*
X76590476Y-114938095D01*
X76495238Y-114890476D01*
X76400000Y-114795238D01*
X76352380Y-114652380D01*
X76352380Y-114557142D01*
X76400000Y-114414285D01*
X76447619Y-114366666D01*
X76447619Y-113985714D02*
X76400000Y-113938095D01*
X76352380Y-113842857D01*
X76352380Y-113604761D01*
X76400000Y-113509523D01*
X76447619Y-113461904D01*
X76542857Y-113414285D01*
X76638095Y-113414285D01*
X76780952Y-113461904D01*
X77352380Y-114033333D01*
X77352380Y-113414285D01*
%TO.C,J3*%
X70452380Y-102533333D02*
X71166666Y-102533333D01*
X71309523Y-102580952D01*
X71404761Y-102676190D01*
X71452380Y-102819047D01*
X71452380Y-102914285D01*
X70452380Y-102152380D02*
X70452380Y-101533333D01*
X70833333Y-101866666D01*
X70833333Y-101723809D01*
X70880952Y-101628571D01*
X70928571Y-101580952D01*
X71023809Y-101533333D01*
X71261904Y-101533333D01*
X71357142Y-101580952D01*
X71404761Y-101628571D01*
X71452380Y-101723809D01*
X71452380Y-102009523D01*
X71404761Y-102104761D01*
X71357142Y-102152380D01*
%TO.C,J2*%
X70452380Y-95533333D02*
X71166666Y-95533333D01*
X71309523Y-95580952D01*
X71404761Y-95676190D01*
X71452380Y-95819047D01*
X71452380Y-95914285D01*
X70547619Y-95104761D02*
X70500000Y-95057142D01*
X70452380Y-94961904D01*
X70452380Y-94723809D01*
X70500000Y-94628571D01*
X70547619Y-94580952D01*
X70642857Y-94533333D01*
X70738095Y-94533333D01*
X70880952Y-94580952D01*
X71452380Y-95152380D01*
X71452380Y-94533333D01*
%TO.C,Q1*%
X142947619Y-82395238D02*
X142900000Y-82490476D01*
X142804761Y-82585714D01*
X142661904Y-82728571D01*
X142614285Y-82823809D01*
X142614285Y-82919047D01*
X142852380Y-82871428D02*
X142804761Y-82966666D01*
X142709523Y-83061904D01*
X142519047Y-83109523D01*
X142185714Y-83109523D01*
X141995238Y-83061904D01*
X141900000Y-82966666D01*
X141852380Y-82871428D01*
X141852380Y-82680952D01*
X141900000Y-82585714D01*
X141995238Y-82490476D01*
X142185714Y-82442857D01*
X142519047Y-82442857D01*
X142709523Y-82490476D01*
X142804761Y-82585714D01*
X142852380Y-82680952D01*
X142852380Y-82871428D01*
X142852380Y-81490476D02*
X142852380Y-82061904D01*
X142852380Y-81776190D02*
X141852380Y-81776190D01*
X141995238Y-81871428D01*
X142090476Y-81966666D01*
X142138095Y-82061904D01*
%TO.C,J1*%
X131866666Y-83352380D02*
X131866666Y-84066666D01*
X131819047Y-84209523D01*
X131723809Y-84304761D01*
X131580952Y-84352380D01*
X131485714Y-84352380D01*
X132866666Y-84352380D02*
X132295238Y-84352380D01*
X132580952Y-84352380D02*
X132580952Y-83352380D01*
X132485714Y-83495238D01*
X132390476Y-83590476D01*
X132295238Y-83638095D01*
%TO.C,JP1*%
X129452380Y-76583333D02*
X130166666Y-76583333D01*
X130309523Y-76630952D01*
X130404761Y-76726190D01*
X130452380Y-76869047D01*
X130452380Y-76964285D01*
X130452380Y-76107142D02*
X129452380Y-76107142D01*
X129452380Y-75726190D01*
X129500000Y-75630952D01*
X129547619Y-75583333D01*
X129642857Y-75535714D01*
X129785714Y-75535714D01*
X129880952Y-75583333D01*
X129928571Y-75630952D01*
X129976190Y-75726190D01*
X129976190Y-76107142D01*
X130452380Y-74583333D02*
X130452380Y-75154761D01*
X130452380Y-74869047D02*
X129452380Y-74869047D01*
X129595238Y-74964285D01*
X129690476Y-75059523D01*
X129738095Y-75154761D01*
%TO.C,U3*%
X151352380Y-70761904D02*
X152161904Y-70761904D01*
X152257142Y-70714285D01*
X152304761Y-70666666D01*
X152352380Y-70571428D01*
X152352380Y-70380952D01*
X152304761Y-70285714D01*
X152257142Y-70238095D01*
X152161904Y-70190476D01*
X151352380Y-70190476D01*
X151352380Y-69809523D02*
X151352380Y-69190476D01*
X151733333Y-69523809D01*
X151733333Y-69380952D01*
X151780952Y-69285714D01*
X151828571Y-69238095D01*
X151923809Y-69190476D01*
X152161904Y-69190476D01*
X152257142Y-69238095D01*
X152304761Y-69285714D01*
X152352380Y-69380952D01*
X152352380Y-69666666D01*
X152304761Y-69761904D01*
X152257142Y-69809523D01*
%TO.C,R1*%
X130752380Y-78566666D02*
X130276190Y-78900000D01*
X130752380Y-79138095D02*
X129752380Y-79138095D01*
X129752380Y-78757142D01*
X129800000Y-78661904D01*
X129847619Y-78614285D01*
X129942857Y-78566666D01*
X130085714Y-78566666D01*
X130180952Y-78614285D01*
X130228571Y-78661904D01*
X130276190Y-78757142D01*
X130276190Y-79138095D01*
X130752380Y-77614285D02*
X130752380Y-78185714D01*
X130752380Y-77900000D02*
X129752380Y-77900000D01*
X129895238Y-77995238D01*
X129990476Y-78090476D01*
X130038095Y-78185714D01*
%TO.C,U2*%
X131652380Y-67261904D02*
X132461904Y-67261904D01*
X132557142Y-67214285D01*
X132604761Y-67166666D01*
X132652380Y-67071428D01*
X132652380Y-66880952D01*
X132604761Y-66785714D01*
X132557142Y-66738095D01*
X132461904Y-66690476D01*
X131652380Y-66690476D01*
X131747619Y-66261904D02*
X131700000Y-66214285D01*
X131652380Y-66119047D01*
X131652380Y-65880952D01*
X131700000Y-65785714D01*
X131747619Y-65738095D01*
X131842857Y-65690476D01*
X131938095Y-65690476D01*
X132080952Y-65738095D01*
X132652380Y-66309523D01*
X132652380Y-65690476D01*
%TO.C,R2*%
X130752380Y-82366666D02*
X130276190Y-82700000D01*
X130752380Y-82938095D02*
X129752380Y-82938095D01*
X129752380Y-82557142D01*
X129800000Y-82461904D01*
X129847619Y-82414285D01*
X129942857Y-82366666D01*
X130085714Y-82366666D01*
X130180952Y-82414285D01*
X130228571Y-82461904D01*
X130276190Y-82557142D01*
X130276190Y-82938095D01*
X129847619Y-81985714D02*
X129800000Y-81938095D01*
X129752380Y-81842857D01*
X129752380Y-81604761D01*
X129800000Y-81509523D01*
X129847619Y-81461904D01*
X129942857Y-81414285D01*
X130038095Y-81414285D01*
X130180952Y-81461904D01*
X130752380Y-82033333D01*
X130752380Y-81414285D01*
%TO.C,R4*%
X136133333Y-84552380D02*
X135800000Y-84076190D01*
X135561904Y-84552380D02*
X135561904Y-83552380D01*
X135942857Y-83552380D01*
X136038095Y-83600000D01*
X136085714Y-83647619D01*
X136133333Y-83742857D01*
X136133333Y-83885714D01*
X136085714Y-83980952D01*
X136038095Y-84028571D01*
X135942857Y-84076190D01*
X135561904Y-84076190D01*
X136990476Y-83885714D02*
X136990476Y-84552380D01*
X136752380Y-83504761D02*
X136514285Y-84219047D01*
X137133333Y-84219047D01*
%TO.C,R3*%
X132452380Y-70166666D02*
X131976190Y-70500000D01*
X132452380Y-70738095D02*
X131452380Y-70738095D01*
X131452380Y-70357142D01*
X131500000Y-70261904D01*
X131547619Y-70214285D01*
X131642857Y-70166666D01*
X131785714Y-70166666D01*
X131880952Y-70214285D01*
X131928571Y-70261904D01*
X131976190Y-70357142D01*
X131976190Y-70738095D01*
X131452380Y-69833333D02*
X131452380Y-69214285D01*
X131833333Y-69547619D01*
X131833333Y-69404761D01*
X131880952Y-69309523D01*
X131928571Y-69261904D01*
X132023809Y-69214285D01*
X132261904Y-69214285D01*
X132357142Y-69261904D01*
X132404761Y-69309523D01*
X132452380Y-69404761D01*
X132452380Y-69690476D01*
X132404761Y-69785714D01*
X132357142Y-69833333D01*
%TO.C,U1*%
X119837507Y-74251958D02*
X119837507Y-75062106D01*
X119885162Y-75157418D01*
X119932818Y-75205074D01*
X120028130Y-75252730D01*
X120218753Y-75252730D01*
X120314065Y-75205074D01*
X120361720Y-75157418D01*
X120409376Y-75062106D01*
X120409376Y-74251958D01*
X121410148Y-75252730D02*
X120838279Y-75252730D01*
X121124213Y-75252730D02*
X121124213Y-74251958D01*
X121028902Y-74394925D01*
X120933590Y-74490237D01*
X120838279Y-74537893D01*
%TO.C,C3*%
X142533333Y-75857142D02*
X142485714Y-75904761D01*
X142342857Y-75952380D01*
X142247619Y-75952380D01*
X142104761Y-75904761D01*
X142009523Y-75809523D01*
X141961904Y-75714285D01*
X141914285Y-75523809D01*
X141914285Y-75380952D01*
X141961904Y-75190476D01*
X142009523Y-75095238D01*
X142104761Y-75000000D01*
X142247619Y-74952380D01*
X142342857Y-74952380D01*
X142485714Y-75000000D01*
X142533333Y-75047619D01*
X142866666Y-74952380D02*
X143485714Y-74952380D01*
X143152380Y-75333333D01*
X143295238Y-75333333D01*
X143390476Y-75380952D01*
X143438095Y-75428571D01*
X143485714Y-75523809D01*
X143485714Y-75761904D01*
X143438095Y-75857142D01*
X143390476Y-75904761D01*
X143295238Y-75952380D01*
X143009523Y-75952380D01*
X142914285Y-75904761D01*
X142866666Y-75857142D01*
%TO.C,C4*%
X143257142Y-77666666D02*
X143304761Y-77714285D01*
X143352380Y-77857142D01*
X143352380Y-77952380D01*
X143304761Y-78095238D01*
X143209523Y-78190476D01*
X143114285Y-78238095D01*
X142923809Y-78285714D01*
X142780952Y-78285714D01*
X142590476Y-78238095D01*
X142495238Y-78190476D01*
X142400000Y-78095238D01*
X142352380Y-77952380D01*
X142352380Y-77857142D01*
X142400000Y-77714285D01*
X142447619Y-77666666D01*
X142685714Y-76809523D02*
X143352380Y-76809523D01*
X142304761Y-77047619D02*
X143019047Y-77285714D01*
X143019047Y-76666666D01*
%TO.C,R5*%
X143352380Y-79566666D02*
X142876190Y-79900000D01*
X143352380Y-80138095D02*
X142352380Y-80138095D01*
X142352380Y-79757142D01*
X142400000Y-79661904D01*
X142447619Y-79614285D01*
X142542857Y-79566666D01*
X142685714Y-79566666D01*
X142780952Y-79614285D01*
X142828571Y-79661904D01*
X142876190Y-79757142D01*
X142876190Y-80138095D01*
X142352380Y-78661904D02*
X142352380Y-79138095D01*
X142828571Y-79185714D01*
X142780952Y-79138095D01*
X142733333Y-79042857D01*
X142733333Y-78804761D01*
X142780952Y-78709523D01*
X142828571Y-78661904D01*
X142923809Y-78614285D01*
X143161904Y-78614285D01*
X143257142Y-78661904D01*
X143304761Y-78709523D01*
X143352380Y-78804761D01*
X143352380Y-79042857D01*
X143304761Y-79138095D01*
X143257142Y-79185714D01*
%TO.C,D1*%
X132761904Y-80752380D02*
X132761904Y-79752380D01*
X133000000Y-79752380D01*
X133142857Y-79800000D01*
X133238095Y-79895238D01*
X133285714Y-79990476D01*
X133333333Y-80180952D01*
X133333333Y-80323809D01*
X133285714Y-80514285D01*
X133238095Y-80609523D01*
X133142857Y-80704761D01*
X133000000Y-80752380D01*
X132761904Y-80752380D01*
X134285714Y-80752380D02*
X133714285Y-80752380D01*
X134000000Y-80752380D02*
X134000000Y-79752380D01*
X133904761Y-79895238D01*
X133809523Y-79990476D01*
X133714285Y-80038095D01*
%TO.C,C1*%
X141357142Y-70566666D02*
X141404761Y-70614285D01*
X141452380Y-70757142D01*
X141452380Y-70852380D01*
X141404761Y-70995238D01*
X141309523Y-71090476D01*
X141214285Y-71138095D01*
X141023809Y-71185714D01*
X140880952Y-71185714D01*
X140690476Y-71138095D01*
X140595238Y-71090476D01*
X140500000Y-70995238D01*
X140452380Y-70852380D01*
X140452380Y-70757142D01*
X140500000Y-70614285D01*
X140547619Y-70566666D01*
X141452380Y-69614285D02*
X141452380Y-70185714D01*
X141452380Y-69900000D02*
X140452380Y-69900000D01*
X140595238Y-69995238D01*
X140690476Y-70090476D01*
X140738095Y-70185714D01*
%TO.C,C2*%
X143457142Y-69966666D02*
X143504761Y-70014285D01*
X143552380Y-70157142D01*
X143552380Y-70252380D01*
X143504761Y-70395238D01*
X143409523Y-70490476D01*
X143314285Y-70538095D01*
X143123809Y-70585714D01*
X142980952Y-70585714D01*
X142790476Y-70538095D01*
X142695238Y-70490476D01*
X142600000Y-70395238D01*
X142552380Y-70252380D01*
X142552380Y-70157142D01*
X142600000Y-70014285D01*
X142647619Y-69966666D01*
X142647619Y-69585714D02*
X142600000Y-69538095D01*
X142552380Y-69442857D01*
X142552380Y-69204761D01*
X142600000Y-69109523D01*
X142647619Y-69061904D01*
X142742857Y-69014285D01*
X142838095Y-69014285D01*
X142980952Y-69061904D01*
X143552380Y-69633333D01*
X143552380Y-69014285D01*
%TO.C,J3*%
X148452380Y-82133333D02*
X149166666Y-82133333D01*
X149309523Y-82180952D01*
X149404761Y-82276190D01*
X149452380Y-82419047D01*
X149452380Y-82514285D01*
X148452380Y-81752380D02*
X148452380Y-81133333D01*
X148833333Y-81466666D01*
X148833333Y-81323809D01*
X148880952Y-81228571D01*
X148928571Y-81180952D01*
X149023809Y-81133333D01*
X149261904Y-81133333D01*
X149357142Y-81180952D01*
X149404761Y-81228571D01*
X149452380Y-81323809D01*
X149452380Y-81609523D01*
X149404761Y-81704761D01*
X149357142Y-81752380D01*
%TO.C,J2*%
X148452380Y-89133333D02*
X149166666Y-89133333D01*
X149309523Y-89180952D01*
X149404761Y-89276190D01*
X149452380Y-89419047D01*
X149452380Y-89514285D01*
X148547619Y-88704761D02*
X148500000Y-88657142D01*
X148452380Y-88561904D01*
X148452380Y-88323809D01*
X148500000Y-88228571D01*
X148547619Y-88180952D01*
X148642857Y-88133333D01*
X148738095Y-88133333D01*
X148880952Y-88180952D01*
X149452380Y-88752380D01*
X149452380Y-88133333D01*
%TO.C,J1*%
X87466666Y-71552380D02*
X87466666Y-72266666D01*
X87419047Y-72409523D01*
X87323809Y-72504761D01*
X87180952Y-72552380D01*
X87085714Y-72552380D01*
X88466666Y-72552380D02*
X87895238Y-72552380D01*
X88180952Y-72552380D02*
X88180952Y-71552380D01*
X88085714Y-71695238D01*
X87990476Y-71790476D01*
X87895238Y-71838095D01*
%TO.C,U3*%
X67552380Y-86761904D02*
X68361904Y-86761904D01*
X68457142Y-86714285D01*
X68504761Y-86666666D01*
X68552380Y-86571428D01*
X68552380Y-86380952D01*
X68504761Y-86285714D01*
X68457142Y-86238095D01*
X68361904Y-86190476D01*
X67552380Y-86190476D01*
X67552380Y-85809523D02*
X67552380Y-85190476D01*
X67933333Y-85523809D01*
X67933333Y-85380952D01*
X67980952Y-85285714D01*
X68028571Y-85238095D01*
X68123809Y-85190476D01*
X68361904Y-85190476D01*
X68457142Y-85238095D01*
X68504761Y-85285714D01*
X68552380Y-85380952D01*
X68552380Y-85666666D01*
X68504761Y-85761904D01*
X68457142Y-85809523D01*
%TO.C,R5*%
X77552380Y-76766666D02*
X77076190Y-77100000D01*
X77552380Y-77338095D02*
X76552380Y-77338095D01*
X76552380Y-76957142D01*
X76600000Y-76861904D01*
X76647619Y-76814285D01*
X76742857Y-76766666D01*
X76885714Y-76766666D01*
X76980952Y-76814285D01*
X77028571Y-76861904D01*
X77076190Y-76957142D01*
X77076190Y-77338095D01*
X76552380Y-75861904D02*
X76552380Y-76338095D01*
X77028571Y-76385714D01*
X76980952Y-76338095D01*
X76933333Y-76242857D01*
X76933333Y-76004761D01*
X76980952Y-75909523D01*
X77028571Y-75861904D01*
X77123809Y-75814285D01*
X77361904Y-75814285D01*
X77457142Y-75861904D01*
X77504761Y-75909523D01*
X77552380Y-76004761D01*
X77552380Y-76242857D01*
X77504761Y-76338095D01*
X77457142Y-76385714D01*
%TO.C,R4*%
X83533333Y-72352380D02*
X83200000Y-71876190D01*
X82961904Y-72352380D02*
X82961904Y-71352380D01*
X83342857Y-71352380D01*
X83438095Y-71400000D01*
X83485714Y-71447619D01*
X83533333Y-71542857D01*
X83533333Y-71685714D01*
X83485714Y-71780952D01*
X83438095Y-71828571D01*
X83342857Y-71876190D01*
X82961904Y-71876190D01*
X84390476Y-71685714D02*
X84390476Y-72352380D01*
X84152380Y-71304761D02*
X83914285Y-72019047D01*
X84533333Y-72019047D01*
%TO.C,Q1*%
X78147619Y-73795238D02*
X78100000Y-73890476D01*
X78004761Y-73985714D01*
X77861904Y-74128571D01*
X77814285Y-74223809D01*
X77814285Y-74319047D01*
X78052380Y-74271428D02*
X78004761Y-74366666D01*
X77909523Y-74461904D01*
X77719047Y-74509523D01*
X77385714Y-74509523D01*
X77195238Y-74461904D01*
X77100000Y-74366666D01*
X77052380Y-74271428D01*
X77052380Y-74080952D01*
X77100000Y-73985714D01*
X77195238Y-73890476D01*
X77385714Y-73842857D01*
X77719047Y-73842857D01*
X77909523Y-73890476D01*
X78004761Y-73985714D01*
X78052380Y-74080952D01*
X78052380Y-74271428D01*
X78052380Y-72890476D02*
X78052380Y-73461904D01*
X78052380Y-73176190D02*
X77052380Y-73176190D01*
X77195238Y-73271428D01*
X77290476Y-73366666D01*
X77338095Y-73461904D01*
%TO.C,C4*%
X77457142Y-78666666D02*
X77504761Y-78714285D01*
X77552380Y-78857142D01*
X77552380Y-78952380D01*
X77504761Y-79095238D01*
X77409523Y-79190476D01*
X77314285Y-79238095D01*
X77123809Y-79285714D01*
X76980952Y-79285714D01*
X76790476Y-79238095D01*
X76695238Y-79190476D01*
X76600000Y-79095238D01*
X76552380Y-78952380D01*
X76552380Y-78857142D01*
X76600000Y-78714285D01*
X76647619Y-78666666D01*
X76885714Y-77809523D02*
X77552380Y-77809523D01*
X76504761Y-78047619D02*
X77219047Y-78285714D01*
X77219047Y-77666666D01*
%TO.C,C3*%
X77133333Y-80857142D02*
X77085714Y-80904761D01*
X76942857Y-80952380D01*
X76847619Y-80952380D01*
X76704761Y-80904761D01*
X76609523Y-80809523D01*
X76561904Y-80714285D01*
X76514285Y-80523809D01*
X76514285Y-80380952D01*
X76561904Y-80190476D01*
X76609523Y-80095238D01*
X76704761Y-80000000D01*
X76847619Y-79952380D01*
X76942857Y-79952380D01*
X77085714Y-80000000D01*
X77133333Y-80047619D01*
X77466666Y-79952380D02*
X78085714Y-79952380D01*
X77752380Y-80333333D01*
X77895238Y-80333333D01*
X77990476Y-80380952D01*
X78038095Y-80428571D01*
X78085714Y-80523809D01*
X78085714Y-80761904D01*
X78038095Y-80857142D01*
X77990476Y-80904761D01*
X77895238Y-80952380D01*
X77609523Y-80952380D01*
X77514285Y-80904761D01*
X77466666Y-80857142D01*
%TO.C,U2*%
X87252380Y-90261904D02*
X88061904Y-90261904D01*
X88157142Y-90214285D01*
X88204761Y-90166666D01*
X88252380Y-90071428D01*
X88252380Y-89880952D01*
X88204761Y-89785714D01*
X88157142Y-89738095D01*
X88061904Y-89690476D01*
X87252380Y-89690476D01*
X87347619Y-89261904D02*
X87300000Y-89214285D01*
X87252380Y-89119047D01*
X87252380Y-88880952D01*
X87300000Y-88785714D01*
X87347619Y-88738095D01*
X87442857Y-88690476D01*
X87538095Y-88690476D01*
X87680952Y-88738095D01*
X88252380Y-89309523D01*
X88252380Y-88690476D01*
%TO.C,U1*%
X98637507Y-80651958D02*
X98637507Y-81462106D01*
X98685162Y-81557418D01*
X98732818Y-81605074D01*
X98828130Y-81652730D01*
X99018753Y-81652730D01*
X99114065Y-81605074D01*
X99161720Y-81557418D01*
X99209376Y-81462106D01*
X99209376Y-80651958D01*
X100210148Y-81652730D02*
X99638279Y-81652730D01*
X99924213Y-81652730D02*
X99924213Y-80651958D01*
X99828902Y-80794925D01*
X99733590Y-80890237D01*
X99638279Y-80937893D01*
%TO.C,R3*%
X88452380Y-86166666D02*
X87976190Y-86500000D01*
X88452380Y-86738095D02*
X87452380Y-86738095D01*
X87452380Y-86357142D01*
X87500000Y-86261904D01*
X87547619Y-86214285D01*
X87642857Y-86166666D01*
X87785714Y-86166666D01*
X87880952Y-86214285D01*
X87928571Y-86261904D01*
X87976190Y-86357142D01*
X87976190Y-86738095D01*
X87452380Y-85833333D02*
X87452380Y-85214285D01*
X87833333Y-85547619D01*
X87833333Y-85404761D01*
X87880952Y-85309523D01*
X87928571Y-85261904D01*
X88023809Y-85214285D01*
X88261904Y-85214285D01*
X88357142Y-85261904D01*
X88404761Y-85309523D01*
X88452380Y-85404761D01*
X88452380Y-85690476D01*
X88404761Y-85785714D01*
X88357142Y-85833333D01*
%TO.C,R2*%
X90152380Y-73966666D02*
X89676190Y-74300000D01*
X90152380Y-74538095D02*
X89152380Y-74538095D01*
X89152380Y-74157142D01*
X89200000Y-74061904D01*
X89247619Y-74014285D01*
X89342857Y-73966666D01*
X89485714Y-73966666D01*
X89580952Y-74014285D01*
X89628571Y-74061904D01*
X89676190Y-74157142D01*
X89676190Y-74538095D01*
X89247619Y-73585714D02*
X89200000Y-73538095D01*
X89152380Y-73442857D01*
X89152380Y-73204761D01*
X89200000Y-73109523D01*
X89247619Y-73061904D01*
X89342857Y-73014285D01*
X89438095Y-73014285D01*
X89580952Y-73061904D01*
X90152380Y-73633333D01*
X90152380Y-73014285D01*
%TO.C,R1*%
X90152380Y-77766666D02*
X89676190Y-78100000D01*
X90152380Y-78338095D02*
X89152380Y-78338095D01*
X89152380Y-77957142D01*
X89200000Y-77861904D01*
X89247619Y-77814285D01*
X89342857Y-77766666D01*
X89485714Y-77766666D01*
X89580952Y-77814285D01*
X89628571Y-77861904D01*
X89676190Y-77957142D01*
X89676190Y-78338095D01*
X90152380Y-76814285D02*
X90152380Y-77385714D01*
X90152380Y-77100000D02*
X89152380Y-77100000D01*
X89295238Y-77195238D01*
X89390476Y-77290476D01*
X89438095Y-77385714D01*
%TO.C,JP1*%
X89452380Y-81083333D02*
X90166666Y-81083333D01*
X90309523Y-81130952D01*
X90404761Y-81226190D01*
X90452380Y-81369047D01*
X90452380Y-81464285D01*
X90452380Y-80607142D02*
X89452380Y-80607142D01*
X89452380Y-80226190D01*
X89500000Y-80130952D01*
X89547619Y-80083333D01*
X89642857Y-80035714D01*
X89785714Y-80035714D01*
X89880952Y-80083333D01*
X89928571Y-80130952D01*
X89976190Y-80226190D01*
X89976190Y-80607142D01*
X90452380Y-79083333D02*
X90452380Y-79654761D01*
X90452380Y-79369047D02*
X89452380Y-79369047D01*
X89595238Y-79464285D01*
X89690476Y-79559523D01*
X89738095Y-79654761D01*
%TO.C,J3*%
X70452380Y-74533333D02*
X71166666Y-74533333D01*
X71309523Y-74580952D01*
X71404761Y-74676190D01*
X71452380Y-74819047D01*
X71452380Y-74914285D01*
X70452380Y-74152380D02*
X70452380Y-73533333D01*
X70833333Y-73866666D01*
X70833333Y-73723809D01*
X70880952Y-73628571D01*
X70928571Y-73580952D01*
X71023809Y-73533333D01*
X71261904Y-73533333D01*
X71357142Y-73580952D01*
X71404761Y-73628571D01*
X71452380Y-73723809D01*
X71452380Y-74009523D01*
X71404761Y-74104761D01*
X71357142Y-74152380D01*
%TO.C,J2*%
X70452380Y-67533333D02*
X71166666Y-67533333D01*
X71309523Y-67580952D01*
X71404761Y-67676190D01*
X71452380Y-67819047D01*
X71452380Y-67914285D01*
X70547619Y-67104761D02*
X70500000Y-67057142D01*
X70452380Y-66961904D01*
X70452380Y-66723809D01*
X70500000Y-66628571D01*
X70547619Y-66580952D01*
X70642857Y-66533333D01*
X70738095Y-66533333D01*
X70880952Y-66580952D01*
X71452380Y-67152380D01*
X71452380Y-66533333D01*
%TO.C,D1*%
X85761904Y-76152380D02*
X85761904Y-75152380D01*
X86000000Y-75152380D01*
X86142857Y-75200000D01*
X86238095Y-75295238D01*
X86285714Y-75390476D01*
X86333333Y-75580952D01*
X86333333Y-75723809D01*
X86285714Y-75914285D01*
X86238095Y-76009523D01*
X86142857Y-76104761D01*
X86000000Y-76152380D01*
X85761904Y-76152380D01*
X87285714Y-76152380D02*
X86714285Y-76152380D01*
X87000000Y-76152380D02*
X87000000Y-75152380D01*
X86904761Y-75295238D01*
X86809523Y-75390476D01*
X86714285Y-75438095D01*
%TO.C,C2*%
X77257142Y-86366666D02*
X77304761Y-86414285D01*
X77352380Y-86557142D01*
X77352380Y-86652380D01*
X77304761Y-86795238D01*
X77209523Y-86890476D01*
X77114285Y-86938095D01*
X76923809Y-86985714D01*
X76780952Y-86985714D01*
X76590476Y-86938095D01*
X76495238Y-86890476D01*
X76400000Y-86795238D01*
X76352380Y-86652380D01*
X76352380Y-86557142D01*
X76400000Y-86414285D01*
X76447619Y-86366666D01*
X76447619Y-85985714D02*
X76400000Y-85938095D01*
X76352380Y-85842857D01*
X76352380Y-85604761D01*
X76400000Y-85509523D01*
X76447619Y-85461904D01*
X76542857Y-85414285D01*
X76638095Y-85414285D01*
X76780952Y-85461904D01*
X77352380Y-86033333D01*
X77352380Y-85414285D01*
%TO.C,C1*%
X79357142Y-85766666D02*
X79404761Y-85814285D01*
X79452380Y-85957142D01*
X79452380Y-86052380D01*
X79404761Y-86195238D01*
X79309523Y-86290476D01*
X79214285Y-86338095D01*
X79023809Y-86385714D01*
X78880952Y-86385714D01*
X78690476Y-86338095D01*
X78595238Y-86290476D01*
X78500000Y-86195238D01*
X78452380Y-86052380D01*
X78452380Y-85957142D01*
X78500000Y-85814285D01*
X78547619Y-85766666D01*
X79452380Y-84814285D02*
X79452380Y-85385714D01*
X79452380Y-85100000D02*
X78452380Y-85100000D01*
X78595238Y-85195238D01*
X78690476Y-85290476D01*
X78738095Y-85385714D01*
%TD*%
M02*
