M48
; DRILL file {KiCad 7.0.10} date Tue Jan 28 16:46:30 2025
; FORMAT={-:-/ absolute / inch / decimal}
; #@! TF.CreationDate,2025-01-28T16:46:30+01:00
; #@! TF.GenerationSoftware,Kicad,Pcbnew,7.0.10
; #@! TF.FileFunction,Plated,1,2,PTH
FMAT,2
INCH
; #@! TA.AperFunction,Plated,PTH,ViaDrill
T1C0.0157
; #@! TA.AperFunction,Plated,PTH,ComponentDrill
T2C0.0256
; #@! TA.AperFunction,Plated,PTH,ComponentDrill
T3C0.0551
%
G90
G05
T1
X2.8927Y-1.9026
X3.1457Y-2.1299
X3.1457Y-2.1693
X3.1457Y-2.2087
X3.2087Y-2.5
X3.2087Y-2.5787
X3.2087Y-2.6575
X3.2677Y-2.0472
X3.2677Y-2.0866
X3.2677Y-2.126
X3.2677Y-2.1654
X3.2677Y-2.2047
X3.2677Y-2.4409
X3.3071Y-2.0472
X3.3071Y-2.0866
X3.3071Y-2.126
X3.3071Y-2.1654
X3.3071Y-2.2047
X3.3268Y-2.4114
X3.3465Y-2.0472
X3.3465Y-2.0866
X3.3465Y-2.126
X3.3465Y-2.1654
X3.3465Y-2.2047
X3.376Y-2.372
X3.5433Y-1.8504
X3.6024Y-2.5
X3.6024Y-2.5787
X3.6024Y-2.6575
X3.622Y-1.8504
X3.6516Y-2.2638
X3.7205Y-2.5
X3.7205Y-2.5787
X3.7205Y-2.6575
X3.7293Y-2.2156
X3.7293Y-2.312
X3.7303Y-2.7067
X3.7992Y-2.2146
X3.7992Y-2.313
X3.8189Y-2.5
X3.8189Y-2.5787
X3.8583Y-2.7264
X3.8819Y-2.2165
X3.8819Y-2.313
X4.0453Y-2.7756
X4.0551Y-2.1949
X4.0551Y-2.2441
X4.0551Y-2.2933
X4.0551Y-2.3425
X4.0748Y-2.7067
X4.0846Y-2.7657
X4.124Y-2.6673
X4.1831Y-2.6575
X4.3209Y-2.2736
X4.3214Y-2.1969
X4.4488Y-2.2638
X4.4488Y-2.3425
X4.4587Y-2.1554
X4.4587Y-1.8898
X4.4882Y-2.4213
X4.4882Y-2.5
X4.4882Y-2.5787
X4.4882Y-2.6575
X4.7047Y-2.3425
X4.7047Y-2.4213
X4.7047Y-2.5
X4.7047Y-2.5787
X4.7047Y-2.6575
X4.8622Y-2.3425
X4.8622Y-2.4213
X4.8622Y-2.5
X4.8622Y-2.5787
X4.8622Y-2.6575
X4.9095Y-2.2392
X4.9606Y-2.2244
X5.0197Y-2.3425
X5.0197Y-2.4213
X5.0197Y-2.5
X5.0197Y-2.5787
X5.0197Y-2.6575
X5.0591Y-2.2638
X5.0787Y-2.6575
T2
X4.4449Y-2.7531
X4.4449Y-2.8031
T3
X3.8492Y-2.0175
X3.8992Y-1.9175
X3.9492Y-2.0175
X3.9992Y-1.9175
M30
