%TF.GenerationSoftware,KiCad,Pcbnew,5.1.5+dfsg1-2build2*%
%TF.CreationDate,2021-11-04T16:55:54+02:00*%
%TF.ProjectId,LED_Wled,4c45445f-576c-4656-942e-6b696361645f,rev?*%
%TF.SameCoordinates,Original*%
%TF.FileFunction,Other,User*%
%FSLAX46Y46*%
G04 Gerber Fmt 4.6, Leading zero omitted, Abs format (unit mm)*
G04 Created by KiCad (PCBNEW 5.1.5+dfsg1-2build2) date 2021-11-04 16:55:54*
%MOMM*%
%LPD*%
G04 APERTURE LIST*
%ADD10C,0.050000*%
%ADD11C,0.100000*%
G04 APERTURE END LIST*
D10*
%TO.C,Q1*%
X141700000Y-136550000D02*
X141700000Y-140050000D01*
X138300000Y-136550000D02*
X141700000Y-136550000D01*
X138300000Y-140050000D02*
X138300000Y-136550000D01*
X141700000Y-140050000D02*
X138300000Y-140050000D01*
D11*
%TO.C,J1*%
G36*
X129615000Y-140570000D02*
G01*
X142885000Y-140570000D01*
X142885000Y-146770000D01*
X129615000Y-146770000D01*
X129615000Y-140570000D01*
G37*
X129615000Y-140570000D02*
X142885000Y-140570000D01*
X142885000Y-146770000D01*
X129615000Y-146770000D01*
X129615000Y-140570000D01*
D10*
%TO.C,R4*%
X137980000Y-139550000D02*
X134620000Y-139550000D01*
X137980000Y-137650000D02*
X137980000Y-139550000D01*
X134620000Y-137650000D02*
X137980000Y-137650000D01*
X134620000Y-139550000D02*
X134620000Y-137650000D01*
%TO.C,C3*%
X138300000Y-130720000D02*
X141700000Y-130720000D01*
X138300000Y-132680000D02*
X138300000Y-130720000D01*
X141700000Y-132680000D02*
X138300000Y-132680000D01*
X141700000Y-130720000D02*
X141700000Y-132680000D01*
%TO.C,JP1*%
X134400000Y-133000000D02*
X131100000Y-133000000D01*
X134400000Y-133000000D02*
X134400000Y-130500000D01*
X131100000Y-130500000D02*
X131100000Y-133000000D01*
X131100000Y-130500000D02*
X134400000Y-130500000D01*
%TO.C,U3*%
X151000000Y-121600000D02*
X143800000Y-121600000D01*
X143800000Y-121600000D02*
X143800000Y-130400000D01*
X143800000Y-130400000D02*
X151000000Y-130400000D01*
X151000000Y-130400000D02*
X151000000Y-121600000D01*
%TO.C,R1*%
X131020000Y-133350000D02*
X134380000Y-133350000D01*
X131020000Y-135250000D02*
X131020000Y-133350000D01*
X134380000Y-135250000D02*
X131020000Y-135250000D01*
X134380000Y-133350000D02*
X134380000Y-135250000D01*
%TO.C,U2*%
X133150000Y-130400000D02*
X140350000Y-130400000D01*
X140350000Y-130400000D02*
X140350000Y-121600000D01*
X140350000Y-121600000D02*
X133150000Y-121600000D01*
X133150000Y-121600000D02*
X133150000Y-130400000D01*
%TO.C,R2*%
X134380000Y-139150000D02*
X131020000Y-139150000D01*
X134380000Y-137250000D02*
X134380000Y-139150000D01*
X131020000Y-137250000D02*
X134380000Y-137250000D01*
X131020000Y-139150000D02*
X131020000Y-137250000D01*
%TO.C,R3*%
X131050000Y-130430000D02*
X131050000Y-127070000D01*
X132950000Y-130430000D02*
X131050000Y-130430000D01*
X132950000Y-127070000D02*
X132950000Y-130430000D01*
X131050000Y-127070000D02*
X132950000Y-127070000D01*
%TO.C,U1*%
X129250000Y-146750000D02*
X129250000Y-121375000D01*
X111750000Y-146750000D02*
X129250000Y-146750000D01*
X111750000Y-121375000D02*
X111750000Y-146750000D01*
X129250000Y-121375000D02*
X111750000Y-121375000D01*
%TO.C,R5*%
X138250000Y-136192500D02*
X138250000Y-132832500D01*
X140150000Y-136192500D02*
X138250000Y-136192500D01*
X140150000Y-132832500D02*
X140150000Y-136192500D01*
X138250000Y-132832500D02*
X140150000Y-132832500D01*
%TO.C,D1*%
X134550000Y-130500000D02*
X138050000Y-130500000D01*
X134550000Y-137500000D02*
X134550000Y-130500000D01*
X138050000Y-137500000D02*
X134550000Y-137500000D01*
X138050000Y-130500000D02*
X138050000Y-137500000D01*
%TO.C,C1*%
X142980000Y-127050000D02*
X142980000Y-130450000D01*
X141020000Y-127050000D02*
X142980000Y-127050000D01*
X141020000Y-130450000D02*
X141020000Y-127050000D01*
X142980000Y-130450000D02*
X141020000Y-130450000D01*
%TO.C,C2*%
X141020000Y-124950000D02*
X141020000Y-121550000D01*
X142980000Y-124950000D02*
X141020000Y-124950000D01*
X142980000Y-121550000D02*
X142980000Y-124950000D01*
X141020000Y-121550000D02*
X142980000Y-121550000D01*
%TO.C,J2*%
X143250000Y-140260000D02*
X143250000Y-146800000D01*
X150750000Y-140260000D02*
X143250000Y-140260000D01*
X150750000Y-146800000D02*
X150750000Y-140260000D01*
X143250000Y-146800000D02*
X150750000Y-146800000D01*
%TO.C,C4*%
X142280000Y-132850000D02*
X142280000Y-136250000D01*
X140320000Y-132850000D02*
X142280000Y-132850000D01*
X140320000Y-136250000D02*
X140320000Y-132850000D01*
X142280000Y-136250000D02*
X140320000Y-136250000D01*
%TO.C,J3*%
X143250000Y-130720000D02*
X143250000Y-139800000D01*
X150750000Y-130720000D02*
X143250000Y-130720000D01*
X150750000Y-139800000D02*
X150750000Y-130720000D01*
X143250000Y-139800000D02*
X150750000Y-139800000D01*
%TO.C,Q1*%
X78300000Y-131450000D02*
X78300000Y-127950000D01*
X81700000Y-131450000D02*
X78300000Y-131450000D01*
X81700000Y-127950000D02*
X81700000Y-131450000D01*
X78300000Y-127950000D02*
X81700000Y-127950000D01*
D11*
%TO.C,J1*%
G36*
X90385000Y-127430000D02*
G01*
X77115000Y-127430000D01*
X77115000Y-121230000D01*
X90385000Y-121230000D01*
X90385000Y-127430000D01*
G37*
X90385000Y-127430000D02*
X77115000Y-127430000D01*
X77115000Y-121230000D01*
X90385000Y-121230000D01*
X90385000Y-127430000D01*
D10*
%TO.C,JP1*%
X85600000Y-135000000D02*
X88900000Y-135000000D01*
X85600000Y-135000000D02*
X85600000Y-137500000D01*
X88900000Y-137500000D02*
X88900000Y-135000000D01*
X88900000Y-137500000D02*
X85600000Y-137500000D01*
%TO.C,U3*%
X69000000Y-146400000D02*
X76200000Y-146400000D01*
X76200000Y-146400000D02*
X76200000Y-137600000D01*
X76200000Y-137600000D02*
X69000000Y-137600000D01*
X69000000Y-137600000D02*
X69000000Y-146400000D01*
%TO.C,R1*%
X88980000Y-134650000D02*
X85620000Y-134650000D01*
X88980000Y-132750000D02*
X88980000Y-134650000D01*
X85620000Y-132750000D02*
X88980000Y-132750000D01*
X85620000Y-134650000D02*
X85620000Y-132750000D01*
%TO.C,U2*%
X86850000Y-137600000D02*
X79650000Y-137600000D01*
X79650000Y-137600000D02*
X79650000Y-146400000D01*
X79650000Y-146400000D02*
X86850000Y-146400000D01*
X86850000Y-146400000D02*
X86850000Y-137600000D01*
%TO.C,R2*%
X85620000Y-128850000D02*
X88980000Y-128850000D01*
X85620000Y-130750000D02*
X85620000Y-128850000D01*
X88980000Y-130750000D02*
X85620000Y-130750000D01*
X88980000Y-128850000D02*
X88980000Y-130750000D01*
%TO.C,R4*%
X82020000Y-128450000D02*
X85380000Y-128450000D01*
X82020000Y-130350000D02*
X82020000Y-128450000D01*
X85380000Y-130350000D02*
X82020000Y-130350000D01*
X85380000Y-128450000D02*
X85380000Y-130350000D01*
%TO.C,R3*%
X88950000Y-137570000D02*
X88950000Y-140930000D01*
X87050000Y-137570000D02*
X88950000Y-137570000D01*
X87050000Y-140930000D02*
X87050000Y-137570000D01*
X88950000Y-140930000D02*
X87050000Y-140930000D01*
%TO.C,U1*%
X90750000Y-121250000D02*
X90750000Y-146625000D01*
X108250000Y-121250000D02*
X90750000Y-121250000D01*
X108250000Y-146625000D02*
X108250000Y-121250000D01*
X90750000Y-146625000D02*
X108250000Y-146625000D01*
%TO.C,C3*%
X81700000Y-137280000D02*
X78300000Y-137280000D01*
X81700000Y-135320000D02*
X81700000Y-137280000D01*
X78300000Y-135320000D02*
X81700000Y-135320000D01*
X78300000Y-137280000D02*
X78300000Y-135320000D01*
%TO.C,C4*%
X77720000Y-135150000D02*
X77720000Y-131750000D01*
X79680000Y-135150000D02*
X77720000Y-135150000D01*
X79680000Y-131750000D02*
X79680000Y-135150000D01*
X77720000Y-131750000D02*
X79680000Y-131750000D01*
%TO.C,R5*%
X81750000Y-131807500D02*
X81750000Y-135167500D01*
X79850000Y-131807500D02*
X81750000Y-131807500D01*
X79850000Y-135167500D02*
X79850000Y-131807500D01*
X81750000Y-135167500D02*
X79850000Y-135167500D01*
%TO.C,D1*%
X85450000Y-137500000D02*
X81950000Y-137500000D01*
X85450000Y-130500000D02*
X85450000Y-137500000D01*
X81950000Y-130500000D02*
X85450000Y-130500000D01*
X81950000Y-137500000D02*
X81950000Y-130500000D01*
%TO.C,C1*%
X77020000Y-140950000D02*
X77020000Y-137550000D01*
X78980000Y-140950000D02*
X77020000Y-140950000D01*
X78980000Y-137550000D02*
X78980000Y-140950000D01*
X77020000Y-137550000D02*
X78980000Y-137550000D01*
%TO.C,C2*%
X78980000Y-143050000D02*
X78980000Y-146450000D01*
X77020000Y-143050000D02*
X78980000Y-143050000D01*
X77020000Y-146450000D02*
X77020000Y-143050000D01*
X78980000Y-146450000D02*
X77020000Y-146450000D01*
%TO.C,J3*%
X76750000Y-137280000D02*
X76750000Y-128200000D01*
X69250000Y-137280000D02*
X76750000Y-137280000D01*
X69250000Y-128200000D02*
X69250000Y-137280000D01*
X76750000Y-128200000D02*
X69250000Y-128200000D01*
%TO.C,J2*%
X76750000Y-127740000D02*
X76750000Y-121200000D01*
X69250000Y-127740000D02*
X76750000Y-127740000D01*
X69250000Y-121200000D02*
X69250000Y-127740000D01*
X76750000Y-121200000D02*
X69250000Y-121200000D01*
%TO.C,Q1*%
X141700000Y-108550000D02*
X141700000Y-112050000D01*
X138300000Y-108550000D02*
X141700000Y-108550000D01*
X138300000Y-112050000D02*
X138300000Y-108550000D01*
X141700000Y-112050000D02*
X138300000Y-112050000D01*
D11*
%TO.C,J1*%
G36*
X129615000Y-112570000D02*
G01*
X142885000Y-112570000D01*
X142885000Y-118770000D01*
X129615000Y-118770000D01*
X129615000Y-112570000D01*
G37*
X129615000Y-112570000D02*
X142885000Y-112570000D01*
X142885000Y-118770000D01*
X129615000Y-118770000D01*
X129615000Y-112570000D01*
D10*
%TO.C,R4*%
X137980000Y-111550000D02*
X134620000Y-111550000D01*
X137980000Y-109650000D02*
X137980000Y-111550000D01*
X134620000Y-109650000D02*
X137980000Y-109650000D01*
X134620000Y-111550000D02*
X134620000Y-109650000D01*
%TO.C,C3*%
X138300000Y-102720000D02*
X141700000Y-102720000D01*
X138300000Y-104680000D02*
X138300000Y-102720000D01*
X141700000Y-104680000D02*
X138300000Y-104680000D01*
X141700000Y-102720000D02*
X141700000Y-104680000D01*
%TO.C,JP1*%
X134400000Y-105000000D02*
X131100000Y-105000000D01*
X134400000Y-105000000D02*
X134400000Y-102500000D01*
X131100000Y-102500000D02*
X131100000Y-105000000D01*
X131100000Y-102500000D02*
X134400000Y-102500000D01*
%TO.C,U3*%
X151000000Y-93600000D02*
X143800000Y-93600000D01*
X143800000Y-93600000D02*
X143800000Y-102400000D01*
X143800000Y-102400000D02*
X151000000Y-102400000D01*
X151000000Y-102400000D02*
X151000000Y-93600000D01*
%TO.C,R1*%
X131020000Y-105350000D02*
X134380000Y-105350000D01*
X131020000Y-107250000D02*
X131020000Y-105350000D01*
X134380000Y-107250000D02*
X131020000Y-107250000D01*
X134380000Y-105350000D02*
X134380000Y-107250000D01*
%TO.C,U2*%
X133150000Y-102400000D02*
X140350000Y-102400000D01*
X140350000Y-102400000D02*
X140350000Y-93600000D01*
X140350000Y-93600000D02*
X133150000Y-93600000D01*
X133150000Y-93600000D02*
X133150000Y-102400000D01*
%TO.C,R2*%
X134380000Y-111150000D02*
X131020000Y-111150000D01*
X134380000Y-109250000D02*
X134380000Y-111150000D01*
X131020000Y-109250000D02*
X134380000Y-109250000D01*
X131020000Y-111150000D02*
X131020000Y-109250000D01*
%TO.C,R3*%
X131050000Y-102430000D02*
X131050000Y-99070000D01*
X132950000Y-102430000D02*
X131050000Y-102430000D01*
X132950000Y-99070000D02*
X132950000Y-102430000D01*
X131050000Y-99070000D02*
X132950000Y-99070000D01*
%TO.C,U1*%
X129250000Y-118750000D02*
X129250000Y-93375000D01*
X111750000Y-118750000D02*
X129250000Y-118750000D01*
X111750000Y-93375000D02*
X111750000Y-118750000D01*
X129250000Y-93375000D02*
X111750000Y-93375000D01*
%TO.C,R5*%
X138250000Y-108192500D02*
X138250000Y-104832500D01*
X140150000Y-108192500D02*
X138250000Y-108192500D01*
X140150000Y-104832500D02*
X140150000Y-108192500D01*
X138250000Y-104832500D02*
X140150000Y-104832500D01*
%TO.C,D1*%
X134550000Y-102500000D02*
X138050000Y-102500000D01*
X134550000Y-109500000D02*
X134550000Y-102500000D01*
X138050000Y-109500000D02*
X134550000Y-109500000D01*
X138050000Y-102500000D02*
X138050000Y-109500000D01*
%TO.C,C1*%
X142980000Y-99050000D02*
X142980000Y-102450000D01*
X141020000Y-99050000D02*
X142980000Y-99050000D01*
X141020000Y-102450000D02*
X141020000Y-99050000D01*
X142980000Y-102450000D02*
X141020000Y-102450000D01*
%TO.C,C2*%
X141020000Y-96950000D02*
X141020000Y-93550000D01*
X142980000Y-96950000D02*
X141020000Y-96950000D01*
X142980000Y-93550000D02*
X142980000Y-96950000D01*
X141020000Y-93550000D02*
X142980000Y-93550000D01*
%TO.C,J2*%
X143250000Y-112260000D02*
X143250000Y-118800000D01*
X150750000Y-112260000D02*
X143250000Y-112260000D01*
X150750000Y-118800000D02*
X150750000Y-112260000D01*
X143250000Y-118800000D02*
X150750000Y-118800000D01*
%TO.C,C4*%
X142280000Y-104850000D02*
X142280000Y-108250000D01*
X140320000Y-104850000D02*
X142280000Y-104850000D01*
X140320000Y-108250000D02*
X140320000Y-104850000D01*
X142280000Y-108250000D02*
X140320000Y-108250000D01*
%TO.C,J3*%
X143250000Y-102720000D02*
X143250000Y-111800000D01*
X150750000Y-102720000D02*
X143250000Y-102720000D01*
X150750000Y-111800000D02*
X150750000Y-102720000D01*
X143250000Y-111800000D02*
X150750000Y-111800000D01*
%TO.C,Q1*%
X78300000Y-103450000D02*
X78300000Y-99950000D01*
X81700000Y-103450000D02*
X78300000Y-103450000D01*
X81700000Y-99950000D02*
X81700000Y-103450000D01*
X78300000Y-99950000D02*
X81700000Y-99950000D01*
D11*
%TO.C,J1*%
G36*
X90385000Y-99430000D02*
G01*
X77115000Y-99430000D01*
X77115000Y-93230000D01*
X90385000Y-93230000D01*
X90385000Y-99430000D01*
G37*
X90385000Y-99430000D02*
X77115000Y-99430000D01*
X77115000Y-93230000D01*
X90385000Y-93230000D01*
X90385000Y-99430000D01*
D10*
%TO.C,JP1*%
X85600000Y-107000000D02*
X88900000Y-107000000D01*
X85600000Y-107000000D02*
X85600000Y-109500000D01*
X88900000Y-109500000D02*
X88900000Y-107000000D01*
X88900000Y-109500000D02*
X85600000Y-109500000D01*
%TO.C,U3*%
X69000000Y-118400000D02*
X76200000Y-118400000D01*
X76200000Y-118400000D02*
X76200000Y-109600000D01*
X76200000Y-109600000D02*
X69000000Y-109600000D01*
X69000000Y-109600000D02*
X69000000Y-118400000D01*
%TO.C,R1*%
X88980000Y-106650000D02*
X85620000Y-106650000D01*
X88980000Y-104750000D02*
X88980000Y-106650000D01*
X85620000Y-104750000D02*
X88980000Y-104750000D01*
X85620000Y-106650000D02*
X85620000Y-104750000D01*
%TO.C,U2*%
X86850000Y-109600000D02*
X79650000Y-109600000D01*
X79650000Y-109600000D02*
X79650000Y-118400000D01*
X79650000Y-118400000D02*
X86850000Y-118400000D01*
X86850000Y-118400000D02*
X86850000Y-109600000D01*
%TO.C,R2*%
X85620000Y-100850000D02*
X88980000Y-100850000D01*
X85620000Y-102750000D02*
X85620000Y-100850000D01*
X88980000Y-102750000D02*
X85620000Y-102750000D01*
X88980000Y-100850000D02*
X88980000Y-102750000D01*
%TO.C,R4*%
X82020000Y-100450000D02*
X85380000Y-100450000D01*
X82020000Y-102350000D02*
X82020000Y-100450000D01*
X85380000Y-102350000D02*
X82020000Y-102350000D01*
X85380000Y-100450000D02*
X85380000Y-102350000D01*
%TO.C,R3*%
X88950000Y-109570000D02*
X88950000Y-112930000D01*
X87050000Y-109570000D02*
X88950000Y-109570000D01*
X87050000Y-112930000D02*
X87050000Y-109570000D01*
X88950000Y-112930000D02*
X87050000Y-112930000D01*
%TO.C,U1*%
X90750000Y-93250000D02*
X90750000Y-118625000D01*
X108250000Y-93250000D02*
X90750000Y-93250000D01*
X108250000Y-118625000D02*
X108250000Y-93250000D01*
X90750000Y-118625000D02*
X108250000Y-118625000D01*
%TO.C,C3*%
X81700000Y-109280000D02*
X78300000Y-109280000D01*
X81700000Y-107320000D02*
X81700000Y-109280000D01*
X78300000Y-107320000D02*
X81700000Y-107320000D01*
X78300000Y-109280000D02*
X78300000Y-107320000D01*
%TO.C,C4*%
X77720000Y-107150000D02*
X77720000Y-103750000D01*
X79680000Y-107150000D02*
X77720000Y-107150000D01*
X79680000Y-103750000D02*
X79680000Y-107150000D01*
X77720000Y-103750000D02*
X79680000Y-103750000D01*
%TO.C,R5*%
X81750000Y-103807500D02*
X81750000Y-107167500D01*
X79850000Y-103807500D02*
X81750000Y-103807500D01*
X79850000Y-107167500D02*
X79850000Y-103807500D01*
X81750000Y-107167500D02*
X79850000Y-107167500D01*
%TO.C,D1*%
X85450000Y-109500000D02*
X81950000Y-109500000D01*
X85450000Y-102500000D02*
X85450000Y-109500000D01*
X81950000Y-102500000D02*
X85450000Y-102500000D01*
X81950000Y-109500000D02*
X81950000Y-102500000D01*
%TO.C,C1*%
X77020000Y-112950000D02*
X77020000Y-109550000D01*
X78980000Y-112950000D02*
X77020000Y-112950000D01*
X78980000Y-109550000D02*
X78980000Y-112950000D01*
X77020000Y-109550000D02*
X78980000Y-109550000D01*
%TO.C,C2*%
X78980000Y-115050000D02*
X78980000Y-118450000D01*
X77020000Y-115050000D02*
X78980000Y-115050000D01*
X77020000Y-118450000D02*
X77020000Y-115050000D01*
X78980000Y-118450000D02*
X77020000Y-118450000D01*
%TO.C,J3*%
X76750000Y-109280000D02*
X76750000Y-100200000D01*
X69250000Y-109280000D02*
X76750000Y-109280000D01*
X69250000Y-100200000D02*
X69250000Y-109280000D01*
X76750000Y-100200000D02*
X69250000Y-100200000D01*
%TO.C,J2*%
X76750000Y-99740000D02*
X76750000Y-93200000D01*
X69250000Y-99740000D02*
X76750000Y-99740000D01*
X69250000Y-93200000D02*
X69250000Y-99740000D01*
X76750000Y-93200000D02*
X69250000Y-93200000D01*
%TO.C,Q1*%
X141700000Y-80550000D02*
X141700000Y-84050000D01*
X138300000Y-80550000D02*
X141700000Y-80550000D01*
X138300000Y-84050000D02*
X138300000Y-80550000D01*
X141700000Y-84050000D02*
X138300000Y-84050000D01*
D11*
%TO.C,J1*%
G36*
X129615000Y-84570000D02*
G01*
X142885000Y-84570000D01*
X142885000Y-90770000D01*
X129615000Y-90770000D01*
X129615000Y-84570000D01*
G37*
X129615000Y-84570000D02*
X142885000Y-84570000D01*
X142885000Y-90770000D01*
X129615000Y-90770000D01*
X129615000Y-84570000D01*
D10*
%TO.C,JP1*%
X134400000Y-77000000D02*
X131100000Y-77000000D01*
X134400000Y-77000000D02*
X134400000Y-74500000D01*
X131100000Y-74500000D02*
X131100000Y-77000000D01*
X131100000Y-74500000D02*
X134400000Y-74500000D01*
%TO.C,U3*%
X151000000Y-65600000D02*
X143800000Y-65600000D01*
X143800000Y-65600000D02*
X143800000Y-74400000D01*
X143800000Y-74400000D02*
X151000000Y-74400000D01*
X151000000Y-74400000D02*
X151000000Y-65600000D01*
%TO.C,R1*%
X131020000Y-77350000D02*
X134380000Y-77350000D01*
X131020000Y-79250000D02*
X131020000Y-77350000D01*
X134380000Y-79250000D02*
X131020000Y-79250000D01*
X134380000Y-77350000D02*
X134380000Y-79250000D01*
%TO.C,U2*%
X133150000Y-74400000D02*
X140350000Y-74400000D01*
X140350000Y-74400000D02*
X140350000Y-65600000D01*
X140350000Y-65600000D02*
X133150000Y-65600000D01*
X133150000Y-65600000D02*
X133150000Y-74400000D01*
%TO.C,R2*%
X134380000Y-83150000D02*
X131020000Y-83150000D01*
X134380000Y-81250000D02*
X134380000Y-83150000D01*
X131020000Y-81250000D02*
X134380000Y-81250000D01*
X131020000Y-83150000D02*
X131020000Y-81250000D01*
%TO.C,R4*%
X137980000Y-83550000D02*
X134620000Y-83550000D01*
X137980000Y-81650000D02*
X137980000Y-83550000D01*
X134620000Y-81650000D02*
X137980000Y-81650000D01*
X134620000Y-83550000D02*
X134620000Y-81650000D01*
%TO.C,R3*%
X131050000Y-74430000D02*
X131050000Y-71070000D01*
X132950000Y-74430000D02*
X131050000Y-74430000D01*
X132950000Y-71070000D02*
X132950000Y-74430000D01*
X131050000Y-71070000D02*
X132950000Y-71070000D01*
%TO.C,U1*%
X129250000Y-90750000D02*
X129250000Y-65375000D01*
X111750000Y-90750000D02*
X129250000Y-90750000D01*
X111750000Y-65375000D02*
X111750000Y-90750000D01*
X129250000Y-65375000D02*
X111750000Y-65375000D01*
%TO.C,C3*%
X138300000Y-74720000D02*
X141700000Y-74720000D01*
X138300000Y-76680000D02*
X138300000Y-74720000D01*
X141700000Y-76680000D02*
X138300000Y-76680000D01*
X141700000Y-74720000D02*
X141700000Y-76680000D01*
%TO.C,C4*%
X142280000Y-76850000D02*
X142280000Y-80250000D01*
X140320000Y-76850000D02*
X142280000Y-76850000D01*
X140320000Y-80250000D02*
X140320000Y-76850000D01*
X142280000Y-80250000D02*
X140320000Y-80250000D01*
%TO.C,R5*%
X138250000Y-80192500D02*
X138250000Y-76832500D01*
X140150000Y-80192500D02*
X138250000Y-80192500D01*
X140150000Y-76832500D02*
X140150000Y-80192500D01*
X138250000Y-76832500D02*
X140150000Y-76832500D01*
%TO.C,D1*%
X134550000Y-74500000D02*
X138050000Y-74500000D01*
X134550000Y-81500000D02*
X134550000Y-74500000D01*
X138050000Y-81500000D02*
X134550000Y-81500000D01*
X138050000Y-74500000D02*
X138050000Y-81500000D01*
%TO.C,C1*%
X142980000Y-71050000D02*
X142980000Y-74450000D01*
X141020000Y-71050000D02*
X142980000Y-71050000D01*
X141020000Y-74450000D02*
X141020000Y-71050000D01*
X142980000Y-74450000D02*
X141020000Y-74450000D01*
%TO.C,C2*%
X141020000Y-68950000D02*
X141020000Y-65550000D01*
X142980000Y-68950000D02*
X141020000Y-68950000D01*
X142980000Y-65550000D02*
X142980000Y-68950000D01*
X141020000Y-65550000D02*
X142980000Y-65550000D01*
%TO.C,J3*%
X143250000Y-74720000D02*
X143250000Y-83800000D01*
X150750000Y-74720000D02*
X143250000Y-74720000D01*
X150750000Y-83800000D02*
X150750000Y-74720000D01*
X143250000Y-83800000D02*
X150750000Y-83800000D01*
%TO.C,J2*%
X143250000Y-84260000D02*
X143250000Y-90800000D01*
X150750000Y-84260000D02*
X143250000Y-84260000D01*
X150750000Y-90800000D02*
X150750000Y-84260000D01*
X143250000Y-90800000D02*
X150750000Y-90800000D01*
D11*
%TO.C,J1*%
G36*
X90385000Y-71430000D02*
G01*
X77115000Y-71430000D01*
X77115000Y-65230000D01*
X90385000Y-65230000D01*
X90385000Y-71430000D01*
G37*
X90385000Y-71430000D02*
X77115000Y-71430000D01*
X77115000Y-65230000D01*
X90385000Y-65230000D01*
X90385000Y-71430000D01*
D10*
%TO.C,U3*%
X69000000Y-90400000D02*
X76200000Y-90400000D01*
X76200000Y-90400000D02*
X76200000Y-81600000D01*
X76200000Y-81600000D02*
X69000000Y-81600000D01*
X69000000Y-81600000D02*
X69000000Y-90400000D01*
%TO.C,R5*%
X81750000Y-75807500D02*
X81750000Y-79167500D01*
X79850000Y-75807500D02*
X81750000Y-75807500D01*
X79850000Y-79167500D02*
X79850000Y-75807500D01*
X81750000Y-79167500D02*
X79850000Y-79167500D01*
%TO.C,R4*%
X82020000Y-72450000D02*
X85380000Y-72450000D01*
X82020000Y-74350000D02*
X82020000Y-72450000D01*
X85380000Y-74350000D02*
X82020000Y-74350000D01*
X85380000Y-72450000D02*
X85380000Y-74350000D01*
%TO.C,Q1*%
X78300000Y-75450000D02*
X78300000Y-71950000D01*
X81700000Y-75450000D02*
X78300000Y-75450000D01*
X81700000Y-71950000D02*
X81700000Y-75450000D01*
X78300000Y-71950000D02*
X81700000Y-71950000D01*
%TO.C,C4*%
X77720000Y-79150000D02*
X77720000Y-75750000D01*
X79680000Y-79150000D02*
X77720000Y-79150000D01*
X79680000Y-75750000D02*
X79680000Y-79150000D01*
X77720000Y-75750000D02*
X79680000Y-75750000D01*
%TO.C,C3*%
X81700000Y-81280000D02*
X78300000Y-81280000D01*
X81700000Y-79320000D02*
X81700000Y-81280000D01*
X78300000Y-79320000D02*
X81700000Y-79320000D01*
X78300000Y-81280000D02*
X78300000Y-79320000D01*
%TO.C,U2*%
X86850000Y-81600000D02*
X79650000Y-81600000D01*
X79650000Y-81600000D02*
X79650000Y-90400000D01*
X79650000Y-90400000D02*
X86850000Y-90400000D01*
X86850000Y-90400000D02*
X86850000Y-81600000D01*
%TO.C,U1*%
X90750000Y-65250000D02*
X90750000Y-90625000D01*
X108250000Y-65250000D02*
X90750000Y-65250000D01*
X108250000Y-90625000D02*
X108250000Y-65250000D01*
X90750000Y-90625000D02*
X108250000Y-90625000D01*
%TO.C,R3*%
X88950000Y-81570000D02*
X88950000Y-84930000D01*
X87050000Y-81570000D02*
X88950000Y-81570000D01*
X87050000Y-84930000D02*
X87050000Y-81570000D01*
X88950000Y-84930000D02*
X87050000Y-84930000D01*
%TO.C,R2*%
X85620000Y-72850000D02*
X88980000Y-72850000D01*
X85620000Y-74750000D02*
X85620000Y-72850000D01*
X88980000Y-74750000D02*
X85620000Y-74750000D01*
X88980000Y-72850000D02*
X88980000Y-74750000D01*
%TO.C,R1*%
X88980000Y-78650000D02*
X85620000Y-78650000D01*
X88980000Y-76750000D02*
X88980000Y-78650000D01*
X85620000Y-76750000D02*
X88980000Y-76750000D01*
X85620000Y-78650000D02*
X85620000Y-76750000D01*
%TO.C,JP1*%
X85600000Y-79000000D02*
X88900000Y-79000000D01*
X85600000Y-79000000D02*
X85600000Y-81500000D01*
X88900000Y-81500000D02*
X88900000Y-79000000D01*
X88900000Y-81500000D02*
X85600000Y-81500000D01*
%TO.C,J3*%
X76750000Y-81280000D02*
X76750000Y-72200000D01*
X69250000Y-81280000D02*
X76750000Y-81280000D01*
X69250000Y-72200000D02*
X69250000Y-81280000D01*
X76750000Y-72200000D02*
X69250000Y-72200000D01*
%TO.C,J2*%
X76750000Y-71740000D02*
X76750000Y-65200000D01*
X69250000Y-71740000D02*
X76750000Y-71740000D01*
X69250000Y-65200000D02*
X69250000Y-71740000D01*
X76750000Y-65200000D02*
X69250000Y-65200000D01*
%TO.C,D1*%
X85450000Y-81500000D02*
X81950000Y-81500000D01*
X85450000Y-74500000D02*
X85450000Y-81500000D01*
X81950000Y-74500000D02*
X85450000Y-74500000D01*
X81950000Y-81500000D02*
X81950000Y-74500000D01*
%TO.C,C2*%
X78980000Y-87050000D02*
X78980000Y-90450000D01*
X77020000Y-87050000D02*
X78980000Y-87050000D01*
X77020000Y-90450000D02*
X77020000Y-87050000D01*
X78980000Y-90450000D02*
X77020000Y-90450000D01*
%TO.C,C1*%
X77020000Y-84950000D02*
X77020000Y-81550000D01*
X78980000Y-84950000D02*
X77020000Y-84950000D01*
X78980000Y-81550000D02*
X78980000Y-84950000D01*
X77020000Y-81550000D02*
X78980000Y-81550000D01*
%TD*%
M02*
