%TF.GenerationSoftware,KiCad,Pcbnew,5.1.5+dfsg1-2build2*%
%TF.CreationDate,2021-11-04T16:47:03+02:00*%
%TF.ProjectId,LED_Wled,4c45445f-576c-4656-942e-6b696361645f,rev?*%
%TF.SameCoordinates,Original*%
%TF.FileFunction,OtherDrawing,Comment*%
%FSLAX46Y46*%
G04 Gerber Fmt 4.6, Leading zero omitted, Abs format (unit mm)*
G04 Created by KiCad (PCBNEW 5.1.5+dfsg1-2build2) date 2021-11-04 16:47:03*
%MOMM*%
%LPD*%
G04 APERTURE LIST*
%ADD10C,0.050000*%
%ADD11C,0.010000*%
G04 APERTURE END LIST*
D10*
%TO.C,mouse-bite-2mm-slot*%
X86560000Y-148000000D02*
G75*
G03X86560000Y-148000000I-60000J0D01*
G01*
X90560000Y-148000000D02*
G75*
G03X90560000Y-148000000I-60000J0D01*
G01*
X129560000Y-148000000D02*
G75*
G03X129560000Y-148000000I-60000J0D01*
G01*
X133560000Y-148000000D02*
G75*
G03X133560000Y-148000000I-60000J0D01*
G01*
X129560000Y-64000000D02*
G75*
G03X129560000Y-64000000I-60000J0D01*
G01*
X133560000Y-64000000D02*
G75*
G03X133560000Y-64000000I-60000J0D01*
G01*
X90560000Y-64000000D02*
G75*
G03X90560000Y-64000000I-60000J0D01*
G01*
X86560000Y-64000000D02*
G75*
G03X86560000Y-64000000I-60000J0D01*
G01*
X67060000Y-80000000D02*
G75*
G03X67060000Y-80000000I-60000J0D01*
G01*
X67060000Y-76000000D02*
G75*
G03X67060000Y-76000000I-60000J0D01*
G01*
X67060000Y-108000000D02*
G75*
G03X67060000Y-108000000I-60000J0D01*
G01*
X67060000Y-104000000D02*
G75*
G03X67060000Y-104000000I-60000J0D01*
G01*
X67060000Y-136000000D02*
G75*
G03X67060000Y-136000000I-60000J0D01*
G01*
X67060000Y-132000000D02*
G75*
G03X67060000Y-132000000I-60000J0D01*
G01*
X153060000Y-136000000D02*
G75*
G03X153060000Y-136000000I-60000J0D01*
G01*
X153060000Y-132000000D02*
G75*
G03X153060000Y-132000000I-60000J0D01*
G01*
X153060000Y-108000000D02*
G75*
G03X153060000Y-108000000I-60000J0D01*
G01*
X153060000Y-104000000D02*
G75*
G03X153060000Y-104000000I-60000J0D01*
G01*
X153060000Y-80000000D02*
G75*
G03X153060000Y-80000000I-60000J0D01*
G01*
X153060000Y-76000000D02*
G75*
G03X153060000Y-76000000I-60000J0D01*
G01*
X110060000Y-136000000D02*
G75*
G03X110060000Y-136000000I-60000J0D01*
G01*
X110060000Y-132000000D02*
G75*
G03X110060000Y-132000000I-60000J0D01*
G01*
D11*
%TO.C,U1*%
G36*
X128509010Y-146500000D02*
G01*
X112500000Y-146500000D01*
X112500000Y-139509580D01*
X128509010Y-139509580D01*
X128509010Y-146500000D01*
G37*
X128509010Y-146500000D02*
X112500000Y-146500000D01*
X112500000Y-139509580D01*
X128509010Y-139509580D01*
X128509010Y-146500000D01*
G36*
X128509010Y-146500000D02*
G01*
X112500000Y-146500000D01*
X112500000Y-139509580D01*
X128509010Y-139509580D01*
X128509010Y-146500000D01*
G37*
X128509010Y-146500000D02*
X112500000Y-146500000D01*
X112500000Y-139509580D01*
X128509010Y-139509580D01*
X128509010Y-146500000D01*
G36*
X91490990Y-121500000D02*
G01*
X107500000Y-121500000D01*
X107500000Y-128490420D01*
X91490990Y-128490420D01*
X91490990Y-121500000D01*
G37*
X91490990Y-121500000D02*
X107500000Y-121500000D01*
X107500000Y-128490420D01*
X91490990Y-128490420D01*
X91490990Y-121500000D01*
G36*
X91490990Y-121500000D02*
G01*
X107500000Y-121500000D01*
X107500000Y-128490420D01*
X91490990Y-128490420D01*
X91490990Y-121500000D01*
G37*
X91490990Y-121500000D02*
X107500000Y-121500000D01*
X107500000Y-128490420D01*
X91490990Y-128490420D01*
X91490990Y-121500000D01*
D10*
%TO.C,mouse-bite-2mm-slot*%
X110060000Y-108000000D02*
G75*
G03X110060000Y-108000000I-60000J0D01*
G01*
X110060000Y-104000000D02*
G75*
G03X110060000Y-104000000I-60000J0D01*
G01*
X129560000Y-120000000D02*
G75*
G03X129560000Y-120000000I-60000J0D01*
G01*
X133560000Y-120000000D02*
G75*
G03X133560000Y-120000000I-60000J0D01*
G01*
D11*
%TO.C,U1*%
G36*
X128509010Y-118500000D02*
G01*
X112500000Y-118500000D01*
X112500000Y-111509580D01*
X128509010Y-111509580D01*
X128509010Y-118500000D01*
G37*
X128509010Y-118500000D02*
X112500000Y-118500000D01*
X112500000Y-111509580D01*
X128509010Y-111509580D01*
X128509010Y-118500000D01*
G36*
X128509010Y-118500000D02*
G01*
X112500000Y-118500000D01*
X112500000Y-111509580D01*
X128509010Y-111509580D01*
X128509010Y-118500000D01*
G37*
X128509010Y-118500000D02*
X112500000Y-118500000D01*
X112500000Y-111509580D01*
X128509010Y-111509580D01*
X128509010Y-118500000D01*
D10*
%TO.C,mouse-bite-2mm-slot*%
X86560000Y-120000000D02*
G75*
G03X86560000Y-120000000I-60000J0D01*
G01*
X90560000Y-120000000D02*
G75*
G03X90560000Y-120000000I-60000J0D01*
G01*
D11*
%TO.C,U1*%
G36*
X91490990Y-93500000D02*
G01*
X107500000Y-93500000D01*
X107500000Y-100490420D01*
X91490990Y-100490420D01*
X91490990Y-93500000D01*
G37*
X91490990Y-93500000D02*
X107500000Y-93500000D01*
X107500000Y-100490420D01*
X91490990Y-100490420D01*
X91490990Y-93500000D01*
G36*
X91490990Y-93500000D02*
G01*
X107500000Y-93500000D01*
X107500000Y-100490420D01*
X91490990Y-100490420D01*
X91490990Y-93500000D01*
G37*
X91490990Y-93500000D02*
X107500000Y-93500000D01*
X107500000Y-100490420D01*
X91490990Y-100490420D01*
X91490990Y-93500000D01*
D10*
%TO.C,mouse-bite-2mm-slot*%
X129560000Y-92000000D02*
G75*
G03X129560000Y-92000000I-60000J0D01*
G01*
X133560000Y-92000000D02*
G75*
G03X133560000Y-92000000I-60000J0D01*
G01*
X86560000Y-92000000D02*
G75*
G03X86560000Y-92000000I-60000J0D01*
G01*
X90560000Y-92000000D02*
G75*
G03X90560000Y-92000000I-60000J0D01*
G01*
X110060000Y-80000000D02*
G75*
G03X110060000Y-80000000I-60000J0D01*
G01*
X110060000Y-76000000D02*
G75*
G03X110060000Y-76000000I-60000J0D01*
G01*
D11*
%TO.C,U1*%
G36*
X128509010Y-90500000D02*
G01*
X112500000Y-90500000D01*
X112500000Y-83509580D01*
X128509010Y-83509580D01*
X128509010Y-90500000D01*
G37*
X128509010Y-90500000D02*
X112500000Y-90500000D01*
X112500000Y-83509580D01*
X128509010Y-83509580D01*
X128509010Y-90500000D01*
G36*
X128509010Y-90500000D02*
G01*
X112500000Y-90500000D01*
X112500000Y-83509580D01*
X128509010Y-83509580D01*
X128509010Y-90500000D01*
G37*
X128509010Y-90500000D02*
X112500000Y-90500000D01*
X112500000Y-83509580D01*
X128509010Y-83509580D01*
X128509010Y-90500000D01*
G36*
X91490990Y-65500000D02*
G01*
X107500000Y-65500000D01*
X107500000Y-72490420D01*
X91490990Y-72490420D01*
X91490990Y-65500000D01*
G37*
X91490990Y-65500000D02*
X107500000Y-65500000D01*
X107500000Y-72490420D01*
X91490990Y-72490420D01*
X91490990Y-65500000D01*
G36*
X91490990Y-65500000D02*
G01*
X107500000Y-65500000D01*
X107500000Y-72490420D01*
X91490990Y-72490420D01*
X91490990Y-65500000D01*
G37*
X91490990Y-65500000D02*
X107500000Y-65500000D01*
X107500000Y-72490420D01*
X91490990Y-72490420D01*
X91490990Y-65500000D01*
%TD*%
M02*
