%TF.GenerationSoftware,KiCad,Pcbnew,5.1.10-88a1d61d58~88~ubuntu20.04.1*%
%TF.CreationDate,2022-01-13T13:40:49+02:00*%
%TF.ProjectId,LED_Wled,4c45445f-576c-4656-942e-6b696361645f,rev?*%
%TF.SameCoordinates,Original*%
%TF.FileFunction,Other,Fab,Top*%
%FSLAX46Y46*%
G04 Gerber Fmt 4.6, Leading zero omitted, Abs format (unit mm)*
G04 Created by KiCad (PCBNEW 5.1.10-88a1d61d58~88~ubuntu20.04.1) date 2022-01-13 13:40:49*
%MOMM*%
%LPD*%
G01*
G04 APERTURE LIST*
%ADD10C,0.100000*%
%ADD11C,0.127000*%
%ADD12C,0.150000*%
%ADD13C,0.120000*%
%ADD14C,0.080000*%
%ADD15C,0.075000*%
%ADD16C,0.015000*%
G04 APERTURE END LIST*
D10*
%TO.C,BOOT1*%
X113425000Y-71835000D02*
X111850000Y-71835000D01*
X111850000Y-71835000D02*
X111850000Y-69295000D01*
X111850000Y-69295000D02*
X113950000Y-69295000D01*
X113950000Y-69295000D02*
X113950000Y-71310000D01*
X113950000Y-71310000D02*
X113425000Y-71835000D01*
%TO.C,U3*%
X110200000Y-70700000D02*
X110200000Y-71700000D01*
X110200000Y-71700000D02*
X104800000Y-71700000D01*
X104800000Y-71700000D02*
X104800000Y-70700000D01*
X110750000Y-70700000D02*
X104250000Y-70700000D01*
X104250000Y-70700000D02*
X104250000Y-64480000D01*
X104250000Y-64480000D02*
X109750000Y-64480000D01*
X109750000Y-64480000D02*
X110750000Y-65480000D01*
X110750000Y-65480000D02*
X110750000Y-70700000D01*
X110155000Y-64885000D02*
X110155000Y-61780000D01*
X110155000Y-61780000D02*
X109405000Y-61780000D01*
X109405000Y-61780000D02*
X109405000Y-64480000D01*
X105595000Y-64480000D02*
X105595000Y-61780000D01*
X105595000Y-61780000D02*
X104845000Y-61780000D01*
X104845000Y-61780000D02*
X104845000Y-64480000D01*
%TO.C,L1*%
X87900000Y-69000000D02*
X88000000Y-69100000D01*
X88000000Y-69100000D02*
X88100000Y-69500000D01*
X88100000Y-69500000D02*
X88000000Y-70000000D01*
X88000000Y-70000000D02*
X87800000Y-70300000D01*
X87800000Y-70300000D02*
X87500000Y-70700000D01*
X87500000Y-70700000D02*
X87000000Y-70800000D01*
X87000000Y-70800000D02*
X86500000Y-70700000D01*
X86500000Y-70700000D02*
X86100000Y-70400000D01*
X86100000Y-70400000D02*
X86000000Y-70300000D01*
X86000000Y-70300000D02*
X85400000Y-70700000D01*
X85400000Y-70700000D02*
X84600000Y-71000000D01*
X84600000Y-71000000D02*
X83600000Y-71200000D01*
X83600000Y-71200000D02*
X82400000Y-71200000D01*
X82400000Y-71200000D02*
X81500000Y-71000000D01*
X81500000Y-71000000D02*
X80900000Y-70800000D01*
X80900000Y-70800000D02*
X80400000Y-70600000D01*
X80400000Y-70600000D02*
X80000000Y-70400000D01*
X80000000Y-70400000D02*
X79700000Y-70600000D01*
X79700000Y-70600000D02*
X79100000Y-70800000D01*
X79100000Y-70800000D02*
X78700000Y-70700000D01*
X78700000Y-70700000D02*
X78400000Y-70500000D01*
X78400000Y-70500000D02*
X78100000Y-70300000D01*
X78100000Y-70300000D02*
X77900000Y-69800000D01*
X77900000Y-69800000D02*
X78000000Y-69300000D01*
X78000000Y-69300000D02*
X78200000Y-68900000D01*
X87900000Y-62400000D02*
X88000000Y-62100000D01*
X88000000Y-62100000D02*
X88100000Y-61700000D01*
X88100000Y-61700000D02*
X88000000Y-61400000D01*
X88000000Y-61400000D02*
X87800000Y-61000000D01*
X87800000Y-61000000D02*
X87500000Y-60800000D01*
X87500000Y-60800000D02*
X87200000Y-60600000D01*
X87200000Y-60600000D02*
X86900000Y-60600000D01*
X86900000Y-60600000D02*
X86600000Y-60700000D01*
X86600000Y-60700000D02*
X86300000Y-60800000D01*
X86300000Y-60800000D02*
X86000000Y-61100000D01*
X86000000Y-61100000D02*
X85600000Y-60800000D01*
X85600000Y-60800000D02*
X85200000Y-60600000D01*
X85200000Y-60600000D02*
X84700000Y-60400000D01*
X84700000Y-60400000D02*
X83900000Y-60200000D01*
X83900000Y-60200000D02*
X83000000Y-60100000D01*
X83000000Y-60100000D02*
X82200000Y-60200000D01*
X82200000Y-60200000D02*
X81300000Y-60400000D01*
X81300000Y-60400000D02*
X80400000Y-60800000D01*
X80400000Y-60800000D02*
X80000000Y-61000000D01*
X80000000Y-61000000D02*
X79700000Y-60800000D01*
X79700000Y-60800000D02*
X79300000Y-60600000D01*
X79300000Y-60600000D02*
X78800000Y-60700000D01*
X78800000Y-60700000D02*
X78400000Y-60900000D01*
X78400000Y-60900000D02*
X78100000Y-61200000D01*
X78100000Y-61200000D02*
X77900000Y-61700000D01*
X77900000Y-61700000D02*
X78000000Y-62200000D01*
X78000000Y-62200000D02*
X78200000Y-62500000D01*
X76800000Y-69000000D02*
X76800000Y-71900000D01*
X76800000Y-71900000D02*
X89200000Y-71900000D01*
X89200000Y-71900000D02*
X89200000Y-69000000D01*
X89200000Y-59500000D02*
X76800000Y-59500000D01*
X76800000Y-59500000D02*
X76800000Y-62400000D01*
X89200000Y-59500000D02*
X89200000Y-62400000D01*
X81290512Y-68700000D02*
G75*
G03*
X81290512Y-68700000I-390512J0D01*
G01*
%TO.C,C5*%
X113100000Y-65100000D02*
X111500000Y-65100000D01*
X111500000Y-65100000D02*
X111500000Y-61900000D01*
X111500000Y-61900000D02*
X113100000Y-61900000D01*
X113100000Y-61900000D02*
X113100000Y-65100000D01*
%TO.C,C4*%
X109662500Y-60500000D02*
X109662500Y-59300000D01*
X109662500Y-59300000D02*
X111662500Y-59300000D01*
X111662500Y-59300000D02*
X111662500Y-60500000D01*
X111662500Y-60500000D02*
X109662500Y-60500000D01*
%TO.C,C1*%
X102000000Y-66750000D02*
G75*
G03*
X102000000Y-66750000I-5000000J0D01*
G01*
X91750000Y-72000000D02*
X91750000Y-61500000D01*
X101250000Y-72000000D02*
X91750000Y-72000000D01*
X101250000Y-61500000D02*
X91750000Y-61500000D01*
X102250000Y-71000000D02*
X102250000Y-62500000D01*
X102250000Y-71000000D02*
X101250000Y-72000000D01*
X102250000Y-62500000D02*
X101250000Y-61500000D01*
X101558325Y-68450000D02*
X100558325Y-68450000D01*
X101058325Y-68950000D02*
X101058325Y-67950000D01*
%TO.C,U2*%
X105575000Y-60050000D02*
X102650000Y-60050000D01*
X102650000Y-60050000D02*
X102650000Y-55150000D01*
X102650000Y-55150000D02*
X106550000Y-55150000D01*
X106550000Y-55150000D02*
X106550000Y-59075000D01*
X106550000Y-59075000D02*
X105575000Y-60050000D01*
D11*
%TO.C,U1*%
X115500000Y-47000000D02*
X131500000Y-47000000D01*
X131500000Y-47000000D02*
X131500000Y-71000000D01*
X131500000Y-71000000D02*
X115500000Y-71000000D01*
X115500000Y-71000000D02*
X115500000Y-47000000D01*
D10*
%TO.C,R5*%
X109662500Y-48700000D02*
X109662500Y-47500000D01*
X109662500Y-47500000D02*
X111662500Y-47500000D01*
X111662500Y-47500000D02*
X111662500Y-48700000D01*
X111662500Y-48700000D02*
X109662500Y-48700000D01*
%TO.C,R4*%
X114200000Y-51900000D02*
X113000000Y-51900000D01*
X113000000Y-51900000D02*
X113000000Y-49900000D01*
X113000000Y-49900000D02*
X114200000Y-49900000D01*
X114200000Y-49900000D02*
X114200000Y-51900000D01*
%TO.C,R3*%
X111700000Y-57250000D02*
X111700000Y-58450000D01*
X111700000Y-58450000D02*
X109700000Y-58450000D01*
X109700000Y-58450000D02*
X109700000Y-57250000D01*
X109700000Y-57250000D02*
X111700000Y-57250000D01*
%TO.C,R2*%
X111700000Y-53150000D02*
X111700000Y-54350000D01*
X111700000Y-54350000D02*
X109700000Y-54350000D01*
X109700000Y-54350000D02*
X109700000Y-53150000D01*
X109700000Y-53150000D02*
X111700000Y-53150000D01*
%TO.C,R1*%
X109700000Y-56400000D02*
X109700000Y-55200000D01*
X109700000Y-55200000D02*
X111700000Y-55200000D01*
X111700000Y-55200000D02*
X111700000Y-56400000D01*
X111700000Y-56400000D02*
X109700000Y-56400000D01*
%TO.C,Q1*%
X109750000Y-51600000D02*
X112200000Y-51600000D01*
X109180000Y-51050000D02*
X109180000Y-50200000D01*
X109750000Y-51600000D02*
X109180000Y-51050000D01*
X109180000Y-50200000D02*
X112220000Y-50200000D01*
X112220000Y-51600000D02*
X112220000Y-50200000D01*
%TO.C,J3*%
X73050000Y-70000000D02*
G75*
G03*
X73050000Y-70000000I-1250000J0D01*
G01*
X73050000Y-66190000D02*
G75*
G03*
X73050000Y-66190000I-1250000J0D01*
G01*
X73050000Y-62380000D02*
G75*
G03*
X73050000Y-62380000I-1250000J0D01*
G01*
X68100000Y-71850000D02*
X68100000Y-60530000D01*
X68100000Y-60530000D02*
X75400000Y-60530000D01*
X75400000Y-60530000D02*
X75400000Y-71250000D01*
X75400000Y-71250000D02*
X74800000Y-71850000D01*
X74800000Y-71850000D02*
X68100000Y-71850000D01*
X74800000Y-71850000D02*
X74800000Y-60530000D01*
X73500000Y-71850000D02*
X73500000Y-60530000D01*
X70100000Y-71850000D02*
X70100000Y-60530000D01*
X71004000Y-69051000D02*
X72748000Y-70796000D01*
X70852000Y-69204000D02*
X72596000Y-70949000D01*
X68200000Y-71000000D02*
X68700000Y-71000000D01*
X68700000Y-71000000D02*
X68700000Y-69000000D01*
X68700000Y-69000000D02*
X68200000Y-69000000D01*
X68200000Y-69000000D02*
X68200000Y-71000000D01*
X71004000Y-65241000D02*
X72748000Y-66985000D01*
X70852000Y-65394000D02*
X72596000Y-67138000D01*
X68200000Y-67190000D02*
X68700000Y-67190000D01*
X68700000Y-67190000D02*
X68700000Y-65190000D01*
X68700000Y-65190000D02*
X68200000Y-65190000D01*
X68200000Y-65190000D02*
X68200000Y-67190000D01*
X71004000Y-61431000D02*
X72748000Y-63175000D01*
X70852000Y-61584000D02*
X72596000Y-63328000D01*
X68200000Y-63380000D02*
X68700000Y-63380000D01*
X68700000Y-63380000D02*
X68700000Y-61380000D01*
X68700000Y-61380000D02*
X68200000Y-61380000D01*
X68200000Y-61380000D02*
X68200000Y-63380000D01*
%TO.C,J2*%
X73050000Y-53000000D02*
G75*
G03*
X73050000Y-53000000I-1250000J0D01*
G01*
X73050000Y-49190000D02*
G75*
G03*
X73050000Y-49190000I-1250000J0D01*
G01*
X68100000Y-54850000D02*
X68100000Y-47340000D01*
X68100000Y-47340000D02*
X75400000Y-47340000D01*
X75400000Y-47340000D02*
X75400000Y-54250000D01*
X75400000Y-54250000D02*
X74800000Y-54850000D01*
X74800000Y-54850000D02*
X68100000Y-54850000D01*
X74800000Y-54850000D02*
X74800000Y-47340000D01*
X73500000Y-54850000D02*
X73500000Y-47340000D01*
X70100000Y-54850000D02*
X70100000Y-47340000D01*
X71004000Y-52051000D02*
X72748000Y-53796000D01*
X70852000Y-52204000D02*
X72596000Y-53949000D01*
X68200000Y-54000000D02*
X68700000Y-54000000D01*
X68700000Y-54000000D02*
X68700000Y-52000000D01*
X68700000Y-52000000D02*
X68200000Y-52000000D01*
X68200000Y-52000000D02*
X68200000Y-54000000D01*
X71004000Y-48241000D02*
X72748000Y-49985000D01*
X70852000Y-48394000D02*
X72596000Y-50138000D01*
X68200000Y-50190000D02*
X68700000Y-50190000D01*
X68700000Y-50190000D02*
X68700000Y-48190000D01*
X68700000Y-48190000D02*
X68200000Y-48190000D01*
X68200000Y-48190000D02*
X68200000Y-50190000D01*
%TO.C,J1*%
X107835000Y-47200000D02*
X107835000Y-52800000D01*
X95165000Y-47200000D02*
X107835000Y-47200000D01*
X95165000Y-52800000D02*
X95165000Y-47200000D01*
X107835000Y-52800000D02*
X95165000Y-52800000D01*
%TO.C,D1*%
X98850000Y-60600000D02*
X91750000Y-60600000D01*
X91750000Y-60600000D02*
X91750000Y-54400000D01*
X98850000Y-54400000D02*
X98850000Y-60600000D01*
X98850000Y-54400000D02*
X91750000Y-54400000D01*
X94650560Y-57501020D02*
X93748860Y-57501020D01*
X95801180Y-57501020D02*
X96799400Y-57501020D01*
X94650560Y-56700920D02*
X94650560Y-58301120D01*
X95801180Y-58250320D02*
X95801180Y-56700920D01*
X94650560Y-57501020D02*
X95801180Y-58250320D01*
X94650560Y-57501020D02*
X95801180Y-56700920D01*
%TO.C,C3*%
X93800000Y-52800000D02*
X92200000Y-52800000D01*
X92200000Y-52800000D02*
X92200000Y-49600000D01*
X92200000Y-49600000D02*
X93800000Y-49600000D01*
X93800000Y-49600000D02*
X93800000Y-52800000D01*
%TO.C,C2*%
X89300000Y-52200000D02*
G75*
G03*
X89300000Y-52200000I-5000000J0D01*
G01*
X79150000Y-57350000D02*
X79150000Y-47050000D01*
X88450000Y-57350000D02*
X79150000Y-57350000D01*
X88450000Y-47050000D02*
X79150000Y-47050000D01*
X89450000Y-56350000D02*
X89450000Y-48050000D01*
X89450000Y-56350000D02*
X88450000Y-57350000D01*
X89450000Y-48050000D02*
X88450000Y-47050000D01*
%TD*%
%TO.C,BOOT1*%
D12*
X110733333Y-67687380D02*
X110733333Y-68401666D01*
X110685714Y-68544523D01*
X110590476Y-68639761D01*
X110447619Y-68687380D01*
X110352380Y-68687380D01*
X111638095Y-68020714D02*
X111638095Y-68687380D01*
X111209523Y-68020714D02*
X111209523Y-68544523D01*
X111257142Y-68639761D01*
X111352380Y-68687380D01*
X111495238Y-68687380D01*
X111590476Y-68639761D01*
X111638095Y-68592142D01*
X112114285Y-68687380D02*
X112114285Y-68020714D01*
X112114285Y-68115952D02*
X112161904Y-68068333D01*
X112257142Y-68020714D01*
X112400000Y-68020714D01*
X112495238Y-68068333D01*
X112542857Y-68163571D01*
X112542857Y-68687380D01*
X112542857Y-68163571D02*
X112590476Y-68068333D01*
X112685714Y-68020714D01*
X112828571Y-68020714D01*
X112923809Y-68068333D01*
X112971428Y-68163571D01*
X112971428Y-68687380D01*
X113447619Y-68020714D02*
X113447619Y-69020714D01*
X113447619Y-68068333D02*
X113542857Y-68020714D01*
X113733333Y-68020714D01*
X113828571Y-68068333D01*
X113876190Y-68115952D01*
X113923809Y-68211190D01*
X113923809Y-68496904D01*
X113876190Y-68592142D01*
X113828571Y-68639761D01*
X113733333Y-68687380D01*
X113542857Y-68687380D01*
X113447619Y-68639761D01*
X114733333Y-68639761D02*
X114638095Y-68687380D01*
X114447619Y-68687380D01*
X114352380Y-68639761D01*
X114304761Y-68544523D01*
X114304761Y-68163571D01*
X114352380Y-68068333D01*
X114447619Y-68020714D01*
X114638095Y-68020714D01*
X114733333Y-68068333D01*
X114780952Y-68163571D01*
X114780952Y-68258809D01*
X114304761Y-68354047D01*
X115209523Y-68687380D02*
X115209523Y-68020714D01*
X115209523Y-68211190D02*
X115257142Y-68115952D01*
X115304761Y-68068333D01*
X115400000Y-68020714D01*
X115495238Y-68020714D01*
X112828571Y-72398333D02*
X112876190Y-72255476D01*
X112923809Y-72207857D01*
X113019047Y-72160238D01*
X113161904Y-72160238D01*
X113257142Y-72207857D01*
X113304761Y-72255476D01*
X113352380Y-72350714D01*
X113352380Y-72731666D01*
X112352380Y-72731666D01*
X112352380Y-72398333D01*
X112400000Y-72303095D01*
X112447619Y-72255476D01*
X112542857Y-72207857D01*
X112638095Y-72207857D01*
X112733333Y-72255476D01*
X112780952Y-72303095D01*
X112828571Y-72398333D01*
X112828571Y-72731666D01*
X112352380Y-71541190D02*
X112352380Y-71350714D01*
X112400000Y-71255476D01*
X112495238Y-71160238D01*
X112685714Y-71112619D01*
X113019047Y-71112619D01*
X113209523Y-71160238D01*
X113304761Y-71255476D01*
X113352380Y-71350714D01*
X113352380Y-71541190D01*
X113304761Y-71636428D01*
X113209523Y-71731666D01*
X113019047Y-71779285D01*
X112685714Y-71779285D01*
X112495238Y-71731666D01*
X112400000Y-71636428D01*
X112352380Y-71541190D01*
X112352380Y-70493571D02*
X112352380Y-70303095D01*
X112400000Y-70207857D01*
X112495238Y-70112619D01*
X112685714Y-70065000D01*
X113019047Y-70065000D01*
X113209523Y-70112619D01*
X113304761Y-70207857D01*
X113352380Y-70303095D01*
X113352380Y-70493571D01*
X113304761Y-70588809D01*
X113209523Y-70684047D01*
X113019047Y-70731666D01*
X112685714Y-70731666D01*
X112495238Y-70684047D01*
X112400000Y-70588809D01*
X112352380Y-70493571D01*
X112352380Y-69779285D02*
X112352380Y-69207857D01*
X113352380Y-69493571D02*
X112352380Y-69493571D01*
X113352380Y-68350714D02*
X113352380Y-68922142D01*
X113352380Y-68636428D02*
X112352380Y-68636428D01*
X112495238Y-68731666D01*
X112590476Y-68826904D01*
X112638095Y-68922142D01*
%TO.C,NT1*%
X71976190Y-60152380D02*
X71976190Y-59152380D01*
X72547619Y-60152380D01*
X72547619Y-59152380D01*
X73404761Y-60104761D02*
X73309523Y-60152380D01*
X73119047Y-60152380D01*
X73023809Y-60104761D01*
X72976190Y-60009523D01*
X72976190Y-59628571D01*
X73023809Y-59533333D01*
X73119047Y-59485714D01*
X73309523Y-59485714D01*
X73404761Y-59533333D01*
X73452380Y-59628571D01*
X73452380Y-59723809D01*
X72976190Y-59819047D01*
X73738095Y-59485714D02*
X74119047Y-59485714D01*
X73880952Y-59152380D02*
X73880952Y-60009523D01*
X73928571Y-60104761D01*
X74023809Y-60152380D01*
X74119047Y-60152380D01*
X74452380Y-59771428D02*
X75214285Y-59771428D01*
X75547619Y-59152380D02*
X76119047Y-59152380D01*
X75833333Y-60152380D02*
X75833333Y-59152380D01*
X76452380Y-60152380D02*
X76452380Y-59485714D01*
X76452380Y-59152380D02*
X76404761Y-59200000D01*
X76452380Y-59247619D01*
X76500000Y-59200000D01*
X76452380Y-59152380D01*
X76452380Y-59247619D01*
X77309523Y-60104761D02*
X77214285Y-60152380D01*
X77023809Y-60152380D01*
X76928571Y-60104761D01*
X76880952Y-60009523D01*
X76880952Y-59628571D01*
X76928571Y-59533333D01*
X77023809Y-59485714D01*
X77214285Y-59485714D01*
X77309523Y-59533333D01*
X77357142Y-59628571D01*
X77357142Y-59723809D01*
X76880952Y-59819047D01*
X77547619Y-60247619D02*
X78309523Y-60247619D01*
X78500000Y-59247619D02*
X78547619Y-59200000D01*
X78642857Y-59152380D01*
X78880952Y-59152380D01*
X78976190Y-59200000D01*
X79023809Y-59247619D01*
X79071428Y-59342857D01*
X79071428Y-59438095D01*
X79023809Y-59580952D01*
X78452380Y-60152380D01*
X79071428Y-60152380D01*
%TO.C,U3*%
X103452380Y-71559523D02*
X103452380Y-72035714D01*
X102452380Y-72035714D01*
X103452380Y-71226190D02*
X102452380Y-71226190D01*
X102452380Y-70988095D01*
X102500000Y-70845238D01*
X102595238Y-70750000D01*
X102690476Y-70702380D01*
X102880952Y-70654761D01*
X103023809Y-70654761D01*
X103214285Y-70702380D01*
X103309523Y-70750000D01*
X103404761Y-70845238D01*
X103452380Y-70988095D01*
X103452380Y-71226190D01*
X103452380Y-69702380D02*
X103452380Y-70273809D01*
X103452380Y-69988095D02*
X102452380Y-69988095D01*
X102595238Y-70083333D01*
X102690476Y-70178571D01*
X102738095Y-70273809D01*
X103452380Y-68750000D02*
X103452380Y-69321428D01*
X103452380Y-69035714D02*
X102452380Y-69035714D01*
X102595238Y-69130952D01*
X102690476Y-69226190D01*
X102738095Y-69321428D01*
X103452380Y-67797619D02*
X103452380Y-68369047D01*
X103452380Y-68083333D02*
X102452380Y-68083333D01*
X102595238Y-68178571D01*
X102690476Y-68273809D01*
X102738095Y-68369047D01*
X102452380Y-67464285D02*
X102452380Y-66797619D01*
X103452380Y-67226190D01*
X103452380Y-66416666D02*
X102452380Y-66416666D01*
X102452380Y-66178571D01*
X102500000Y-66035714D01*
X102595238Y-65940476D01*
X102690476Y-65892857D01*
X102880952Y-65845238D01*
X103023809Y-65845238D01*
X103214285Y-65892857D01*
X103309523Y-65940476D01*
X103404761Y-66035714D01*
X103452380Y-66178571D01*
X103452380Y-66416666D01*
X102452380Y-65559523D02*
X102452380Y-64988095D01*
X103452380Y-65273809D02*
X102452380Y-65273809D01*
X102452380Y-64750000D02*
X102452380Y-64130952D01*
X102833333Y-64464285D01*
X102833333Y-64321428D01*
X102880952Y-64226190D01*
X102928571Y-64178571D01*
X103023809Y-64130952D01*
X103261904Y-64130952D01*
X103357142Y-64178571D01*
X103404761Y-64226190D01*
X103452380Y-64321428D01*
X103452380Y-64607142D01*
X103404761Y-64702380D01*
X103357142Y-64750000D01*
X102452380Y-63797619D02*
X102452380Y-63178571D01*
X102833333Y-63511904D01*
X102833333Y-63369047D01*
X102880952Y-63273809D01*
X102928571Y-63226190D01*
X103023809Y-63178571D01*
X103261904Y-63178571D01*
X103357142Y-63226190D01*
X103404761Y-63273809D01*
X103452380Y-63369047D01*
X103452380Y-63654761D01*
X103404761Y-63750000D01*
X103357142Y-63797619D01*
X102452380Y-62892857D02*
X102452380Y-62321428D01*
X103452380Y-62607142D02*
X102452380Y-62607142D01*
X103452380Y-61416666D02*
X102976190Y-61750000D01*
X103452380Y-61988095D02*
X102452380Y-61988095D01*
X102452380Y-61607142D01*
X102500000Y-61511904D01*
X102547619Y-61464285D01*
X102642857Y-61416666D01*
X102785714Y-61416666D01*
X102880952Y-61464285D01*
X102928571Y-61511904D01*
X102976190Y-61607142D01*
X102976190Y-61988095D01*
X106952380Y-67511904D02*
X107761904Y-67511904D01*
X107857142Y-67464285D01*
X107904761Y-67416666D01*
X107952380Y-67321428D01*
X107952380Y-67130952D01*
X107904761Y-67035714D01*
X107857142Y-66988095D01*
X107761904Y-66940476D01*
X106952380Y-66940476D01*
X106952380Y-66559523D02*
X106952380Y-65940476D01*
X107333333Y-66273809D01*
X107333333Y-66130952D01*
X107380952Y-66035714D01*
X107428571Y-65988095D01*
X107523809Y-65940476D01*
X107761904Y-65940476D01*
X107857142Y-65988095D01*
X107904761Y-66035714D01*
X107952380Y-66130952D01*
X107952380Y-66416666D01*
X107904761Y-66511904D01*
X107857142Y-66559523D01*
%TO.C,L1*%
X81738095Y-72752380D02*
X81547619Y-72752380D01*
X81452380Y-72800000D01*
X81404761Y-72847619D01*
X81309523Y-72990476D01*
X81261904Y-73180952D01*
X81261904Y-73561904D01*
X81309523Y-73657142D01*
X81357142Y-73704761D01*
X81452380Y-73752380D01*
X81642857Y-73752380D01*
X81738095Y-73704761D01*
X81785714Y-73657142D01*
X81833333Y-73561904D01*
X81833333Y-73323809D01*
X81785714Y-73228571D01*
X81738095Y-73180952D01*
X81642857Y-73133333D01*
X81452380Y-73133333D01*
X81357142Y-73180952D01*
X81309523Y-73228571D01*
X81261904Y-73323809D01*
X82404761Y-73180952D02*
X82309523Y-73133333D01*
X82261904Y-73085714D01*
X82214285Y-72990476D01*
X82214285Y-72942857D01*
X82261904Y-72847619D01*
X82309523Y-72800000D01*
X82404761Y-72752380D01*
X82595238Y-72752380D01*
X82690476Y-72800000D01*
X82738095Y-72847619D01*
X82785714Y-72942857D01*
X82785714Y-72990476D01*
X82738095Y-73085714D01*
X82690476Y-73133333D01*
X82595238Y-73180952D01*
X82404761Y-73180952D01*
X82309523Y-73228571D01*
X82261904Y-73276190D01*
X82214285Y-73371428D01*
X82214285Y-73561904D01*
X82261904Y-73657142D01*
X82309523Y-73704761D01*
X82404761Y-73752380D01*
X82595238Y-73752380D01*
X82690476Y-73704761D01*
X82738095Y-73657142D01*
X82785714Y-73561904D01*
X82785714Y-73371428D01*
X82738095Y-73276190D01*
X82690476Y-73228571D01*
X82595238Y-73180952D01*
X83642857Y-73085714D02*
X83642857Y-73752380D01*
X83214285Y-73085714D02*
X83214285Y-73609523D01*
X83261904Y-73704761D01*
X83357142Y-73752380D01*
X83500000Y-73752380D01*
X83595238Y-73704761D01*
X83642857Y-73657142D01*
X84119047Y-73752380D02*
X84119047Y-72752380D01*
X84119047Y-73228571D02*
X84690476Y-73228571D01*
X84690476Y-73752380D02*
X84690476Y-72752380D01*
X82833333Y-66152380D02*
X82357142Y-66152380D01*
X82357142Y-65152380D01*
X83690476Y-66152380D02*
X83119047Y-66152380D01*
X83404761Y-66152380D02*
X83404761Y-65152380D01*
X83309523Y-65295238D01*
X83214285Y-65390476D01*
X83119047Y-65438095D01*
%TO.C,C5*%
X114572380Y-66476190D02*
X114572380Y-67047619D01*
X114572380Y-66761904D02*
X113572380Y-66761904D01*
X113715238Y-66857142D01*
X113810476Y-66952380D01*
X113858095Y-67047619D01*
X113572380Y-65857142D02*
X113572380Y-65761904D01*
X113620000Y-65666666D01*
X113667619Y-65619047D01*
X113762857Y-65571428D01*
X113953333Y-65523809D01*
X114191428Y-65523809D01*
X114381904Y-65571428D01*
X114477142Y-65619047D01*
X114524761Y-65666666D01*
X114572380Y-65761904D01*
X114572380Y-65857142D01*
X114524761Y-65952380D01*
X114477142Y-66000000D01*
X114381904Y-66047619D01*
X114191428Y-66095238D01*
X113953333Y-66095238D01*
X113762857Y-66047619D01*
X113667619Y-66000000D01*
X113620000Y-65952380D01*
X113572380Y-65857142D01*
X113905714Y-64666666D02*
X114572380Y-64666666D01*
X113905714Y-65095238D02*
X114429523Y-65095238D01*
X114524761Y-65047619D01*
X114572380Y-64952380D01*
X114572380Y-64809523D01*
X114524761Y-64714285D01*
X114477142Y-64666666D01*
X114048571Y-63857142D02*
X114048571Y-64190476D01*
X114572380Y-64190476D02*
X113572380Y-64190476D01*
X113572380Y-63714285D01*
X113524761Y-62619047D02*
X114810476Y-63476190D01*
X113572380Y-61809523D02*
X113572380Y-62285714D01*
X114048571Y-62333333D01*
X114000952Y-62285714D01*
X113953333Y-62190476D01*
X113953333Y-61952380D01*
X114000952Y-61857142D01*
X114048571Y-61809523D01*
X114143809Y-61761904D01*
X114381904Y-61761904D01*
X114477142Y-61809523D01*
X114524761Y-61857142D01*
X114572380Y-61952380D01*
X114572380Y-62190476D01*
X114524761Y-62285714D01*
X114477142Y-62333333D01*
X113572380Y-61142857D02*
X113572380Y-61047619D01*
X113620000Y-60952380D01*
X113667619Y-60904761D01*
X113762857Y-60857142D01*
X113953333Y-60809523D01*
X114191428Y-60809523D01*
X114381904Y-60857142D01*
X114477142Y-60904761D01*
X114524761Y-60952380D01*
X114572380Y-61047619D01*
X114572380Y-61142857D01*
X114524761Y-61238095D01*
X114477142Y-61285714D01*
X114381904Y-61333333D01*
X114191428Y-61380952D01*
X113953333Y-61380952D01*
X113762857Y-61333333D01*
X113667619Y-61285714D01*
X113620000Y-61238095D01*
X113572380Y-61142857D01*
X113572380Y-60523809D02*
X114572380Y-60190476D01*
X113572380Y-59857142D01*
D13*
X112585714Y-63633333D02*
X112623809Y-63671428D01*
X112661904Y-63785714D01*
X112661904Y-63861904D01*
X112623809Y-63976190D01*
X112547619Y-64052380D01*
X112471428Y-64090476D01*
X112319047Y-64128571D01*
X112204761Y-64128571D01*
X112052380Y-64090476D01*
X111976190Y-64052380D01*
X111900000Y-63976190D01*
X111861904Y-63861904D01*
X111861904Y-63785714D01*
X111900000Y-63671428D01*
X111938095Y-63633333D01*
X111861904Y-62909523D02*
X111861904Y-63290476D01*
X112242857Y-63328571D01*
X112204761Y-63290476D01*
X112166666Y-63214285D01*
X112166666Y-63023809D01*
X112204761Y-62947619D01*
X112242857Y-62909523D01*
X112319047Y-62871428D01*
X112509523Y-62871428D01*
X112585714Y-62909523D01*
X112623809Y-62947619D01*
X112661904Y-63023809D01*
X112661904Y-63214285D01*
X112623809Y-63290476D01*
X112585714Y-63328571D01*
%TO.C,C4*%
D12*
X107210119Y-62002380D02*
X106638690Y-62002380D01*
X106924404Y-62002380D02*
X106924404Y-61002380D01*
X106829166Y-61145238D01*
X106733928Y-61240476D01*
X106638690Y-61288095D01*
X107829166Y-61002380D02*
X107924404Y-61002380D01*
X108019642Y-61050000D01*
X108067261Y-61097619D01*
X108114880Y-61192857D01*
X108162500Y-61383333D01*
X108162500Y-61621428D01*
X108114880Y-61811904D01*
X108067261Y-61907142D01*
X108019642Y-61954761D01*
X107924404Y-62002380D01*
X107829166Y-62002380D01*
X107733928Y-61954761D01*
X107686309Y-61907142D01*
X107638690Y-61811904D01*
X107591071Y-61621428D01*
X107591071Y-61383333D01*
X107638690Y-61192857D01*
X107686309Y-61097619D01*
X107733928Y-61050000D01*
X107829166Y-61002380D01*
X108781547Y-61002380D02*
X108876785Y-61002380D01*
X108972023Y-61050000D01*
X109019642Y-61097619D01*
X109067261Y-61192857D01*
X109114880Y-61383333D01*
X109114880Y-61621428D01*
X109067261Y-61811904D01*
X109019642Y-61907142D01*
X108972023Y-61954761D01*
X108876785Y-62002380D01*
X108781547Y-62002380D01*
X108686309Y-61954761D01*
X108638690Y-61907142D01*
X108591071Y-61811904D01*
X108543452Y-61621428D01*
X108543452Y-61383333D01*
X108591071Y-61192857D01*
X108638690Y-61097619D01*
X108686309Y-61050000D01*
X108781547Y-61002380D01*
X109543452Y-61335714D02*
X109543452Y-62002380D01*
X109543452Y-61430952D02*
X109591071Y-61383333D01*
X109686309Y-61335714D01*
X109829166Y-61335714D01*
X109924404Y-61383333D01*
X109972023Y-61478571D01*
X109972023Y-62002380D01*
X110781547Y-61478571D02*
X110448214Y-61478571D01*
X110448214Y-62002380D02*
X110448214Y-61002380D01*
X110924404Y-61002380D01*
X112019642Y-60954761D02*
X111162500Y-62240476D01*
X112829166Y-61002380D02*
X112352976Y-61002380D01*
X112305357Y-61478571D01*
X112352976Y-61430952D01*
X112448214Y-61383333D01*
X112686309Y-61383333D01*
X112781547Y-61430952D01*
X112829166Y-61478571D01*
X112876785Y-61573809D01*
X112876785Y-61811904D01*
X112829166Y-61907142D01*
X112781547Y-61954761D01*
X112686309Y-62002380D01*
X112448214Y-62002380D01*
X112352976Y-61954761D01*
X112305357Y-61907142D01*
X113495833Y-61002380D02*
X113591071Y-61002380D01*
X113686309Y-61050000D01*
X113733928Y-61097619D01*
X113781547Y-61192857D01*
X113829166Y-61383333D01*
X113829166Y-61621428D01*
X113781547Y-61811904D01*
X113733928Y-61907142D01*
X113686309Y-61954761D01*
X113591071Y-62002380D01*
X113495833Y-62002380D01*
X113400595Y-61954761D01*
X113352976Y-61907142D01*
X113305357Y-61811904D01*
X113257738Y-61621428D01*
X113257738Y-61383333D01*
X113305357Y-61192857D01*
X113352976Y-61097619D01*
X113400595Y-61050000D01*
X113495833Y-61002380D01*
X114114880Y-61002380D02*
X114448214Y-62002380D01*
X114781547Y-61002380D01*
D14*
X110579166Y-60078571D02*
X110555357Y-60102380D01*
X110483928Y-60126190D01*
X110436309Y-60126190D01*
X110364880Y-60102380D01*
X110317261Y-60054761D01*
X110293452Y-60007142D01*
X110269642Y-59911904D01*
X110269642Y-59840476D01*
X110293452Y-59745238D01*
X110317261Y-59697619D01*
X110364880Y-59650000D01*
X110436309Y-59626190D01*
X110483928Y-59626190D01*
X110555357Y-59650000D01*
X110579166Y-59673809D01*
X111007738Y-59792857D02*
X111007738Y-60126190D01*
X110888690Y-59602380D02*
X110769642Y-59959523D01*
X111079166Y-59959523D01*
%TO.C,C1*%
D12*
X93547619Y-60902380D02*
X92976190Y-60902380D01*
X93261904Y-60902380D02*
X93261904Y-59902380D01*
X93166666Y-60045238D01*
X93071428Y-60140476D01*
X92976190Y-60188095D01*
X94119047Y-60330952D02*
X94023809Y-60283333D01*
X93976190Y-60235714D01*
X93928571Y-60140476D01*
X93928571Y-60092857D01*
X93976190Y-59997619D01*
X94023809Y-59950000D01*
X94119047Y-59902380D01*
X94309523Y-59902380D01*
X94404761Y-59950000D01*
X94452380Y-59997619D01*
X94500000Y-60092857D01*
X94500000Y-60140476D01*
X94452380Y-60235714D01*
X94404761Y-60283333D01*
X94309523Y-60330952D01*
X94119047Y-60330952D01*
X94023809Y-60378571D01*
X93976190Y-60426190D01*
X93928571Y-60521428D01*
X93928571Y-60711904D01*
X93976190Y-60807142D01*
X94023809Y-60854761D01*
X94119047Y-60902380D01*
X94309523Y-60902380D01*
X94404761Y-60854761D01*
X94452380Y-60807142D01*
X94500000Y-60711904D01*
X94500000Y-60521428D01*
X94452380Y-60426190D01*
X94404761Y-60378571D01*
X94309523Y-60330952D01*
X95119047Y-59902380D02*
X95214285Y-59902380D01*
X95309523Y-59950000D01*
X95357142Y-59997619D01*
X95404761Y-60092857D01*
X95452380Y-60283333D01*
X95452380Y-60521428D01*
X95404761Y-60711904D01*
X95357142Y-60807142D01*
X95309523Y-60854761D01*
X95214285Y-60902380D01*
X95119047Y-60902380D01*
X95023809Y-60854761D01*
X94976190Y-60807142D01*
X94928571Y-60711904D01*
X94880952Y-60521428D01*
X94880952Y-60283333D01*
X94928571Y-60092857D01*
X94976190Y-59997619D01*
X95023809Y-59950000D01*
X95119047Y-59902380D01*
X96309523Y-60235714D02*
X96309523Y-60902380D01*
X95880952Y-60235714D02*
X95880952Y-60759523D01*
X95928571Y-60854761D01*
X96023809Y-60902380D01*
X96166666Y-60902380D01*
X96261904Y-60854761D01*
X96309523Y-60807142D01*
X97119047Y-60378571D02*
X96785714Y-60378571D01*
X96785714Y-60902380D02*
X96785714Y-59902380D01*
X97261904Y-59902380D01*
X98357142Y-59854761D02*
X97500000Y-61140476D01*
X98595238Y-59902380D02*
X99214285Y-59902380D01*
X98880952Y-60283333D01*
X99023809Y-60283333D01*
X99119047Y-60330952D01*
X99166666Y-60378571D01*
X99214285Y-60473809D01*
X99214285Y-60711904D01*
X99166666Y-60807142D01*
X99119047Y-60854761D01*
X99023809Y-60902380D01*
X98738095Y-60902380D01*
X98642857Y-60854761D01*
X98595238Y-60807142D01*
X100119047Y-59902380D02*
X99642857Y-59902380D01*
X99595238Y-60378571D01*
X99642857Y-60330952D01*
X99738095Y-60283333D01*
X99976190Y-60283333D01*
X100071428Y-60330952D01*
X100119047Y-60378571D01*
X100166666Y-60473809D01*
X100166666Y-60711904D01*
X100119047Y-60807142D01*
X100071428Y-60854761D01*
X99976190Y-60902380D01*
X99738095Y-60902380D01*
X99642857Y-60854761D01*
X99595238Y-60807142D01*
X100452380Y-59902380D02*
X100785714Y-60902380D01*
X101119047Y-59902380D01*
X96833333Y-67107142D02*
X96785714Y-67154761D01*
X96642857Y-67202380D01*
X96547619Y-67202380D01*
X96404761Y-67154761D01*
X96309523Y-67059523D01*
X96261904Y-66964285D01*
X96214285Y-66773809D01*
X96214285Y-66630952D01*
X96261904Y-66440476D01*
X96309523Y-66345238D01*
X96404761Y-66250000D01*
X96547619Y-66202380D01*
X96642857Y-66202380D01*
X96785714Y-66250000D01*
X96833333Y-66297619D01*
X97785714Y-67202380D02*
X97214285Y-67202380D01*
X97500000Y-67202380D02*
X97500000Y-66202380D01*
X97404761Y-66345238D01*
X97309523Y-66440476D01*
X97214285Y-66488095D01*
%TO.C,U2*%
X101957142Y-53652380D02*
X102623809Y-54652380D01*
X102623809Y-53652380D02*
X101957142Y-54652380D01*
X103480952Y-54652380D02*
X103004761Y-54652380D01*
X103004761Y-53652380D01*
X104338095Y-54652380D02*
X103766666Y-54652380D01*
X104052380Y-54652380D02*
X104052380Y-53652380D01*
X103957142Y-53795238D01*
X103861904Y-53890476D01*
X103766666Y-53938095D01*
X105242857Y-53652380D02*
X104766666Y-53652380D01*
X104719047Y-54128571D01*
X104766666Y-54080952D01*
X104861904Y-54033333D01*
X105100000Y-54033333D01*
X105195238Y-54080952D01*
X105242857Y-54128571D01*
X105290476Y-54223809D01*
X105290476Y-54461904D01*
X105242857Y-54557142D01*
X105195238Y-54604761D01*
X105100000Y-54652380D01*
X104861904Y-54652380D01*
X104766666Y-54604761D01*
X104719047Y-54557142D01*
X105909523Y-53652380D02*
X106004761Y-53652380D01*
X106100000Y-53700000D01*
X106147619Y-53747619D01*
X106195238Y-53842857D01*
X106242857Y-54033333D01*
X106242857Y-54271428D01*
X106195238Y-54461904D01*
X106147619Y-54557142D01*
X106100000Y-54604761D01*
X106004761Y-54652380D01*
X105909523Y-54652380D01*
X105814285Y-54604761D01*
X105766666Y-54557142D01*
X105719047Y-54461904D01*
X105671428Y-54271428D01*
X105671428Y-54033333D01*
X105719047Y-53842857D01*
X105766666Y-53747619D01*
X105814285Y-53700000D01*
X105909523Y-53652380D01*
X106719047Y-54652380D02*
X106909523Y-54652380D01*
X107004761Y-54604761D01*
X107052380Y-54557142D01*
X107147619Y-54414285D01*
X107195238Y-54223809D01*
X107195238Y-53842857D01*
X107147619Y-53747619D01*
X107100000Y-53700000D01*
X107004761Y-53652380D01*
X106814285Y-53652380D01*
X106719047Y-53700000D01*
X106671428Y-53747619D01*
X106623809Y-53842857D01*
X106623809Y-54080952D01*
X106671428Y-54176190D01*
X106719047Y-54223809D01*
X106814285Y-54271428D01*
X107004761Y-54271428D01*
X107100000Y-54223809D01*
X107147619Y-54176190D01*
X107195238Y-54080952D01*
X103853333Y-57063333D02*
X103853333Y-57856666D01*
X103900000Y-57950000D01*
X103946666Y-57996666D01*
X104040000Y-58043333D01*
X104226666Y-58043333D01*
X104320000Y-57996666D01*
X104366666Y-57950000D01*
X104413333Y-57856666D01*
X104413333Y-57063333D01*
X104833333Y-57156666D02*
X104880000Y-57110000D01*
X104973333Y-57063333D01*
X105206666Y-57063333D01*
X105300000Y-57110000D01*
X105346666Y-57156666D01*
X105393333Y-57250000D01*
X105393333Y-57343333D01*
X105346666Y-57483333D01*
X104786666Y-58043333D01*
X105393333Y-58043333D01*
%TO.C,U1*%
X121035352Y-72803115D02*
X121368995Y-72803115D01*
X121511985Y-73327411D02*
X121035352Y-73327411D01*
X121035352Y-72326482D01*
X121511985Y-72326482D01*
X121893291Y-73279747D02*
X122036281Y-73327411D01*
X122274597Y-73327411D01*
X122369924Y-73279747D01*
X122417587Y-73232084D01*
X122465250Y-73136758D01*
X122465250Y-73041431D01*
X122417587Y-72946104D01*
X122369924Y-72898441D01*
X122274597Y-72850778D01*
X122083944Y-72803115D01*
X121988618Y-72755451D01*
X121940954Y-72707788D01*
X121893291Y-72612461D01*
X121893291Y-72517135D01*
X121940954Y-72421808D01*
X121988618Y-72374145D01*
X122083944Y-72326482D01*
X122322261Y-72326482D01*
X122465250Y-72374145D01*
X122894220Y-73327411D02*
X122894220Y-72326482D01*
X123275526Y-72326482D01*
X123370853Y-72374145D01*
X123418516Y-72421808D01*
X123466179Y-72517135D01*
X123466179Y-72660125D01*
X123418516Y-72755451D01*
X123370853Y-72803115D01*
X123275526Y-72850778D01*
X122894220Y-72850778D01*
X124038139Y-72755451D02*
X123942812Y-72707788D01*
X123895149Y-72660125D01*
X123847486Y-72564798D01*
X123847486Y-72517135D01*
X123895149Y-72421808D01*
X123942812Y-72374145D01*
X124038139Y-72326482D01*
X124228792Y-72326482D01*
X124324119Y-72374145D01*
X124371782Y-72421808D01*
X124419445Y-72517135D01*
X124419445Y-72564798D01*
X124371782Y-72660125D01*
X124324119Y-72707788D01*
X124228792Y-72755451D01*
X124038139Y-72755451D01*
X123942812Y-72803115D01*
X123895149Y-72850778D01*
X123847486Y-72946104D01*
X123847486Y-73136758D01*
X123895149Y-73232084D01*
X123942812Y-73279747D01*
X124038139Y-73327411D01*
X124228792Y-73327411D01*
X124324119Y-73279747D01*
X124371782Y-73232084D01*
X124419445Y-73136758D01*
X124419445Y-72946104D01*
X124371782Y-72850778D01*
X124324119Y-72803115D01*
X124228792Y-72755451D01*
X124800751Y-72421808D02*
X124848415Y-72374145D01*
X124943741Y-72326482D01*
X125182058Y-72326482D01*
X125277384Y-72374145D01*
X125325048Y-72421808D01*
X125372711Y-72517135D01*
X125372711Y-72612461D01*
X125325048Y-72755451D01*
X124753088Y-73327411D01*
X125372711Y-73327411D01*
X126230650Y-72326482D02*
X126039997Y-72326482D01*
X125944670Y-72374145D01*
X125897007Y-72421808D01*
X125801680Y-72564798D01*
X125754017Y-72755451D01*
X125754017Y-73136758D01*
X125801680Y-73232084D01*
X125849344Y-73279747D01*
X125944670Y-73327411D01*
X126135323Y-73327411D01*
X126230650Y-73279747D01*
X126278313Y-73232084D01*
X126325977Y-73136758D01*
X126325977Y-72898441D01*
X126278313Y-72803115D01*
X126230650Y-72755451D01*
X126135323Y-72707788D01*
X125944670Y-72707788D01*
X125849344Y-72755451D01*
X125801680Y-72803115D01*
X125754017Y-72898441D01*
X127183916Y-72326482D02*
X126993263Y-72326482D01*
X126897936Y-72374145D01*
X126850273Y-72421808D01*
X126754946Y-72564798D01*
X126707283Y-72755451D01*
X126707283Y-73136758D01*
X126754946Y-73232084D01*
X126802609Y-73279747D01*
X126897936Y-73327411D01*
X127088589Y-73327411D01*
X127183916Y-73279747D01*
X127231579Y-73232084D01*
X127279242Y-73136758D01*
X127279242Y-72898441D01*
X127231579Y-72803115D01*
X127183916Y-72755451D01*
X127088589Y-72707788D01*
X126897936Y-72707788D01*
X126802609Y-72755451D01*
X126754946Y-72803115D01*
X126707283Y-72898441D01*
X127708212Y-72946104D02*
X128470824Y-72946104D01*
X129471753Y-73327411D02*
X128899794Y-73327411D01*
X129185774Y-73327411D02*
X129185774Y-72326482D01*
X129090447Y-72469472D01*
X128995121Y-72564798D01*
X128899794Y-72612461D01*
X129853060Y-72421808D02*
X129900723Y-72374145D01*
X129996050Y-72326482D01*
X130234366Y-72326482D01*
X130329693Y-72374145D01*
X130377356Y-72421808D01*
X130425019Y-72517135D01*
X130425019Y-72612461D01*
X130377356Y-72755451D01*
X129805396Y-73327411D01*
X130425019Y-73327411D01*
X130853989Y-72803115D02*
X131187632Y-72803115D01*
X131330622Y-73327411D02*
X130853989Y-73327411D01*
X130853989Y-72326482D01*
X131330622Y-72326482D01*
X131521275Y-73422737D02*
X132283887Y-73422737D01*
X132522204Y-72803115D02*
X132855847Y-72803115D01*
X132998837Y-73327411D02*
X132522204Y-73327411D01*
X132522204Y-72326482D01*
X132998837Y-72326482D01*
X133380143Y-73279747D02*
X133523133Y-73327411D01*
X133761449Y-73327411D01*
X133856776Y-73279747D01*
X133904439Y-73232084D01*
X133952102Y-73136758D01*
X133952102Y-73041431D01*
X133904439Y-72946104D01*
X133856776Y-72898441D01*
X133761449Y-72850778D01*
X133570796Y-72803115D01*
X133475469Y-72755451D01*
X133427806Y-72707788D01*
X133380143Y-72612461D01*
X133380143Y-72517135D01*
X133427806Y-72421808D01*
X133475469Y-72374145D01*
X133570796Y-72326482D01*
X133809112Y-72326482D01*
X133952102Y-72374145D01*
X134381072Y-73327411D02*
X134381072Y-72326482D01*
X134762378Y-72326482D01*
X134857705Y-72374145D01*
X134905368Y-72421808D01*
X134953031Y-72517135D01*
X134953031Y-72660125D01*
X134905368Y-72755451D01*
X134857705Y-72803115D01*
X134762378Y-72850778D01*
X134381072Y-72850778D01*
X135382001Y-72946104D02*
X136144613Y-72946104D01*
X137145542Y-73327411D02*
X136573583Y-73327411D01*
X136859563Y-73327411D02*
X136859563Y-72326482D01*
X136764236Y-72469472D01*
X136668910Y-72564798D01*
X136573583Y-72612461D01*
X137526849Y-72421808D02*
X137574512Y-72374145D01*
X137669839Y-72326482D01*
X137908155Y-72326482D01*
X138003482Y-72374145D01*
X138051145Y-72421808D01*
X138098808Y-72517135D01*
X138098808Y-72612461D01*
X138051145Y-72755451D01*
X137479185Y-73327411D01*
X138098808Y-73327411D01*
X138527778Y-72803115D02*
X138861421Y-72803115D01*
X139004411Y-73327411D02*
X138527778Y-73327411D01*
X138527778Y-72326482D01*
X139004411Y-72326482D01*
%TO.C,R5*%
X110067261Y-50202380D02*
X109495833Y-50202380D01*
X109781547Y-50202380D02*
X109781547Y-49202380D01*
X109686309Y-49345238D01*
X109591071Y-49440476D01*
X109495833Y-49488095D01*
X110686309Y-49202380D02*
X110781547Y-49202380D01*
X110876785Y-49250000D01*
X110924404Y-49297619D01*
X110972023Y-49392857D01*
X111019642Y-49583333D01*
X111019642Y-49821428D01*
X110972023Y-50011904D01*
X110924404Y-50107142D01*
X110876785Y-50154761D01*
X110781547Y-50202380D01*
X110686309Y-50202380D01*
X110591071Y-50154761D01*
X110543452Y-50107142D01*
X110495833Y-50011904D01*
X110448214Y-49821428D01*
X110448214Y-49583333D01*
X110495833Y-49392857D01*
X110543452Y-49297619D01*
X110591071Y-49250000D01*
X110686309Y-49202380D01*
X111448214Y-50202380D02*
X111448214Y-49202380D01*
X111543452Y-49821428D02*
X111829166Y-50202380D01*
X111829166Y-49535714D02*
X111448214Y-49916666D01*
D14*
X110579166Y-48326190D02*
X110412500Y-48088095D01*
X110293452Y-48326190D02*
X110293452Y-47826190D01*
X110483928Y-47826190D01*
X110531547Y-47850000D01*
X110555357Y-47873809D01*
X110579166Y-47921428D01*
X110579166Y-47992857D01*
X110555357Y-48040476D01*
X110531547Y-48064285D01*
X110483928Y-48088095D01*
X110293452Y-48088095D01*
X111031547Y-47826190D02*
X110793452Y-47826190D01*
X110769642Y-48064285D01*
X110793452Y-48040476D01*
X110841071Y-48016666D01*
X110960119Y-48016666D01*
X111007738Y-48040476D01*
X111031547Y-48064285D01*
X111055357Y-48111904D01*
X111055357Y-48230952D01*
X111031547Y-48278571D01*
X111007738Y-48302380D01*
X110960119Y-48326190D01*
X110841071Y-48326190D01*
X110793452Y-48302380D01*
X110769642Y-48278571D01*
%TO.C,R4*%
D12*
X115702380Y-51495238D02*
X115702380Y-52066666D01*
X115702380Y-51780952D02*
X114702380Y-51780952D01*
X114845238Y-51876190D01*
X114940476Y-51971428D01*
X114988095Y-52066666D01*
X114702380Y-50876190D02*
X114702380Y-50780952D01*
X114750000Y-50685714D01*
X114797619Y-50638095D01*
X114892857Y-50590476D01*
X115083333Y-50542857D01*
X115321428Y-50542857D01*
X115511904Y-50590476D01*
X115607142Y-50638095D01*
X115654761Y-50685714D01*
X115702380Y-50780952D01*
X115702380Y-50876190D01*
X115654761Y-50971428D01*
X115607142Y-51019047D01*
X115511904Y-51066666D01*
X115321428Y-51114285D01*
X115083333Y-51114285D01*
X114892857Y-51066666D01*
X114797619Y-51019047D01*
X114750000Y-50971428D01*
X114702380Y-50876190D01*
X115702380Y-50114285D02*
X114702380Y-50114285D01*
X115321428Y-50019047D02*
X115702380Y-49733333D01*
X115035714Y-49733333D02*
X115416666Y-50114285D01*
D14*
X113826190Y-50983333D02*
X113588095Y-51150000D01*
X113826190Y-51269047D02*
X113326190Y-51269047D01*
X113326190Y-51078571D01*
X113350000Y-51030952D01*
X113373809Y-51007142D01*
X113421428Y-50983333D01*
X113492857Y-50983333D01*
X113540476Y-51007142D01*
X113564285Y-51030952D01*
X113588095Y-51078571D01*
X113588095Y-51269047D01*
X113492857Y-50554761D02*
X113826190Y-50554761D01*
X113302380Y-50673809D02*
X113659523Y-50792857D01*
X113659523Y-50483333D01*
%TO.C,R3*%
D12*
X110104761Y-56652380D02*
X109533333Y-56652380D01*
X109819047Y-56652380D02*
X109819047Y-55652380D01*
X109723809Y-55795238D01*
X109628571Y-55890476D01*
X109533333Y-55938095D01*
X110723809Y-55652380D02*
X110819047Y-55652380D01*
X110914285Y-55700000D01*
X110961904Y-55747619D01*
X111009523Y-55842857D01*
X111057142Y-56033333D01*
X111057142Y-56271428D01*
X111009523Y-56461904D01*
X110961904Y-56557142D01*
X110914285Y-56604761D01*
X110819047Y-56652380D01*
X110723809Y-56652380D01*
X110628571Y-56604761D01*
X110580952Y-56557142D01*
X110533333Y-56461904D01*
X110485714Y-56271428D01*
X110485714Y-56033333D01*
X110533333Y-55842857D01*
X110580952Y-55747619D01*
X110628571Y-55700000D01*
X110723809Y-55652380D01*
X111485714Y-56652380D02*
X111485714Y-55652380D01*
X111580952Y-56271428D02*
X111866666Y-56652380D01*
X111866666Y-55985714D02*
X111485714Y-56366666D01*
D14*
X110616666Y-58076190D02*
X110450000Y-57838095D01*
X110330952Y-58076190D02*
X110330952Y-57576190D01*
X110521428Y-57576190D01*
X110569047Y-57600000D01*
X110592857Y-57623809D01*
X110616666Y-57671428D01*
X110616666Y-57742857D01*
X110592857Y-57790476D01*
X110569047Y-57814285D01*
X110521428Y-57838095D01*
X110330952Y-57838095D01*
X110783333Y-57576190D02*
X111092857Y-57576190D01*
X110926190Y-57766666D01*
X110997619Y-57766666D01*
X111045238Y-57790476D01*
X111069047Y-57814285D01*
X111092857Y-57861904D01*
X111092857Y-57980952D01*
X111069047Y-58028571D01*
X111045238Y-58052380D01*
X110997619Y-58076190D01*
X110854761Y-58076190D01*
X110807142Y-58052380D01*
X110783333Y-58028571D01*
%TO.C,R2*%
D12*
X110104761Y-52552380D02*
X109533333Y-52552380D01*
X109819047Y-52552380D02*
X109819047Y-51552380D01*
X109723809Y-51695238D01*
X109628571Y-51790476D01*
X109533333Y-51838095D01*
X110723809Y-51552380D02*
X110819047Y-51552380D01*
X110914285Y-51600000D01*
X110961904Y-51647619D01*
X111009523Y-51742857D01*
X111057142Y-51933333D01*
X111057142Y-52171428D01*
X111009523Y-52361904D01*
X110961904Y-52457142D01*
X110914285Y-52504761D01*
X110819047Y-52552380D01*
X110723809Y-52552380D01*
X110628571Y-52504761D01*
X110580952Y-52457142D01*
X110533333Y-52361904D01*
X110485714Y-52171428D01*
X110485714Y-51933333D01*
X110533333Y-51742857D01*
X110580952Y-51647619D01*
X110628571Y-51600000D01*
X110723809Y-51552380D01*
X111485714Y-52552380D02*
X111485714Y-51552380D01*
X111580952Y-52171428D02*
X111866666Y-52552380D01*
X111866666Y-51885714D02*
X111485714Y-52266666D01*
D14*
X110616666Y-53976190D02*
X110450000Y-53738095D01*
X110330952Y-53976190D02*
X110330952Y-53476190D01*
X110521428Y-53476190D01*
X110569047Y-53500000D01*
X110592857Y-53523809D01*
X110616666Y-53571428D01*
X110616666Y-53642857D01*
X110592857Y-53690476D01*
X110569047Y-53714285D01*
X110521428Y-53738095D01*
X110330952Y-53738095D01*
X110807142Y-53523809D02*
X110830952Y-53500000D01*
X110878571Y-53476190D01*
X110997619Y-53476190D01*
X111045238Y-53500000D01*
X111069047Y-53523809D01*
X111092857Y-53571428D01*
X111092857Y-53619047D01*
X111069047Y-53690476D01*
X110783333Y-53976190D01*
X111092857Y-53976190D01*
%TO.C,R1*%
D12*
X110104761Y-57902380D02*
X109533333Y-57902380D01*
X109819047Y-57902380D02*
X109819047Y-56902380D01*
X109723809Y-57045238D01*
X109628571Y-57140476D01*
X109533333Y-57188095D01*
X110723809Y-56902380D02*
X110819047Y-56902380D01*
X110914285Y-56950000D01*
X110961904Y-56997619D01*
X111009523Y-57092857D01*
X111057142Y-57283333D01*
X111057142Y-57521428D01*
X111009523Y-57711904D01*
X110961904Y-57807142D01*
X110914285Y-57854761D01*
X110819047Y-57902380D01*
X110723809Y-57902380D01*
X110628571Y-57854761D01*
X110580952Y-57807142D01*
X110533333Y-57711904D01*
X110485714Y-57521428D01*
X110485714Y-57283333D01*
X110533333Y-57092857D01*
X110580952Y-56997619D01*
X110628571Y-56950000D01*
X110723809Y-56902380D01*
X111485714Y-57902380D02*
X111485714Y-56902380D01*
X111580952Y-57521428D02*
X111866666Y-57902380D01*
X111866666Y-57235714D02*
X111485714Y-57616666D01*
D14*
X110616666Y-56026190D02*
X110450000Y-55788095D01*
X110330952Y-56026190D02*
X110330952Y-55526190D01*
X110521428Y-55526190D01*
X110569047Y-55550000D01*
X110592857Y-55573809D01*
X110616666Y-55621428D01*
X110616666Y-55692857D01*
X110592857Y-55740476D01*
X110569047Y-55764285D01*
X110521428Y-55788095D01*
X110330952Y-55788095D01*
X111092857Y-56026190D02*
X110807142Y-56026190D01*
X110950000Y-56026190D02*
X110950000Y-55526190D01*
X110902380Y-55597619D01*
X110854761Y-55645238D01*
X110807142Y-55669047D01*
%TO.C,Q1*%
D12*
X113128571Y-53209523D02*
X113176190Y-53066666D01*
X113223809Y-53019047D01*
X113319047Y-52971428D01*
X113461904Y-52971428D01*
X113557142Y-53019047D01*
X113604761Y-53066666D01*
X113652380Y-53161904D01*
X113652380Y-53542857D01*
X112652380Y-53542857D01*
X112652380Y-53209523D01*
X112700000Y-53114285D01*
X112747619Y-53066666D01*
X112842857Y-53019047D01*
X112938095Y-53019047D01*
X113033333Y-53066666D01*
X113080952Y-53114285D01*
X113128571Y-53209523D01*
X113128571Y-53542857D01*
X113604761Y-52590476D02*
X113652380Y-52447619D01*
X113652380Y-52209523D01*
X113604761Y-52114285D01*
X113557142Y-52066666D01*
X113461904Y-52019047D01*
X113366666Y-52019047D01*
X113271428Y-52066666D01*
X113223809Y-52114285D01*
X113176190Y-52209523D01*
X113128571Y-52400000D01*
X113080952Y-52495238D01*
X113033333Y-52542857D01*
X112938095Y-52590476D01*
X112842857Y-52590476D01*
X112747619Y-52542857D01*
X112700000Y-52495238D01*
X112652380Y-52400000D01*
X112652380Y-52161904D01*
X112700000Y-52019047D01*
X113604761Y-51638095D02*
X113652380Y-51495238D01*
X113652380Y-51257142D01*
X113604761Y-51161904D01*
X113557142Y-51114285D01*
X113461904Y-51066666D01*
X113366666Y-51066666D01*
X113271428Y-51114285D01*
X113223809Y-51161904D01*
X113176190Y-51257142D01*
X113128571Y-51447619D01*
X113080952Y-51542857D01*
X113033333Y-51590476D01*
X112938095Y-51638095D01*
X112842857Y-51638095D01*
X112747619Y-51590476D01*
X112700000Y-51542857D01*
X112652380Y-51447619D01*
X112652380Y-51209523D01*
X112700000Y-51066666D01*
X113652380Y-50114285D02*
X113652380Y-50685714D01*
X113652380Y-50400000D02*
X112652380Y-50400000D01*
X112795238Y-50495238D01*
X112890476Y-50590476D01*
X112938095Y-50685714D01*
X112652380Y-49780952D02*
X112652380Y-49161904D01*
X113033333Y-49495238D01*
X113033333Y-49352380D01*
X113080952Y-49257142D01*
X113128571Y-49209523D01*
X113223809Y-49161904D01*
X113461904Y-49161904D01*
X113557142Y-49209523D01*
X113604761Y-49257142D01*
X113652380Y-49352380D01*
X113652380Y-49638095D01*
X113604761Y-49733333D01*
X113557142Y-49780952D01*
X113080952Y-48590476D02*
X113033333Y-48685714D01*
X112985714Y-48733333D01*
X112890476Y-48780952D01*
X112842857Y-48780952D01*
X112747619Y-48733333D01*
X112700000Y-48685714D01*
X112652380Y-48590476D01*
X112652380Y-48400000D01*
X112700000Y-48304761D01*
X112747619Y-48257142D01*
X112842857Y-48209523D01*
X112890476Y-48209523D01*
X112985714Y-48257142D01*
X113033333Y-48304761D01*
X113080952Y-48400000D01*
X113080952Y-48590476D01*
X113128571Y-48685714D01*
X113176190Y-48733333D01*
X113271428Y-48780952D01*
X113461904Y-48780952D01*
X113557142Y-48733333D01*
X113604761Y-48685714D01*
X113652380Y-48590476D01*
X113652380Y-48400000D01*
X113604761Y-48304761D01*
X113557142Y-48257142D01*
X113461904Y-48209523D01*
X113271428Y-48209523D01*
X113176190Y-48257142D01*
X113128571Y-48304761D01*
X113080952Y-48400000D01*
D15*
X110652380Y-51173809D02*
X110604761Y-51150000D01*
X110557142Y-51102380D01*
X110485714Y-51030952D01*
X110438095Y-51007142D01*
X110390476Y-51007142D01*
X110414285Y-51126190D02*
X110366666Y-51102380D01*
X110319047Y-51054761D01*
X110295238Y-50959523D01*
X110295238Y-50792857D01*
X110319047Y-50697619D01*
X110366666Y-50650000D01*
X110414285Y-50626190D01*
X110509523Y-50626190D01*
X110557142Y-50650000D01*
X110604761Y-50697619D01*
X110628571Y-50792857D01*
X110628571Y-50959523D01*
X110604761Y-51054761D01*
X110557142Y-51102380D01*
X110509523Y-51126190D01*
X110414285Y-51126190D01*
X111104761Y-51126190D02*
X110819047Y-51126190D01*
X110961904Y-51126190D02*
X110961904Y-50626190D01*
X110914285Y-50697619D01*
X110866666Y-50745238D01*
X110819047Y-50769047D01*
%TO.C,J3*%
D12*
X76864761Y-74428095D02*
X76912380Y-74285238D01*
X76912380Y-74047142D01*
X76864761Y-73951904D01*
X76817142Y-73904285D01*
X76721904Y-73856666D01*
X76626666Y-73856666D01*
X76531428Y-73904285D01*
X76483809Y-73951904D01*
X76436190Y-74047142D01*
X76388571Y-74237619D01*
X76340952Y-74332857D01*
X76293333Y-74380476D01*
X76198095Y-74428095D01*
X76102857Y-74428095D01*
X76007619Y-74380476D01*
X75960000Y-74332857D01*
X75912380Y-74237619D01*
X75912380Y-73999523D01*
X75960000Y-73856666D01*
X76864761Y-72999523D02*
X76912380Y-73094761D01*
X76912380Y-73285238D01*
X76864761Y-73380476D01*
X76817142Y-73428095D01*
X76721904Y-73475714D01*
X76436190Y-73475714D01*
X76340952Y-73428095D01*
X76293333Y-73380476D01*
X76245714Y-73285238D01*
X76245714Y-73094761D01*
X76293333Y-72999523D01*
X76912380Y-72570952D02*
X76245714Y-72570952D01*
X76436190Y-72570952D02*
X76340952Y-72523333D01*
X76293333Y-72475714D01*
X76245714Y-72380476D01*
X76245714Y-72285238D01*
X76864761Y-71570952D02*
X76912380Y-71666190D01*
X76912380Y-71856666D01*
X76864761Y-71951904D01*
X76769523Y-71999523D01*
X76388571Y-71999523D01*
X76293333Y-71951904D01*
X76245714Y-71856666D01*
X76245714Y-71666190D01*
X76293333Y-71570952D01*
X76388571Y-71523333D01*
X76483809Y-71523333D01*
X76579047Y-71999523D01*
X76245714Y-71190000D02*
X76912380Y-70999523D01*
X76436190Y-70809047D01*
X76912380Y-70618571D01*
X76245714Y-70428095D01*
X77007619Y-70285238D02*
X77007619Y-69523333D01*
X75912380Y-69428095D02*
X75912380Y-68856666D01*
X76912380Y-69142380D02*
X75912380Y-69142380D01*
X76864761Y-68142380D02*
X76912380Y-68237619D01*
X76912380Y-68428095D01*
X76864761Y-68523333D01*
X76769523Y-68570952D01*
X76388571Y-68570952D01*
X76293333Y-68523333D01*
X76245714Y-68428095D01*
X76245714Y-68237619D01*
X76293333Y-68142380D01*
X76388571Y-68094761D01*
X76483809Y-68094761D01*
X76579047Y-68570952D01*
X76912380Y-67666190D02*
X76245714Y-67666190D01*
X76436190Y-67666190D02*
X76340952Y-67618571D01*
X76293333Y-67570952D01*
X76245714Y-67475714D01*
X76245714Y-67380476D01*
X76912380Y-67047142D02*
X76245714Y-67047142D01*
X76340952Y-67047142D02*
X76293333Y-66999523D01*
X76245714Y-66904285D01*
X76245714Y-66761428D01*
X76293333Y-66666190D01*
X76388571Y-66618571D01*
X76912380Y-66618571D01*
X76388571Y-66618571D02*
X76293333Y-66570952D01*
X76245714Y-66475714D01*
X76245714Y-66332857D01*
X76293333Y-66237619D01*
X76388571Y-66190000D01*
X76912380Y-66190000D01*
X76912380Y-65713809D02*
X76245714Y-65713809D01*
X75912380Y-65713809D02*
X75960000Y-65761428D01*
X76007619Y-65713809D01*
X75960000Y-65666190D01*
X75912380Y-65713809D01*
X76007619Y-65713809D01*
X76245714Y-65237619D02*
X76912380Y-65237619D01*
X76340952Y-65237619D02*
X76293333Y-65190000D01*
X76245714Y-65094761D01*
X76245714Y-64951904D01*
X76293333Y-64856666D01*
X76388571Y-64809047D01*
X76912380Y-64809047D01*
X76912380Y-63904285D02*
X76388571Y-63904285D01*
X76293333Y-63951904D01*
X76245714Y-64047142D01*
X76245714Y-64237619D01*
X76293333Y-64332857D01*
X76864761Y-63904285D02*
X76912380Y-63999523D01*
X76912380Y-64237619D01*
X76864761Y-64332857D01*
X76769523Y-64380476D01*
X76674285Y-64380476D01*
X76579047Y-64332857D01*
X76531428Y-64237619D01*
X76531428Y-63999523D01*
X76483809Y-63904285D01*
X76912380Y-63285238D02*
X76864761Y-63380476D01*
X76769523Y-63428095D01*
X75912380Y-63428095D01*
X77007619Y-63142380D02*
X77007619Y-62380476D01*
X75912380Y-61951904D02*
X75912380Y-61856666D01*
X75960000Y-61761428D01*
X76007619Y-61713809D01*
X76102857Y-61666190D01*
X76293333Y-61618571D01*
X76531428Y-61618571D01*
X76721904Y-61666190D01*
X76817142Y-61713809D01*
X76864761Y-61761428D01*
X76912380Y-61856666D01*
X76912380Y-61951904D01*
X76864761Y-62047142D01*
X76817142Y-62094761D01*
X76721904Y-62142380D01*
X76531428Y-62190000D01*
X76293333Y-62190000D01*
X76102857Y-62142380D01*
X76007619Y-62094761D01*
X75960000Y-62047142D01*
X75912380Y-61951904D01*
X76912380Y-60666190D02*
X76912380Y-61237619D01*
X76912380Y-60951904D02*
X75912380Y-60951904D01*
X76055238Y-61047142D01*
X76150476Y-61142380D01*
X76198095Y-61237619D01*
X76912380Y-60332857D02*
X76245714Y-59809047D01*
X76245714Y-60332857D02*
X76912380Y-59809047D01*
X75912380Y-59237619D02*
X75912380Y-59142380D01*
X75960000Y-59047142D01*
X76007619Y-58999523D01*
X76102857Y-58951904D01*
X76293333Y-58904285D01*
X76531428Y-58904285D01*
X76721904Y-58951904D01*
X76817142Y-58999523D01*
X76864761Y-59047142D01*
X76912380Y-59142380D01*
X76912380Y-59237619D01*
X76864761Y-59332857D01*
X76817142Y-59380476D01*
X76721904Y-59428095D01*
X76531428Y-59475714D01*
X76293333Y-59475714D01*
X76102857Y-59428095D01*
X76007619Y-59380476D01*
X75960000Y-59332857D01*
X75912380Y-59237619D01*
X75912380Y-58570952D02*
X75912380Y-57951904D01*
X76293333Y-58285238D01*
X76293333Y-58142380D01*
X76340952Y-58047142D01*
X76388571Y-57999523D01*
X76483809Y-57951904D01*
X76721904Y-57951904D01*
X76817142Y-57999523D01*
X76864761Y-58047142D01*
X76912380Y-58142380D01*
X76912380Y-58428095D01*
X76864761Y-58523333D01*
X76817142Y-58570952D01*
X73652380Y-66523333D02*
X74366666Y-66523333D01*
X74509523Y-66570952D01*
X74604761Y-66666190D01*
X74652380Y-66809047D01*
X74652380Y-66904285D01*
X73652380Y-66142380D02*
X73652380Y-65523333D01*
X74033333Y-65856666D01*
X74033333Y-65713809D01*
X74080952Y-65618571D01*
X74128571Y-65570952D01*
X74223809Y-65523333D01*
X74461904Y-65523333D01*
X74557142Y-65570952D01*
X74604761Y-65618571D01*
X74652380Y-65713809D01*
X74652380Y-65999523D01*
X74604761Y-66094761D01*
X74557142Y-66142380D01*
%TO.C,J2*%
X76864761Y-59333095D02*
X76912380Y-59190238D01*
X76912380Y-58952142D01*
X76864761Y-58856904D01*
X76817142Y-58809285D01*
X76721904Y-58761666D01*
X76626666Y-58761666D01*
X76531428Y-58809285D01*
X76483809Y-58856904D01*
X76436190Y-58952142D01*
X76388571Y-59142619D01*
X76340952Y-59237857D01*
X76293333Y-59285476D01*
X76198095Y-59333095D01*
X76102857Y-59333095D01*
X76007619Y-59285476D01*
X75960000Y-59237857D01*
X75912380Y-59142619D01*
X75912380Y-58904523D01*
X75960000Y-58761666D01*
X76864761Y-57904523D02*
X76912380Y-57999761D01*
X76912380Y-58190238D01*
X76864761Y-58285476D01*
X76817142Y-58333095D01*
X76721904Y-58380714D01*
X76436190Y-58380714D01*
X76340952Y-58333095D01*
X76293333Y-58285476D01*
X76245714Y-58190238D01*
X76245714Y-57999761D01*
X76293333Y-57904523D01*
X76912380Y-57475952D02*
X76245714Y-57475952D01*
X76436190Y-57475952D02*
X76340952Y-57428333D01*
X76293333Y-57380714D01*
X76245714Y-57285476D01*
X76245714Y-57190238D01*
X76864761Y-56475952D02*
X76912380Y-56571190D01*
X76912380Y-56761666D01*
X76864761Y-56856904D01*
X76769523Y-56904523D01*
X76388571Y-56904523D01*
X76293333Y-56856904D01*
X76245714Y-56761666D01*
X76245714Y-56571190D01*
X76293333Y-56475952D01*
X76388571Y-56428333D01*
X76483809Y-56428333D01*
X76579047Y-56904523D01*
X76245714Y-56095000D02*
X76912380Y-55904523D01*
X76436190Y-55714047D01*
X76912380Y-55523571D01*
X76245714Y-55333095D01*
X77007619Y-55190238D02*
X77007619Y-54428333D01*
X75912380Y-54333095D02*
X75912380Y-53761666D01*
X76912380Y-54047380D02*
X75912380Y-54047380D01*
X76864761Y-53047380D02*
X76912380Y-53142619D01*
X76912380Y-53333095D01*
X76864761Y-53428333D01*
X76769523Y-53475952D01*
X76388571Y-53475952D01*
X76293333Y-53428333D01*
X76245714Y-53333095D01*
X76245714Y-53142619D01*
X76293333Y-53047380D01*
X76388571Y-52999761D01*
X76483809Y-52999761D01*
X76579047Y-53475952D01*
X76912380Y-52571190D02*
X76245714Y-52571190D01*
X76436190Y-52571190D02*
X76340952Y-52523571D01*
X76293333Y-52475952D01*
X76245714Y-52380714D01*
X76245714Y-52285476D01*
X76912380Y-51952142D02*
X76245714Y-51952142D01*
X76340952Y-51952142D02*
X76293333Y-51904523D01*
X76245714Y-51809285D01*
X76245714Y-51666428D01*
X76293333Y-51571190D01*
X76388571Y-51523571D01*
X76912380Y-51523571D01*
X76388571Y-51523571D02*
X76293333Y-51475952D01*
X76245714Y-51380714D01*
X76245714Y-51237857D01*
X76293333Y-51142619D01*
X76388571Y-51095000D01*
X76912380Y-51095000D01*
X76912380Y-50618809D02*
X76245714Y-50618809D01*
X75912380Y-50618809D02*
X75960000Y-50666428D01*
X76007619Y-50618809D01*
X75960000Y-50571190D01*
X75912380Y-50618809D01*
X76007619Y-50618809D01*
X76245714Y-50142619D02*
X76912380Y-50142619D01*
X76340952Y-50142619D02*
X76293333Y-50095000D01*
X76245714Y-49999761D01*
X76245714Y-49856904D01*
X76293333Y-49761666D01*
X76388571Y-49714047D01*
X76912380Y-49714047D01*
X76912380Y-48809285D02*
X76388571Y-48809285D01*
X76293333Y-48856904D01*
X76245714Y-48952142D01*
X76245714Y-49142619D01*
X76293333Y-49237857D01*
X76864761Y-48809285D02*
X76912380Y-48904523D01*
X76912380Y-49142619D01*
X76864761Y-49237857D01*
X76769523Y-49285476D01*
X76674285Y-49285476D01*
X76579047Y-49237857D01*
X76531428Y-49142619D01*
X76531428Y-48904523D01*
X76483809Y-48809285D01*
X76912380Y-48190238D02*
X76864761Y-48285476D01*
X76769523Y-48333095D01*
X75912380Y-48333095D01*
X77007619Y-48047380D02*
X77007619Y-47285476D01*
X75912380Y-46856904D02*
X75912380Y-46761666D01*
X75960000Y-46666428D01*
X76007619Y-46618809D01*
X76102857Y-46571190D01*
X76293333Y-46523571D01*
X76531428Y-46523571D01*
X76721904Y-46571190D01*
X76817142Y-46618809D01*
X76864761Y-46666428D01*
X76912380Y-46761666D01*
X76912380Y-46856904D01*
X76864761Y-46952142D01*
X76817142Y-46999761D01*
X76721904Y-47047380D01*
X76531428Y-47095000D01*
X76293333Y-47095000D01*
X76102857Y-47047380D01*
X76007619Y-46999761D01*
X75960000Y-46952142D01*
X75912380Y-46856904D01*
X76912380Y-45571190D02*
X76912380Y-46142619D01*
X76912380Y-45856904D02*
X75912380Y-45856904D01*
X76055238Y-45952142D01*
X76150476Y-46047380D01*
X76198095Y-46142619D01*
X76912380Y-45237857D02*
X76245714Y-44714047D01*
X76245714Y-45237857D02*
X76912380Y-44714047D01*
X75912380Y-44142619D02*
X75912380Y-44047380D01*
X75960000Y-43952142D01*
X76007619Y-43904523D01*
X76102857Y-43856904D01*
X76293333Y-43809285D01*
X76531428Y-43809285D01*
X76721904Y-43856904D01*
X76817142Y-43904523D01*
X76864761Y-43952142D01*
X76912380Y-44047380D01*
X76912380Y-44142619D01*
X76864761Y-44237857D01*
X76817142Y-44285476D01*
X76721904Y-44333095D01*
X76531428Y-44380714D01*
X76293333Y-44380714D01*
X76102857Y-44333095D01*
X76007619Y-44285476D01*
X75960000Y-44237857D01*
X75912380Y-44142619D01*
X76007619Y-43428333D02*
X75960000Y-43380714D01*
X75912380Y-43285476D01*
X75912380Y-43047380D01*
X75960000Y-42952142D01*
X76007619Y-42904523D01*
X76102857Y-42856904D01*
X76198095Y-42856904D01*
X76340952Y-42904523D01*
X76912380Y-43475952D01*
X76912380Y-42856904D01*
X73652380Y-51428333D02*
X74366666Y-51428333D01*
X74509523Y-51475952D01*
X74604761Y-51571190D01*
X74652380Y-51714047D01*
X74652380Y-51809285D01*
X73747619Y-50999761D02*
X73700000Y-50952142D01*
X73652380Y-50856904D01*
X73652380Y-50618809D01*
X73700000Y-50523571D01*
X73747619Y-50475952D01*
X73842857Y-50428333D01*
X73938095Y-50428333D01*
X74080952Y-50475952D01*
X74652380Y-51047380D01*
X74652380Y-50428333D01*
%TO.C,J1*%
D16*
X95047619Y-46339761D02*
X95190476Y-46387380D01*
X95428571Y-46387380D01*
X95523809Y-46339761D01*
X95571428Y-46292142D01*
X95619047Y-46196904D01*
X95619047Y-46101666D01*
X95571428Y-46006428D01*
X95523809Y-45958809D01*
X95428571Y-45911190D01*
X95238095Y-45863571D01*
X95142857Y-45815952D01*
X95095238Y-45768333D01*
X95047619Y-45673095D01*
X95047619Y-45577857D01*
X95095238Y-45482619D01*
X95142857Y-45435000D01*
X95238095Y-45387380D01*
X95476190Y-45387380D01*
X95619047Y-45435000D01*
X95952380Y-45387380D02*
X96190476Y-46387380D01*
X96380952Y-45673095D01*
X96571428Y-46387380D01*
X96809523Y-45387380D01*
X97190476Y-46387380D02*
X97190476Y-45387380D01*
X97428571Y-45387380D01*
X97571428Y-45435000D01*
X97666666Y-45530238D01*
X97714285Y-45625476D01*
X97761904Y-45815952D01*
X97761904Y-45958809D01*
X97714285Y-46149285D01*
X97666666Y-46244523D01*
X97571428Y-46339761D01*
X97428571Y-46387380D01*
X97190476Y-46387380D01*
X97952380Y-46482619D02*
X98714285Y-46482619D01*
X98952380Y-46387380D02*
X98952380Y-45387380D01*
X99333333Y-45387380D01*
X99428571Y-45435000D01*
X99476190Y-45482619D01*
X99523809Y-45577857D01*
X99523809Y-45720714D01*
X99476190Y-45815952D01*
X99428571Y-45863571D01*
X99333333Y-45911190D01*
X98952380Y-45911190D01*
X100142857Y-45387380D02*
X100333333Y-45387380D01*
X100428571Y-45435000D01*
X100523809Y-45530238D01*
X100571428Y-45720714D01*
X100571428Y-46054047D01*
X100523809Y-46244523D01*
X100428571Y-46339761D01*
X100333333Y-46387380D01*
X100142857Y-46387380D01*
X100047619Y-46339761D01*
X99952380Y-46244523D01*
X99904761Y-46054047D01*
X99904761Y-45720714D01*
X99952380Y-45530238D01*
X100047619Y-45435000D01*
X100142857Y-45387380D01*
X101571428Y-46387380D02*
X101238095Y-45911190D01*
X101000000Y-46387380D02*
X101000000Y-45387380D01*
X101380952Y-45387380D01*
X101476190Y-45435000D01*
X101523809Y-45482619D01*
X101571428Y-45577857D01*
X101571428Y-45720714D01*
X101523809Y-45815952D01*
X101476190Y-45863571D01*
X101380952Y-45911190D01*
X101000000Y-45911190D01*
X101857142Y-45387380D02*
X102428571Y-45387380D01*
X102142857Y-46387380D02*
X102142857Y-45387380D01*
X102523809Y-46482619D02*
X103285714Y-46482619D01*
X103476190Y-46339761D02*
X103619047Y-46387380D01*
X103857142Y-46387380D01*
X103952380Y-46339761D01*
X104000000Y-46292142D01*
X104047619Y-46196904D01*
X104047619Y-46101666D01*
X104000000Y-46006428D01*
X103952380Y-45958809D01*
X103857142Y-45911190D01*
X103666666Y-45863571D01*
X103571428Y-45815952D01*
X103523809Y-45768333D01*
X103476190Y-45673095D01*
X103476190Y-45577857D01*
X103523809Y-45482619D01*
X103571428Y-45435000D01*
X103666666Y-45387380D01*
X103904761Y-45387380D01*
X104047619Y-45435000D01*
X104476190Y-46387380D02*
X104476190Y-45387380D01*
X105047619Y-46387380D02*
X104619047Y-45815952D01*
X105047619Y-45387380D02*
X104476190Y-45958809D01*
X105476190Y-45863571D02*
X105809523Y-45863571D01*
X105952380Y-46387380D02*
X105476190Y-46387380D01*
X105476190Y-45387380D01*
X105952380Y-45387380D01*
X106380952Y-46387380D02*
X106380952Y-45387380D01*
X106619047Y-45387380D01*
X106761904Y-45435000D01*
X106857142Y-45530238D01*
X106904761Y-45625476D01*
X106952380Y-45815952D01*
X106952380Y-45958809D01*
X106904761Y-46149285D01*
X106857142Y-46244523D01*
X106761904Y-46339761D01*
X106619047Y-46387380D01*
X106380952Y-46387380D01*
X107380952Y-46387380D02*
X107380952Y-45387380D01*
X107619047Y-45387380D01*
X107761904Y-45435000D01*
X107857142Y-45530238D01*
X107904761Y-45625476D01*
X107952380Y-45815952D01*
X107952380Y-45958809D01*
X107904761Y-46149285D01*
X107857142Y-46244523D01*
X107761904Y-46339761D01*
X107619047Y-46387380D01*
X107380952Y-46387380D01*
%TO.C,D1*%
D12*
X93585714Y-62104761D02*
X93728571Y-62152380D01*
X93966666Y-62152380D01*
X94061904Y-62104761D01*
X94109523Y-62057142D01*
X94157142Y-61961904D01*
X94157142Y-61866666D01*
X94109523Y-61771428D01*
X94061904Y-61723809D01*
X93966666Y-61676190D01*
X93776190Y-61628571D01*
X93680952Y-61580952D01*
X93633333Y-61533333D01*
X93585714Y-61438095D01*
X93585714Y-61342857D01*
X93633333Y-61247619D01*
X93680952Y-61200000D01*
X93776190Y-61152380D01*
X94014285Y-61152380D01*
X94157142Y-61200000D01*
X94538095Y-62104761D02*
X94680952Y-62152380D01*
X94919047Y-62152380D01*
X95014285Y-62104761D01*
X95061904Y-62057142D01*
X95109523Y-61961904D01*
X95109523Y-61866666D01*
X95061904Y-61771428D01*
X95014285Y-61723809D01*
X94919047Y-61676190D01*
X94728571Y-61628571D01*
X94633333Y-61580952D01*
X94585714Y-61533333D01*
X94538095Y-61438095D01*
X94538095Y-61342857D01*
X94585714Y-61247619D01*
X94633333Y-61200000D01*
X94728571Y-61152380D01*
X94966666Y-61152380D01*
X95109523Y-61200000D01*
X95442857Y-61152380D02*
X96061904Y-61152380D01*
X95728571Y-61533333D01*
X95871428Y-61533333D01*
X95966666Y-61580952D01*
X96014285Y-61628571D01*
X96061904Y-61723809D01*
X96061904Y-61961904D01*
X96014285Y-62057142D01*
X95966666Y-62104761D01*
X95871428Y-62152380D01*
X95585714Y-62152380D01*
X95490476Y-62104761D01*
X95442857Y-62057142D01*
X96442857Y-61247619D02*
X96490476Y-61200000D01*
X96585714Y-61152380D01*
X96823809Y-61152380D01*
X96919047Y-61200000D01*
X96966666Y-61247619D01*
X97014285Y-61342857D01*
X97014285Y-61438095D01*
X96966666Y-61580952D01*
X96395238Y-62152380D01*
X97014285Y-62152380D01*
X94561904Y-56052380D02*
X94561904Y-55052380D01*
X94800000Y-55052380D01*
X94942857Y-55100000D01*
X95038095Y-55195238D01*
X95085714Y-55290476D01*
X95133333Y-55480952D01*
X95133333Y-55623809D01*
X95085714Y-55814285D01*
X95038095Y-55909523D01*
X94942857Y-56004761D01*
X94800000Y-56052380D01*
X94561904Y-56052380D01*
X96085714Y-56052380D02*
X95514285Y-56052380D01*
X95800000Y-56052380D02*
X95800000Y-55052380D01*
X95704761Y-55195238D01*
X95609523Y-55290476D01*
X95514285Y-55338095D01*
%TO.C,C3*%
X95272380Y-53700000D02*
X95272380Y-54271428D01*
X95272380Y-53985714D02*
X94272380Y-53985714D01*
X94415238Y-54080952D01*
X94510476Y-54176190D01*
X94558095Y-54271428D01*
X94605714Y-52842857D02*
X95272380Y-52842857D01*
X94605714Y-53271428D02*
X95129523Y-53271428D01*
X95224761Y-53223809D01*
X95272380Y-53128571D01*
X95272380Y-52985714D01*
X95224761Y-52890476D01*
X95177142Y-52842857D01*
X94748571Y-52033333D02*
X94748571Y-52366666D01*
X95272380Y-52366666D02*
X94272380Y-52366666D01*
X94272380Y-51890476D01*
X94224761Y-50795238D02*
X95510476Y-51652380D01*
X94272380Y-49985714D02*
X94272380Y-50461904D01*
X94748571Y-50509523D01*
X94700952Y-50461904D01*
X94653333Y-50366666D01*
X94653333Y-50128571D01*
X94700952Y-50033333D01*
X94748571Y-49985714D01*
X94843809Y-49938095D01*
X95081904Y-49938095D01*
X95177142Y-49985714D01*
X95224761Y-50033333D01*
X95272380Y-50128571D01*
X95272380Y-50366666D01*
X95224761Y-50461904D01*
X95177142Y-50509523D01*
X94272380Y-49319047D02*
X94272380Y-49223809D01*
X94320000Y-49128571D01*
X94367619Y-49080952D01*
X94462857Y-49033333D01*
X94653333Y-48985714D01*
X94891428Y-48985714D01*
X95081904Y-49033333D01*
X95177142Y-49080952D01*
X95224761Y-49128571D01*
X95272380Y-49223809D01*
X95272380Y-49319047D01*
X95224761Y-49414285D01*
X95177142Y-49461904D01*
X95081904Y-49509523D01*
X94891428Y-49557142D01*
X94653333Y-49557142D01*
X94462857Y-49509523D01*
X94367619Y-49461904D01*
X94320000Y-49414285D01*
X94272380Y-49319047D01*
X94272380Y-48700000D02*
X95272380Y-48366666D01*
X94272380Y-48033333D01*
D13*
X93285714Y-51333333D02*
X93323809Y-51371428D01*
X93361904Y-51485714D01*
X93361904Y-51561904D01*
X93323809Y-51676190D01*
X93247619Y-51752380D01*
X93171428Y-51790476D01*
X93019047Y-51828571D01*
X92904761Y-51828571D01*
X92752380Y-51790476D01*
X92676190Y-51752380D01*
X92600000Y-51676190D01*
X92561904Y-51561904D01*
X92561904Y-51485714D01*
X92600000Y-51371428D01*
X92638095Y-51333333D01*
X92561904Y-51066666D02*
X92561904Y-50571428D01*
X92866666Y-50838095D01*
X92866666Y-50723809D01*
X92904761Y-50647619D01*
X92942857Y-50609523D01*
X93019047Y-50571428D01*
X93209523Y-50571428D01*
X93285714Y-50609523D01*
X93323809Y-50647619D01*
X93361904Y-50723809D01*
X93361904Y-50952380D01*
X93323809Y-51028571D01*
X93285714Y-51066666D01*
%TO.C,C2*%
D12*
X80752380Y-45785714D02*
X80752380Y-46452380D01*
X80514285Y-45404761D02*
X80276190Y-46119047D01*
X80895238Y-46119047D01*
X81180952Y-45452380D02*
X81847619Y-45452380D01*
X81419047Y-46452380D01*
X82419047Y-45452380D02*
X82514285Y-45452380D01*
X82609523Y-45500000D01*
X82657142Y-45547619D01*
X82704761Y-45642857D01*
X82752380Y-45833333D01*
X82752380Y-46071428D01*
X82704761Y-46261904D01*
X82657142Y-46357142D01*
X82609523Y-46404761D01*
X82514285Y-46452380D01*
X82419047Y-46452380D01*
X82323809Y-46404761D01*
X82276190Y-46357142D01*
X82228571Y-46261904D01*
X82180952Y-46071428D01*
X82180952Y-45833333D01*
X82228571Y-45642857D01*
X82276190Y-45547619D01*
X82323809Y-45500000D01*
X82419047Y-45452380D01*
X83609523Y-45785714D02*
X83609523Y-46452380D01*
X83180952Y-45785714D02*
X83180952Y-46309523D01*
X83228571Y-46404761D01*
X83323809Y-46452380D01*
X83466666Y-46452380D01*
X83561904Y-46404761D01*
X83609523Y-46357142D01*
X84419047Y-45928571D02*
X84085714Y-45928571D01*
X84085714Y-46452380D02*
X84085714Y-45452380D01*
X84561904Y-45452380D01*
X85657142Y-45404761D02*
X84800000Y-46690476D01*
X85895238Y-45452380D02*
X86514285Y-45452380D01*
X86180952Y-45833333D01*
X86323809Y-45833333D01*
X86419047Y-45880952D01*
X86466666Y-45928571D01*
X86514285Y-46023809D01*
X86514285Y-46261904D01*
X86466666Y-46357142D01*
X86419047Y-46404761D01*
X86323809Y-46452380D01*
X86038095Y-46452380D01*
X85942857Y-46404761D01*
X85895238Y-46357142D01*
X87419047Y-45452380D02*
X86942857Y-45452380D01*
X86895238Y-45928571D01*
X86942857Y-45880952D01*
X87038095Y-45833333D01*
X87276190Y-45833333D01*
X87371428Y-45880952D01*
X87419047Y-45928571D01*
X87466666Y-46023809D01*
X87466666Y-46261904D01*
X87419047Y-46357142D01*
X87371428Y-46404761D01*
X87276190Y-46452380D01*
X87038095Y-46452380D01*
X86942857Y-46404761D01*
X86895238Y-46357142D01*
X87752380Y-45452380D02*
X88085714Y-46452380D01*
X88419047Y-45452380D01*
X84133333Y-52557142D02*
X84085714Y-52604761D01*
X83942857Y-52652380D01*
X83847619Y-52652380D01*
X83704761Y-52604761D01*
X83609523Y-52509523D01*
X83561904Y-52414285D01*
X83514285Y-52223809D01*
X83514285Y-52080952D01*
X83561904Y-51890476D01*
X83609523Y-51795238D01*
X83704761Y-51700000D01*
X83847619Y-51652380D01*
X83942857Y-51652380D01*
X84085714Y-51700000D01*
X84133333Y-51747619D01*
X84514285Y-51747619D02*
X84561904Y-51700000D01*
X84657142Y-51652380D01*
X84895238Y-51652380D01*
X84990476Y-51700000D01*
X85038095Y-51747619D01*
X85085714Y-51842857D01*
X85085714Y-51938095D01*
X85038095Y-52080952D01*
X84466666Y-52652380D01*
X85085714Y-52652380D01*
%TD*%
M02*
