%TF.GenerationSoftware,KiCad,Pcbnew,5.1.10-88a1d61d58~88~ubuntu20.04.1*%
%TF.CreationDate,2022-01-13T13:40:49+02:00*%
%TF.ProjectId,LED_Wled,4c45445f-576c-4656-942e-6b696361645f,rev?*%
%TF.SameCoordinates,Original*%
%TF.FileFunction,Legend,Top*%
%TF.FilePolarity,Positive*%
%FSLAX46Y46*%
G04 Gerber Fmt 4.6, Leading zero omitted, Abs format (unit mm)*
G04 Created by KiCad (PCBNEW 5.1.10-88a1d61d58~88~ubuntu20.04.1) date 2022-01-13 13:40:49*
%MOMM*%
%LPD*%
G01*
G04 APERTURE LIST*
%ADD10C,0.120000*%
%ADD11C,0.127000*%
%ADD12C,0.200000*%
%ADD13C,0.100000*%
%ADD14C,0.150000*%
%ADD15C,0.015000*%
G04 APERTURE END LIST*
D10*
%TO.C,BOOT1*%
X114010000Y-69235000D02*
X113207530Y-69235000D01*
X112592470Y-69235000D02*
X111790000Y-69235000D01*
X114010000Y-70440000D02*
X114010000Y-69235000D01*
X111790000Y-70440000D02*
X111790000Y-69235000D01*
X114010000Y-70440000D02*
X113463471Y-70440000D01*
X112336529Y-70440000D02*
X111790000Y-70440000D01*
X114010000Y-71200000D02*
X114010000Y-71960000D01*
X114010000Y-71960000D02*
X112900000Y-71960000D01*
%TO.C,U3*%
X110950000Y-65780000D02*
X110950000Y-64280000D01*
X110950000Y-64280000D02*
X110680000Y-64280000D01*
X110680000Y-64280000D02*
X110680000Y-61450000D01*
X104050000Y-65780000D02*
X104050000Y-64280000D01*
X104050000Y-64280000D02*
X104320000Y-64280000D01*
X104320000Y-64280000D02*
X104320000Y-63180000D01*
%TO.C,L1*%
X89300000Y-69000000D02*
X89300000Y-72000000D01*
X89300000Y-72000000D02*
X76700000Y-72000000D01*
X76700000Y-72000000D02*
X76700000Y-69000000D01*
X76700000Y-62400000D02*
X76700000Y-59400000D01*
X76700000Y-59400000D02*
X89300000Y-59400000D01*
X89300000Y-59400000D02*
X89300000Y-62400000D01*
%TO.C,C5*%
X111390000Y-64102064D02*
X111390000Y-62897936D01*
X113210000Y-64102064D02*
X113210000Y-62897936D01*
%TO.C,C4*%
X110403922Y-59190000D02*
X110921078Y-59190000D01*
X110403922Y-60610000D02*
X110921078Y-60610000D01*
%TO.C,C1*%
X91640000Y-61390000D02*
X91640000Y-65240000D01*
X91640000Y-72110000D02*
X91640000Y-68260000D01*
X101295563Y-72110000D02*
X91640000Y-72110000D01*
X101295563Y-61390000D02*
X91640000Y-61390000D01*
X102360000Y-62454437D02*
X102360000Y-65240000D01*
X102360000Y-71045563D02*
X102360000Y-68260000D01*
X102360000Y-71045563D02*
X101295563Y-72110000D01*
X102360000Y-62454437D02*
X101295563Y-61390000D01*
X103850000Y-69510000D02*
X102600000Y-69510000D01*
X103225000Y-70135000D02*
X103225000Y-68885000D01*
%TO.C,U2*%
X104600000Y-55040000D02*
X102650000Y-55040000D01*
X104600000Y-55040000D02*
X106550000Y-55040000D01*
X104600000Y-60160000D02*
X102650000Y-60160000D01*
X104600000Y-60160000D02*
X108050000Y-60160000D01*
D11*
%TO.C,U1*%
X117500000Y-54760000D02*
X129500000Y-54760000D01*
X129500000Y-54760000D02*
X129500000Y-69760000D01*
X129500000Y-69760000D02*
X117500000Y-69760000D01*
X117500000Y-69760000D02*
X117500000Y-54760000D01*
X115500000Y-54500000D02*
X115500000Y-47000000D01*
X115500000Y-47000000D02*
X131500000Y-47000000D01*
X131500000Y-47000000D02*
X131500000Y-54500000D01*
X115500000Y-70500000D02*
X115500000Y-71000000D01*
X115500000Y-71000000D02*
X117500000Y-71000000D01*
X131500000Y-70500000D02*
X131500000Y-71000000D01*
X131500000Y-71000000D02*
X129500000Y-71000000D01*
X114500000Y-54625000D02*
G75*
G03*
X114500000Y-54625000I-250000J0D01*
G01*
D10*
%TO.C,R5*%
X110403922Y-47390000D02*
X110921078Y-47390000D01*
X110403922Y-48810000D02*
X110921078Y-48810000D01*
%TO.C,R4*%
X112890000Y-51158578D02*
X112890000Y-50641422D01*
X114310000Y-51158578D02*
X114310000Y-50641422D01*
%TO.C,R3*%
X110958578Y-58560000D02*
X110441422Y-58560000D01*
X110958578Y-57140000D02*
X110441422Y-57140000D01*
%TO.C,R2*%
X110958578Y-54460000D02*
X110441422Y-54460000D01*
X110958578Y-53040000D02*
X110441422Y-53040000D01*
%TO.C,R1*%
X110441422Y-55090000D02*
X110958578Y-55090000D01*
X110441422Y-56510000D02*
X110958578Y-56510000D01*
%TO.C,Q1*%
X112280000Y-50140000D02*
X111350000Y-50140000D01*
X109120000Y-50140000D02*
X110050000Y-50140000D01*
X109120000Y-50140000D02*
X109120000Y-52300000D01*
X112280000Y-50140000D02*
X112280000Y-51600000D01*
%TO.C,J3*%
X73230000Y-70000000D02*
G75*
G03*
X73230000Y-70000000I-1430000J0D01*
G01*
X73230000Y-66190000D02*
G75*
G03*
X73230000Y-66190000I-1430000J0D01*
G01*
X73230000Y-62380000D02*
G75*
G03*
X73230000Y-62380000I-1430000J0D01*
G01*
X74800000Y-71910000D02*
X74800000Y-60470000D01*
X73501000Y-71910000D02*
X73501000Y-60470000D01*
X70100000Y-71910000D02*
X70100000Y-60470000D01*
X68040000Y-71910000D02*
X68040000Y-60470000D01*
X75460000Y-71910000D02*
X75460000Y-60470000D01*
X68040000Y-71910000D02*
X75460000Y-71910000D01*
X68040000Y-60470000D02*
X75460000Y-60470000D01*
X70890000Y-68915000D02*
X71029000Y-69055000D01*
X72745000Y-70771000D02*
X72885000Y-70911000D01*
X70715000Y-69089000D02*
X70855000Y-69229000D01*
X72571000Y-70946000D02*
X72710000Y-71085000D01*
X68200000Y-71000000D02*
X68200000Y-69000000D01*
X68700000Y-71000000D02*
X68700000Y-69000000D01*
X68200000Y-71000000D02*
X68700000Y-71000000D01*
X68200000Y-69000000D02*
X68700000Y-69000000D01*
X70890000Y-65105000D02*
X71189000Y-65404000D01*
X72586000Y-66800000D02*
X72885000Y-67100000D01*
X70715000Y-65279000D02*
X71014000Y-65579000D01*
X72411000Y-66975000D02*
X72710000Y-67274000D01*
X68200000Y-67190000D02*
X68200000Y-65190000D01*
X68700000Y-67190000D02*
X68700000Y-65190000D01*
X68200000Y-67190000D02*
X68700000Y-67190000D01*
X68200000Y-65190000D02*
X68700000Y-65190000D01*
X70890000Y-61295000D02*
X71189000Y-61594000D01*
X72586000Y-62990000D02*
X72885000Y-63290000D01*
X70715000Y-61469000D02*
X71014000Y-61769000D01*
X72411000Y-63165000D02*
X72710000Y-63464000D01*
X68200000Y-63380000D02*
X68200000Y-61380000D01*
X68700000Y-63380000D02*
X68700000Y-61380000D01*
X68200000Y-63380000D02*
X68700000Y-63380000D01*
X68200000Y-61380000D02*
X68700000Y-61380000D01*
X74860000Y-72150000D02*
X75700000Y-72150000D01*
X75700000Y-72150000D02*
X75700000Y-71550000D01*
%TO.C,J2*%
X73230000Y-53000000D02*
G75*
G03*
X73230000Y-53000000I-1430000J0D01*
G01*
X73230000Y-49190000D02*
G75*
G03*
X73230000Y-49190000I-1430000J0D01*
G01*
X74800000Y-54910000D02*
X74800000Y-47280000D01*
X73501000Y-54910000D02*
X73501000Y-47280000D01*
X70100000Y-54910000D02*
X70100000Y-47280000D01*
X68040000Y-54910000D02*
X68040000Y-47280000D01*
X75460000Y-54910000D02*
X75460000Y-47280000D01*
X68040000Y-54910000D02*
X75460000Y-54910000D01*
X68040000Y-47280000D02*
X75460000Y-47280000D01*
X70890000Y-51915000D02*
X71029000Y-52055000D01*
X72745000Y-53771000D02*
X72885000Y-53911000D01*
X70715000Y-52089000D02*
X70855000Y-52229000D01*
X72571000Y-53946000D02*
X72710000Y-54085000D01*
X68200000Y-54000000D02*
X68200000Y-52000000D01*
X68700000Y-54000000D02*
X68700000Y-52000000D01*
X68200000Y-54000000D02*
X68700000Y-54000000D01*
X68200000Y-52000000D02*
X68700000Y-52000000D01*
X70890000Y-48105000D02*
X71189000Y-48404000D01*
X72586000Y-49800000D02*
X72885000Y-50100000D01*
X70715000Y-48279000D02*
X71014000Y-48579000D01*
X72411000Y-49975000D02*
X72710000Y-50274000D01*
X68200000Y-50190000D02*
X68200000Y-48190000D01*
X68700000Y-50190000D02*
X68700000Y-48190000D01*
X68200000Y-50190000D02*
X68700000Y-50190000D01*
X68200000Y-48190000D02*
X68700000Y-48190000D01*
X74860000Y-55150000D02*
X75700000Y-55150000D01*
X75700000Y-55150000D02*
X75700000Y-54550000D01*
D12*
%TO.C,J1*%
X98400000Y-52200000D02*
G75*
G03*
X98400000Y-52200000I-100000J0D01*
G01*
X107935000Y-47100000D02*
X107935000Y-52900000D01*
X95065000Y-47100000D02*
X107935000Y-47100000D01*
X95065000Y-52900000D02*
X95065000Y-47100000D01*
X107935000Y-52900000D02*
X95065000Y-52900000D01*
D10*
%TO.C,D1*%
X90500000Y-60750000D02*
X90500000Y-54250000D01*
X90500000Y-60750000D02*
X98900000Y-60750000D01*
X90500000Y-54250000D02*
X98900000Y-54250000D01*
%TO.C,C3*%
X92090000Y-51802064D02*
X92090000Y-50597936D01*
X93910000Y-51802064D02*
X93910000Y-50597936D01*
%TO.C,C2*%
X79040000Y-46940000D02*
X79040000Y-50890000D01*
X79040000Y-57460000D02*
X79040000Y-53510000D01*
X88495563Y-57460000D02*
X79040000Y-57460000D01*
X88495563Y-46940000D02*
X79040000Y-46940000D01*
X89560000Y-48004437D02*
X89560000Y-50890000D01*
X89560000Y-56395563D02*
X89560000Y-53510000D01*
X89560000Y-56395563D02*
X88495563Y-57460000D01*
X89560000Y-48004437D02*
X88495563Y-46940000D01*
%TD*%
%TO.C,BOOT1*%
D13*
X111525000Y-68196428D02*
X111632142Y-68232142D01*
X111667857Y-68267857D01*
X111703571Y-68339285D01*
X111703571Y-68446428D01*
X111667857Y-68517857D01*
X111632142Y-68553571D01*
X111560714Y-68589285D01*
X111275000Y-68589285D01*
X111275000Y-67839285D01*
X111525000Y-67839285D01*
X111596428Y-67875000D01*
X111632142Y-67910714D01*
X111667857Y-67982142D01*
X111667857Y-68053571D01*
X111632142Y-68125000D01*
X111596428Y-68160714D01*
X111525000Y-68196428D01*
X111275000Y-68196428D01*
X112167857Y-67839285D02*
X112310714Y-67839285D01*
X112382142Y-67875000D01*
X112453571Y-67946428D01*
X112489285Y-68089285D01*
X112489285Y-68339285D01*
X112453571Y-68482142D01*
X112382142Y-68553571D01*
X112310714Y-68589285D01*
X112167857Y-68589285D01*
X112096428Y-68553571D01*
X112025000Y-68482142D01*
X111989285Y-68339285D01*
X111989285Y-68089285D01*
X112025000Y-67946428D01*
X112096428Y-67875000D01*
X112167857Y-67839285D01*
X112953571Y-67839285D02*
X113096428Y-67839285D01*
X113167857Y-67875000D01*
X113239285Y-67946428D01*
X113275000Y-68089285D01*
X113275000Y-68339285D01*
X113239285Y-68482142D01*
X113167857Y-68553571D01*
X113096428Y-68589285D01*
X112953571Y-68589285D01*
X112882142Y-68553571D01*
X112810714Y-68482142D01*
X112775000Y-68339285D01*
X112775000Y-68089285D01*
X112810714Y-67946428D01*
X112882142Y-67875000D01*
X112953571Y-67839285D01*
X113489285Y-67839285D02*
X113917857Y-67839285D01*
X113703571Y-68589285D02*
X113703571Y-67839285D01*
X114560714Y-68589285D02*
X114132142Y-68589285D01*
X114346428Y-68589285D02*
X114346428Y-67839285D01*
X114275000Y-67946428D01*
X114203571Y-68017857D01*
X114132142Y-68053571D01*
%TO.C,NT1*%
D14*
X74357142Y-56152380D02*
X74357142Y-55152380D01*
X74928571Y-56152380D01*
X74928571Y-55152380D01*
X75261904Y-55152380D02*
X75833333Y-55152380D01*
X75547619Y-56152380D02*
X75547619Y-55152380D01*
X76690476Y-56152380D02*
X76119047Y-56152380D01*
X76404761Y-56152380D02*
X76404761Y-55152380D01*
X76309523Y-55295238D01*
X76214285Y-55390476D01*
X76119047Y-55438095D01*
%TO.C,U3*%
X102752380Y-62861904D02*
X103561904Y-62861904D01*
X103657142Y-62814285D01*
X103704761Y-62766666D01*
X103752380Y-62671428D01*
X103752380Y-62480952D01*
X103704761Y-62385714D01*
X103657142Y-62338095D01*
X103561904Y-62290476D01*
X102752380Y-62290476D01*
X102752380Y-61909523D02*
X102752380Y-61290476D01*
X103133333Y-61623809D01*
X103133333Y-61480952D01*
X103180952Y-61385714D01*
X103228571Y-61338095D01*
X103323809Y-61290476D01*
X103561904Y-61290476D01*
X103657142Y-61338095D01*
X103704761Y-61385714D01*
X103752380Y-61480952D01*
X103752380Y-61766666D01*
X103704761Y-61861904D01*
X103657142Y-61909523D01*
%TO.C,L1*%
X91102380Y-71766666D02*
X91102380Y-72242857D01*
X90102380Y-72242857D01*
X91102380Y-70909523D02*
X91102380Y-71480952D01*
X91102380Y-71195238D02*
X90102380Y-71195238D01*
X90245238Y-71290476D01*
X90340476Y-71385714D01*
X90388095Y-71480952D01*
%TO.C,C5*%
X112033333Y-67057142D02*
X111985714Y-67104761D01*
X111842857Y-67152380D01*
X111747619Y-67152380D01*
X111604761Y-67104761D01*
X111509523Y-67009523D01*
X111461904Y-66914285D01*
X111414285Y-66723809D01*
X111414285Y-66580952D01*
X111461904Y-66390476D01*
X111509523Y-66295238D01*
X111604761Y-66200000D01*
X111747619Y-66152380D01*
X111842857Y-66152380D01*
X111985714Y-66200000D01*
X112033333Y-66247619D01*
X112938095Y-66152380D02*
X112461904Y-66152380D01*
X112414285Y-66628571D01*
X112461904Y-66580952D01*
X112557142Y-66533333D01*
X112795238Y-66533333D01*
X112890476Y-66580952D01*
X112938095Y-66628571D01*
X112985714Y-66723809D01*
X112985714Y-66961904D01*
X112938095Y-67057142D01*
X112890476Y-67104761D01*
X112795238Y-67152380D01*
X112557142Y-67152380D01*
X112461904Y-67104761D01*
X112414285Y-67057142D01*
%TO.C,C4*%
X113433333Y-60257142D02*
X113385714Y-60304761D01*
X113242857Y-60352380D01*
X113147619Y-60352380D01*
X113004761Y-60304761D01*
X112909523Y-60209523D01*
X112861904Y-60114285D01*
X112814285Y-59923809D01*
X112814285Y-59780952D01*
X112861904Y-59590476D01*
X112909523Y-59495238D01*
X113004761Y-59400000D01*
X113147619Y-59352380D01*
X113242857Y-59352380D01*
X113385714Y-59400000D01*
X113433333Y-59447619D01*
X114290476Y-59685714D02*
X114290476Y-60352380D01*
X114052380Y-59304761D02*
X113814285Y-60019047D01*
X114433333Y-60019047D01*
%TO.C,C1*%
X103607142Y-71666666D02*
X103654761Y-71714285D01*
X103702380Y-71857142D01*
X103702380Y-71952380D01*
X103654761Y-72095238D01*
X103559523Y-72190476D01*
X103464285Y-72238095D01*
X103273809Y-72285714D01*
X103130952Y-72285714D01*
X102940476Y-72238095D01*
X102845238Y-72190476D01*
X102750000Y-72095238D01*
X102702380Y-71952380D01*
X102702380Y-71857142D01*
X102750000Y-71714285D01*
X102797619Y-71666666D01*
X103702380Y-70714285D02*
X103702380Y-71285714D01*
X103702380Y-71000000D02*
X102702380Y-71000000D01*
X102845238Y-71095238D01*
X102940476Y-71190476D01*
X102988095Y-71285714D01*
%TO.C,U2*%
X103838095Y-53552380D02*
X103838095Y-54361904D01*
X103885714Y-54457142D01*
X103933333Y-54504761D01*
X104028571Y-54552380D01*
X104219047Y-54552380D01*
X104314285Y-54504761D01*
X104361904Y-54457142D01*
X104409523Y-54361904D01*
X104409523Y-53552380D01*
X104838095Y-53647619D02*
X104885714Y-53600000D01*
X104980952Y-53552380D01*
X105219047Y-53552380D01*
X105314285Y-53600000D01*
X105361904Y-53647619D01*
X105409523Y-53742857D01*
X105409523Y-53838095D01*
X105361904Y-53980952D01*
X104790476Y-54552380D01*
X105409523Y-54552380D01*
%TO.C,U1*%
X122737507Y-61951958D02*
X122737507Y-62762106D01*
X122785162Y-62857418D01*
X122832818Y-62905074D01*
X122928130Y-62952730D01*
X123118753Y-62952730D01*
X123214065Y-62905074D01*
X123261720Y-62857418D01*
X123309376Y-62762106D01*
X123309376Y-61951958D01*
X124310148Y-62952730D02*
X123738279Y-62952730D01*
X124024213Y-62952730D02*
X124024213Y-61951958D01*
X123928902Y-62094925D01*
X123833590Y-62190237D01*
X123738279Y-62237893D01*
%TO.C,R5*%
X110583333Y-47052380D02*
X110250000Y-46576190D01*
X110011904Y-47052380D02*
X110011904Y-46052380D01*
X110392857Y-46052380D01*
X110488095Y-46100000D01*
X110535714Y-46147619D01*
X110583333Y-46242857D01*
X110583333Y-46385714D01*
X110535714Y-46480952D01*
X110488095Y-46528571D01*
X110392857Y-46576190D01*
X110011904Y-46576190D01*
X111488095Y-46052380D02*
X111011904Y-46052380D01*
X110964285Y-46528571D01*
X111011904Y-46480952D01*
X111107142Y-46433333D01*
X111345238Y-46433333D01*
X111440476Y-46480952D01*
X111488095Y-46528571D01*
X111535714Y-46623809D01*
X111535714Y-46861904D01*
X111488095Y-46957142D01*
X111440476Y-47004761D01*
X111345238Y-47052380D01*
X111107142Y-47052380D01*
X111011904Y-47004761D01*
X110964285Y-46957142D01*
%TO.C,R4*%
X114052380Y-47266666D02*
X113576190Y-47600000D01*
X114052380Y-47838095D02*
X113052380Y-47838095D01*
X113052380Y-47457142D01*
X113100000Y-47361904D01*
X113147619Y-47314285D01*
X113242857Y-47266666D01*
X113385714Y-47266666D01*
X113480952Y-47314285D01*
X113528571Y-47361904D01*
X113576190Y-47457142D01*
X113576190Y-47838095D01*
X113385714Y-46409523D02*
X114052380Y-46409523D01*
X113004761Y-46647619D02*
X113719047Y-46885714D01*
X113719047Y-46266666D01*
%TO.C,R3*%
X113533333Y-58302380D02*
X113200000Y-57826190D01*
X112961904Y-58302380D02*
X112961904Y-57302380D01*
X113342857Y-57302380D01*
X113438095Y-57350000D01*
X113485714Y-57397619D01*
X113533333Y-57492857D01*
X113533333Y-57635714D01*
X113485714Y-57730952D01*
X113438095Y-57778571D01*
X113342857Y-57826190D01*
X112961904Y-57826190D01*
X113866666Y-57302380D02*
X114485714Y-57302380D01*
X114152380Y-57683333D01*
X114295238Y-57683333D01*
X114390476Y-57730952D01*
X114438095Y-57778571D01*
X114485714Y-57873809D01*
X114485714Y-58111904D01*
X114438095Y-58207142D01*
X114390476Y-58254761D01*
X114295238Y-58302380D01*
X114009523Y-58302380D01*
X113914285Y-58254761D01*
X113866666Y-58207142D01*
%TO.C,R2*%
X113533333Y-54202380D02*
X113200000Y-53726190D01*
X112961904Y-54202380D02*
X112961904Y-53202380D01*
X113342857Y-53202380D01*
X113438095Y-53250000D01*
X113485714Y-53297619D01*
X113533333Y-53392857D01*
X113533333Y-53535714D01*
X113485714Y-53630952D01*
X113438095Y-53678571D01*
X113342857Y-53726190D01*
X112961904Y-53726190D01*
X113914285Y-53297619D02*
X113961904Y-53250000D01*
X114057142Y-53202380D01*
X114295238Y-53202380D01*
X114390476Y-53250000D01*
X114438095Y-53297619D01*
X114485714Y-53392857D01*
X114485714Y-53488095D01*
X114438095Y-53630952D01*
X113866666Y-54202380D01*
X114485714Y-54202380D01*
%TO.C,R1*%
X113533333Y-56252380D02*
X113200000Y-55776190D01*
X112961904Y-56252380D02*
X112961904Y-55252380D01*
X113342857Y-55252380D01*
X113438095Y-55300000D01*
X113485714Y-55347619D01*
X113533333Y-55442857D01*
X113533333Y-55585714D01*
X113485714Y-55680952D01*
X113438095Y-55728571D01*
X113342857Y-55776190D01*
X112961904Y-55776190D01*
X114485714Y-56252380D02*
X113914285Y-56252380D01*
X114200000Y-56252380D02*
X114200000Y-55252380D01*
X114104761Y-55395238D01*
X114009523Y-55490476D01*
X113914285Y-55538095D01*
%TO.C,Q1*%
X113204761Y-49147619D02*
X113109523Y-49100000D01*
X113014285Y-49004761D01*
X112871428Y-48861904D01*
X112776190Y-48814285D01*
X112680952Y-48814285D01*
X112728571Y-49052380D02*
X112633333Y-49004761D01*
X112538095Y-48909523D01*
X112490476Y-48719047D01*
X112490476Y-48385714D01*
X112538095Y-48195238D01*
X112633333Y-48100000D01*
X112728571Y-48052380D01*
X112919047Y-48052380D01*
X113014285Y-48100000D01*
X113109523Y-48195238D01*
X113157142Y-48385714D01*
X113157142Y-48719047D01*
X113109523Y-48909523D01*
X113014285Y-49004761D01*
X112919047Y-49052380D01*
X112728571Y-49052380D01*
X114109523Y-49052380D02*
X113538095Y-49052380D01*
X113823809Y-49052380D02*
X113823809Y-48052380D01*
X113728571Y-48195238D01*
X113633333Y-48290476D01*
X113538095Y-48338095D01*
%TO.C,J3*%
X66492380Y-66523333D02*
X67206666Y-66523333D01*
X67349523Y-66570952D01*
X67444761Y-66666190D01*
X67492380Y-66809047D01*
X67492380Y-66904285D01*
X66492380Y-66142380D02*
X66492380Y-65523333D01*
X66873333Y-65856666D01*
X66873333Y-65713809D01*
X66920952Y-65618571D01*
X66968571Y-65570952D01*
X67063809Y-65523333D01*
X67301904Y-65523333D01*
X67397142Y-65570952D01*
X67444761Y-65618571D01*
X67492380Y-65713809D01*
X67492380Y-65999523D01*
X67444761Y-66094761D01*
X67397142Y-66142380D01*
%TO.C,J2*%
X66492380Y-51428333D02*
X67206666Y-51428333D01*
X67349523Y-51475952D01*
X67444761Y-51571190D01*
X67492380Y-51714047D01*
X67492380Y-51809285D01*
X66587619Y-50999761D02*
X66540000Y-50952142D01*
X66492380Y-50856904D01*
X66492380Y-50618809D01*
X66540000Y-50523571D01*
X66587619Y-50475952D01*
X66682857Y-50428333D01*
X66778095Y-50428333D01*
X66920952Y-50475952D01*
X67492380Y-51047380D01*
X67492380Y-50428333D01*
%TO.C,J1*%
D15*
X101166666Y-53587380D02*
X101166666Y-54301666D01*
X101119047Y-54444523D01*
X101023809Y-54539761D01*
X100880952Y-54587380D01*
X100785714Y-54587380D01*
X102166666Y-54587380D02*
X101595238Y-54587380D01*
X101880952Y-54587380D02*
X101880952Y-53587380D01*
X101785714Y-53730238D01*
X101690476Y-53825476D01*
X101595238Y-53873095D01*
%TO.C,D1*%
D14*
X94561904Y-53852380D02*
X94561904Y-52852380D01*
X94800000Y-52852380D01*
X94942857Y-52900000D01*
X95038095Y-52995238D01*
X95085714Y-53090476D01*
X95133333Y-53280952D01*
X95133333Y-53423809D01*
X95085714Y-53614285D01*
X95038095Y-53709523D01*
X94942857Y-53804761D01*
X94800000Y-53852380D01*
X94561904Y-53852380D01*
X96085714Y-53852380D02*
X95514285Y-53852380D01*
X95800000Y-53852380D02*
X95800000Y-52852380D01*
X95704761Y-52995238D01*
X95609523Y-53090476D01*
X95514285Y-53138095D01*
%TO.C,C3*%
X93357142Y-48066666D02*
X93404761Y-48114285D01*
X93452380Y-48257142D01*
X93452380Y-48352380D01*
X93404761Y-48495238D01*
X93309523Y-48590476D01*
X93214285Y-48638095D01*
X93023809Y-48685714D01*
X92880952Y-48685714D01*
X92690476Y-48638095D01*
X92595238Y-48590476D01*
X92500000Y-48495238D01*
X92452380Y-48352380D01*
X92452380Y-48257142D01*
X92500000Y-48114285D01*
X92547619Y-48066666D01*
X92452380Y-47733333D02*
X92452380Y-47114285D01*
X92833333Y-47447619D01*
X92833333Y-47304761D01*
X92880952Y-47209523D01*
X92928571Y-47161904D01*
X93023809Y-47114285D01*
X93261904Y-47114285D01*
X93357142Y-47161904D01*
X93404761Y-47209523D01*
X93452380Y-47304761D01*
X93452380Y-47590476D01*
X93404761Y-47685714D01*
X93357142Y-47733333D01*
%TO.C,C2*%
X78457142Y-47766666D02*
X78504761Y-47814285D01*
X78552380Y-47957142D01*
X78552380Y-48052380D01*
X78504761Y-48195238D01*
X78409523Y-48290476D01*
X78314285Y-48338095D01*
X78123809Y-48385714D01*
X77980952Y-48385714D01*
X77790476Y-48338095D01*
X77695238Y-48290476D01*
X77600000Y-48195238D01*
X77552380Y-48052380D01*
X77552380Y-47957142D01*
X77600000Y-47814285D01*
X77647619Y-47766666D01*
X77647619Y-47385714D02*
X77600000Y-47338095D01*
X77552380Y-47242857D01*
X77552380Y-47004761D01*
X77600000Y-46909523D01*
X77647619Y-46861904D01*
X77742857Y-46814285D01*
X77838095Y-46814285D01*
X77980952Y-46861904D01*
X78552380Y-47433333D01*
X78552380Y-46814285D01*
%TD*%
M02*
