%TF.GenerationSoftware,KiCad,Pcbnew,5.1.10-88a1d61d58~88~ubuntu20.04.1*%
%TF.CreationDate,2022-01-13T13:40:49+02:00*%
%TF.ProjectId,LED_Wled,4c45445f-576c-4656-942e-6b696361645f,rev?*%
%TF.SameCoordinates,Original*%
%TF.FileFunction,Soldermask,Top*%
%TF.FilePolarity,Negative*%
%FSLAX46Y46*%
G04 Gerber Fmt 4.6, Leading zero omitted, Abs format (unit mm)*
G04 Created by KiCad (PCBNEW 5.1.10-88a1d61d58~88~ubuntu20.04.1) date 2022-01-13 13:40:49*
%MOMM*%
%LPD*%
G01*
G04 APERTURE LIST*
%ADD10O,1.000000X1.000000*%
%ADD11R,1.000000X1.000000*%
%ADD12R,5.800000X6.400000*%
%ADD13R,1.200000X2.200000*%
%ADD14R,2.900000X5.400000*%
%ADD15R,2.000000X1.200000*%
%ADD16R,1.100000X1.700000*%
%ADD17R,0.800000X0.900000*%
%ADD18C,1.400000*%
%ADD19R,1.400000X1.400000*%
%ADD20C,2.500000*%
%ADD21C,2.100000*%
%ADD22C,1.750000*%
%ADD23R,2.500000X3.300000*%
G04 APERTURE END LIST*
D10*
%TO.C,BOOT1*%
X112900000Y-69930000D03*
D11*
X112900000Y-71200000D03*
%TD*%
D12*
%TO.C,U3*%
X107500000Y-68850000D03*
D13*
X105220000Y-62550000D03*
X109780000Y-62550000D03*
%TD*%
D14*
%TO.C,L1*%
X87950000Y-65700000D03*
X78050000Y-65700000D03*
%TD*%
%TO.C,C5*%
G36*
G01*
X112925000Y-62725000D02*
X111675000Y-62725000D01*
G75*
G02*
X111425000Y-62475000I0J250000D01*
G01*
X111425000Y-61725000D01*
G75*
G02*
X111675000Y-61475000I250000J0D01*
G01*
X112925000Y-61475000D01*
G75*
G02*
X113175000Y-61725000I0J-250000D01*
G01*
X113175000Y-62475000D01*
G75*
G02*
X112925000Y-62725000I-250000J0D01*
G01*
G37*
G36*
G01*
X112925000Y-65525000D02*
X111675000Y-65525000D01*
G75*
G02*
X111425000Y-65275000I0J250000D01*
G01*
X111425000Y-64525000D01*
G75*
G02*
X111675000Y-64275000I250000J0D01*
G01*
X112925000Y-64275000D01*
G75*
G02*
X113175000Y-64525000I0J-250000D01*
G01*
X113175000Y-65275000D01*
G75*
G02*
X112925000Y-65525000I-250000J0D01*
G01*
G37*
%TD*%
%TO.C,C4*%
G36*
G01*
X111112500Y-60356250D02*
X111112500Y-59443750D01*
G75*
G02*
X111356250Y-59200000I243750J0D01*
G01*
X111843750Y-59200000D01*
G75*
G02*
X112087500Y-59443750I0J-243750D01*
G01*
X112087500Y-60356250D01*
G75*
G02*
X111843750Y-60600000I-243750J0D01*
G01*
X111356250Y-60600000D01*
G75*
G02*
X111112500Y-60356250I0J243750D01*
G01*
G37*
G36*
G01*
X109237500Y-60356250D02*
X109237500Y-59443750D01*
G75*
G02*
X109481250Y-59200000I243750J0D01*
G01*
X109968750Y-59200000D01*
G75*
G02*
X110212500Y-59443750I0J-243750D01*
G01*
X110212500Y-60356250D01*
G75*
G02*
X109968750Y-60600000I-243750J0D01*
G01*
X109481250Y-60600000D01*
G75*
G02*
X109237500Y-60356250I0J243750D01*
G01*
G37*
%TD*%
%TO.C,C1*%
G36*
G01*
X95000000Y-65750000D02*
X95000000Y-67750000D01*
G75*
G02*
X94750000Y-68000000I-250000J0D01*
G01*
X90850000Y-68000000D01*
G75*
G02*
X90600000Y-67750000I0J250000D01*
G01*
X90600000Y-65750000D01*
G75*
G02*
X90850000Y-65500000I250000J0D01*
G01*
X94750000Y-65500000D01*
G75*
G02*
X95000000Y-65750000I0J-250000D01*
G01*
G37*
G36*
G01*
X103400000Y-65750000D02*
X103400000Y-67750000D01*
G75*
G02*
X103150000Y-68000000I-250000J0D01*
G01*
X99250000Y-68000000D01*
G75*
G02*
X99000000Y-67750000I0J250000D01*
G01*
X99000000Y-65750000D01*
G75*
G02*
X99250000Y-65500000I250000J0D01*
G01*
X103150000Y-65500000D01*
G75*
G02*
X103400000Y-65750000I0J-250000D01*
G01*
G37*
%TD*%
%TO.C,U2*%
G36*
G01*
X102800000Y-59355000D02*
X102800000Y-59655000D01*
G75*
G02*
X102650000Y-59805000I-150000J0D01*
G01*
X101300000Y-59805000D01*
G75*
G02*
X101150000Y-59655000I0J150000D01*
G01*
X101150000Y-59355000D01*
G75*
G02*
X101300000Y-59205000I150000J0D01*
G01*
X102650000Y-59205000D01*
G75*
G02*
X102800000Y-59355000I0J-150000D01*
G01*
G37*
G36*
G01*
X102800000Y-58085000D02*
X102800000Y-58385000D01*
G75*
G02*
X102650000Y-58535000I-150000J0D01*
G01*
X101300000Y-58535000D01*
G75*
G02*
X101150000Y-58385000I0J150000D01*
G01*
X101150000Y-58085000D01*
G75*
G02*
X101300000Y-57935000I150000J0D01*
G01*
X102650000Y-57935000D01*
G75*
G02*
X102800000Y-58085000I0J-150000D01*
G01*
G37*
G36*
G01*
X102800000Y-56815000D02*
X102800000Y-57115000D01*
G75*
G02*
X102650000Y-57265000I-150000J0D01*
G01*
X101300000Y-57265000D01*
G75*
G02*
X101150000Y-57115000I0J150000D01*
G01*
X101150000Y-56815000D01*
G75*
G02*
X101300000Y-56665000I150000J0D01*
G01*
X102650000Y-56665000D01*
G75*
G02*
X102800000Y-56815000I0J-150000D01*
G01*
G37*
G36*
G01*
X102800000Y-55545000D02*
X102800000Y-55845000D01*
G75*
G02*
X102650000Y-55995000I-150000J0D01*
G01*
X101300000Y-55995000D01*
G75*
G02*
X101150000Y-55845000I0J150000D01*
G01*
X101150000Y-55545000D01*
G75*
G02*
X101300000Y-55395000I150000J0D01*
G01*
X102650000Y-55395000D01*
G75*
G02*
X102800000Y-55545000I0J-150000D01*
G01*
G37*
G36*
G01*
X108050000Y-55545000D02*
X108050000Y-55845000D01*
G75*
G02*
X107900000Y-55995000I-150000J0D01*
G01*
X106550000Y-55995000D01*
G75*
G02*
X106400000Y-55845000I0J150000D01*
G01*
X106400000Y-55545000D01*
G75*
G02*
X106550000Y-55395000I150000J0D01*
G01*
X107900000Y-55395000D01*
G75*
G02*
X108050000Y-55545000I0J-150000D01*
G01*
G37*
G36*
G01*
X108050000Y-56815000D02*
X108050000Y-57115000D01*
G75*
G02*
X107900000Y-57265000I-150000J0D01*
G01*
X106550000Y-57265000D01*
G75*
G02*
X106400000Y-57115000I0J150000D01*
G01*
X106400000Y-56815000D01*
G75*
G02*
X106550000Y-56665000I150000J0D01*
G01*
X107900000Y-56665000D01*
G75*
G02*
X108050000Y-56815000I0J-150000D01*
G01*
G37*
G36*
G01*
X108050000Y-58085000D02*
X108050000Y-58385000D01*
G75*
G02*
X107900000Y-58535000I-150000J0D01*
G01*
X106550000Y-58535000D01*
G75*
G02*
X106400000Y-58385000I0J150000D01*
G01*
X106400000Y-58085000D01*
G75*
G02*
X106550000Y-57935000I150000J0D01*
G01*
X107900000Y-57935000D01*
G75*
G02*
X108050000Y-58085000I0J-150000D01*
G01*
G37*
G36*
G01*
X108050000Y-59355000D02*
X108050000Y-59655000D01*
G75*
G02*
X107900000Y-59805000I-150000J0D01*
G01*
X106550000Y-59805000D01*
G75*
G02*
X106400000Y-59655000I0J150000D01*
G01*
X106400000Y-59355000D01*
G75*
G02*
X106550000Y-59205000I150000J0D01*
G01*
X107900000Y-59205000D01*
G75*
G02*
X108050000Y-59355000I0J-150000D01*
G01*
G37*
%TD*%
D15*
%TO.C,U1*%
X116000000Y-55500000D03*
X116000000Y-57500000D03*
X116000000Y-59500000D03*
X116000000Y-61500000D03*
X116000000Y-63500000D03*
X116000000Y-65500000D03*
X116000000Y-67500000D03*
X116000000Y-69500000D03*
X131000000Y-69500000D03*
X131000000Y-67500000D03*
X131000000Y-65500000D03*
X131000000Y-63500000D03*
X131000000Y-61500000D03*
X131000000Y-59500000D03*
X131000000Y-57500000D03*
X131000000Y-55500000D03*
D16*
X118500000Y-71000000D03*
X120500000Y-71000000D03*
X122500000Y-71000000D03*
X124500000Y-71000000D03*
X126500000Y-71000000D03*
X128500000Y-71000000D03*
%TD*%
%TO.C,R5*%
G36*
G01*
X111112500Y-48556250D02*
X111112500Y-47643750D01*
G75*
G02*
X111356250Y-47400000I243750J0D01*
G01*
X111843750Y-47400000D01*
G75*
G02*
X112087500Y-47643750I0J-243750D01*
G01*
X112087500Y-48556250D01*
G75*
G02*
X111843750Y-48800000I-243750J0D01*
G01*
X111356250Y-48800000D01*
G75*
G02*
X111112500Y-48556250I0J243750D01*
G01*
G37*
G36*
G01*
X109237500Y-48556250D02*
X109237500Y-47643750D01*
G75*
G02*
X109481250Y-47400000I243750J0D01*
G01*
X109968750Y-47400000D01*
G75*
G02*
X110212500Y-47643750I0J-243750D01*
G01*
X110212500Y-48556250D01*
G75*
G02*
X109968750Y-48800000I-243750J0D01*
G01*
X109481250Y-48800000D01*
G75*
G02*
X109237500Y-48556250I0J243750D01*
G01*
G37*
%TD*%
%TO.C,R4*%
G36*
G01*
X114056250Y-50450000D02*
X113143750Y-50450000D01*
G75*
G02*
X112900000Y-50206250I0J243750D01*
G01*
X112900000Y-49718750D01*
G75*
G02*
X113143750Y-49475000I243750J0D01*
G01*
X114056250Y-49475000D01*
G75*
G02*
X114300000Y-49718750I0J-243750D01*
G01*
X114300000Y-50206250D01*
G75*
G02*
X114056250Y-50450000I-243750J0D01*
G01*
G37*
G36*
G01*
X114056250Y-52325000D02*
X113143750Y-52325000D01*
G75*
G02*
X112900000Y-52081250I0J243750D01*
G01*
X112900000Y-51593750D01*
G75*
G02*
X113143750Y-51350000I243750J0D01*
G01*
X114056250Y-51350000D01*
G75*
G02*
X114300000Y-51593750I0J-243750D01*
G01*
X114300000Y-52081250D01*
G75*
G02*
X114056250Y-52325000I-243750J0D01*
G01*
G37*
%TD*%
%TO.C,R3*%
G36*
G01*
X110250000Y-57393750D02*
X110250000Y-58306250D01*
G75*
G02*
X110006250Y-58550000I-243750J0D01*
G01*
X109518750Y-58550000D01*
G75*
G02*
X109275000Y-58306250I0J243750D01*
G01*
X109275000Y-57393750D01*
G75*
G02*
X109518750Y-57150000I243750J0D01*
G01*
X110006250Y-57150000D01*
G75*
G02*
X110250000Y-57393750I0J-243750D01*
G01*
G37*
G36*
G01*
X112125000Y-57393750D02*
X112125000Y-58306250D01*
G75*
G02*
X111881250Y-58550000I-243750J0D01*
G01*
X111393750Y-58550000D01*
G75*
G02*
X111150000Y-58306250I0J243750D01*
G01*
X111150000Y-57393750D01*
G75*
G02*
X111393750Y-57150000I243750J0D01*
G01*
X111881250Y-57150000D01*
G75*
G02*
X112125000Y-57393750I0J-243750D01*
G01*
G37*
%TD*%
%TO.C,R2*%
G36*
G01*
X110250000Y-53293750D02*
X110250000Y-54206250D01*
G75*
G02*
X110006250Y-54450000I-243750J0D01*
G01*
X109518750Y-54450000D01*
G75*
G02*
X109275000Y-54206250I0J243750D01*
G01*
X109275000Y-53293750D01*
G75*
G02*
X109518750Y-53050000I243750J0D01*
G01*
X110006250Y-53050000D01*
G75*
G02*
X110250000Y-53293750I0J-243750D01*
G01*
G37*
G36*
G01*
X112125000Y-53293750D02*
X112125000Y-54206250D01*
G75*
G02*
X111881250Y-54450000I-243750J0D01*
G01*
X111393750Y-54450000D01*
G75*
G02*
X111150000Y-54206250I0J243750D01*
G01*
X111150000Y-53293750D01*
G75*
G02*
X111393750Y-53050000I243750J0D01*
G01*
X111881250Y-53050000D01*
G75*
G02*
X112125000Y-53293750I0J-243750D01*
G01*
G37*
%TD*%
%TO.C,R1*%
G36*
G01*
X111150000Y-56256250D02*
X111150000Y-55343750D01*
G75*
G02*
X111393750Y-55100000I243750J0D01*
G01*
X111881250Y-55100000D01*
G75*
G02*
X112125000Y-55343750I0J-243750D01*
G01*
X112125000Y-56256250D01*
G75*
G02*
X111881250Y-56500000I-243750J0D01*
G01*
X111393750Y-56500000D01*
G75*
G02*
X111150000Y-56256250I0J243750D01*
G01*
G37*
G36*
G01*
X109275000Y-56256250D02*
X109275000Y-55343750D01*
G75*
G02*
X109518750Y-55100000I243750J0D01*
G01*
X110006250Y-55100000D01*
G75*
G02*
X110250000Y-55343750I0J-243750D01*
G01*
X110250000Y-56256250D01*
G75*
G02*
X110006250Y-56500000I-243750J0D01*
G01*
X109518750Y-56500000D01*
G75*
G02*
X109275000Y-56256250I0J243750D01*
G01*
G37*
%TD*%
D17*
%TO.C,Q1*%
X110700000Y-49900000D03*
X111650000Y-51900000D03*
X109750000Y-51900000D03*
%TD*%
D18*
%TO.C,J3*%
X71800000Y-62380000D03*
X71800000Y-66190000D03*
D19*
X71800000Y-70000000D03*
%TD*%
D18*
%TO.C,J2*%
X71800000Y-49190000D03*
D19*
X71800000Y-53000000D03*
%TD*%
D20*
%TO.C,J1*%
X98265000Y-48730000D03*
D21*
X104735000Y-51270000D03*
D22*
X103405000Y-48730000D03*
X102135000Y-51270000D03*
X100865000Y-48730000D03*
X99595000Y-51270000D03*
%TD*%
D23*
%TO.C,D1*%
X98700000Y-57500000D03*
X91900000Y-57500000D03*
%TD*%
%TO.C,C3*%
G36*
G01*
X93625000Y-50425000D02*
X92375000Y-50425000D01*
G75*
G02*
X92125000Y-50175000I0J250000D01*
G01*
X92125000Y-49425000D01*
G75*
G02*
X92375000Y-49175000I250000J0D01*
G01*
X93625000Y-49175000D01*
G75*
G02*
X93875000Y-49425000I0J-250000D01*
G01*
X93875000Y-50175000D01*
G75*
G02*
X93625000Y-50425000I-250000J0D01*
G01*
G37*
G36*
G01*
X93625000Y-53225000D02*
X92375000Y-53225000D01*
G75*
G02*
X92125000Y-52975000I0J250000D01*
G01*
X92125000Y-52225000D01*
G75*
G02*
X92375000Y-51975000I250000J0D01*
G01*
X93625000Y-51975000D01*
G75*
G02*
X93875000Y-52225000I0J-250000D01*
G01*
X93875000Y-52975000D01*
G75*
G02*
X93625000Y-53225000I-250000J0D01*
G01*
G37*
%TD*%
%TO.C,C2*%
G36*
G01*
X82200000Y-51400000D02*
X82200000Y-53000000D01*
G75*
G02*
X81950000Y-53250000I-250000J0D01*
G01*
X77850000Y-53250000D01*
G75*
G02*
X77600000Y-53000000I0J250000D01*
G01*
X77600000Y-51400000D01*
G75*
G02*
X77850000Y-51150000I250000J0D01*
G01*
X81950000Y-51150000D01*
G75*
G02*
X82200000Y-51400000I0J-250000D01*
G01*
G37*
G36*
G01*
X91000000Y-51400000D02*
X91000000Y-53000000D01*
G75*
G02*
X90750000Y-53250000I-250000J0D01*
G01*
X86650000Y-53250000D01*
G75*
G02*
X86400000Y-53000000I0J250000D01*
G01*
X86400000Y-51400000D01*
G75*
G02*
X86650000Y-51150000I250000J0D01*
G01*
X90750000Y-51150000D01*
G75*
G02*
X91000000Y-51400000I0J-250000D01*
G01*
G37*
%TD*%
M02*
