%TF.GenerationSoftware,KiCad,Pcbnew,5.1.12-84ad8e8a86~92~ubuntu20.04.1*%
%TF.CreationDate,2022-01-19T00:30:43+02:00*%
%TF.ProjectId,LED_Wled,4c45445f-576c-4656-942e-6b696361645f,rev?*%
%TF.SameCoordinates,Original*%
%TF.FileFunction,Copper,L2,Bot*%
%TF.FilePolarity,Positive*%
%FSLAX46Y46*%
G04 Gerber Fmt 4.6, Leading zero omitted, Abs format (unit mm)*
G04 Created by KiCad (PCBNEW 5.1.12-84ad8e8a86~92~ubuntu20.04.1) date 2022-01-19 00:30:43*
%MOMM*%
%LPD*%
G01*
G04 APERTURE LIST*
%TA.AperFunction,ComponentPad*%
%ADD10C,1.600000*%
%TD*%
%TA.AperFunction,ComponentPad*%
%ADD11C,2.100000*%
%TD*%
%TA.AperFunction,ComponentPad*%
%ADD12R,2.100000X2.100000*%
%TD*%
%TA.AperFunction,ComponentPad*%
%ADD13O,1.000000X1.000000*%
%TD*%
%TA.AperFunction,ComponentPad*%
%ADD14R,1.000000X1.000000*%
%TD*%
%TA.AperFunction,ComponentPad*%
%ADD15C,1.750000*%
%TD*%
%TA.AperFunction,ViaPad*%
%ADD16C,0.800000*%
%TD*%
%TA.AperFunction,Conductor*%
%ADD17C,0.350000*%
%TD*%
%TA.AperFunction,Conductor*%
%ADD18C,0.250000*%
%TD*%
%TA.AperFunction,Conductor*%
%ADD19C,0.254000*%
%TD*%
%TA.AperFunction,Conductor*%
%ADD20C,0.100000*%
%TD*%
G04 APERTURE END LIST*
D10*
%TO.P,C1,2*%
%TO.N,GND*%
X95750000Y-66500000D03*
%TO.P,C1,1*%
%TO.N,+5V*%
X100750000Y-66500000D03*
%TD*%
D11*
%TO.P,J3,3*%
%TO.N,GNDPWR*%
X68269977Y-65000076D03*
X73349987Y-65000076D03*
%TO.P,J3,1*%
%TO.N,LED_OUT_HV*%
X73349987Y-70080086D03*
%TO.P,J3,2*%
%TO.N,VIN*%
X73349987Y-67540081D03*
X68269977Y-67540081D03*
D12*
%TO.P,J3,1*%
%TO.N,LED_OUT_HV*%
X68269977Y-70080086D03*
%TD*%
D11*
%TO.P,J2,1*%
%TO.N,GNDPWR*%
X73350000Y-54310135D03*
%TO.P,J2,2*%
%TO.N,VIN*%
X73350000Y-51770130D03*
X68269990Y-51770130D03*
D12*
%TO.P,J2,1*%
%TO.N,GNDPWR*%
X68269990Y-54310135D03*
%TD*%
D13*
%TO.P,BOOT1,2*%
%TO.N,Net-(BOOT1-Pad2)*%
X112900000Y-69930000D03*
D14*
%TO.P,BOOT1,1*%
%TO.N,GND*%
X112900000Y-71200000D03*
%TD*%
D15*
%TO.P,J1,4*%
%TO.N,GND*%
X103905000Y-48730000D03*
%TO.P,J1,3*%
%TO.N,RXD*%
X102635000Y-51270000D03*
%TO.P,J1,2*%
%TO.N,TXD*%
X101365000Y-48730000D03*
%TO.P,J1,1*%
%TO.N,+3V3*%
X100095000Y-51270000D03*
%TD*%
D16*
%TO.N,GND*%
X91500000Y-65500000D03*
X94500000Y-65500000D03*
X94500000Y-67500000D03*
X91500000Y-67500000D03*
X127500000Y-67500000D03*
X127500000Y-65500000D03*
X127500000Y-63500000D03*
X127500000Y-61500000D03*
X127500000Y-59500000D03*
X119500000Y-67500000D03*
X119500000Y-65500000D03*
X119500000Y-63500000D03*
X119500000Y-61500000D03*
X119500000Y-59500000D03*
X123500000Y-59500000D03*
X123500000Y-61500000D03*
X123500000Y-63500000D03*
X123500000Y-65500000D03*
X123500000Y-67500000D03*
X114000000Y-67500000D03*
X114000000Y-65500000D03*
X114000000Y-63500000D03*
X114000000Y-61500000D03*
X113000000Y-59500000D03*
X109750000Y-57750000D03*
X105250000Y-64750000D03*
X107500000Y-64750000D03*
X109750000Y-64750000D03*
X107500000Y-63500000D03*
X103500000Y-57000000D03*
X103500000Y-55750000D03*
X103500000Y-58250000D03*
X103500000Y-59500000D03*
X94250000Y-56250000D03*
X96500000Y-56250000D03*
X94250000Y-58750000D03*
X96500000Y-58750000D03*
X90000000Y-47000000D03*
X92000000Y-47000000D03*
X83000000Y-52000000D03*
X83000000Y-53000000D03*
X83000000Y-54000000D03*
X83000000Y-55000000D03*
X83000000Y-56000000D03*
X84000000Y-56000000D03*
X85000000Y-56000000D03*
X85000000Y-55000000D03*
X85000000Y-54000000D03*
X85000000Y-53000000D03*
X85000000Y-52000000D03*
X84000000Y-52000000D03*
X84000000Y-53000000D03*
X84000000Y-54000000D03*
X84000000Y-55000000D03*
X79900000Y-54100000D03*
X79900000Y-55100000D03*
X79900000Y-56100000D03*
X79900000Y-57100000D03*
X81500000Y-63500000D03*
X83000000Y-62000000D03*
X84500000Y-60500000D03*
X84500000Y-58325000D03*
X81500000Y-65500000D03*
X81500000Y-67500000D03*
X83000000Y-69500000D03*
X84500000Y-70500000D03*
X97000000Y-65500000D03*
X91500000Y-63500000D03*
X94500000Y-63500000D03*
X97000000Y-63500000D03*
%TO.N,+3V3*%
X109762500Y-55800000D03*
%TO.N,RXD*%
X128500000Y-57500000D03*
%TO.N,TXD*%
X126000000Y-56500000D03*
%TO.N,Net-(R3-Pad1)*%
X113000000Y-57500000D03*
X129000000Y-67500000D03*
%TO.N,LED_OUT_HV*%
X113250000Y-48000000D03*
%TO.N,LED_OUT_LV*%
X124701260Y-56875032D03*
X113249958Y-54746943D03*
%TO.N,Net-(D1-Pad1)*%
X91900000Y-57500000D03*
X81650002Y-57849998D03*
%TD*%
D17*
%TO.N,+3V3*%
X100882584Y-53795020D02*
X100095000Y-53007436D01*
X100095000Y-53007436D02*
X100095000Y-51270000D01*
X108795022Y-53795022D02*
X100882584Y-53795020D01*
X109762500Y-54762500D02*
X108795022Y-53795022D01*
X109762500Y-55800000D02*
X109762500Y-54762500D01*
%TO.N,RXD*%
X114574979Y-54883158D02*
X115241832Y-55550011D01*
X114574979Y-53574979D02*
X114574979Y-54883158D01*
X102635000Y-51270000D02*
X104060001Y-52695001D01*
X126550011Y-55550011D02*
X128500000Y-57500000D01*
X115241832Y-55550011D02*
X126550011Y-55550011D01*
X113695001Y-52695001D02*
X114574979Y-53574979D01*
X104060001Y-52695001D02*
X113695001Y-52695001D01*
%TO.N,TXD*%
X114024968Y-55110980D02*
X115014010Y-56100022D01*
X101365000Y-52350002D02*
X102260010Y-53245012D01*
X115014010Y-56100022D02*
X125600022Y-56100022D01*
X114024968Y-53802800D02*
X114024968Y-55110980D01*
X102260010Y-53245012D02*
X113467180Y-53245012D01*
X101365000Y-48730000D02*
X101365000Y-52350002D01*
X125600022Y-56100022D02*
X126000000Y-56500000D01*
X113467180Y-53245012D02*
X114024968Y-53802800D01*
%TO.N,Net-(R3-Pad1)*%
X113000000Y-57500000D02*
X113399999Y-57899999D01*
X129000000Y-59500000D02*
X129000000Y-67500000D01*
X113399999Y-57899999D02*
X127399999Y-57899999D01*
X127399999Y-57899999D02*
X129000000Y-59500000D01*
%TO.N,LED_OUT_HV*%
X115124990Y-54655336D02*
X115124990Y-53124990D01*
X115344664Y-54875010D02*
X115124990Y-54655336D01*
X117000000Y-55000000D02*
X116875010Y-54875010D01*
X127500000Y-55000000D02*
X117000000Y-55000000D01*
X116875010Y-54875010D02*
X115344664Y-54875010D01*
X132000000Y-59500000D02*
X127500000Y-55000000D01*
X132000000Y-71750000D02*
X132000000Y-59500000D01*
X131674999Y-72075001D02*
X132000000Y-71750000D01*
X75344902Y-72075001D02*
X131674999Y-72075001D01*
X113250000Y-51250000D02*
X113250000Y-48000000D01*
X73349987Y-70080086D02*
X75344902Y-72075001D01*
X115124990Y-53124990D02*
X113250000Y-51250000D01*
X68269977Y-70080086D02*
X73349987Y-70080086D01*
D18*
%TO.N,LED_OUT_LV*%
X114812362Y-56875032D02*
X113249958Y-55312628D01*
X124701260Y-56875032D02*
X114812362Y-56875032D01*
X113249958Y-55312628D02*
X113249958Y-54746943D01*
D17*
%TO.N,Net-(D1-Pad1)*%
X91900000Y-57500000D02*
X82000000Y-57500000D01*
X82000000Y-57500000D02*
X81650002Y-57849998D01*
%TD*%
D19*
%TO.N,GND*%
X115373000Y-52227487D02*
X114060000Y-50914488D01*
X114060000Y-48650700D01*
X114167205Y-48490256D01*
X114245226Y-48301898D01*
X114285000Y-48101939D01*
X114285000Y-47898061D01*
X114245226Y-47698102D01*
X114167205Y-47509744D01*
X114053937Y-47340226D01*
X113909774Y-47196063D01*
X113740256Y-47082795D01*
X113551898Y-47004774D01*
X113351939Y-46965000D01*
X113148061Y-46965000D01*
X112948102Y-47004774D01*
X112759744Y-47082795D01*
X112590226Y-47196063D01*
X112446063Y-47340226D01*
X112332795Y-47509744D01*
X112254774Y-47698102D01*
X112215000Y-47898061D01*
X112215000Y-48101939D01*
X112254774Y-48301898D01*
X112332795Y-48490256D01*
X112440001Y-48650701D01*
X112440000Y-51210212D01*
X112436081Y-51250000D01*
X112440000Y-51289788D01*
X112440000Y-51289790D01*
X112451720Y-51408787D01*
X112498037Y-51561472D01*
X112498038Y-51561473D01*
X112573251Y-51702189D01*
X112580032Y-51710451D01*
X112674472Y-51825528D01*
X112705387Y-51850899D01*
X112739489Y-51885001D01*
X106804089Y-51885001D01*
X106855246Y-51761496D01*
X106920000Y-51435958D01*
X106920000Y-51104042D01*
X106855246Y-50778504D01*
X106728228Y-50471853D01*
X106543825Y-50195875D01*
X106309125Y-49961175D01*
X106033147Y-49776772D01*
X105726496Y-49649754D01*
X105400958Y-49585000D01*
X105069042Y-49585000D01*
X104743504Y-49649754D01*
X104436853Y-49776772D01*
X104160875Y-49961175D01*
X103926175Y-50195875D01*
X103829764Y-50340164D01*
X103807893Y-50307431D01*
X103597569Y-50097107D01*
X103350253Y-49931856D01*
X103075451Y-49818029D01*
X102783722Y-49760000D01*
X102486278Y-49760000D01*
X102466535Y-49763927D01*
X102537893Y-49692569D01*
X102703144Y-49445253D01*
X102816971Y-49170451D01*
X102875000Y-48878722D01*
X102875000Y-48581278D01*
X102816971Y-48289549D01*
X102703144Y-48014747D01*
X102537893Y-47767431D01*
X102327569Y-47557107D01*
X102080253Y-47391856D01*
X101805451Y-47278029D01*
X101513722Y-47220000D01*
X101216278Y-47220000D01*
X100924549Y-47278029D01*
X100649747Y-47391856D01*
X100402431Y-47557107D01*
X100310077Y-47649461D01*
X100229175Y-47528382D01*
X99966618Y-47265825D01*
X99657882Y-47059534D01*
X99314834Y-46917439D01*
X98950656Y-46845000D01*
X98579344Y-46845000D01*
X98215166Y-46917439D01*
X97872118Y-47059534D01*
X97563382Y-47265825D01*
X97300825Y-47528382D01*
X97094534Y-47837118D01*
X96952439Y-48180166D01*
X96880000Y-48544344D01*
X96880000Y-48915656D01*
X96952439Y-49279834D01*
X97094534Y-49622882D01*
X97300825Y-49931618D01*
X97563382Y-50194175D01*
X97872118Y-50400466D01*
X98215166Y-50542561D01*
X98579344Y-50615000D01*
X98731898Y-50615000D01*
X98643029Y-50829549D01*
X98585000Y-51121278D01*
X98585000Y-51418722D01*
X98643029Y-51710451D01*
X98756856Y-51985253D01*
X98922107Y-52232569D01*
X99132431Y-52442893D01*
X99285000Y-52544836D01*
X99285000Y-52967647D01*
X99281081Y-53007436D01*
X99285000Y-53047224D01*
X99285000Y-53047226D01*
X99296720Y-53166223D01*
X99343037Y-53318908D01*
X99343038Y-53318909D01*
X99418251Y-53459625D01*
X99444269Y-53491328D01*
X99519472Y-53582964D01*
X99550388Y-53608336D01*
X100281689Y-54339637D01*
X100307056Y-54370547D01*
X100337964Y-54395912D01*
X100430394Y-54471769D01*
X100571110Y-54546982D01*
X100723796Y-54593299D01*
X100882584Y-54608939D01*
X100922382Y-54605019D01*
X108459510Y-54605022D01*
X108952501Y-55098013D01*
X108952501Y-55149299D01*
X108845295Y-55309744D01*
X108767274Y-55498102D01*
X108727500Y-55698061D01*
X108727500Y-55901939D01*
X108767274Y-56101898D01*
X108845295Y-56290256D01*
X108958563Y-56459774D01*
X109102726Y-56603937D01*
X109272244Y-56717205D01*
X109460602Y-56795226D01*
X109660561Y-56835000D01*
X109864439Y-56835000D01*
X110064398Y-56795226D01*
X110252756Y-56717205D01*
X110422274Y-56603937D01*
X110566437Y-56459774D01*
X110679705Y-56290256D01*
X110757726Y-56101898D01*
X110797500Y-55901939D01*
X110797500Y-55698061D01*
X110757726Y-55498102D01*
X110679705Y-55309744D01*
X110572500Y-55149300D01*
X110572500Y-54802291D01*
X110576419Y-54762500D01*
X110560780Y-54603712D01*
X110514463Y-54451026D01*
X110439249Y-54310311D01*
X110393847Y-54254988D01*
X110338028Y-54186972D01*
X110307118Y-54161605D01*
X110200525Y-54055012D01*
X112478178Y-54055012D01*
X112446021Y-54087169D01*
X112332753Y-54256687D01*
X112254732Y-54445045D01*
X112214958Y-54645004D01*
X112214958Y-54848882D01*
X112254732Y-55048841D01*
X112332753Y-55237199D01*
X112446021Y-55406717D01*
X112500972Y-55461668D01*
X112537715Y-55582795D01*
X112544412Y-55604874D01*
X112614984Y-55736904D01*
X112627343Y-55751963D01*
X112709957Y-55852629D01*
X112738961Y-55876432D01*
X113413551Y-56551023D01*
X113301898Y-56504774D01*
X113101939Y-56465000D01*
X112898061Y-56465000D01*
X112698102Y-56504774D01*
X112509744Y-56582795D01*
X112340226Y-56696063D01*
X112196063Y-56840226D01*
X112082795Y-57009744D01*
X112004774Y-57198102D01*
X111965000Y-57398061D01*
X111965000Y-57601939D01*
X112004774Y-57801898D01*
X112082795Y-57990256D01*
X112196063Y-58159774D01*
X112340226Y-58303937D01*
X112509744Y-58417205D01*
X112698102Y-58495226D01*
X112896581Y-58534706D01*
X112947810Y-58576748D01*
X113088526Y-58651962D01*
X113241211Y-58698279D01*
X113360208Y-58709999D01*
X113360210Y-58709999D01*
X113399998Y-58713918D01*
X113439786Y-58709999D01*
X127064487Y-58709999D01*
X128190000Y-59835513D01*
X128190001Y-66849299D01*
X128082795Y-67009744D01*
X128004774Y-67198102D01*
X127965000Y-67398061D01*
X127965000Y-67601939D01*
X128004774Y-67801898D01*
X128082795Y-67990256D01*
X128196063Y-68159774D01*
X128340226Y-68303937D01*
X128509744Y-68417205D01*
X128698102Y-68495226D01*
X128898061Y-68535000D01*
X129101939Y-68535000D01*
X129301898Y-68495226D01*
X129490256Y-68417205D01*
X129659774Y-68303937D01*
X129803937Y-68159774D01*
X129917205Y-67990256D01*
X129995226Y-67801898D01*
X130035000Y-67601939D01*
X130035000Y-67398061D01*
X129995226Y-67198102D01*
X129917205Y-67009744D01*
X129810000Y-66849300D01*
X129810000Y-59539787D01*
X129813919Y-59499999D01*
X129810000Y-59460209D01*
X129798280Y-59341212D01*
X129751963Y-59188527D01*
X129676750Y-59047812D01*
X129676749Y-59047810D01*
X129631119Y-58992210D01*
X129575528Y-58924472D01*
X129544619Y-58899106D01*
X129033694Y-58388181D01*
X129159774Y-58303937D01*
X129303937Y-58159774D01*
X129388181Y-58033694D01*
X131190001Y-59835514D01*
X131190000Y-71265001D01*
X77127000Y-71265001D01*
X77127000Y-69818212D01*
X111765000Y-69818212D01*
X111765000Y-70041788D01*
X111808617Y-70261067D01*
X111894176Y-70467624D01*
X112018388Y-70653520D01*
X112176480Y-70811612D01*
X112362376Y-70935824D01*
X112568933Y-71021383D01*
X112788212Y-71065000D01*
X113011788Y-71065000D01*
X113231067Y-71021383D01*
X113437624Y-70935824D01*
X113623520Y-70811612D01*
X113781612Y-70653520D01*
X113905824Y-70467624D01*
X113991383Y-70261067D01*
X114035000Y-70041788D01*
X114035000Y-69818212D01*
X113991383Y-69598933D01*
X113905824Y-69392376D01*
X113781612Y-69206480D01*
X113623520Y-69048388D01*
X113437624Y-68924176D01*
X113231067Y-68838617D01*
X113011788Y-68795000D01*
X112788212Y-68795000D01*
X112568933Y-68838617D01*
X112362376Y-68924176D01*
X112176480Y-69048388D01*
X112018388Y-69206480D01*
X111894176Y-69392376D01*
X111808617Y-69598933D01*
X111765000Y-69818212D01*
X77127000Y-69818212D01*
X77127000Y-66358665D01*
X99315000Y-66358665D01*
X99315000Y-66641335D01*
X99370147Y-66918574D01*
X99478320Y-67179727D01*
X99635363Y-67414759D01*
X99835241Y-67614637D01*
X100070273Y-67771680D01*
X100331426Y-67879853D01*
X100608665Y-67935000D01*
X100891335Y-67935000D01*
X101168574Y-67879853D01*
X101429727Y-67771680D01*
X101664759Y-67614637D01*
X101864637Y-67414759D01*
X102021680Y-67179727D01*
X102129853Y-66918574D01*
X102185000Y-66641335D01*
X102185000Y-66358665D01*
X102129853Y-66081426D01*
X102021680Y-65820273D01*
X101864637Y-65585241D01*
X101664759Y-65385363D01*
X101429727Y-65228320D01*
X101168574Y-65120147D01*
X100891335Y-65065000D01*
X100608665Y-65065000D01*
X100331426Y-65120147D01*
X100070273Y-65228320D01*
X99835241Y-65385363D01*
X99635363Y-65585241D01*
X99478320Y-65820273D01*
X99370147Y-66081426D01*
X99315000Y-66358665D01*
X77127000Y-66358665D01*
X77127000Y-57748059D01*
X80615002Y-57748059D01*
X80615002Y-57951937D01*
X80654776Y-58151896D01*
X80732797Y-58340254D01*
X80846065Y-58509772D01*
X80990228Y-58653935D01*
X81159746Y-58767203D01*
X81348104Y-58845224D01*
X81548063Y-58884998D01*
X81751941Y-58884998D01*
X81951900Y-58845224D01*
X82140258Y-58767203D01*
X82309776Y-58653935D01*
X82453939Y-58509772D01*
X82567207Y-58340254D01*
X82579739Y-58310000D01*
X91249300Y-58310000D01*
X91409744Y-58417205D01*
X91598102Y-58495226D01*
X91798061Y-58535000D01*
X92001939Y-58535000D01*
X92201898Y-58495226D01*
X92390256Y-58417205D01*
X92559774Y-58303937D01*
X92703937Y-58159774D01*
X92817205Y-57990256D01*
X92895226Y-57801898D01*
X92935000Y-57601939D01*
X92935000Y-57398061D01*
X92895226Y-57198102D01*
X92817205Y-57009744D01*
X92703937Y-56840226D01*
X92559774Y-56696063D01*
X92390256Y-56582795D01*
X92201898Y-56504774D01*
X92001939Y-56465000D01*
X91798061Y-56465000D01*
X91598102Y-56504774D01*
X91409744Y-56582795D01*
X91249300Y-56690000D01*
X82039788Y-56690000D01*
X82000000Y-56686081D01*
X81960212Y-56690000D01*
X81960209Y-56690000D01*
X81841212Y-56701720D01*
X81688527Y-56748037D01*
X81563251Y-56814998D01*
X81548063Y-56814998D01*
X81348104Y-56854772D01*
X81159746Y-56932793D01*
X80990228Y-57046061D01*
X80846065Y-57190224D01*
X80732797Y-57359742D01*
X80654776Y-57548100D01*
X80615002Y-57748059D01*
X77127000Y-57748059D01*
X77127000Y-46660000D01*
X115373000Y-46660000D01*
X115373000Y-52227487D01*
%TA.AperFunction,Conductor*%
D20*
G36*
X115373000Y-52227487D02*
G01*
X114060000Y-50914488D01*
X114060000Y-48650700D01*
X114167205Y-48490256D01*
X114245226Y-48301898D01*
X114285000Y-48101939D01*
X114285000Y-47898061D01*
X114245226Y-47698102D01*
X114167205Y-47509744D01*
X114053937Y-47340226D01*
X113909774Y-47196063D01*
X113740256Y-47082795D01*
X113551898Y-47004774D01*
X113351939Y-46965000D01*
X113148061Y-46965000D01*
X112948102Y-47004774D01*
X112759744Y-47082795D01*
X112590226Y-47196063D01*
X112446063Y-47340226D01*
X112332795Y-47509744D01*
X112254774Y-47698102D01*
X112215000Y-47898061D01*
X112215000Y-48101939D01*
X112254774Y-48301898D01*
X112332795Y-48490256D01*
X112440001Y-48650701D01*
X112440000Y-51210212D01*
X112436081Y-51250000D01*
X112440000Y-51289788D01*
X112440000Y-51289790D01*
X112451720Y-51408787D01*
X112498037Y-51561472D01*
X112498038Y-51561473D01*
X112573251Y-51702189D01*
X112580032Y-51710451D01*
X112674472Y-51825528D01*
X112705387Y-51850899D01*
X112739489Y-51885001D01*
X106804089Y-51885001D01*
X106855246Y-51761496D01*
X106920000Y-51435958D01*
X106920000Y-51104042D01*
X106855246Y-50778504D01*
X106728228Y-50471853D01*
X106543825Y-50195875D01*
X106309125Y-49961175D01*
X106033147Y-49776772D01*
X105726496Y-49649754D01*
X105400958Y-49585000D01*
X105069042Y-49585000D01*
X104743504Y-49649754D01*
X104436853Y-49776772D01*
X104160875Y-49961175D01*
X103926175Y-50195875D01*
X103829764Y-50340164D01*
X103807893Y-50307431D01*
X103597569Y-50097107D01*
X103350253Y-49931856D01*
X103075451Y-49818029D01*
X102783722Y-49760000D01*
X102486278Y-49760000D01*
X102466535Y-49763927D01*
X102537893Y-49692569D01*
X102703144Y-49445253D01*
X102816971Y-49170451D01*
X102875000Y-48878722D01*
X102875000Y-48581278D01*
X102816971Y-48289549D01*
X102703144Y-48014747D01*
X102537893Y-47767431D01*
X102327569Y-47557107D01*
X102080253Y-47391856D01*
X101805451Y-47278029D01*
X101513722Y-47220000D01*
X101216278Y-47220000D01*
X100924549Y-47278029D01*
X100649747Y-47391856D01*
X100402431Y-47557107D01*
X100310077Y-47649461D01*
X100229175Y-47528382D01*
X99966618Y-47265825D01*
X99657882Y-47059534D01*
X99314834Y-46917439D01*
X98950656Y-46845000D01*
X98579344Y-46845000D01*
X98215166Y-46917439D01*
X97872118Y-47059534D01*
X97563382Y-47265825D01*
X97300825Y-47528382D01*
X97094534Y-47837118D01*
X96952439Y-48180166D01*
X96880000Y-48544344D01*
X96880000Y-48915656D01*
X96952439Y-49279834D01*
X97094534Y-49622882D01*
X97300825Y-49931618D01*
X97563382Y-50194175D01*
X97872118Y-50400466D01*
X98215166Y-50542561D01*
X98579344Y-50615000D01*
X98731898Y-50615000D01*
X98643029Y-50829549D01*
X98585000Y-51121278D01*
X98585000Y-51418722D01*
X98643029Y-51710451D01*
X98756856Y-51985253D01*
X98922107Y-52232569D01*
X99132431Y-52442893D01*
X99285000Y-52544836D01*
X99285000Y-52967647D01*
X99281081Y-53007436D01*
X99285000Y-53047224D01*
X99285000Y-53047226D01*
X99296720Y-53166223D01*
X99343037Y-53318908D01*
X99343038Y-53318909D01*
X99418251Y-53459625D01*
X99444269Y-53491328D01*
X99519472Y-53582964D01*
X99550388Y-53608336D01*
X100281689Y-54339637D01*
X100307056Y-54370547D01*
X100337964Y-54395912D01*
X100430394Y-54471769D01*
X100571110Y-54546982D01*
X100723796Y-54593299D01*
X100882584Y-54608939D01*
X100922382Y-54605019D01*
X108459510Y-54605022D01*
X108952501Y-55098013D01*
X108952501Y-55149299D01*
X108845295Y-55309744D01*
X108767274Y-55498102D01*
X108727500Y-55698061D01*
X108727500Y-55901939D01*
X108767274Y-56101898D01*
X108845295Y-56290256D01*
X108958563Y-56459774D01*
X109102726Y-56603937D01*
X109272244Y-56717205D01*
X109460602Y-56795226D01*
X109660561Y-56835000D01*
X109864439Y-56835000D01*
X110064398Y-56795226D01*
X110252756Y-56717205D01*
X110422274Y-56603937D01*
X110566437Y-56459774D01*
X110679705Y-56290256D01*
X110757726Y-56101898D01*
X110797500Y-55901939D01*
X110797500Y-55698061D01*
X110757726Y-55498102D01*
X110679705Y-55309744D01*
X110572500Y-55149300D01*
X110572500Y-54802291D01*
X110576419Y-54762500D01*
X110560780Y-54603712D01*
X110514463Y-54451026D01*
X110439249Y-54310311D01*
X110393847Y-54254988D01*
X110338028Y-54186972D01*
X110307118Y-54161605D01*
X110200525Y-54055012D01*
X112478178Y-54055012D01*
X112446021Y-54087169D01*
X112332753Y-54256687D01*
X112254732Y-54445045D01*
X112214958Y-54645004D01*
X112214958Y-54848882D01*
X112254732Y-55048841D01*
X112332753Y-55237199D01*
X112446021Y-55406717D01*
X112500972Y-55461668D01*
X112537715Y-55582795D01*
X112544412Y-55604874D01*
X112614984Y-55736904D01*
X112627343Y-55751963D01*
X112709957Y-55852629D01*
X112738961Y-55876432D01*
X113413551Y-56551023D01*
X113301898Y-56504774D01*
X113101939Y-56465000D01*
X112898061Y-56465000D01*
X112698102Y-56504774D01*
X112509744Y-56582795D01*
X112340226Y-56696063D01*
X112196063Y-56840226D01*
X112082795Y-57009744D01*
X112004774Y-57198102D01*
X111965000Y-57398061D01*
X111965000Y-57601939D01*
X112004774Y-57801898D01*
X112082795Y-57990256D01*
X112196063Y-58159774D01*
X112340226Y-58303937D01*
X112509744Y-58417205D01*
X112698102Y-58495226D01*
X112896581Y-58534706D01*
X112947810Y-58576748D01*
X113088526Y-58651962D01*
X113241211Y-58698279D01*
X113360208Y-58709999D01*
X113360210Y-58709999D01*
X113399998Y-58713918D01*
X113439786Y-58709999D01*
X127064487Y-58709999D01*
X128190000Y-59835513D01*
X128190001Y-66849299D01*
X128082795Y-67009744D01*
X128004774Y-67198102D01*
X127965000Y-67398061D01*
X127965000Y-67601939D01*
X128004774Y-67801898D01*
X128082795Y-67990256D01*
X128196063Y-68159774D01*
X128340226Y-68303937D01*
X128509744Y-68417205D01*
X128698102Y-68495226D01*
X128898061Y-68535000D01*
X129101939Y-68535000D01*
X129301898Y-68495226D01*
X129490256Y-68417205D01*
X129659774Y-68303937D01*
X129803937Y-68159774D01*
X129917205Y-67990256D01*
X129995226Y-67801898D01*
X130035000Y-67601939D01*
X130035000Y-67398061D01*
X129995226Y-67198102D01*
X129917205Y-67009744D01*
X129810000Y-66849300D01*
X129810000Y-59539787D01*
X129813919Y-59499999D01*
X129810000Y-59460209D01*
X129798280Y-59341212D01*
X129751963Y-59188527D01*
X129676750Y-59047812D01*
X129676749Y-59047810D01*
X129631119Y-58992210D01*
X129575528Y-58924472D01*
X129544619Y-58899106D01*
X129033694Y-58388181D01*
X129159774Y-58303937D01*
X129303937Y-58159774D01*
X129388181Y-58033694D01*
X131190001Y-59835514D01*
X131190000Y-71265001D01*
X77127000Y-71265001D01*
X77127000Y-69818212D01*
X111765000Y-69818212D01*
X111765000Y-70041788D01*
X111808617Y-70261067D01*
X111894176Y-70467624D01*
X112018388Y-70653520D01*
X112176480Y-70811612D01*
X112362376Y-70935824D01*
X112568933Y-71021383D01*
X112788212Y-71065000D01*
X113011788Y-71065000D01*
X113231067Y-71021383D01*
X113437624Y-70935824D01*
X113623520Y-70811612D01*
X113781612Y-70653520D01*
X113905824Y-70467624D01*
X113991383Y-70261067D01*
X114035000Y-70041788D01*
X114035000Y-69818212D01*
X113991383Y-69598933D01*
X113905824Y-69392376D01*
X113781612Y-69206480D01*
X113623520Y-69048388D01*
X113437624Y-68924176D01*
X113231067Y-68838617D01*
X113011788Y-68795000D01*
X112788212Y-68795000D01*
X112568933Y-68838617D01*
X112362376Y-68924176D01*
X112176480Y-69048388D01*
X112018388Y-69206480D01*
X111894176Y-69392376D01*
X111808617Y-69598933D01*
X111765000Y-69818212D01*
X77127000Y-69818212D01*
X77127000Y-66358665D01*
X99315000Y-66358665D01*
X99315000Y-66641335D01*
X99370147Y-66918574D01*
X99478320Y-67179727D01*
X99635363Y-67414759D01*
X99835241Y-67614637D01*
X100070273Y-67771680D01*
X100331426Y-67879853D01*
X100608665Y-67935000D01*
X100891335Y-67935000D01*
X101168574Y-67879853D01*
X101429727Y-67771680D01*
X101664759Y-67614637D01*
X101864637Y-67414759D01*
X102021680Y-67179727D01*
X102129853Y-66918574D01*
X102185000Y-66641335D01*
X102185000Y-66358665D01*
X102129853Y-66081426D01*
X102021680Y-65820273D01*
X101864637Y-65585241D01*
X101664759Y-65385363D01*
X101429727Y-65228320D01*
X101168574Y-65120147D01*
X100891335Y-65065000D01*
X100608665Y-65065000D01*
X100331426Y-65120147D01*
X100070273Y-65228320D01*
X99835241Y-65385363D01*
X99635363Y-65585241D01*
X99478320Y-65820273D01*
X99370147Y-66081426D01*
X99315000Y-66358665D01*
X77127000Y-66358665D01*
X77127000Y-57748059D01*
X80615002Y-57748059D01*
X80615002Y-57951937D01*
X80654776Y-58151896D01*
X80732797Y-58340254D01*
X80846065Y-58509772D01*
X80990228Y-58653935D01*
X81159746Y-58767203D01*
X81348104Y-58845224D01*
X81548063Y-58884998D01*
X81751941Y-58884998D01*
X81951900Y-58845224D01*
X82140258Y-58767203D01*
X82309776Y-58653935D01*
X82453939Y-58509772D01*
X82567207Y-58340254D01*
X82579739Y-58310000D01*
X91249300Y-58310000D01*
X91409744Y-58417205D01*
X91598102Y-58495226D01*
X91798061Y-58535000D01*
X92001939Y-58535000D01*
X92201898Y-58495226D01*
X92390256Y-58417205D01*
X92559774Y-58303937D01*
X92703937Y-58159774D01*
X92817205Y-57990256D01*
X92895226Y-57801898D01*
X92935000Y-57601939D01*
X92935000Y-57398061D01*
X92895226Y-57198102D01*
X92817205Y-57009744D01*
X92703937Y-56840226D01*
X92559774Y-56696063D01*
X92390256Y-56582795D01*
X92201898Y-56504774D01*
X92001939Y-56465000D01*
X91798061Y-56465000D01*
X91598102Y-56504774D01*
X91409744Y-56582795D01*
X91249300Y-56690000D01*
X82039788Y-56690000D01*
X82000000Y-56686081D01*
X81960212Y-56690000D01*
X81960209Y-56690000D01*
X81841212Y-56701720D01*
X81688527Y-56748037D01*
X81563251Y-56814998D01*
X81548063Y-56814998D01*
X81348104Y-56854772D01*
X81159746Y-56932793D01*
X80990228Y-57046061D01*
X80846065Y-57190224D01*
X80732797Y-57359742D01*
X80654776Y-57548100D01*
X80615002Y-57748059D01*
X77127000Y-57748059D01*
X77127000Y-46660000D01*
X115373000Y-46660000D01*
X115373000Y-52227487D01*
G37*
%TD.AperFunction*%
%TD*%
D19*
%TO.N,VIN*%
X75873000Y-68623000D02*
X74202224Y-68623000D01*
X74148134Y-68586858D01*
X73841483Y-68459840D01*
X73515945Y-68395086D01*
X73184029Y-68395086D01*
X72858491Y-68459840D01*
X72551840Y-68586858D01*
X72497750Y-68623000D01*
X69807353Y-68623000D01*
X69771162Y-68578901D01*
X69674471Y-68499549D01*
X69564157Y-68440584D01*
X69444459Y-68404274D01*
X69319977Y-68392014D01*
X67219977Y-68392014D01*
X67095495Y-68404274D01*
X66975797Y-68440584D01*
X66865483Y-68499549D01*
X66768792Y-68578901D01*
X66732601Y-68623000D01*
X66660000Y-68623000D01*
X66660000Y-65516364D01*
X66776749Y-65798223D01*
X66961152Y-66074201D01*
X67195852Y-66308901D01*
X67471830Y-66493304D01*
X67778481Y-66620322D01*
X68104019Y-66685076D01*
X68435935Y-66685076D01*
X68761473Y-66620322D01*
X69068124Y-66493304D01*
X69344102Y-66308901D01*
X69578802Y-66074201D01*
X69763205Y-65798223D01*
X69890223Y-65491572D01*
X69954977Y-65166034D01*
X69954977Y-64834118D01*
X71664987Y-64834118D01*
X71664987Y-65166034D01*
X71729741Y-65491572D01*
X71856759Y-65798223D01*
X72041162Y-66074201D01*
X72275862Y-66308901D01*
X72551840Y-66493304D01*
X72858491Y-66620322D01*
X73184029Y-66685076D01*
X73515945Y-66685076D01*
X73841483Y-66620322D01*
X74148134Y-66493304D01*
X74424112Y-66308901D01*
X74658812Y-66074201D01*
X74843215Y-65798223D01*
X74970233Y-65491572D01*
X75034987Y-65166034D01*
X75034987Y-64834118D01*
X74970233Y-64508580D01*
X74843215Y-64201929D01*
X74658812Y-63925951D01*
X74424112Y-63691251D01*
X74148134Y-63506848D01*
X73841483Y-63379830D01*
X73515945Y-63315076D01*
X73184029Y-63315076D01*
X72858491Y-63379830D01*
X72551840Y-63506848D01*
X72275862Y-63691251D01*
X72041162Y-63925951D01*
X71856759Y-64201929D01*
X71729741Y-64508580D01*
X71664987Y-64834118D01*
X69954977Y-64834118D01*
X69890223Y-64508580D01*
X69763205Y-64201929D01*
X69578802Y-63925951D01*
X69344102Y-63691251D01*
X69068124Y-63506848D01*
X68761473Y-63379830D01*
X68435935Y-63315076D01*
X68104019Y-63315076D01*
X67778481Y-63379830D01*
X67471830Y-63506848D01*
X67195852Y-63691251D01*
X66961152Y-63925951D01*
X66776749Y-64201929D01*
X66660000Y-64483788D01*
X66660000Y-55659527D01*
X66689453Y-55714629D01*
X66768805Y-55811320D01*
X66865496Y-55890672D01*
X66975810Y-55949637D01*
X67095508Y-55985947D01*
X67219990Y-55998207D01*
X69319990Y-55998207D01*
X69444472Y-55985947D01*
X69564170Y-55949637D01*
X69674484Y-55890672D01*
X69771175Y-55811320D01*
X69850527Y-55714629D01*
X69909492Y-55604315D01*
X69945802Y-55484617D01*
X69958062Y-55360135D01*
X69958062Y-54144177D01*
X71665000Y-54144177D01*
X71665000Y-54476093D01*
X71729754Y-54801631D01*
X71856772Y-55108282D01*
X72041175Y-55384260D01*
X72275875Y-55618960D01*
X72551853Y-55803363D01*
X72858504Y-55930381D01*
X73184042Y-55995135D01*
X73515958Y-55995135D01*
X73841496Y-55930381D01*
X74148147Y-55803363D01*
X74424125Y-55618960D01*
X74658825Y-55384260D01*
X74843228Y-55108282D01*
X74970246Y-54801631D01*
X75035000Y-54476093D01*
X75035000Y-54144177D01*
X74970246Y-53818639D01*
X74843228Y-53511988D01*
X74658825Y-53236010D01*
X74424125Y-53001310D01*
X74148147Y-52816907D01*
X73841496Y-52689889D01*
X73515958Y-52625135D01*
X73184042Y-52625135D01*
X72858504Y-52689889D01*
X72551853Y-52816907D01*
X72275875Y-53001310D01*
X72041175Y-53236010D01*
X71856772Y-53511988D01*
X71729754Y-53818639D01*
X71665000Y-54144177D01*
X69958062Y-54144177D01*
X69958062Y-53260135D01*
X69945802Y-53135653D01*
X69909492Y-53015955D01*
X69850527Y-52905641D01*
X69771175Y-52808950D01*
X69674484Y-52729598D01*
X69564170Y-52670633D01*
X69444472Y-52634323D01*
X69319990Y-52622063D01*
X67219990Y-52622063D01*
X67095508Y-52634323D01*
X66975810Y-52670633D01*
X66865496Y-52729598D01*
X66768805Y-52808950D01*
X66689453Y-52905641D01*
X66660000Y-52960743D01*
X66660000Y-46660000D01*
X75873000Y-46660000D01*
X75873000Y-68623000D01*
%TA.AperFunction,Conductor*%
D20*
G36*
X75873000Y-68623000D02*
G01*
X74202224Y-68623000D01*
X74148134Y-68586858D01*
X73841483Y-68459840D01*
X73515945Y-68395086D01*
X73184029Y-68395086D01*
X72858491Y-68459840D01*
X72551840Y-68586858D01*
X72497750Y-68623000D01*
X69807353Y-68623000D01*
X69771162Y-68578901D01*
X69674471Y-68499549D01*
X69564157Y-68440584D01*
X69444459Y-68404274D01*
X69319977Y-68392014D01*
X67219977Y-68392014D01*
X67095495Y-68404274D01*
X66975797Y-68440584D01*
X66865483Y-68499549D01*
X66768792Y-68578901D01*
X66732601Y-68623000D01*
X66660000Y-68623000D01*
X66660000Y-65516364D01*
X66776749Y-65798223D01*
X66961152Y-66074201D01*
X67195852Y-66308901D01*
X67471830Y-66493304D01*
X67778481Y-66620322D01*
X68104019Y-66685076D01*
X68435935Y-66685076D01*
X68761473Y-66620322D01*
X69068124Y-66493304D01*
X69344102Y-66308901D01*
X69578802Y-66074201D01*
X69763205Y-65798223D01*
X69890223Y-65491572D01*
X69954977Y-65166034D01*
X69954977Y-64834118D01*
X71664987Y-64834118D01*
X71664987Y-65166034D01*
X71729741Y-65491572D01*
X71856759Y-65798223D01*
X72041162Y-66074201D01*
X72275862Y-66308901D01*
X72551840Y-66493304D01*
X72858491Y-66620322D01*
X73184029Y-66685076D01*
X73515945Y-66685076D01*
X73841483Y-66620322D01*
X74148134Y-66493304D01*
X74424112Y-66308901D01*
X74658812Y-66074201D01*
X74843215Y-65798223D01*
X74970233Y-65491572D01*
X75034987Y-65166034D01*
X75034987Y-64834118D01*
X74970233Y-64508580D01*
X74843215Y-64201929D01*
X74658812Y-63925951D01*
X74424112Y-63691251D01*
X74148134Y-63506848D01*
X73841483Y-63379830D01*
X73515945Y-63315076D01*
X73184029Y-63315076D01*
X72858491Y-63379830D01*
X72551840Y-63506848D01*
X72275862Y-63691251D01*
X72041162Y-63925951D01*
X71856759Y-64201929D01*
X71729741Y-64508580D01*
X71664987Y-64834118D01*
X69954977Y-64834118D01*
X69890223Y-64508580D01*
X69763205Y-64201929D01*
X69578802Y-63925951D01*
X69344102Y-63691251D01*
X69068124Y-63506848D01*
X68761473Y-63379830D01*
X68435935Y-63315076D01*
X68104019Y-63315076D01*
X67778481Y-63379830D01*
X67471830Y-63506848D01*
X67195852Y-63691251D01*
X66961152Y-63925951D01*
X66776749Y-64201929D01*
X66660000Y-64483788D01*
X66660000Y-55659527D01*
X66689453Y-55714629D01*
X66768805Y-55811320D01*
X66865496Y-55890672D01*
X66975810Y-55949637D01*
X67095508Y-55985947D01*
X67219990Y-55998207D01*
X69319990Y-55998207D01*
X69444472Y-55985947D01*
X69564170Y-55949637D01*
X69674484Y-55890672D01*
X69771175Y-55811320D01*
X69850527Y-55714629D01*
X69909492Y-55604315D01*
X69945802Y-55484617D01*
X69958062Y-55360135D01*
X69958062Y-54144177D01*
X71665000Y-54144177D01*
X71665000Y-54476093D01*
X71729754Y-54801631D01*
X71856772Y-55108282D01*
X72041175Y-55384260D01*
X72275875Y-55618960D01*
X72551853Y-55803363D01*
X72858504Y-55930381D01*
X73184042Y-55995135D01*
X73515958Y-55995135D01*
X73841496Y-55930381D01*
X74148147Y-55803363D01*
X74424125Y-55618960D01*
X74658825Y-55384260D01*
X74843228Y-55108282D01*
X74970246Y-54801631D01*
X75035000Y-54476093D01*
X75035000Y-54144177D01*
X74970246Y-53818639D01*
X74843228Y-53511988D01*
X74658825Y-53236010D01*
X74424125Y-53001310D01*
X74148147Y-52816907D01*
X73841496Y-52689889D01*
X73515958Y-52625135D01*
X73184042Y-52625135D01*
X72858504Y-52689889D01*
X72551853Y-52816907D01*
X72275875Y-53001310D01*
X72041175Y-53236010D01*
X71856772Y-53511988D01*
X71729754Y-53818639D01*
X71665000Y-54144177D01*
X69958062Y-54144177D01*
X69958062Y-53260135D01*
X69945802Y-53135653D01*
X69909492Y-53015955D01*
X69850527Y-52905641D01*
X69771175Y-52808950D01*
X69674484Y-52729598D01*
X69564170Y-52670633D01*
X69444472Y-52634323D01*
X69319990Y-52622063D01*
X67219990Y-52622063D01*
X67095508Y-52634323D01*
X66975810Y-52670633D01*
X66865496Y-52729598D01*
X66768805Y-52808950D01*
X66689453Y-52905641D01*
X66660000Y-52960743D01*
X66660000Y-46660000D01*
X75873000Y-46660000D01*
X75873000Y-68623000D01*
G37*
%TD.AperFunction*%
%TD*%
M02*
