%TF.GenerationSoftware,KiCad,Pcbnew,5.1.5+dfsg1-2build2*%
%TF.CreationDate,2021-11-04T16:47:03+02:00*%
%TF.ProjectId,LED_Wled,4c45445f-576c-4656-942e-6b696361645f,rev?*%
%TF.SameCoordinates,Original*%
%TF.FileFunction,Legend,Bot*%
%TF.FilePolarity,Positive*%
%FSLAX46Y46*%
G04 Gerber Fmt 4.6, Leading zero omitted, Abs format (unit mm)*
G04 Created by KiCad (PCBNEW 5.1.5+dfsg1-2build2) date 2021-11-04 16:47:03*
%MOMM*%
%LPD*%
G04 APERTURE LIST*
%ADD10C,0.150000*%
%ADD11C,0.010000*%
G04 APERTURE END LIST*
D10*
X127627380Y-124190476D02*
X126960714Y-124190476D01*
X127151190Y-124190476D02*
X127055952Y-124238095D01*
X127008333Y-124285714D01*
X126960714Y-124380952D01*
X126960714Y-124476190D01*
X127579761Y-125190476D02*
X127627380Y-125095238D01*
X127627380Y-124904761D01*
X127579761Y-124809523D01*
X127484523Y-124761904D01*
X127103571Y-124761904D01*
X127008333Y-124809523D01*
X126960714Y-124904761D01*
X126960714Y-125095238D01*
X127008333Y-125190476D01*
X127103571Y-125238095D01*
X127198809Y-125238095D01*
X127294047Y-124761904D01*
X127627380Y-125666666D02*
X126960714Y-125666666D01*
X127055952Y-125666666D02*
X127008333Y-125714285D01*
X126960714Y-125809523D01*
X126960714Y-125952380D01*
X127008333Y-126047619D01*
X127103571Y-126095238D01*
X127627380Y-126095238D01*
X127103571Y-126095238D02*
X127008333Y-126142857D01*
X126960714Y-126238095D01*
X126960714Y-126380952D01*
X127008333Y-126476190D01*
X127103571Y-126523809D01*
X127627380Y-126523809D01*
X127627380Y-127142857D02*
X127579761Y-127047619D01*
X127532142Y-127000000D01*
X127436904Y-126952380D01*
X127151190Y-126952380D01*
X127055952Y-127000000D01*
X127008333Y-127047619D01*
X126960714Y-127142857D01*
X126960714Y-127285714D01*
X127008333Y-127380952D01*
X127055952Y-127428571D01*
X127151190Y-127476190D01*
X127436904Y-127476190D01*
X127532142Y-127428571D01*
X127579761Y-127380952D01*
X127627380Y-127285714D01*
X127627380Y-127142857D01*
X126960714Y-127761904D02*
X126960714Y-128142857D01*
X126627380Y-127904761D02*
X127484523Y-127904761D01*
X127579761Y-127952380D01*
X127627380Y-128047619D01*
X127627380Y-128142857D01*
X127579761Y-128857142D02*
X127627380Y-128761904D01*
X127627380Y-128571428D01*
X127579761Y-128476190D01*
X127484523Y-128428571D01*
X127103571Y-128428571D01*
X127008333Y-128476190D01*
X126960714Y-128571428D01*
X126960714Y-128761904D01*
X127008333Y-128857142D01*
X127103571Y-128904761D01*
X127198809Y-128904761D01*
X127294047Y-128428571D01*
X127246428Y-129333333D02*
X127246428Y-130095238D01*
X127627380Y-130714285D02*
X127579761Y-130619047D01*
X127484523Y-130571428D01*
X126627380Y-130571428D01*
X127579761Y-131476190D02*
X127627380Y-131380952D01*
X127627380Y-131190476D01*
X127579761Y-131095238D01*
X127484523Y-131047619D01*
X127103571Y-131047619D01*
X127008333Y-131095238D01*
X126960714Y-131190476D01*
X126960714Y-131380952D01*
X127008333Y-131476190D01*
X127103571Y-131523809D01*
X127198809Y-131523809D01*
X127294047Y-131047619D01*
X127627380Y-132380952D02*
X126627380Y-132380952D01*
X127579761Y-132380952D02*
X127627380Y-132285714D01*
X127627380Y-132095238D01*
X127579761Y-132000000D01*
X127532142Y-131952380D01*
X127436904Y-131904761D01*
X127151190Y-131904761D01*
X127055952Y-131952380D01*
X127008333Y-132000000D01*
X126960714Y-132095238D01*
X126960714Y-132285714D01*
X127008333Y-132380952D01*
X127246428Y-132857142D02*
X127246428Y-133619047D01*
X126960714Y-134095238D02*
X127960714Y-134095238D01*
X127008333Y-134095238D02*
X126960714Y-134190476D01*
X126960714Y-134380952D01*
X127008333Y-134476190D01*
X127055952Y-134523809D01*
X127151190Y-134571428D01*
X127436904Y-134571428D01*
X127532142Y-134523809D01*
X127579761Y-134476190D01*
X127627380Y-134380952D01*
X127627380Y-134190476D01*
X127579761Y-134095238D01*
X127627380Y-135000000D02*
X126960714Y-135000000D01*
X127151190Y-135000000D02*
X127055952Y-135047619D01*
X127008333Y-135095238D01*
X126960714Y-135190476D01*
X126960714Y-135285714D01*
X127627380Y-135761904D02*
X127579761Y-135666666D01*
X127532142Y-135619047D01*
X127436904Y-135571428D01*
X127151190Y-135571428D01*
X127055952Y-135619047D01*
X127008333Y-135666666D01*
X126960714Y-135761904D01*
X126960714Y-135904761D01*
X127008333Y-136000000D01*
X127055952Y-136047619D01*
X127151190Y-136095238D01*
X127436904Y-136095238D01*
X127532142Y-136047619D01*
X127579761Y-136000000D01*
X127627380Y-135904761D01*
X127627380Y-135761904D01*
X126960714Y-136523809D02*
X127817857Y-136523809D01*
X127913095Y-136476190D01*
X127960714Y-136380952D01*
X127960714Y-136333333D01*
X126627380Y-136523809D02*
X126675000Y-136476190D01*
X126722619Y-136523809D01*
X126675000Y-136571428D01*
X126627380Y-136523809D01*
X126722619Y-136523809D01*
X127579761Y-137380952D02*
X127627380Y-137285714D01*
X127627380Y-137095238D01*
X127579761Y-137000000D01*
X127484523Y-136952380D01*
X127103571Y-136952380D01*
X127008333Y-137000000D01*
X126960714Y-137095238D01*
X126960714Y-137285714D01*
X127008333Y-137380952D01*
X127103571Y-137428571D01*
X127198809Y-137428571D01*
X127294047Y-136952380D01*
X127579761Y-138285714D02*
X127627380Y-138190476D01*
X127627380Y-138000000D01*
X127579761Y-137904761D01*
X127532142Y-137857142D01*
X127436904Y-137809523D01*
X127151190Y-137809523D01*
X127055952Y-137857142D01*
X127008333Y-137904761D01*
X126960714Y-138000000D01*
X126960714Y-138190476D01*
X127008333Y-138285714D01*
X126960714Y-138571428D02*
X126960714Y-138952380D01*
X126627380Y-138714285D02*
X127484523Y-138714285D01*
X127579761Y-138761904D01*
X127627380Y-138857142D01*
X127627380Y-138952380D01*
X128372619Y-123952380D02*
X128325000Y-124000000D01*
X128277380Y-124095238D01*
X128277380Y-124333333D01*
X128325000Y-124428571D01*
X128372619Y-124476190D01*
X128467857Y-124523809D01*
X128563095Y-124523809D01*
X128705952Y-124476190D01*
X129277380Y-123904761D01*
X129277380Y-124523809D01*
X128277380Y-125142857D02*
X128277380Y-125238095D01*
X128325000Y-125333333D01*
X128372619Y-125380952D01*
X128467857Y-125428571D01*
X128658333Y-125476190D01*
X128896428Y-125476190D01*
X129086904Y-125428571D01*
X129182142Y-125380952D01*
X129229761Y-125333333D01*
X129277380Y-125238095D01*
X129277380Y-125142857D01*
X129229761Y-125047619D01*
X129182142Y-125000000D01*
X129086904Y-124952380D01*
X128896428Y-124904761D01*
X128658333Y-124904761D01*
X128467857Y-124952380D01*
X128372619Y-125000000D01*
X128325000Y-125047619D01*
X128277380Y-125142857D01*
X128372619Y-125857142D02*
X128325000Y-125904761D01*
X128277380Y-126000000D01*
X128277380Y-126238095D01*
X128325000Y-126333333D01*
X128372619Y-126380952D01*
X128467857Y-126428571D01*
X128563095Y-126428571D01*
X128705952Y-126380952D01*
X129277380Y-125809523D01*
X129277380Y-126428571D01*
X129277380Y-127380952D02*
X129277380Y-126809523D01*
X129277380Y-127095238D02*
X128277380Y-127095238D01*
X128420238Y-127000000D01*
X128515476Y-126904761D01*
X128563095Y-126809523D01*
X128896428Y-127809523D02*
X128896428Y-128571428D01*
X129277380Y-129571428D02*
X129277380Y-129000000D01*
X129277380Y-129285714D02*
X128277380Y-129285714D01*
X128420238Y-129190476D01*
X128515476Y-129095238D01*
X128563095Y-129000000D01*
X129277380Y-130523809D02*
X129277380Y-129952380D01*
X129277380Y-130238095D02*
X128277380Y-130238095D01*
X128420238Y-130142857D01*
X128515476Y-130047619D01*
X128563095Y-129952380D01*
X128896428Y-130952380D02*
X128896428Y-131714285D01*
X128277380Y-132380952D02*
X128277380Y-132476190D01*
X128325000Y-132571428D01*
X128372619Y-132619047D01*
X128467857Y-132666666D01*
X128658333Y-132714285D01*
X128896428Y-132714285D01*
X129086904Y-132666666D01*
X129182142Y-132619047D01*
X129229761Y-132571428D01*
X129277380Y-132476190D01*
X129277380Y-132380952D01*
X129229761Y-132285714D01*
X129182142Y-132238095D01*
X129086904Y-132190476D01*
X128896428Y-132142857D01*
X128658333Y-132142857D01*
X128467857Y-132190476D01*
X128372619Y-132238095D01*
X128325000Y-132285714D01*
X128277380Y-132380952D01*
X128610714Y-133571428D02*
X129277380Y-133571428D01*
X128229761Y-133333333D02*
X128944047Y-133095238D01*
X128944047Y-133714285D01*
X129277380Y-134857142D02*
X128610714Y-134857142D01*
X128801190Y-134857142D02*
X128705952Y-134904761D01*
X128658333Y-134952380D01*
X128610714Y-135047619D01*
X128610714Y-135142857D01*
X129229761Y-135857142D02*
X129277380Y-135761904D01*
X129277380Y-135571428D01*
X129229761Y-135476190D01*
X129134523Y-135428571D01*
X128753571Y-135428571D01*
X128658333Y-135476190D01*
X128610714Y-135571428D01*
X128610714Y-135761904D01*
X128658333Y-135857142D01*
X128753571Y-135904761D01*
X128848809Y-135904761D01*
X128944047Y-135428571D01*
X128610714Y-136238095D02*
X129277380Y-136476190D01*
X128610714Y-136714285D01*
X129277380Y-137619047D02*
X129277380Y-137047619D01*
X129277380Y-137333333D02*
X128277380Y-137333333D01*
X128420238Y-137238095D01*
X128515476Y-137142857D01*
X128563095Y-137047619D01*
X129182142Y-138047619D02*
X129229761Y-138095238D01*
X129277380Y-138047619D01*
X129229761Y-138000000D01*
X129182142Y-138047619D01*
X129277380Y-138047619D01*
X128277380Y-138714285D02*
X128277380Y-138809523D01*
X128325000Y-138904761D01*
X128372619Y-138952380D01*
X128467857Y-139000000D01*
X128658333Y-139047619D01*
X128896428Y-139047619D01*
X129086904Y-139000000D01*
X129182142Y-138952380D01*
X129229761Y-138904761D01*
X129277380Y-138809523D01*
X129277380Y-138714285D01*
X129229761Y-138619047D01*
X129182142Y-138571428D01*
X129086904Y-138523809D01*
X128896428Y-138476190D01*
X128658333Y-138476190D01*
X128467857Y-138523809D01*
X128372619Y-138571428D01*
X128325000Y-138619047D01*
X128277380Y-138714285D01*
X127627380Y-96190476D02*
X126960714Y-96190476D01*
X127151190Y-96190476D02*
X127055952Y-96238095D01*
X127008333Y-96285714D01*
X126960714Y-96380952D01*
X126960714Y-96476190D01*
X127579761Y-97190476D02*
X127627380Y-97095238D01*
X127627380Y-96904761D01*
X127579761Y-96809523D01*
X127484523Y-96761904D01*
X127103571Y-96761904D01*
X127008333Y-96809523D01*
X126960714Y-96904761D01*
X126960714Y-97095238D01*
X127008333Y-97190476D01*
X127103571Y-97238095D01*
X127198809Y-97238095D01*
X127294047Y-96761904D01*
X127627380Y-97666666D02*
X126960714Y-97666666D01*
X127055952Y-97666666D02*
X127008333Y-97714285D01*
X126960714Y-97809523D01*
X126960714Y-97952380D01*
X127008333Y-98047619D01*
X127103571Y-98095238D01*
X127627380Y-98095238D01*
X127103571Y-98095238D02*
X127008333Y-98142857D01*
X126960714Y-98238095D01*
X126960714Y-98380952D01*
X127008333Y-98476190D01*
X127103571Y-98523809D01*
X127627380Y-98523809D01*
X127627380Y-99142857D02*
X127579761Y-99047619D01*
X127532142Y-99000000D01*
X127436904Y-98952380D01*
X127151190Y-98952380D01*
X127055952Y-99000000D01*
X127008333Y-99047619D01*
X126960714Y-99142857D01*
X126960714Y-99285714D01*
X127008333Y-99380952D01*
X127055952Y-99428571D01*
X127151190Y-99476190D01*
X127436904Y-99476190D01*
X127532142Y-99428571D01*
X127579761Y-99380952D01*
X127627380Y-99285714D01*
X127627380Y-99142857D01*
X126960714Y-99761904D02*
X126960714Y-100142857D01*
X126627380Y-99904761D02*
X127484523Y-99904761D01*
X127579761Y-99952380D01*
X127627380Y-100047619D01*
X127627380Y-100142857D01*
X127579761Y-100857142D02*
X127627380Y-100761904D01*
X127627380Y-100571428D01*
X127579761Y-100476190D01*
X127484523Y-100428571D01*
X127103571Y-100428571D01*
X127008333Y-100476190D01*
X126960714Y-100571428D01*
X126960714Y-100761904D01*
X127008333Y-100857142D01*
X127103571Y-100904761D01*
X127198809Y-100904761D01*
X127294047Y-100428571D01*
X127246428Y-101333333D02*
X127246428Y-102095238D01*
X127627380Y-102714285D02*
X127579761Y-102619047D01*
X127484523Y-102571428D01*
X126627380Y-102571428D01*
X127579761Y-103476190D02*
X127627380Y-103380952D01*
X127627380Y-103190476D01*
X127579761Y-103095238D01*
X127484523Y-103047619D01*
X127103571Y-103047619D01*
X127008333Y-103095238D01*
X126960714Y-103190476D01*
X126960714Y-103380952D01*
X127008333Y-103476190D01*
X127103571Y-103523809D01*
X127198809Y-103523809D01*
X127294047Y-103047619D01*
X127627380Y-104380952D02*
X126627380Y-104380952D01*
X127579761Y-104380952D02*
X127627380Y-104285714D01*
X127627380Y-104095238D01*
X127579761Y-104000000D01*
X127532142Y-103952380D01*
X127436904Y-103904761D01*
X127151190Y-103904761D01*
X127055952Y-103952380D01*
X127008333Y-104000000D01*
X126960714Y-104095238D01*
X126960714Y-104285714D01*
X127008333Y-104380952D01*
X127246428Y-104857142D02*
X127246428Y-105619047D01*
X126960714Y-106095238D02*
X127960714Y-106095238D01*
X127008333Y-106095238D02*
X126960714Y-106190476D01*
X126960714Y-106380952D01*
X127008333Y-106476190D01*
X127055952Y-106523809D01*
X127151190Y-106571428D01*
X127436904Y-106571428D01*
X127532142Y-106523809D01*
X127579761Y-106476190D01*
X127627380Y-106380952D01*
X127627380Y-106190476D01*
X127579761Y-106095238D01*
X127627380Y-107000000D02*
X126960714Y-107000000D01*
X127151190Y-107000000D02*
X127055952Y-107047619D01*
X127008333Y-107095238D01*
X126960714Y-107190476D01*
X126960714Y-107285714D01*
X127627380Y-107761904D02*
X127579761Y-107666666D01*
X127532142Y-107619047D01*
X127436904Y-107571428D01*
X127151190Y-107571428D01*
X127055952Y-107619047D01*
X127008333Y-107666666D01*
X126960714Y-107761904D01*
X126960714Y-107904761D01*
X127008333Y-108000000D01*
X127055952Y-108047619D01*
X127151190Y-108095238D01*
X127436904Y-108095238D01*
X127532142Y-108047619D01*
X127579761Y-108000000D01*
X127627380Y-107904761D01*
X127627380Y-107761904D01*
X126960714Y-108523809D02*
X127817857Y-108523809D01*
X127913095Y-108476190D01*
X127960714Y-108380952D01*
X127960714Y-108333333D01*
X126627380Y-108523809D02*
X126675000Y-108476190D01*
X126722619Y-108523809D01*
X126675000Y-108571428D01*
X126627380Y-108523809D01*
X126722619Y-108523809D01*
X127579761Y-109380952D02*
X127627380Y-109285714D01*
X127627380Y-109095238D01*
X127579761Y-109000000D01*
X127484523Y-108952380D01*
X127103571Y-108952380D01*
X127008333Y-109000000D01*
X126960714Y-109095238D01*
X126960714Y-109285714D01*
X127008333Y-109380952D01*
X127103571Y-109428571D01*
X127198809Y-109428571D01*
X127294047Y-108952380D01*
X127579761Y-110285714D02*
X127627380Y-110190476D01*
X127627380Y-110000000D01*
X127579761Y-109904761D01*
X127532142Y-109857142D01*
X127436904Y-109809523D01*
X127151190Y-109809523D01*
X127055952Y-109857142D01*
X127008333Y-109904761D01*
X126960714Y-110000000D01*
X126960714Y-110190476D01*
X127008333Y-110285714D01*
X126960714Y-110571428D02*
X126960714Y-110952380D01*
X126627380Y-110714285D02*
X127484523Y-110714285D01*
X127579761Y-110761904D01*
X127627380Y-110857142D01*
X127627380Y-110952380D01*
X128372619Y-95952380D02*
X128325000Y-96000000D01*
X128277380Y-96095238D01*
X128277380Y-96333333D01*
X128325000Y-96428571D01*
X128372619Y-96476190D01*
X128467857Y-96523809D01*
X128563095Y-96523809D01*
X128705952Y-96476190D01*
X129277380Y-95904761D01*
X129277380Y-96523809D01*
X128277380Y-97142857D02*
X128277380Y-97238095D01*
X128325000Y-97333333D01*
X128372619Y-97380952D01*
X128467857Y-97428571D01*
X128658333Y-97476190D01*
X128896428Y-97476190D01*
X129086904Y-97428571D01*
X129182142Y-97380952D01*
X129229761Y-97333333D01*
X129277380Y-97238095D01*
X129277380Y-97142857D01*
X129229761Y-97047619D01*
X129182142Y-97000000D01*
X129086904Y-96952380D01*
X128896428Y-96904761D01*
X128658333Y-96904761D01*
X128467857Y-96952380D01*
X128372619Y-97000000D01*
X128325000Y-97047619D01*
X128277380Y-97142857D01*
X128372619Y-97857142D02*
X128325000Y-97904761D01*
X128277380Y-98000000D01*
X128277380Y-98238095D01*
X128325000Y-98333333D01*
X128372619Y-98380952D01*
X128467857Y-98428571D01*
X128563095Y-98428571D01*
X128705952Y-98380952D01*
X129277380Y-97809523D01*
X129277380Y-98428571D01*
X129277380Y-99380952D02*
X129277380Y-98809523D01*
X129277380Y-99095238D02*
X128277380Y-99095238D01*
X128420238Y-99000000D01*
X128515476Y-98904761D01*
X128563095Y-98809523D01*
X128896428Y-99809523D02*
X128896428Y-100571428D01*
X129277380Y-101571428D02*
X129277380Y-101000000D01*
X129277380Y-101285714D02*
X128277380Y-101285714D01*
X128420238Y-101190476D01*
X128515476Y-101095238D01*
X128563095Y-101000000D01*
X129277380Y-102523809D02*
X129277380Y-101952380D01*
X129277380Y-102238095D02*
X128277380Y-102238095D01*
X128420238Y-102142857D01*
X128515476Y-102047619D01*
X128563095Y-101952380D01*
X128896428Y-102952380D02*
X128896428Y-103714285D01*
X128277380Y-104380952D02*
X128277380Y-104476190D01*
X128325000Y-104571428D01*
X128372619Y-104619047D01*
X128467857Y-104666666D01*
X128658333Y-104714285D01*
X128896428Y-104714285D01*
X129086904Y-104666666D01*
X129182142Y-104619047D01*
X129229761Y-104571428D01*
X129277380Y-104476190D01*
X129277380Y-104380952D01*
X129229761Y-104285714D01*
X129182142Y-104238095D01*
X129086904Y-104190476D01*
X128896428Y-104142857D01*
X128658333Y-104142857D01*
X128467857Y-104190476D01*
X128372619Y-104238095D01*
X128325000Y-104285714D01*
X128277380Y-104380952D01*
X128610714Y-105571428D02*
X129277380Y-105571428D01*
X128229761Y-105333333D02*
X128944047Y-105095238D01*
X128944047Y-105714285D01*
X129277380Y-106857142D02*
X128610714Y-106857142D01*
X128801190Y-106857142D02*
X128705952Y-106904761D01*
X128658333Y-106952380D01*
X128610714Y-107047619D01*
X128610714Y-107142857D01*
X129229761Y-107857142D02*
X129277380Y-107761904D01*
X129277380Y-107571428D01*
X129229761Y-107476190D01*
X129134523Y-107428571D01*
X128753571Y-107428571D01*
X128658333Y-107476190D01*
X128610714Y-107571428D01*
X128610714Y-107761904D01*
X128658333Y-107857142D01*
X128753571Y-107904761D01*
X128848809Y-107904761D01*
X128944047Y-107428571D01*
X128610714Y-108238095D02*
X129277380Y-108476190D01*
X128610714Y-108714285D01*
X129277380Y-109619047D02*
X129277380Y-109047619D01*
X129277380Y-109333333D02*
X128277380Y-109333333D01*
X128420238Y-109238095D01*
X128515476Y-109142857D01*
X128563095Y-109047619D01*
X129182142Y-110047619D02*
X129229761Y-110095238D01*
X129277380Y-110047619D01*
X129229761Y-110000000D01*
X129182142Y-110047619D01*
X129277380Y-110047619D01*
X128277380Y-110714285D02*
X128277380Y-110809523D01*
X128325000Y-110904761D01*
X128372619Y-110952380D01*
X128467857Y-111000000D01*
X128658333Y-111047619D01*
X128896428Y-111047619D01*
X129086904Y-111000000D01*
X129182142Y-110952380D01*
X129229761Y-110904761D01*
X129277380Y-110809523D01*
X129277380Y-110714285D01*
X129229761Y-110619047D01*
X129182142Y-110571428D01*
X129086904Y-110523809D01*
X128896428Y-110476190D01*
X128658333Y-110476190D01*
X128467857Y-110523809D01*
X128372619Y-110571428D01*
X128325000Y-110619047D01*
X128277380Y-110714285D01*
X127627380Y-68190476D02*
X126960714Y-68190476D01*
X127151190Y-68190476D02*
X127055952Y-68238095D01*
X127008333Y-68285714D01*
X126960714Y-68380952D01*
X126960714Y-68476190D01*
X127579761Y-69190476D02*
X127627380Y-69095238D01*
X127627380Y-68904761D01*
X127579761Y-68809523D01*
X127484523Y-68761904D01*
X127103571Y-68761904D01*
X127008333Y-68809523D01*
X126960714Y-68904761D01*
X126960714Y-69095238D01*
X127008333Y-69190476D01*
X127103571Y-69238095D01*
X127198809Y-69238095D01*
X127294047Y-68761904D01*
X127627380Y-69666666D02*
X126960714Y-69666666D01*
X127055952Y-69666666D02*
X127008333Y-69714285D01*
X126960714Y-69809523D01*
X126960714Y-69952380D01*
X127008333Y-70047619D01*
X127103571Y-70095238D01*
X127627380Y-70095238D01*
X127103571Y-70095238D02*
X127008333Y-70142857D01*
X126960714Y-70238095D01*
X126960714Y-70380952D01*
X127008333Y-70476190D01*
X127103571Y-70523809D01*
X127627380Y-70523809D01*
X127627380Y-71142857D02*
X127579761Y-71047619D01*
X127532142Y-71000000D01*
X127436904Y-70952380D01*
X127151190Y-70952380D01*
X127055952Y-71000000D01*
X127008333Y-71047619D01*
X126960714Y-71142857D01*
X126960714Y-71285714D01*
X127008333Y-71380952D01*
X127055952Y-71428571D01*
X127151190Y-71476190D01*
X127436904Y-71476190D01*
X127532142Y-71428571D01*
X127579761Y-71380952D01*
X127627380Y-71285714D01*
X127627380Y-71142857D01*
X126960714Y-71761904D02*
X126960714Y-72142857D01*
X126627380Y-71904761D02*
X127484523Y-71904761D01*
X127579761Y-71952380D01*
X127627380Y-72047619D01*
X127627380Y-72142857D01*
X127579761Y-72857142D02*
X127627380Y-72761904D01*
X127627380Y-72571428D01*
X127579761Y-72476190D01*
X127484523Y-72428571D01*
X127103571Y-72428571D01*
X127008333Y-72476190D01*
X126960714Y-72571428D01*
X126960714Y-72761904D01*
X127008333Y-72857142D01*
X127103571Y-72904761D01*
X127198809Y-72904761D01*
X127294047Y-72428571D01*
X127246428Y-73333333D02*
X127246428Y-74095238D01*
X127627380Y-74714285D02*
X127579761Y-74619047D01*
X127484523Y-74571428D01*
X126627380Y-74571428D01*
X127579761Y-75476190D02*
X127627380Y-75380952D01*
X127627380Y-75190476D01*
X127579761Y-75095238D01*
X127484523Y-75047619D01*
X127103571Y-75047619D01*
X127008333Y-75095238D01*
X126960714Y-75190476D01*
X126960714Y-75380952D01*
X127008333Y-75476190D01*
X127103571Y-75523809D01*
X127198809Y-75523809D01*
X127294047Y-75047619D01*
X127627380Y-76380952D02*
X126627380Y-76380952D01*
X127579761Y-76380952D02*
X127627380Y-76285714D01*
X127627380Y-76095238D01*
X127579761Y-76000000D01*
X127532142Y-75952380D01*
X127436904Y-75904761D01*
X127151190Y-75904761D01*
X127055952Y-75952380D01*
X127008333Y-76000000D01*
X126960714Y-76095238D01*
X126960714Y-76285714D01*
X127008333Y-76380952D01*
X127246428Y-76857142D02*
X127246428Y-77619047D01*
X126960714Y-78095238D02*
X127960714Y-78095238D01*
X127008333Y-78095238D02*
X126960714Y-78190476D01*
X126960714Y-78380952D01*
X127008333Y-78476190D01*
X127055952Y-78523809D01*
X127151190Y-78571428D01*
X127436904Y-78571428D01*
X127532142Y-78523809D01*
X127579761Y-78476190D01*
X127627380Y-78380952D01*
X127627380Y-78190476D01*
X127579761Y-78095238D01*
X127627380Y-79000000D02*
X126960714Y-79000000D01*
X127151190Y-79000000D02*
X127055952Y-79047619D01*
X127008333Y-79095238D01*
X126960714Y-79190476D01*
X126960714Y-79285714D01*
X127627380Y-79761904D02*
X127579761Y-79666666D01*
X127532142Y-79619047D01*
X127436904Y-79571428D01*
X127151190Y-79571428D01*
X127055952Y-79619047D01*
X127008333Y-79666666D01*
X126960714Y-79761904D01*
X126960714Y-79904761D01*
X127008333Y-80000000D01*
X127055952Y-80047619D01*
X127151190Y-80095238D01*
X127436904Y-80095238D01*
X127532142Y-80047619D01*
X127579761Y-80000000D01*
X127627380Y-79904761D01*
X127627380Y-79761904D01*
X126960714Y-80523809D02*
X127817857Y-80523809D01*
X127913095Y-80476190D01*
X127960714Y-80380952D01*
X127960714Y-80333333D01*
X126627380Y-80523809D02*
X126675000Y-80476190D01*
X126722619Y-80523809D01*
X126675000Y-80571428D01*
X126627380Y-80523809D01*
X126722619Y-80523809D01*
X127579761Y-81380952D02*
X127627380Y-81285714D01*
X127627380Y-81095238D01*
X127579761Y-81000000D01*
X127484523Y-80952380D01*
X127103571Y-80952380D01*
X127008333Y-81000000D01*
X126960714Y-81095238D01*
X126960714Y-81285714D01*
X127008333Y-81380952D01*
X127103571Y-81428571D01*
X127198809Y-81428571D01*
X127294047Y-80952380D01*
X127579761Y-82285714D02*
X127627380Y-82190476D01*
X127627380Y-82000000D01*
X127579761Y-81904761D01*
X127532142Y-81857142D01*
X127436904Y-81809523D01*
X127151190Y-81809523D01*
X127055952Y-81857142D01*
X127008333Y-81904761D01*
X126960714Y-82000000D01*
X126960714Y-82190476D01*
X127008333Y-82285714D01*
X126960714Y-82571428D02*
X126960714Y-82952380D01*
X126627380Y-82714285D02*
X127484523Y-82714285D01*
X127579761Y-82761904D01*
X127627380Y-82857142D01*
X127627380Y-82952380D01*
X128372619Y-67952380D02*
X128325000Y-68000000D01*
X128277380Y-68095238D01*
X128277380Y-68333333D01*
X128325000Y-68428571D01*
X128372619Y-68476190D01*
X128467857Y-68523809D01*
X128563095Y-68523809D01*
X128705952Y-68476190D01*
X129277380Y-67904761D01*
X129277380Y-68523809D01*
X128277380Y-69142857D02*
X128277380Y-69238095D01*
X128325000Y-69333333D01*
X128372619Y-69380952D01*
X128467857Y-69428571D01*
X128658333Y-69476190D01*
X128896428Y-69476190D01*
X129086904Y-69428571D01*
X129182142Y-69380952D01*
X129229761Y-69333333D01*
X129277380Y-69238095D01*
X129277380Y-69142857D01*
X129229761Y-69047619D01*
X129182142Y-69000000D01*
X129086904Y-68952380D01*
X128896428Y-68904761D01*
X128658333Y-68904761D01*
X128467857Y-68952380D01*
X128372619Y-69000000D01*
X128325000Y-69047619D01*
X128277380Y-69142857D01*
X128372619Y-69857142D02*
X128325000Y-69904761D01*
X128277380Y-70000000D01*
X128277380Y-70238095D01*
X128325000Y-70333333D01*
X128372619Y-70380952D01*
X128467857Y-70428571D01*
X128563095Y-70428571D01*
X128705952Y-70380952D01*
X129277380Y-69809523D01*
X129277380Y-70428571D01*
X129277380Y-71380952D02*
X129277380Y-70809523D01*
X129277380Y-71095238D02*
X128277380Y-71095238D01*
X128420238Y-71000000D01*
X128515476Y-70904761D01*
X128563095Y-70809523D01*
X128896428Y-71809523D02*
X128896428Y-72571428D01*
X129277380Y-73571428D02*
X129277380Y-73000000D01*
X129277380Y-73285714D02*
X128277380Y-73285714D01*
X128420238Y-73190476D01*
X128515476Y-73095238D01*
X128563095Y-73000000D01*
X129277380Y-74523809D02*
X129277380Y-73952380D01*
X129277380Y-74238095D02*
X128277380Y-74238095D01*
X128420238Y-74142857D01*
X128515476Y-74047619D01*
X128563095Y-73952380D01*
X128896428Y-74952380D02*
X128896428Y-75714285D01*
X128277380Y-76380952D02*
X128277380Y-76476190D01*
X128325000Y-76571428D01*
X128372619Y-76619047D01*
X128467857Y-76666666D01*
X128658333Y-76714285D01*
X128896428Y-76714285D01*
X129086904Y-76666666D01*
X129182142Y-76619047D01*
X129229761Y-76571428D01*
X129277380Y-76476190D01*
X129277380Y-76380952D01*
X129229761Y-76285714D01*
X129182142Y-76238095D01*
X129086904Y-76190476D01*
X128896428Y-76142857D01*
X128658333Y-76142857D01*
X128467857Y-76190476D01*
X128372619Y-76238095D01*
X128325000Y-76285714D01*
X128277380Y-76380952D01*
X128610714Y-77571428D02*
X129277380Y-77571428D01*
X128229761Y-77333333D02*
X128944047Y-77095238D01*
X128944047Y-77714285D01*
X129277380Y-78857142D02*
X128610714Y-78857142D01*
X128801190Y-78857142D02*
X128705952Y-78904761D01*
X128658333Y-78952380D01*
X128610714Y-79047619D01*
X128610714Y-79142857D01*
X129229761Y-79857142D02*
X129277380Y-79761904D01*
X129277380Y-79571428D01*
X129229761Y-79476190D01*
X129134523Y-79428571D01*
X128753571Y-79428571D01*
X128658333Y-79476190D01*
X128610714Y-79571428D01*
X128610714Y-79761904D01*
X128658333Y-79857142D01*
X128753571Y-79904761D01*
X128848809Y-79904761D01*
X128944047Y-79428571D01*
X128610714Y-80238095D02*
X129277380Y-80476190D01*
X128610714Y-80714285D01*
X129277380Y-81619047D02*
X129277380Y-81047619D01*
X129277380Y-81333333D02*
X128277380Y-81333333D01*
X128420238Y-81238095D01*
X128515476Y-81142857D01*
X128563095Y-81047619D01*
X129182142Y-82047619D02*
X129229761Y-82095238D01*
X129277380Y-82047619D01*
X129229761Y-82000000D01*
X129182142Y-82047619D01*
X129277380Y-82047619D01*
X128277380Y-82714285D02*
X128277380Y-82809523D01*
X128325000Y-82904761D01*
X128372619Y-82952380D01*
X128467857Y-83000000D01*
X128658333Y-83047619D01*
X128896428Y-83047619D01*
X129086904Y-83000000D01*
X129182142Y-82952380D01*
X129229761Y-82904761D01*
X129277380Y-82809523D01*
X129277380Y-82714285D01*
X129229761Y-82619047D01*
X129182142Y-82571428D01*
X129086904Y-82523809D01*
X128896428Y-82476190D01*
X128658333Y-82476190D01*
X128467857Y-82523809D01*
X128372619Y-82571428D01*
X128325000Y-82619047D01*
X128277380Y-82714285D01*
X92372619Y-87809523D02*
X93039285Y-87809523D01*
X92848809Y-87809523D02*
X92944047Y-87761904D01*
X92991666Y-87714285D01*
X93039285Y-87619047D01*
X93039285Y-87523809D01*
X92420238Y-86809523D02*
X92372619Y-86904761D01*
X92372619Y-87095238D01*
X92420238Y-87190476D01*
X92515476Y-87238095D01*
X92896428Y-87238095D01*
X92991666Y-87190476D01*
X93039285Y-87095238D01*
X93039285Y-86904761D01*
X92991666Y-86809523D01*
X92896428Y-86761904D01*
X92801190Y-86761904D01*
X92705952Y-87238095D01*
X92372619Y-86333333D02*
X93039285Y-86333333D01*
X92944047Y-86333333D02*
X92991666Y-86285714D01*
X93039285Y-86190476D01*
X93039285Y-86047619D01*
X92991666Y-85952380D01*
X92896428Y-85904761D01*
X92372619Y-85904761D01*
X92896428Y-85904761D02*
X92991666Y-85857142D01*
X93039285Y-85761904D01*
X93039285Y-85619047D01*
X92991666Y-85523809D01*
X92896428Y-85476190D01*
X92372619Y-85476190D01*
X92372619Y-84857142D02*
X92420238Y-84952380D01*
X92467857Y-85000000D01*
X92563095Y-85047619D01*
X92848809Y-85047619D01*
X92944047Y-85000000D01*
X92991666Y-84952380D01*
X93039285Y-84857142D01*
X93039285Y-84714285D01*
X92991666Y-84619047D01*
X92944047Y-84571428D01*
X92848809Y-84523809D01*
X92563095Y-84523809D01*
X92467857Y-84571428D01*
X92420238Y-84619047D01*
X92372619Y-84714285D01*
X92372619Y-84857142D01*
X93039285Y-84238095D02*
X93039285Y-83857142D01*
X93372619Y-84095238D02*
X92515476Y-84095238D01*
X92420238Y-84047619D01*
X92372619Y-83952380D01*
X92372619Y-83857142D01*
X92420238Y-83142857D02*
X92372619Y-83238095D01*
X92372619Y-83428571D01*
X92420238Y-83523809D01*
X92515476Y-83571428D01*
X92896428Y-83571428D01*
X92991666Y-83523809D01*
X93039285Y-83428571D01*
X93039285Y-83238095D01*
X92991666Y-83142857D01*
X92896428Y-83095238D01*
X92801190Y-83095238D01*
X92705952Y-83571428D01*
X92753571Y-82666666D02*
X92753571Y-81904761D01*
X92372619Y-81285714D02*
X92420238Y-81380952D01*
X92515476Y-81428571D01*
X93372619Y-81428571D01*
X92420238Y-80523809D02*
X92372619Y-80619047D01*
X92372619Y-80809523D01*
X92420238Y-80904761D01*
X92515476Y-80952380D01*
X92896428Y-80952380D01*
X92991666Y-80904761D01*
X93039285Y-80809523D01*
X93039285Y-80619047D01*
X92991666Y-80523809D01*
X92896428Y-80476190D01*
X92801190Y-80476190D01*
X92705952Y-80952380D01*
X92372619Y-79619047D02*
X93372619Y-79619047D01*
X92420238Y-79619047D02*
X92372619Y-79714285D01*
X92372619Y-79904761D01*
X92420238Y-80000000D01*
X92467857Y-80047619D01*
X92563095Y-80095238D01*
X92848809Y-80095238D01*
X92944047Y-80047619D01*
X92991666Y-80000000D01*
X93039285Y-79904761D01*
X93039285Y-79714285D01*
X92991666Y-79619047D01*
X92753571Y-79142857D02*
X92753571Y-78380952D01*
X93039285Y-77904761D02*
X92039285Y-77904761D01*
X92991666Y-77904761D02*
X93039285Y-77809523D01*
X93039285Y-77619047D01*
X92991666Y-77523809D01*
X92944047Y-77476190D01*
X92848809Y-77428571D01*
X92563095Y-77428571D01*
X92467857Y-77476190D01*
X92420238Y-77523809D01*
X92372619Y-77619047D01*
X92372619Y-77809523D01*
X92420238Y-77904761D01*
X92372619Y-77000000D02*
X93039285Y-77000000D01*
X92848809Y-77000000D02*
X92944047Y-76952380D01*
X92991666Y-76904761D01*
X93039285Y-76809523D01*
X93039285Y-76714285D01*
X92372619Y-76238095D02*
X92420238Y-76333333D01*
X92467857Y-76380952D01*
X92563095Y-76428571D01*
X92848809Y-76428571D01*
X92944047Y-76380952D01*
X92991666Y-76333333D01*
X93039285Y-76238095D01*
X93039285Y-76095238D01*
X92991666Y-76000000D01*
X92944047Y-75952380D01*
X92848809Y-75904761D01*
X92563095Y-75904761D01*
X92467857Y-75952380D01*
X92420238Y-76000000D01*
X92372619Y-76095238D01*
X92372619Y-76238095D01*
X93039285Y-75476190D02*
X92182142Y-75476190D01*
X92086904Y-75523809D01*
X92039285Y-75619047D01*
X92039285Y-75666666D01*
X93372619Y-75476190D02*
X93325000Y-75523809D01*
X93277380Y-75476190D01*
X93325000Y-75428571D01*
X93372619Y-75476190D01*
X93277380Y-75476190D01*
X92420238Y-74619047D02*
X92372619Y-74714285D01*
X92372619Y-74904761D01*
X92420238Y-75000000D01*
X92515476Y-75047619D01*
X92896428Y-75047619D01*
X92991666Y-75000000D01*
X93039285Y-74904761D01*
X93039285Y-74714285D01*
X92991666Y-74619047D01*
X92896428Y-74571428D01*
X92801190Y-74571428D01*
X92705952Y-75047619D01*
X92420238Y-73714285D02*
X92372619Y-73809523D01*
X92372619Y-74000000D01*
X92420238Y-74095238D01*
X92467857Y-74142857D01*
X92563095Y-74190476D01*
X92848809Y-74190476D01*
X92944047Y-74142857D01*
X92991666Y-74095238D01*
X93039285Y-74000000D01*
X93039285Y-73809523D01*
X92991666Y-73714285D01*
X93039285Y-73428571D02*
X93039285Y-73047619D01*
X93372619Y-73285714D02*
X92515476Y-73285714D01*
X92420238Y-73238095D01*
X92372619Y-73142857D01*
X92372619Y-73047619D01*
X91627380Y-88047619D02*
X91675000Y-88000000D01*
X91722619Y-87904761D01*
X91722619Y-87666666D01*
X91675000Y-87571428D01*
X91627380Y-87523809D01*
X91532142Y-87476190D01*
X91436904Y-87476190D01*
X91294047Y-87523809D01*
X90722619Y-88095238D01*
X90722619Y-87476190D01*
X91722619Y-86857142D02*
X91722619Y-86761904D01*
X91675000Y-86666666D01*
X91627380Y-86619047D01*
X91532142Y-86571428D01*
X91341666Y-86523809D01*
X91103571Y-86523809D01*
X90913095Y-86571428D01*
X90817857Y-86619047D01*
X90770238Y-86666666D01*
X90722619Y-86761904D01*
X90722619Y-86857142D01*
X90770238Y-86952380D01*
X90817857Y-87000000D01*
X90913095Y-87047619D01*
X91103571Y-87095238D01*
X91341666Y-87095238D01*
X91532142Y-87047619D01*
X91627380Y-87000000D01*
X91675000Y-86952380D01*
X91722619Y-86857142D01*
X91627380Y-86142857D02*
X91675000Y-86095238D01*
X91722619Y-86000000D01*
X91722619Y-85761904D01*
X91675000Y-85666666D01*
X91627380Y-85619047D01*
X91532142Y-85571428D01*
X91436904Y-85571428D01*
X91294047Y-85619047D01*
X90722619Y-86190476D01*
X90722619Y-85571428D01*
X90722619Y-84619047D02*
X90722619Y-85190476D01*
X90722619Y-84904761D02*
X91722619Y-84904761D01*
X91579761Y-85000000D01*
X91484523Y-85095238D01*
X91436904Y-85190476D01*
X91103571Y-84190476D02*
X91103571Y-83428571D01*
X90722619Y-82428571D02*
X90722619Y-83000000D01*
X90722619Y-82714285D02*
X91722619Y-82714285D01*
X91579761Y-82809523D01*
X91484523Y-82904761D01*
X91436904Y-83000000D01*
X90722619Y-81476190D02*
X90722619Y-82047619D01*
X90722619Y-81761904D02*
X91722619Y-81761904D01*
X91579761Y-81857142D01*
X91484523Y-81952380D01*
X91436904Y-82047619D01*
X91103571Y-81047619D02*
X91103571Y-80285714D01*
X91722619Y-79619047D02*
X91722619Y-79523809D01*
X91675000Y-79428571D01*
X91627380Y-79380952D01*
X91532142Y-79333333D01*
X91341666Y-79285714D01*
X91103571Y-79285714D01*
X90913095Y-79333333D01*
X90817857Y-79380952D01*
X90770238Y-79428571D01*
X90722619Y-79523809D01*
X90722619Y-79619047D01*
X90770238Y-79714285D01*
X90817857Y-79761904D01*
X90913095Y-79809523D01*
X91103571Y-79857142D01*
X91341666Y-79857142D01*
X91532142Y-79809523D01*
X91627380Y-79761904D01*
X91675000Y-79714285D01*
X91722619Y-79619047D01*
X91389285Y-78428571D02*
X90722619Y-78428571D01*
X91770238Y-78666666D02*
X91055952Y-78904761D01*
X91055952Y-78285714D01*
X90722619Y-77142857D02*
X91389285Y-77142857D01*
X91198809Y-77142857D02*
X91294047Y-77095238D01*
X91341666Y-77047619D01*
X91389285Y-76952380D01*
X91389285Y-76857142D01*
X90770238Y-76142857D02*
X90722619Y-76238095D01*
X90722619Y-76428571D01*
X90770238Y-76523809D01*
X90865476Y-76571428D01*
X91246428Y-76571428D01*
X91341666Y-76523809D01*
X91389285Y-76428571D01*
X91389285Y-76238095D01*
X91341666Y-76142857D01*
X91246428Y-76095238D01*
X91151190Y-76095238D01*
X91055952Y-76571428D01*
X91389285Y-75761904D02*
X90722619Y-75523809D01*
X91389285Y-75285714D01*
X90722619Y-74380952D02*
X90722619Y-74952380D01*
X90722619Y-74666666D02*
X91722619Y-74666666D01*
X91579761Y-74761904D01*
X91484523Y-74857142D01*
X91436904Y-74952380D01*
X90817857Y-73952380D02*
X90770238Y-73904761D01*
X90722619Y-73952380D01*
X90770238Y-74000000D01*
X90817857Y-73952380D01*
X90722619Y-73952380D01*
X91722619Y-73285714D02*
X91722619Y-73190476D01*
X91675000Y-73095238D01*
X91627380Y-73047619D01*
X91532142Y-73000000D01*
X91341666Y-72952380D01*
X91103571Y-72952380D01*
X90913095Y-73000000D01*
X90817857Y-73047619D01*
X90770238Y-73095238D01*
X90722619Y-73190476D01*
X90722619Y-73285714D01*
X90770238Y-73380952D01*
X90817857Y-73428571D01*
X90913095Y-73476190D01*
X91103571Y-73523809D01*
X91341666Y-73523809D01*
X91532142Y-73476190D01*
X91627380Y-73428571D01*
X91675000Y-73380952D01*
X91722619Y-73285714D01*
X92372619Y-115809523D02*
X93039285Y-115809523D01*
X92848809Y-115809523D02*
X92944047Y-115761904D01*
X92991666Y-115714285D01*
X93039285Y-115619047D01*
X93039285Y-115523809D01*
X92420238Y-114809523D02*
X92372619Y-114904761D01*
X92372619Y-115095238D01*
X92420238Y-115190476D01*
X92515476Y-115238095D01*
X92896428Y-115238095D01*
X92991666Y-115190476D01*
X93039285Y-115095238D01*
X93039285Y-114904761D01*
X92991666Y-114809523D01*
X92896428Y-114761904D01*
X92801190Y-114761904D01*
X92705952Y-115238095D01*
X92372619Y-114333333D02*
X93039285Y-114333333D01*
X92944047Y-114333333D02*
X92991666Y-114285714D01*
X93039285Y-114190476D01*
X93039285Y-114047619D01*
X92991666Y-113952380D01*
X92896428Y-113904761D01*
X92372619Y-113904761D01*
X92896428Y-113904761D02*
X92991666Y-113857142D01*
X93039285Y-113761904D01*
X93039285Y-113619047D01*
X92991666Y-113523809D01*
X92896428Y-113476190D01*
X92372619Y-113476190D01*
X92372619Y-112857142D02*
X92420238Y-112952380D01*
X92467857Y-113000000D01*
X92563095Y-113047619D01*
X92848809Y-113047619D01*
X92944047Y-113000000D01*
X92991666Y-112952380D01*
X93039285Y-112857142D01*
X93039285Y-112714285D01*
X92991666Y-112619047D01*
X92944047Y-112571428D01*
X92848809Y-112523809D01*
X92563095Y-112523809D01*
X92467857Y-112571428D01*
X92420238Y-112619047D01*
X92372619Y-112714285D01*
X92372619Y-112857142D01*
X93039285Y-112238095D02*
X93039285Y-111857142D01*
X93372619Y-112095238D02*
X92515476Y-112095238D01*
X92420238Y-112047619D01*
X92372619Y-111952380D01*
X92372619Y-111857142D01*
X92420238Y-111142857D02*
X92372619Y-111238095D01*
X92372619Y-111428571D01*
X92420238Y-111523809D01*
X92515476Y-111571428D01*
X92896428Y-111571428D01*
X92991666Y-111523809D01*
X93039285Y-111428571D01*
X93039285Y-111238095D01*
X92991666Y-111142857D01*
X92896428Y-111095238D01*
X92801190Y-111095238D01*
X92705952Y-111571428D01*
X92753571Y-110666666D02*
X92753571Y-109904761D01*
X92372619Y-109285714D02*
X92420238Y-109380952D01*
X92515476Y-109428571D01*
X93372619Y-109428571D01*
X92420238Y-108523809D02*
X92372619Y-108619047D01*
X92372619Y-108809523D01*
X92420238Y-108904761D01*
X92515476Y-108952380D01*
X92896428Y-108952380D01*
X92991666Y-108904761D01*
X93039285Y-108809523D01*
X93039285Y-108619047D01*
X92991666Y-108523809D01*
X92896428Y-108476190D01*
X92801190Y-108476190D01*
X92705952Y-108952380D01*
X92372619Y-107619047D02*
X93372619Y-107619047D01*
X92420238Y-107619047D02*
X92372619Y-107714285D01*
X92372619Y-107904761D01*
X92420238Y-108000000D01*
X92467857Y-108047619D01*
X92563095Y-108095238D01*
X92848809Y-108095238D01*
X92944047Y-108047619D01*
X92991666Y-108000000D01*
X93039285Y-107904761D01*
X93039285Y-107714285D01*
X92991666Y-107619047D01*
X92753571Y-107142857D02*
X92753571Y-106380952D01*
X93039285Y-105904761D02*
X92039285Y-105904761D01*
X92991666Y-105904761D02*
X93039285Y-105809523D01*
X93039285Y-105619047D01*
X92991666Y-105523809D01*
X92944047Y-105476190D01*
X92848809Y-105428571D01*
X92563095Y-105428571D01*
X92467857Y-105476190D01*
X92420238Y-105523809D01*
X92372619Y-105619047D01*
X92372619Y-105809523D01*
X92420238Y-105904761D01*
X92372619Y-105000000D02*
X93039285Y-105000000D01*
X92848809Y-105000000D02*
X92944047Y-104952380D01*
X92991666Y-104904761D01*
X93039285Y-104809523D01*
X93039285Y-104714285D01*
X92372619Y-104238095D02*
X92420238Y-104333333D01*
X92467857Y-104380952D01*
X92563095Y-104428571D01*
X92848809Y-104428571D01*
X92944047Y-104380952D01*
X92991666Y-104333333D01*
X93039285Y-104238095D01*
X93039285Y-104095238D01*
X92991666Y-104000000D01*
X92944047Y-103952380D01*
X92848809Y-103904761D01*
X92563095Y-103904761D01*
X92467857Y-103952380D01*
X92420238Y-104000000D01*
X92372619Y-104095238D01*
X92372619Y-104238095D01*
X93039285Y-103476190D02*
X92182142Y-103476190D01*
X92086904Y-103523809D01*
X92039285Y-103619047D01*
X92039285Y-103666666D01*
X93372619Y-103476190D02*
X93325000Y-103523809D01*
X93277380Y-103476190D01*
X93325000Y-103428571D01*
X93372619Y-103476190D01*
X93277380Y-103476190D01*
X92420238Y-102619047D02*
X92372619Y-102714285D01*
X92372619Y-102904761D01*
X92420238Y-103000000D01*
X92515476Y-103047619D01*
X92896428Y-103047619D01*
X92991666Y-103000000D01*
X93039285Y-102904761D01*
X93039285Y-102714285D01*
X92991666Y-102619047D01*
X92896428Y-102571428D01*
X92801190Y-102571428D01*
X92705952Y-103047619D01*
X92420238Y-101714285D02*
X92372619Y-101809523D01*
X92372619Y-102000000D01*
X92420238Y-102095238D01*
X92467857Y-102142857D01*
X92563095Y-102190476D01*
X92848809Y-102190476D01*
X92944047Y-102142857D01*
X92991666Y-102095238D01*
X93039285Y-102000000D01*
X93039285Y-101809523D01*
X92991666Y-101714285D01*
X93039285Y-101428571D02*
X93039285Y-101047619D01*
X93372619Y-101285714D02*
X92515476Y-101285714D01*
X92420238Y-101238095D01*
X92372619Y-101142857D01*
X92372619Y-101047619D01*
X91627380Y-116047619D02*
X91675000Y-116000000D01*
X91722619Y-115904761D01*
X91722619Y-115666666D01*
X91675000Y-115571428D01*
X91627380Y-115523809D01*
X91532142Y-115476190D01*
X91436904Y-115476190D01*
X91294047Y-115523809D01*
X90722619Y-116095238D01*
X90722619Y-115476190D01*
X91722619Y-114857142D02*
X91722619Y-114761904D01*
X91675000Y-114666666D01*
X91627380Y-114619047D01*
X91532142Y-114571428D01*
X91341666Y-114523809D01*
X91103571Y-114523809D01*
X90913095Y-114571428D01*
X90817857Y-114619047D01*
X90770238Y-114666666D01*
X90722619Y-114761904D01*
X90722619Y-114857142D01*
X90770238Y-114952380D01*
X90817857Y-115000000D01*
X90913095Y-115047619D01*
X91103571Y-115095238D01*
X91341666Y-115095238D01*
X91532142Y-115047619D01*
X91627380Y-115000000D01*
X91675000Y-114952380D01*
X91722619Y-114857142D01*
X91627380Y-114142857D02*
X91675000Y-114095238D01*
X91722619Y-114000000D01*
X91722619Y-113761904D01*
X91675000Y-113666666D01*
X91627380Y-113619047D01*
X91532142Y-113571428D01*
X91436904Y-113571428D01*
X91294047Y-113619047D01*
X90722619Y-114190476D01*
X90722619Y-113571428D01*
X90722619Y-112619047D02*
X90722619Y-113190476D01*
X90722619Y-112904761D02*
X91722619Y-112904761D01*
X91579761Y-113000000D01*
X91484523Y-113095238D01*
X91436904Y-113190476D01*
X91103571Y-112190476D02*
X91103571Y-111428571D01*
X90722619Y-110428571D02*
X90722619Y-111000000D01*
X90722619Y-110714285D02*
X91722619Y-110714285D01*
X91579761Y-110809523D01*
X91484523Y-110904761D01*
X91436904Y-111000000D01*
X90722619Y-109476190D02*
X90722619Y-110047619D01*
X90722619Y-109761904D02*
X91722619Y-109761904D01*
X91579761Y-109857142D01*
X91484523Y-109952380D01*
X91436904Y-110047619D01*
X91103571Y-109047619D02*
X91103571Y-108285714D01*
X91722619Y-107619047D02*
X91722619Y-107523809D01*
X91675000Y-107428571D01*
X91627380Y-107380952D01*
X91532142Y-107333333D01*
X91341666Y-107285714D01*
X91103571Y-107285714D01*
X90913095Y-107333333D01*
X90817857Y-107380952D01*
X90770238Y-107428571D01*
X90722619Y-107523809D01*
X90722619Y-107619047D01*
X90770238Y-107714285D01*
X90817857Y-107761904D01*
X90913095Y-107809523D01*
X91103571Y-107857142D01*
X91341666Y-107857142D01*
X91532142Y-107809523D01*
X91627380Y-107761904D01*
X91675000Y-107714285D01*
X91722619Y-107619047D01*
X91389285Y-106428571D02*
X90722619Y-106428571D01*
X91770238Y-106666666D02*
X91055952Y-106904761D01*
X91055952Y-106285714D01*
X90722619Y-105142857D02*
X91389285Y-105142857D01*
X91198809Y-105142857D02*
X91294047Y-105095238D01*
X91341666Y-105047619D01*
X91389285Y-104952380D01*
X91389285Y-104857142D01*
X90770238Y-104142857D02*
X90722619Y-104238095D01*
X90722619Y-104428571D01*
X90770238Y-104523809D01*
X90865476Y-104571428D01*
X91246428Y-104571428D01*
X91341666Y-104523809D01*
X91389285Y-104428571D01*
X91389285Y-104238095D01*
X91341666Y-104142857D01*
X91246428Y-104095238D01*
X91151190Y-104095238D01*
X91055952Y-104571428D01*
X91389285Y-103761904D02*
X90722619Y-103523809D01*
X91389285Y-103285714D01*
X90722619Y-102380952D02*
X90722619Y-102952380D01*
X90722619Y-102666666D02*
X91722619Y-102666666D01*
X91579761Y-102761904D01*
X91484523Y-102857142D01*
X91436904Y-102952380D01*
X90817857Y-101952380D02*
X90770238Y-101904761D01*
X90722619Y-101952380D01*
X90770238Y-102000000D01*
X90817857Y-101952380D01*
X90722619Y-101952380D01*
X91722619Y-101285714D02*
X91722619Y-101190476D01*
X91675000Y-101095238D01*
X91627380Y-101047619D01*
X91532142Y-101000000D01*
X91341666Y-100952380D01*
X91103571Y-100952380D01*
X90913095Y-101000000D01*
X90817857Y-101047619D01*
X90770238Y-101095238D01*
X90722619Y-101190476D01*
X90722619Y-101285714D01*
X90770238Y-101380952D01*
X90817857Y-101428571D01*
X90913095Y-101476190D01*
X91103571Y-101523809D01*
X91341666Y-101523809D01*
X91532142Y-101476190D01*
X91627380Y-101428571D01*
X91675000Y-101380952D01*
X91722619Y-101285714D01*
X92372619Y-143809523D02*
X93039285Y-143809523D01*
X92848809Y-143809523D02*
X92944047Y-143761904D01*
X92991666Y-143714285D01*
X93039285Y-143619047D01*
X93039285Y-143523809D01*
X92420238Y-142809523D02*
X92372619Y-142904761D01*
X92372619Y-143095238D01*
X92420238Y-143190476D01*
X92515476Y-143238095D01*
X92896428Y-143238095D01*
X92991666Y-143190476D01*
X93039285Y-143095238D01*
X93039285Y-142904761D01*
X92991666Y-142809523D01*
X92896428Y-142761904D01*
X92801190Y-142761904D01*
X92705952Y-143238095D01*
X92372619Y-142333333D02*
X93039285Y-142333333D01*
X92944047Y-142333333D02*
X92991666Y-142285714D01*
X93039285Y-142190476D01*
X93039285Y-142047619D01*
X92991666Y-141952380D01*
X92896428Y-141904761D01*
X92372619Y-141904761D01*
X92896428Y-141904761D02*
X92991666Y-141857142D01*
X93039285Y-141761904D01*
X93039285Y-141619047D01*
X92991666Y-141523809D01*
X92896428Y-141476190D01*
X92372619Y-141476190D01*
X92372619Y-140857142D02*
X92420238Y-140952380D01*
X92467857Y-141000000D01*
X92563095Y-141047619D01*
X92848809Y-141047619D01*
X92944047Y-141000000D01*
X92991666Y-140952380D01*
X93039285Y-140857142D01*
X93039285Y-140714285D01*
X92991666Y-140619047D01*
X92944047Y-140571428D01*
X92848809Y-140523809D01*
X92563095Y-140523809D01*
X92467857Y-140571428D01*
X92420238Y-140619047D01*
X92372619Y-140714285D01*
X92372619Y-140857142D01*
X93039285Y-140238095D02*
X93039285Y-139857142D01*
X93372619Y-140095238D02*
X92515476Y-140095238D01*
X92420238Y-140047619D01*
X92372619Y-139952380D01*
X92372619Y-139857142D01*
X92420238Y-139142857D02*
X92372619Y-139238095D01*
X92372619Y-139428571D01*
X92420238Y-139523809D01*
X92515476Y-139571428D01*
X92896428Y-139571428D01*
X92991666Y-139523809D01*
X93039285Y-139428571D01*
X93039285Y-139238095D01*
X92991666Y-139142857D01*
X92896428Y-139095238D01*
X92801190Y-139095238D01*
X92705952Y-139571428D01*
X92753571Y-138666666D02*
X92753571Y-137904761D01*
X92372619Y-137285714D02*
X92420238Y-137380952D01*
X92515476Y-137428571D01*
X93372619Y-137428571D01*
X92420238Y-136523809D02*
X92372619Y-136619047D01*
X92372619Y-136809523D01*
X92420238Y-136904761D01*
X92515476Y-136952380D01*
X92896428Y-136952380D01*
X92991666Y-136904761D01*
X93039285Y-136809523D01*
X93039285Y-136619047D01*
X92991666Y-136523809D01*
X92896428Y-136476190D01*
X92801190Y-136476190D01*
X92705952Y-136952380D01*
X92372619Y-135619047D02*
X93372619Y-135619047D01*
X92420238Y-135619047D02*
X92372619Y-135714285D01*
X92372619Y-135904761D01*
X92420238Y-136000000D01*
X92467857Y-136047619D01*
X92563095Y-136095238D01*
X92848809Y-136095238D01*
X92944047Y-136047619D01*
X92991666Y-136000000D01*
X93039285Y-135904761D01*
X93039285Y-135714285D01*
X92991666Y-135619047D01*
X92753571Y-135142857D02*
X92753571Y-134380952D01*
X93039285Y-133904761D02*
X92039285Y-133904761D01*
X92991666Y-133904761D02*
X93039285Y-133809523D01*
X93039285Y-133619047D01*
X92991666Y-133523809D01*
X92944047Y-133476190D01*
X92848809Y-133428571D01*
X92563095Y-133428571D01*
X92467857Y-133476190D01*
X92420238Y-133523809D01*
X92372619Y-133619047D01*
X92372619Y-133809523D01*
X92420238Y-133904761D01*
X92372619Y-133000000D02*
X93039285Y-133000000D01*
X92848809Y-133000000D02*
X92944047Y-132952380D01*
X92991666Y-132904761D01*
X93039285Y-132809523D01*
X93039285Y-132714285D01*
X92372619Y-132238095D02*
X92420238Y-132333333D01*
X92467857Y-132380952D01*
X92563095Y-132428571D01*
X92848809Y-132428571D01*
X92944047Y-132380952D01*
X92991666Y-132333333D01*
X93039285Y-132238095D01*
X93039285Y-132095238D01*
X92991666Y-132000000D01*
X92944047Y-131952380D01*
X92848809Y-131904761D01*
X92563095Y-131904761D01*
X92467857Y-131952380D01*
X92420238Y-132000000D01*
X92372619Y-132095238D01*
X92372619Y-132238095D01*
X93039285Y-131476190D02*
X92182142Y-131476190D01*
X92086904Y-131523809D01*
X92039285Y-131619047D01*
X92039285Y-131666666D01*
X93372619Y-131476190D02*
X93325000Y-131523809D01*
X93277380Y-131476190D01*
X93325000Y-131428571D01*
X93372619Y-131476190D01*
X93277380Y-131476190D01*
X92420238Y-130619047D02*
X92372619Y-130714285D01*
X92372619Y-130904761D01*
X92420238Y-131000000D01*
X92515476Y-131047619D01*
X92896428Y-131047619D01*
X92991666Y-131000000D01*
X93039285Y-130904761D01*
X93039285Y-130714285D01*
X92991666Y-130619047D01*
X92896428Y-130571428D01*
X92801190Y-130571428D01*
X92705952Y-131047619D01*
X92420238Y-129714285D02*
X92372619Y-129809523D01*
X92372619Y-130000000D01*
X92420238Y-130095238D01*
X92467857Y-130142857D01*
X92563095Y-130190476D01*
X92848809Y-130190476D01*
X92944047Y-130142857D01*
X92991666Y-130095238D01*
X93039285Y-130000000D01*
X93039285Y-129809523D01*
X92991666Y-129714285D01*
X93039285Y-129428571D02*
X93039285Y-129047619D01*
X93372619Y-129285714D02*
X92515476Y-129285714D01*
X92420238Y-129238095D01*
X92372619Y-129142857D01*
X92372619Y-129047619D01*
X91627380Y-144047619D02*
X91675000Y-144000000D01*
X91722619Y-143904761D01*
X91722619Y-143666666D01*
X91675000Y-143571428D01*
X91627380Y-143523809D01*
X91532142Y-143476190D01*
X91436904Y-143476190D01*
X91294047Y-143523809D01*
X90722619Y-144095238D01*
X90722619Y-143476190D01*
X91722619Y-142857142D02*
X91722619Y-142761904D01*
X91675000Y-142666666D01*
X91627380Y-142619047D01*
X91532142Y-142571428D01*
X91341666Y-142523809D01*
X91103571Y-142523809D01*
X90913095Y-142571428D01*
X90817857Y-142619047D01*
X90770238Y-142666666D01*
X90722619Y-142761904D01*
X90722619Y-142857142D01*
X90770238Y-142952380D01*
X90817857Y-143000000D01*
X90913095Y-143047619D01*
X91103571Y-143095238D01*
X91341666Y-143095238D01*
X91532142Y-143047619D01*
X91627380Y-143000000D01*
X91675000Y-142952380D01*
X91722619Y-142857142D01*
X91627380Y-142142857D02*
X91675000Y-142095238D01*
X91722619Y-142000000D01*
X91722619Y-141761904D01*
X91675000Y-141666666D01*
X91627380Y-141619047D01*
X91532142Y-141571428D01*
X91436904Y-141571428D01*
X91294047Y-141619047D01*
X90722619Y-142190476D01*
X90722619Y-141571428D01*
X90722619Y-140619047D02*
X90722619Y-141190476D01*
X90722619Y-140904761D02*
X91722619Y-140904761D01*
X91579761Y-141000000D01*
X91484523Y-141095238D01*
X91436904Y-141190476D01*
X91103571Y-140190476D02*
X91103571Y-139428571D01*
X90722619Y-138428571D02*
X90722619Y-139000000D01*
X90722619Y-138714285D02*
X91722619Y-138714285D01*
X91579761Y-138809523D01*
X91484523Y-138904761D01*
X91436904Y-139000000D01*
X90722619Y-137476190D02*
X90722619Y-138047619D01*
X90722619Y-137761904D02*
X91722619Y-137761904D01*
X91579761Y-137857142D01*
X91484523Y-137952380D01*
X91436904Y-138047619D01*
X91103571Y-137047619D02*
X91103571Y-136285714D01*
X91722619Y-135619047D02*
X91722619Y-135523809D01*
X91675000Y-135428571D01*
X91627380Y-135380952D01*
X91532142Y-135333333D01*
X91341666Y-135285714D01*
X91103571Y-135285714D01*
X90913095Y-135333333D01*
X90817857Y-135380952D01*
X90770238Y-135428571D01*
X90722619Y-135523809D01*
X90722619Y-135619047D01*
X90770238Y-135714285D01*
X90817857Y-135761904D01*
X90913095Y-135809523D01*
X91103571Y-135857142D01*
X91341666Y-135857142D01*
X91532142Y-135809523D01*
X91627380Y-135761904D01*
X91675000Y-135714285D01*
X91722619Y-135619047D01*
X91389285Y-134428571D02*
X90722619Y-134428571D01*
X91770238Y-134666666D02*
X91055952Y-134904761D01*
X91055952Y-134285714D01*
X90722619Y-133142857D02*
X91389285Y-133142857D01*
X91198809Y-133142857D02*
X91294047Y-133095238D01*
X91341666Y-133047619D01*
X91389285Y-132952380D01*
X91389285Y-132857142D01*
X90770238Y-132142857D02*
X90722619Y-132238095D01*
X90722619Y-132428571D01*
X90770238Y-132523809D01*
X90865476Y-132571428D01*
X91246428Y-132571428D01*
X91341666Y-132523809D01*
X91389285Y-132428571D01*
X91389285Y-132238095D01*
X91341666Y-132142857D01*
X91246428Y-132095238D01*
X91151190Y-132095238D01*
X91055952Y-132571428D01*
X91389285Y-131761904D02*
X90722619Y-131523809D01*
X91389285Y-131285714D01*
X90722619Y-130380952D02*
X90722619Y-130952380D01*
X90722619Y-130666666D02*
X91722619Y-130666666D01*
X91579761Y-130761904D01*
X91484523Y-130857142D01*
X91436904Y-130952380D01*
X90817857Y-129952380D02*
X90770238Y-129904761D01*
X90722619Y-129952380D01*
X90770238Y-130000000D01*
X90817857Y-129952380D01*
X90722619Y-129952380D01*
X91722619Y-129285714D02*
X91722619Y-129190476D01*
X91675000Y-129095238D01*
X91627380Y-129047619D01*
X91532142Y-129000000D01*
X91341666Y-128952380D01*
X91103571Y-128952380D01*
X90913095Y-129000000D01*
X90817857Y-129047619D01*
X90770238Y-129095238D01*
X90722619Y-129190476D01*
X90722619Y-129285714D01*
X90770238Y-129380952D01*
X90817857Y-129428571D01*
X90913095Y-129476190D01*
X91103571Y-129523809D01*
X91341666Y-129523809D01*
X91532142Y-129476190D01*
X91627380Y-129428571D01*
X91675000Y-129380952D01*
X91722619Y-129285714D01*
D11*
%TO.C,G\002A\002A\002A*%
G36*
X103097053Y-126691132D02*
G01*
X103096900Y-126368388D01*
X103096554Y-126087418D01*
X103095957Y-125845213D01*
X103095047Y-125638765D01*
X103093765Y-125465063D01*
X103092050Y-125321101D01*
X103089842Y-125203869D01*
X103087080Y-125110358D01*
X103083705Y-125037559D01*
X103079656Y-124982464D01*
X103074873Y-124942064D01*
X103069296Y-124913351D01*
X103062864Y-124893315D01*
X103055517Y-124878948D01*
X103047195Y-124867241D01*
X103044757Y-124864126D01*
X102975406Y-124809989D01*
X102896004Y-124799461D01*
X102820948Y-124833345D01*
X102802887Y-124850662D01*
X102794909Y-124860909D01*
X102787832Y-124874982D01*
X102781585Y-124895896D01*
X102776095Y-124926667D01*
X102771290Y-124970312D01*
X102767098Y-125029845D01*
X102763448Y-125108282D01*
X102760266Y-125208639D01*
X102757481Y-125333931D01*
X102755021Y-125487175D01*
X102752814Y-125671386D01*
X102750787Y-125889579D01*
X102748869Y-126144771D01*
X102746987Y-126439977D01*
X102745070Y-126778213D01*
X102743045Y-127162494D01*
X102741800Y-127406110D01*
X102729100Y-129908097D01*
X102221100Y-130199594D01*
X101337657Y-130707187D01*
X100437466Y-131225735D01*
X99592200Y-131713779D01*
X99399176Y-131825187D01*
X99219196Y-131928764D01*
X99057163Y-132021711D01*
X98917977Y-132101230D01*
X98806540Y-132164523D01*
X98727753Y-132208792D01*
X98686517Y-132231239D01*
X98682158Y-132233317D01*
X98676961Y-132228297D01*
X98672327Y-132207365D01*
X98668233Y-132168079D01*
X98664655Y-132107996D01*
X98661568Y-132024673D01*
X98658948Y-131915668D01*
X98656771Y-131778539D01*
X98655014Y-131610843D01*
X98653651Y-131410137D01*
X98652660Y-131173979D01*
X98652015Y-130899926D01*
X98651692Y-130585537D01*
X98651669Y-130228368D01*
X98651919Y-129825977D01*
X98652420Y-129375921D01*
X98652604Y-129239333D01*
X98653125Y-128852037D01*
X98653591Y-128478502D01*
X98653999Y-128121914D01*
X98654349Y-127785460D01*
X98654637Y-127472328D01*
X98654861Y-127185705D01*
X98655020Y-126928778D01*
X98655112Y-126704734D01*
X98655134Y-126516761D01*
X98655084Y-126368046D01*
X98654960Y-126261777D01*
X98654760Y-126201139D01*
X98654597Y-126187850D01*
X98635838Y-126137529D01*
X98601600Y-126092600D01*
X98591916Y-126083827D01*
X98579407Y-126076126D01*
X98560895Y-126069429D01*
X98533198Y-126063664D01*
X98493136Y-126058763D01*
X98437527Y-126054654D01*
X98363191Y-126051269D01*
X98266948Y-126048537D01*
X98145616Y-126046388D01*
X97996015Y-126044753D01*
X97814964Y-126043561D01*
X97599282Y-126042742D01*
X97345790Y-126042226D01*
X97051304Y-126041944D01*
X96712646Y-126041826D01*
X96326635Y-126041801D01*
X96292149Y-126041800D01*
X94033498Y-126041800D01*
X93877200Y-126173316D01*
X93877200Y-133881545D01*
X93935988Y-133936773D01*
X94014734Y-133984326D01*
X94093363Y-133982515D01*
X94156600Y-133941200D01*
X94163628Y-133933493D01*
X94169981Y-133923466D01*
X94175697Y-133908625D01*
X94180815Y-133886475D01*
X94185373Y-133854525D01*
X94189409Y-133810278D01*
X94192962Y-133751243D01*
X94196070Y-133674924D01*
X94198772Y-133578828D01*
X94201105Y-133460462D01*
X94203109Y-133317331D01*
X94204822Y-133146942D01*
X94206281Y-132946800D01*
X94207527Y-132714413D01*
X94208596Y-132447285D01*
X94209527Y-132142925D01*
X94210359Y-131798836D01*
X94211130Y-131412527D01*
X94211878Y-130981502D01*
X94212642Y-130503269D01*
X94212993Y-130277250D01*
X94213657Y-129850641D01*
X94214310Y-129436596D01*
X94214945Y-129038102D01*
X94215558Y-128658144D01*
X94216144Y-128299711D01*
X94216698Y-127965786D01*
X94217214Y-127659358D01*
X94217689Y-127383413D01*
X94218115Y-127140936D01*
X94218489Y-126934914D01*
X94218806Y-126768333D01*
X94219060Y-126644180D01*
X94219246Y-126565441D01*
X94219343Y-126537100D01*
X94220100Y-126410100D01*
X96258450Y-126403599D01*
X98296801Y-126397098D01*
X98296801Y-132622710D01*
X98359146Y-132685055D01*
X98416221Y-132727950D01*
X98469991Y-132747309D01*
X98472872Y-132747400D01*
X98502094Y-132734922D01*
X98571962Y-132698710D01*
X98679226Y-132640597D01*
X98820636Y-132562416D01*
X98992939Y-132466001D01*
X99192887Y-132353184D01*
X99417227Y-132225798D01*
X99662711Y-132085678D01*
X99926085Y-131934655D01*
X100204101Y-131774563D01*
X100448876Y-131633084D01*
X100811413Y-131423186D01*
X101132845Y-131237097D01*
X101416027Y-131073166D01*
X101663813Y-130929744D01*
X101879061Y-130805181D01*
X102064623Y-130697827D01*
X102223357Y-130606033D01*
X102358116Y-130528147D01*
X102471756Y-130462521D01*
X102567132Y-130407504D01*
X102647100Y-130361447D01*
X102714515Y-130322699D01*
X102772231Y-130289612D01*
X102823104Y-130260534D01*
X102869989Y-130233817D01*
X102894200Y-130220048D01*
X102973710Y-130168000D01*
X103037062Y-130114217D01*
X103065276Y-130078773D01*
X103070675Y-130057122D01*
X103075473Y-130013071D01*
X103079700Y-129944207D01*
X103083385Y-129848111D01*
X103086558Y-129722370D01*
X103089248Y-129564565D01*
X103091485Y-129372282D01*
X103093298Y-129143105D01*
X103094716Y-128874617D01*
X103095770Y-128564402D01*
X103096488Y-128210045D01*
X103096900Y-127809129D01*
X103097026Y-127473976D01*
X103097075Y-127058658D01*
X103097053Y-126691132D01*
G37*
X103097053Y-126691132D02*
X103096900Y-126368388D01*
X103096554Y-126087418D01*
X103095957Y-125845213D01*
X103095047Y-125638765D01*
X103093765Y-125465063D01*
X103092050Y-125321101D01*
X103089842Y-125203869D01*
X103087080Y-125110358D01*
X103083705Y-125037559D01*
X103079656Y-124982464D01*
X103074873Y-124942064D01*
X103069296Y-124913351D01*
X103062864Y-124893315D01*
X103055517Y-124878948D01*
X103047195Y-124867241D01*
X103044757Y-124864126D01*
X102975406Y-124809989D01*
X102896004Y-124799461D01*
X102820948Y-124833345D01*
X102802887Y-124850662D01*
X102794909Y-124860909D01*
X102787832Y-124874982D01*
X102781585Y-124895896D01*
X102776095Y-124926667D01*
X102771290Y-124970312D01*
X102767098Y-125029845D01*
X102763448Y-125108282D01*
X102760266Y-125208639D01*
X102757481Y-125333931D01*
X102755021Y-125487175D01*
X102752814Y-125671386D01*
X102750787Y-125889579D01*
X102748869Y-126144771D01*
X102746987Y-126439977D01*
X102745070Y-126778213D01*
X102743045Y-127162494D01*
X102741800Y-127406110D01*
X102729100Y-129908097D01*
X102221100Y-130199594D01*
X101337657Y-130707187D01*
X100437466Y-131225735D01*
X99592200Y-131713779D01*
X99399176Y-131825187D01*
X99219196Y-131928764D01*
X99057163Y-132021711D01*
X98917977Y-132101230D01*
X98806540Y-132164523D01*
X98727753Y-132208792D01*
X98686517Y-132231239D01*
X98682158Y-132233317D01*
X98676961Y-132228297D01*
X98672327Y-132207365D01*
X98668233Y-132168079D01*
X98664655Y-132107996D01*
X98661568Y-132024673D01*
X98658948Y-131915668D01*
X98656771Y-131778539D01*
X98655014Y-131610843D01*
X98653651Y-131410137D01*
X98652660Y-131173979D01*
X98652015Y-130899926D01*
X98651692Y-130585537D01*
X98651669Y-130228368D01*
X98651919Y-129825977D01*
X98652420Y-129375921D01*
X98652604Y-129239333D01*
X98653125Y-128852037D01*
X98653591Y-128478502D01*
X98653999Y-128121914D01*
X98654349Y-127785460D01*
X98654637Y-127472328D01*
X98654861Y-127185705D01*
X98655020Y-126928778D01*
X98655112Y-126704734D01*
X98655134Y-126516761D01*
X98655084Y-126368046D01*
X98654960Y-126261777D01*
X98654760Y-126201139D01*
X98654597Y-126187850D01*
X98635838Y-126137529D01*
X98601600Y-126092600D01*
X98591916Y-126083827D01*
X98579407Y-126076126D01*
X98560895Y-126069429D01*
X98533198Y-126063664D01*
X98493136Y-126058763D01*
X98437527Y-126054654D01*
X98363191Y-126051269D01*
X98266948Y-126048537D01*
X98145616Y-126046388D01*
X97996015Y-126044753D01*
X97814964Y-126043561D01*
X97599282Y-126042742D01*
X97345790Y-126042226D01*
X97051304Y-126041944D01*
X96712646Y-126041826D01*
X96326635Y-126041801D01*
X96292149Y-126041800D01*
X94033498Y-126041800D01*
X93877200Y-126173316D01*
X93877200Y-133881545D01*
X93935988Y-133936773D01*
X94014734Y-133984326D01*
X94093363Y-133982515D01*
X94156600Y-133941200D01*
X94163628Y-133933493D01*
X94169981Y-133923466D01*
X94175697Y-133908625D01*
X94180815Y-133886475D01*
X94185373Y-133854525D01*
X94189409Y-133810278D01*
X94192962Y-133751243D01*
X94196070Y-133674924D01*
X94198772Y-133578828D01*
X94201105Y-133460462D01*
X94203109Y-133317331D01*
X94204822Y-133146942D01*
X94206281Y-132946800D01*
X94207527Y-132714413D01*
X94208596Y-132447285D01*
X94209527Y-132142925D01*
X94210359Y-131798836D01*
X94211130Y-131412527D01*
X94211878Y-130981502D01*
X94212642Y-130503269D01*
X94212993Y-130277250D01*
X94213657Y-129850641D01*
X94214310Y-129436596D01*
X94214945Y-129038102D01*
X94215558Y-128658144D01*
X94216144Y-128299711D01*
X94216698Y-127965786D01*
X94217214Y-127659358D01*
X94217689Y-127383413D01*
X94218115Y-127140936D01*
X94218489Y-126934914D01*
X94218806Y-126768333D01*
X94219060Y-126644180D01*
X94219246Y-126565441D01*
X94219343Y-126537100D01*
X94220100Y-126410100D01*
X96258450Y-126403599D01*
X98296801Y-126397098D01*
X98296801Y-132622710D01*
X98359146Y-132685055D01*
X98416221Y-132727950D01*
X98469991Y-132747309D01*
X98472872Y-132747400D01*
X98502094Y-132734922D01*
X98571962Y-132698710D01*
X98679226Y-132640597D01*
X98820636Y-132562416D01*
X98992939Y-132466001D01*
X99192887Y-132353184D01*
X99417227Y-132225798D01*
X99662711Y-132085678D01*
X99926085Y-131934655D01*
X100204101Y-131774563D01*
X100448876Y-131633084D01*
X100811413Y-131423186D01*
X101132845Y-131237097D01*
X101416027Y-131073166D01*
X101663813Y-130929744D01*
X101879061Y-130805181D01*
X102064623Y-130697827D01*
X102223357Y-130606033D01*
X102358116Y-130528147D01*
X102471756Y-130462521D01*
X102567132Y-130407504D01*
X102647100Y-130361447D01*
X102714515Y-130322699D01*
X102772231Y-130289612D01*
X102823104Y-130260534D01*
X102869989Y-130233817D01*
X102894200Y-130220048D01*
X102973710Y-130168000D01*
X103037062Y-130114217D01*
X103065276Y-130078773D01*
X103070675Y-130057122D01*
X103075473Y-130013071D01*
X103079700Y-129944207D01*
X103083385Y-129848111D01*
X103086558Y-129722370D01*
X103089248Y-129564565D01*
X103091485Y-129372282D01*
X103093298Y-129143105D01*
X103094716Y-128874617D01*
X103095770Y-128564402D01*
X103096488Y-128210045D01*
X103096900Y-127809129D01*
X103097026Y-127473976D01*
X103097075Y-127058658D01*
X103097053Y-126691132D01*
G36*
X103019647Y-132509894D02*
G01*
X102949113Y-132453613D01*
X102870550Y-132444139D01*
X102795491Y-132481488D01*
X102769044Y-132509526D01*
X102761221Y-132519932D01*
X102754214Y-132531989D01*
X102747978Y-132548406D01*
X102742469Y-132571894D01*
X102737640Y-132605163D01*
X102733448Y-132650921D01*
X102729848Y-132711879D01*
X102726794Y-132790746D01*
X102724241Y-132890233D01*
X102722145Y-133013048D01*
X102720460Y-133161901D01*
X102719142Y-133339503D01*
X102718145Y-133548562D01*
X102717425Y-133791789D01*
X102716937Y-134071893D01*
X102716635Y-134391584D01*
X102716475Y-134753571D01*
X102716412Y-135160565D01*
X102716401Y-135615275D01*
X102716400Y-135681988D01*
X102716400Y-138787525D01*
X102316350Y-139016556D01*
X102168368Y-139101369D01*
X102017404Y-139188052D01*
X101876384Y-139269170D01*
X101758236Y-139337292D01*
X101700400Y-139370748D01*
X101617772Y-139418583D01*
X101500041Y-139486651D01*
X101356110Y-139569808D01*
X101194883Y-139662911D01*
X101025266Y-139760815D01*
X100900300Y-139832918D01*
X100705851Y-139945106D01*
X100490841Y-140069180D01*
X100270019Y-140196628D01*
X100058137Y-140318937D01*
X99869943Y-140427594D01*
X99808100Y-140463307D01*
X99638142Y-140561416D01*
X99460068Y-140664132D01*
X99286336Y-140764275D01*
X99129404Y-140854665D01*
X99001727Y-140928121D01*
X98982600Y-140939113D01*
X98665100Y-141121540D01*
X98652400Y-138740531D01*
X98650229Y-138338993D01*
X98648211Y-137985160D01*
X98646270Y-137675937D01*
X98644327Y-137408230D01*
X98642305Y-137178944D01*
X98640126Y-136984984D01*
X98637713Y-136823257D01*
X98634988Y-136690667D01*
X98631873Y-136584120D01*
X98628291Y-136500522D01*
X98624164Y-136436777D01*
X98619415Y-136389791D01*
X98613965Y-136356470D01*
X98607737Y-136333719D01*
X98600654Y-136318443D01*
X98592637Y-136307548D01*
X98591314Y-136306061D01*
X98520641Y-136261441D01*
X98439481Y-136258579D01*
X98366279Y-136297474D01*
X98357887Y-136306061D01*
X98349895Y-136316328D01*
X98342807Y-136330425D01*
X98336551Y-136351376D01*
X98331055Y-136382203D01*
X98326247Y-136425925D01*
X98322053Y-136485567D01*
X98318401Y-136564148D01*
X98315220Y-136664692D01*
X98312435Y-136790219D01*
X98309976Y-136943751D01*
X98307768Y-137128310D01*
X98305741Y-137346918D01*
X98303820Y-137602596D01*
X98301935Y-137898366D01*
X98300011Y-138237250D01*
X98297978Y-138622270D01*
X98296800Y-138851969D01*
X98284100Y-141344416D01*
X97725300Y-141666030D01*
X97602925Y-141736508D01*
X97442224Y-141829128D01*
X97248861Y-141940623D01*
X97028501Y-142067725D01*
X96786805Y-142207167D01*
X96529438Y-142355681D01*
X96262062Y-142510001D01*
X95990342Y-142666859D01*
X95719941Y-142822986D01*
X95693300Y-142838370D01*
X94220100Y-143689095D01*
X94207228Y-136369991D01*
X94152087Y-136311296D01*
X94079090Y-136261334D01*
X94004097Y-136261784D01*
X93932674Y-136311126D01*
X93877692Y-136369651D01*
X93871096Y-140184637D01*
X93870475Y-140621752D01*
X93870134Y-141045518D01*
X93870064Y-141453101D01*
X93870255Y-141841667D01*
X93870697Y-142208382D01*
X93871380Y-142550411D01*
X93872294Y-142864921D01*
X93873429Y-143149077D01*
X93874774Y-143400045D01*
X93876321Y-143614992D01*
X93878058Y-143791082D01*
X93879975Y-143925482D01*
X93882064Y-144015359D01*
X93884313Y-144057876D01*
X93884815Y-144060554D01*
X93922214Y-144113856D01*
X93979129Y-144152137D01*
X94030765Y-144167661D01*
X94078740Y-144161985D01*
X94143546Y-144131662D01*
X94162015Y-144121388D01*
X94222897Y-144086747D01*
X94325709Y-144027862D01*
X94468399Y-143945913D01*
X94648920Y-143842081D01*
X94865221Y-143717548D01*
X95115252Y-143573494D01*
X95396964Y-143411101D01*
X95708307Y-143231550D01*
X96047231Y-143036021D01*
X96411686Y-142825696D01*
X96799623Y-142601756D01*
X96963300Y-142507254D01*
X97286419Y-142320685D01*
X97568776Y-142157646D01*
X97813601Y-142016270D01*
X98024126Y-141894687D01*
X98203583Y-141791028D01*
X98355203Y-141703424D01*
X98482218Y-141630007D01*
X98587859Y-141568907D01*
X98675357Y-141518256D01*
X98747945Y-141476184D01*
X98808853Y-141440823D01*
X98861313Y-141410303D01*
X98908556Y-141382757D01*
X98953815Y-141356314D01*
X98995300Y-141332044D01*
X99063974Y-141292086D01*
X99170323Y-141230510D01*
X99307967Y-141150994D01*
X99470528Y-141057219D01*
X99651628Y-140952864D01*
X99844888Y-140841608D01*
X100043930Y-140727131D01*
X100049400Y-140723986D01*
X100250565Y-140608303D01*
X100447899Y-140494739D01*
X100634691Y-140387164D01*
X100804224Y-140289448D01*
X100949786Y-140205460D01*
X101064662Y-140139071D01*
X101141600Y-140094463D01*
X101276409Y-140016142D01*
X101429273Y-139927499D01*
X101574362Y-139843509D01*
X101624200Y-139814705D01*
X101756749Y-139738080D01*
X101905022Y-139652258D01*
X102044329Y-139571536D01*
X102094100Y-139542664D01*
X102205874Y-139478005D01*
X102344686Y-139398016D01*
X102493443Y-139312531D01*
X102635053Y-139231386D01*
X102644932Y-139225735D01*
X102763658Y-139156201D01*
X102869379Y-139091231D01*
X102952725Y-139036806D01*
X103004329Y-138998910D01*
X103013232Y-138990575D01*
X103020016Y-138981327D01*
X103026112Y-138967594D01*
X103031563Y-138946721D01*
X103036414Y-138916052D01*
X103040708Y-138872931D01*
X103044487Y-138814703D01*
X103047796Y-138738712D01*
X103050676Y-138642304D01*
X103053173Y-138522821D01*
X103055328Y-138377610D01*
X103057186Y-138204014D01*
X103058789Y-137999378D01*
X103060181Y-137761046D01*
X103061406Y-137486362D01*
X103062506Y-137172672D01*
X103063525Y-136817320D01*
X103064506Y-136417650D01*
X103065492Y-135971006D01*
X103065940Y-135758431D01*
X103072580Y-132577188D01*
X103019647Y-132509894D01*
G37*
X103019647Y-132509894D02*
X102949113Y-132453613D01*
X102870550Y-132444139D01*
X102795491Y-132481488D01*
X102769044Y-132509526D01*
X102761221Y-132519932D01*
X102754214Y-132531989D01*
X102747978Y-132548406D01*
X102742469Y-132571894D01*
X102737640Y-132605163D01*
X102733448Y-132650921D01*
X102729848Y-132711879D01*
X102726794Y-132790746D01*
X102724241Y-132890233D01*
X102722145Y-133013048D01*
X102720460Y-133161901D01*
X102719142Y-133339503D01*
X102718145Y-133548562D01*
X102717425Y-133791789D01*
X102716937Y-134071893D01*
X102716635Y-134391584D01*
X102716475Y-134753571D01*
X102716412Y-135160565D01*
X102716401Y-135615275D01*
X102716400Y-135681988D01*
X102716400Y-138787525D01*
X102316350Y-139016556D01*
X102168368Y-139101369D01*
X102017404Y-139188052D01*
X101876384Y-139269170D01*
X101758236Y-139337292D01*
X101700400Y-139370748D01*
X101617772Y-139418583D01*
X101500041Y-139486651D01*
X101356110Y-139569808D01*
X101194883Y-139662911D01*
X101025266Y-139760815D01*
X100900300Y-139832918D01*
X100705851Y-139945106D01*
X100490841Y-140069180D01*
X100270019Y-140196628D01*
X100058137Y-140318937D01*
X99869943Y-140427594D01*
X99808100Y-140463307D01*
X99638142Y-140561416D01*
X99460068Y-140664132D01*
X99286336Y-140764275D01*
X99129404Y-140854665D01*
X99001727Y-140928121D01*
X98982600Y-140939113D01*
X98665100Y-141121540D01*
X98652400Y-138740531D01*
X98650229Y-138338993D01*
X98648211Y-137985160D01*
X98646270Y-137675937D01*
X98644327Y-137408230D01*
X98642305Y-137178944D01*
X98640126Y-136984984D01*
X98637713Y-136823257D01*
X98634988Y-136690667D01*
X98631873Y-136584120D01*
X98628291Y-136500522D01*
X98624164Y-136436777D01*
X98619415Y-136389791D01*
X98613965Y-136356470D01*
X98607737Y-136333719D01*
X98600654Y-136318443D01*
X98592637Y-136307548D01*
X98591314Y-136306061D01*
X98520641Y-136261441D01*
X98439481Y-136258579D01*
X98366279Y-136297474D01*
X98357887Y-136306061D01*
X98349895Y-136316328D01*
X98342807Y-136330425D01*
X98336551Y-136351376D01*
X98331055Y-136382203D01*
X98326247Y-136425925D01*
X98322053Y-136485567D01*
X98318401Y-136564148D01*
X98315220Y-136664692D01*
X98312435Y-136790219D01*
X98309976Y-136943751D01*
X98307768Y-137128310D01*
X98305741Y-137346918D01*
X98303820Y-137602596D01*
X98301935Y-137898366D01*
X98300011Y-138237250D01*
X98297978Y-138622270D01*
X98296800Y-138851969D01*
X98284100Y-141344416D01*
X97725300Y-141666030D01*
X97602925Y-141736508D01*
X97442224Y-141829128D01*
X97248861Y-141940623D01*
X97028501Y-142067725D01*
X96786805Y-142207167D01*
X96529438Y-142355681D01*
X96262062Y-142510001D01*
X95990342Y-142666859D01*
X95719941Y-142822986D01*
X95693300Y-142838370D01*
X94220100Y-143689095D01*
X94207228Y-136369991D01*
X94152087Y-136311296D01*
X94079090Y-136261334D01*
X94004097Y-136261784D01*
X93932674Y-136311126D01*
X93877692Y-136369651D01*
X93871096Y-140184637D01*
X93870475Y-140621752D01*
X93870134Y-141045518D01*
X93870064Y-141453101D01*
X93870255Y-141841667D01*
X93870697Y-142208382D01*
X93871380Y-142550411D01*
X93872294Y-142864921D01*
X93873429Y-143149077D01*
X93874774Y-143400045D01*
X93876321Y-143614992D01*
X93878058Y-143791082D01*
X93879975Y-143925482D01*
X93882064Y-144015359D01*
X93884313Y-144057876D01*
X93884815Y-144060554D01*
X93922214Y-144113856D01*
X93979129Y-144152137D01*
X94030765Y-144167661D01*
X94078740Y-144161985D01*
X94143546Y-144131662D01*
X94162015Y-144121388D01*
X94222897Y-144086747D01*
X94325709Y-144027862D01*
X94468399Y-143945913D01*
X94648920Y-143842081D01*
X94865221Y-143717548D01*
X95115252Y-143573494D01*
X95396964Y-143411101D01*
X95708307Y-143231550D01*
X96047231Y-143036021D01*
X96411686Y-142825696D01*
X96799623Y-142601756D01*
X96963300Y-142507254D01*
X97286419Y-142320685D01*
X97568776Y-142157646D01*
X97813601Y-142016270D01*
X98024126Y-141894687D01*
X98203583Y-141791028D01*
X98355203Y-141703424D01*
X98482218Y-141630007D01*
X98587859Y-141568907D01*
X98675357Y-141518256D01*
X98747945Y-141476184D01*
X98808853Y-141440823D01*
X98861313Y-141410303D01*
X98908556Y-141382757D01*
X98953815Y-141356314D01*
X98995300Y-141332044D01*
X99063974Y-141292086D01*
X99170323Y-141230510D01*
X99307967Y-141150994D01*
X99470528Y-141057219D01*
X99651628Y-140952864D01*
X99844888Y-140841608D01*
X100043930Y-140727131D01*
X100049400Y-140723986D01*
X100250565Y-140608303D01*
X100447899Y-140494739D01*
X100634691Y-140387164D01*
X100804224Y-140289448D01*
X100949786Y-140205460D01*
X101064662Y-140139071D01*
X101141600Y-140094463D01*
X101276409Y-140016142D01*
X101429273Y-139927499D01*
X101574362Y-139843509D01*
X101624200Y-139814705D01*
X101756749Y-139738080D01*
X101905022Y-139652258D01*
X102044329Y-139571536D01*
X102094100Y-139542664D01*
X102205874Y-139478005D01*
X102344686Y-139398016D01*
X102493443Y-139312531D01*
X102635053Y-139231386D01*
X102644932Y-139225735D01*
X102763658Y-139156201D01*
X102869379Y-139091231D01*
X102952725Y-139036806D01*
X103004329Y-138998910D01*
X103013232Y-138990575D01*
X103020016Y-138981327D01*
X103026112Y-138967594D01*
X103031563Y-138946721D01*
X103036414Y-138916052D01*
X103040708Y-138872931D01*
X103044487Y-138814703D01*
X103047796Y-138738712D01*
X103050676Y-138642304D01*
X103053173Y-138522821D01*
X103055328Y-138377610D01*
X103057186Y-138204014D01*
X103058789Y-137999378D01*
X103060181Y-137761046D01*
X103061406Y-137486362D01*
X103062506Y-137172672D01*
X103063525Y-136817320D01*
X103064506Y-136417650D01*
X103065492Y-135971006D01*
X103065940Y-135758431D01*
X103072580Y-132577188D01*
X103019647Y-132509894D01*
G36*
X103097053Y-98691132D02*
G01*
X103096900Y-98368388D01*
X103096554Y-98087418D01*
X103095957Y-97845213D01*
X103095047Y-97638765D01*
X103093765Y-97465063D01*
X103092050Y-97321101D01*
X103089842Y-97203869D01*
X103087080Y-97110358D01*
X103083705Y-97037559D01*
X103079656Y-96982464D01*
X103074873Y-96942064D01*
X103069296Y-96913351D01*
X103062864Y-96893315D01*
X103055517Y-96878948D01*
X103047195Y-96867241D01*
X103044757Y-96864126D01*
X102975406Y-96809989D01*
X102896004Y-96799461D01*
X102820948Y-96833345D01*
X102802887Y-96850662D01*
X102794909Y-96860909D01*
X102787832Y-96874982D01*
X102781585Y-96895896D01*
X102776095Y-96926667D01*
X102771290Y-96970312D01*
X102767098Y-97029845D01*
X102763448Y-97108282D01*
X102760266Y-97208639D01*
X102757481Y-97333931D01*
X102755021Y-97487175D01*
X102752814Y-97671386D01*
X102750787Y-97889579D01*
X102748869Y-98144771D01*
X102746987Y-98439977D01*
X102745070Y-98778213D01*
X102743045Y-99162494D01*
X102741800Y-99406110D01*
X102729100Y-101908097D01*
X102221100Y-102199594D01*
X101337657Y-102707187D01*
X100437466Y-103225735D01*
X99592200Y-103713779D01*
X99399176Y-103825187D01*
X99219196Y-103928764D01*
X99057163Y-104021711D01*
X98917977Y-104101230D01*
X98806540Y-104164523D01*
X98727753Y-104208792D01*
X98686517Y-104231239D01*
X98682158Y-104233317D01*
X98676961Y-104228297D01*
X98672327Y-104207365D01*
X98668233Y-104168079D01*
X98664655Y-104107996D01*
X98661568Y-104024673D01*
X98658948Y-103915668D01*
X98656771Y-103778539D01*
X98655014Y-103610843D01*
X98653651Y-103410137D01*
X98652660Y-103173979D01*
X98652015Y-102899926D01*
X98651692Y-102585537D01*
X98651669Y-102228368D01*
X98651919Y-101825977D01*
X98652420Y-101375921D01*
X98652604Y-101239333D01*
X98653125Y-100852037D01*
X98653591Y-100478502D01*
X98653999Y-100121914D01*
X98654349Y-99785460D01*
X98654637Y-99472328D01*
X98654861Y-99185705D01*
X98655020Y-98928778D01*
X98655112Y-98704734D01*
X98655134Y-98516761D01*
X98655084Y-98368046D01*
X98654960Y-98261777D01*
X98654760Y-98201139D01*
X98654597Y-98187850D01*
X98635838Y-98137529D01*
X98601600Y-98092600D01*
X98591916Y-98083827D01*
X98579407Y-98076126D01*
X98560895Y-98069429D01*
X98533198Y-98063664D01*
X98493136Y-98058763D01*
X98437527Y-98054654D01*
X98363191Y-98051269D01*
X98266948Y-98048537D01*
X98145616Y-98046388D01*
X97996015Y-98044753D01*
X97814964Y-98043561D01*
X97599282Y-98042742D01*
X97345790Y-98042226D01*
X97051304Y-98041944D01*
X96712646Y-98041826D01*
X96326635Y-98041801D01*
X96292149Y-98041800D01*
X94033498Y-98041800D01*
X93877200Y-98173316D01*
X93877200Y-105881545D01*
X93935988Y-105936773D01*
X94014734Y-105984326D01*
X94093363Y-105982515D01*
X94156600Y-105941200D01*
X94163628Y-105933493D01*
X94169981Y-105923466D01*
X94175697Y-105908625D01*
X94180815Y-105886475D01*
X94185373Y-105854525D01*
X94189409Y-105810278D01*
X94192962Y-105751243D01*
X94196070Y-105674924D01*
X94198772Y-105578828D01*
X94201105Y-105460462D01*
X94203109Y-105317331D01*
X94204822Y-105146942D01*
X94206281Y-104946800D01*
X94207527Y-104714413D01*
X94208596Y-104447285D01*
X94209527Y-104142925D01*
X94210359Y-103798836D01*
X94211130Y-103412527D01*
X94211878Y-102981502D01*
X94212642Y-102503269D01*
X94212993Y-102277250D01*
X94213657Y-101850641D01*
X94214310Y-101436596D01*
X94214945Y-101038102D01*
X94215558Y-100658144D01*
X94216144Y-100299711D01*
X94216698Y-99965786D01*
X94217214Y-99659358D01*
X94217689Y-99383413D01*
X94218115Y-99140936D01*
X94218489Y-98934914D01*
X94218806Y-98768333D01*
X94219060Y-98644180D01*
X94219246Y-98565441D01*
X94219343Y-98537100D01*
X94220100Y-98410100D01*
X96258450Y-98403599D01*
X98296801Y-98397098D01*
X98296801Y-104622710D01*
X98359146Y-104685055D01*
X98416221Y-104727950D01*
X98469991Y-104747309D01*
X98472872Y-104747400D01*
X98502094Y-104734922D01*
X98571962Y-104698710D01*
X98679226Y-104640597D01*
X98820636Y-104562416D01*
X98992939Y-104466001D01*
X99192887Y-104353184D01*
X99417227Y-104225798D01*
X99662711Y-104085678D01*
X99926085Y-103934655D01*
X100204101Y-103774563D01*
X100448876Y-103633084D01*
X100811413Y-103423186D01*
X101132845Y-103237097D01*
X101416027Y-103073166D01*
X101663813Y-102929744D01*
X101879061Y-102805181D01*
X102064623Y-102697827D01*
X102223357Y-102606033D01*
X102358116Y-102528147D01*
X102471756Y-102462521D01*
X102567132Y-102407504D01*
X102647100Y-102361447D01*
X102714515Y-102322699D01*
X102772231Y-102289612D01*
X102823104Y-102260534D01*
X102869989Y-102233817D01*
X102894200Y-102220048D01*
X102973710Y-102168000D01*
X103037062Y-102114217D01*
X103065276Y-102078773D01*
X103070675Y-102057122D01*
X103075473Y-102013071D01*
X103079700Y-101944207D01*
X103083385Y-101848111D01*
X103086558Y-101722370D01*
X103089248Y-101564565D01*
X103091485Y-101372282D01*
X103093298Y-101143105D01*
X103094716Y-100874617D01*
X103095770Y-100564402D01*
X103096488Y-100210045D01*
X103096900Y-99809129D01*
X103097026Y-99473976D01*
X103097075Y-99058658D01*
X103097053Y-98691132D01*
G37*
X103097053Y-98691132D02*
X103096900Y-98368388D01*
X103096554Y-98087418D01*
X103095957Y-97845213D01*
X103095047Y-97638765D01*
X103093765Y-97465063D01*
X103092050Y-97321101D01*
X103089842Y-97203869D01*
X103087080Y-97110358D01*
X103083705Y-97037559D01*
X103079656Y-96982464D01*
X103074873Y-96942064D01*
X103069296Y-96913351D01*
X103062864Y-96893315D01*
X103055517Y-96878948D01*
X103047195Y-96867241D01*
X103044757Y-96864126D01*
X102975406Y-96809989D01*
X102896004Y-96799461D01*
X102820948Y-96833345D01*
X102802887Y-96850662D01*
X102794909Y-96860909D01*
X102787832Y-96874982D01*
X102781585Y-96895896D01*
X102776095Y-96926667D01*
X102771290Y-96970312D01*
X102767098Y-97029845D01*
X102763448Y-97108282D01*
X102760266Y-97208639D01*
X102757481Y-97333931D01*
X102755021Y-97487175D01*
X102752814Y-97671386D01*
X102750787Y-97889579D01*
X102748869Y-98144771D01*
X102746987Y-98439977D01*
X102745070Y-98778213D01*
X102743045Y-99162494D01*
X102741800Y-99406110D01*
X102729100Y-101908097D01*
X102221100Y-102199594D01*
X101337657Y-102707187D01*
X100437466Y-103225735D01*
X99592200Y-103713779D01*
X99399176Y-103825187D01*
X99219196Y-103928764D01*
X99057163Y-104021711D01*
X98917977Y-104101230D01*
X98806540Y-104164523D01*
X98727753Y-104208792D01*
X98686517Y-104231239D01*
X98682158Y-104233317D01*
X98676961Y-104228297D01*
X98672327Y-104207365D01*
X98668233Y-104168079D01*
X98664655Y-104107996D01*
X98661568Y-104024673D01*
X98658948Y-103915668D01*
X98656771Y-103778539D01*
X98655014Y-103610843D01*
X98653651Y-103410137D01*
X98652660Y-103173979D01*
X98652015Y-102899926D01*
X98651692Y-102585537D01*
X98651669Y-102228368D01*
X98651919Y-101825977D01*
X98652420Y-101375921D01*
X98652604Y-101239333D01*
X98653125Y-100852037D01*
X98653591Y-100478502D01*
X98653999Y-100121914D01*
X98654349Y-99785460D01*
X98654637Y-99472328D01*
X98654861Y-99185705D01*
X98655020Y-98928778D01*
X98655112Y-98704734D01*
X98655134Y-98516761D01*
X98655084Y-98368046D01*
X98654960Y-98261777D01*
X98654760Y-98201139D01*
X98654597Y-98187850D01*
X98635838Y-98137529D01*
X98601600Y-98092600D01*
X98591916Y-98083827D01*
X98579407Y-98076126D01*
X98560895Y-98069429D01*
X98533198Y-98063664D01*
X98493136Y-98058763D01*
X98437527Y-98054654D01*
X98363191Y-98051269D01*
X98266948Y-98048537D01*
X98145616Y-98046388D01*
X97996015Y-98044753D01*
X97814964Y-98043561D01*
X97599282Y-98042742D01*
X97345790Y-98042226D01*
X97051304Y-98041944D01*
X96712646Y-98041826D01*
X96326635Y-98041801D01*
X96292149Y-98041800D01*
X94033498Y-98041800D01*
X93877200Y-98173316D01*
X93877200Y-105881545D01*
X93935988Y-105936773D01*
X94014734Y-105984326D01*
X94093363Y-105982515D01*
X94156600Y-105941200D01*
X94163628Y-105933493D01*
X94169981Y-105923466D01*
X94175697Y-105908625D01*
X94180815Y-105886475D01*
X94185373Y-105854525D01*
X94189409Y-105810278D01*
X94192962Y-105751243D01*
X94196070Y-105674924D01*
X94198772Y-105578828D01*
X94201105Y-105460462D01*
X94203109Y-105317331D01*
X94204822Y-105146942D01*
X94206281Y-104946800D01*
X94207527Y-104714413D01*
X94208596Y-104447285D01*
X94209527Y-104142925D01*
X94210359Y-103798836D01*
X94211130Y-103412527D01*
X94211878Y-102981502D01*
X94212642Y-102503269D01*
X94212993Y-102277250D01*
X94213657Y-101850641D01*
X94214310Y-101436596D01*
X94214945Y-101038102D01*
X94215558Y-100658144D01*
X94216144Y-100299711D01*
X94216698Y-99965786D01*
X94217214Y-99659358D01*
X94217689Y-99383413D01*
X94218115Y-99140936D01*
X94218489Y-98934914D01*
X94218806Y-98768333D01*
X94219060Y-98644180D01*
X94219246Y-98565441D01*
X94219343Y-98537100D01*
X94220100Y-98410100D01*
X96258450Y-98403599D01*
X98296801Y-98397098D01*
X98296801Y-104622710D01*
X98359146Y-104685055D01*
X98416221Y-104727950D01*
X98469991Y-104747309D01*
X98472872Y-104747400D01*
X98502094Y-104734922D01*
X98571962Y-104698710D01*
X98679226Y-104640597D01*
X98820636Y-104562416D01*
X98992939Y-104466001D01*
X99192887Y-104353184D01*
X99417227Y-104225798D01*
X99662711Y-104085678D01*
X99926085Y-103934655D01*
X100204101Y-103774563D01*
X100448876Y-103633084D01*
X100811413Y-103423186D01*
X101132845Y-103237097D01*
X101416027Y-103073166D01*
X101663813Y-102929744D01*
X101879061Y-102805181D01*
X102064623Y-102697827D01*
X102223357Y-102606033D01*
X102358116Y-102528147D01*
X102471756Y-102462521D01*
X102567132Y-102407504D01*
X102647100Y-102361447D01*
X102714515Y-102322699D01*
X102772231Y-102289612D01*
X102823104Y-102260534D01*
X102869989Y-102233817D01*
X102894200Y-102220048D01*
X102973710Y-102168000D01*
X103037062Y-102114217D01*
X103065276Y-102078773D01*
X103070675Y-102057122D01*
X103075473Y-102013071D01*
X103079700Y-101944207D01*
X103083385Y-101848111D01*
X103086558Y-101722370D01*
X103089248Y-101564565D01*
X103091485Y-101372282D01*
X103093298Y-101143105D01*
X103094716Y-100874617D01*
X103095770Y-100564402D01*
X103096488Y-100210045D01*
X103096900Y-99809129D01*
X103097026Y-99473976D01*
X103097075Y-99058658D01*
X103097053Y-98691132D01*
G36*
X103019647Y-104509894D02*
G01*
X102949113Y-104453613D01*
X102870550Y-104444139D01*
X102795491Y-104481488D01*
X102769044Y-104509526D01*
X102761221Y-104519932D01*
X102754214Y-104531989D01*
X102747978Y-104548406D01*
X102742469Y-104571894D01*
X102737640Y-104605163D01*
X102733448Y-104650921D01*
X102729848Y-104711879D01*
X102726794Y-104790746D01*
X102724241Y-104890233D01*
X102722145Y-105013048D01*
X102720460Y-105161901D01*
X102719142Y-105339503D01*
X102718145Y-105548562D01*
X102717425Y-105791789D01*
X102716937Y-106071893D01*
X102716635Y-106391584D01*
X102716475Y-106753571D01*
X102716412Y-107160565D01*
X102716401Y-107615275D01*
X102716400Y-107681988D01*
X102716400Y-110787525D01*
X102316350Y-111016556D01*
X102168368Y-111101369D01*
X102017404Y-111188052D01*
X101876384Y-111269170D01*
X101758236Y-111337292D01*
X101700400Y-111370748D01*
X101617772Y-111418583D01*
X101500041Y-111486651D01*
X101356110Y-111569808D01*
X101194883Y-111662911D01*
X101025266Y-111760815D01*
X100900300Y-111832918D01*
X100705851Y-111945106D01*
X100490841Y-112069180D01*
X100270019Y-112196628D01*
X100058137Y-112318937D01*
X99869943Y-112427594D01*
X99808100Y-112463307D01*
X99638142Y-112561416D01*
X99460068Y-112664132D01*
X99286336Y-112764275D01*
X99129404Y-112854665D01*
X99001727Y-112928121D01*
X98982600Y-112939113D01*
X98665100Y-113121540D01*
X98652400Y-110740531D01*
X98650229Y-110338993D01*
X98648211Y-109985160D01*
X98646270Y-109675937D01*
X98644327Y-109408230D01*
X98642305Y-109178944D01*
X98640126Y-108984984D01*
X98637713Y-108823257D01*
X98634988Y-108690667D01*
X98631873Y-108584120D01*
X98628291Y-108500522D01*
X98624164Y-108436777D01*
X98619415Y-108389791D01*
X98613965Y-108356470D01*
X98607737Y-108333719D01*
X98600654Y-108318443D01*
X98592637Y-108307548D01*
X98591314Y-108306061D01*
X98520641Y-108261441D01*
X98439481Y-108258579D01*
X98366279Y-108297474D01*
X98357887Y-108306061D01*
X98349895Y-108316328D01*
X98342807Y-108330425D01*
X98336551Y-108351376D01*
X98331055Y-108382203D01*
X98326247Y-108425925D01*
X98322053Y-108485567D01*
X98318401Y-108564148D01*
X98315220Y-108664692D01*
X98312435Y-108790219D01*
X98309976Y-108943751D01*
X98307768Y-109128310D01*
X98305741Y-109346918D01*
X98303820Y-109602596D01*
X98301935Y-109898366D01*
X98300011Y-110237250D01*
X98297978Y-110622270D01*
X98296800Y-110851969D01*
X98284100Y-113344416D01*
X97725300Y-113666030D01*
X97602925Y-113736508D01*
X97442224Y-113829128D01*
X97248861Y-113940623D01*
X97028501Y-114067725D01*
X96786805Y-114207167D01*
X96529438Y-114355681D01*
X96262062Y-114510001D01*
X95990342Y-114666859D01*
X95719941Y-114822986D01*
X95693300Y-114838370D01*
X94220100Y-115689095D01*
X94207228Y-108369991D01*
X94152087Y-108311296D01*
X94079090Y-108261334D01*
X94004097Y-108261784D01*
X93932674Y-108311126D01*
X93877692Y-108369651D01*
X93871096Y-112184637D01*
X93870475Y-112621752D01*
X93870134Y-113045518D01*
X93870064Y-113453101D01*
X93870255Y-113841667D01*
X93870697Y-114208382D01*
X93871380Y-114550411D01*
X93872294Y-114864921D01*
X93873429Y-115149077D01*
X93874774Y-115400045D01*
X93876321Y-115614992D01*
X93878058Y-115791082D01*
X93879975Y-115925482D01*
X93882064Y-116015359D01*
X93884313Y-116057876D01*
X93884815Y-116060554D01*
X93922214Y-116113856D01*
X93979129Y-116152137D01*
X94030765Y-116167661D01*
X94078740Y-116161985D01*
X94143546Y-116131662D01*
X94162015Y-116121388D01*
X94222897Y-116086747D01*
X94325709Y-116027862D01*
X94468399Y-115945913D01*
X94648920Y-115842081D01*
X94865221Y-115717548D01*
X95115252Y-115573494D01*
X95396964Y-115411101D01*
X95708307Y-115231550D01*
X96047231Y-115036021D01*
X96411686Y-114825696D01*
X96799623Y-114601756D01*
X96963300Y-114507254D01*
X97286419Y-114320685D01*
X97568776Y-114157646D01*
X97813601Y-114016270D01*
X98024126Y-113894687D01*
X98203583Y-113791028D01*
X98355203Y-113703424D01*
X98482218Y-113630007D01*
X98587859Y-113568907D01*
X98675357Y-113518256D01*
X98747945Y-113476184D01*
X98808853Y-113440823D01*
X98861313Y-113410303D01*
X98908556Y-113382757D01*
X98953815Y-113356314D01*
X98995300Y-113332044D01*
X99063974Y-113292086D01*
X99170323Y-113230510D01*
X99307967Y-113150994D01*
X99470528Y-113057219D01*
X99651628Y-112952864D01*
X99844888Y-112841608D01*
X100043930Y-112727131D01*
X100049400Y-112723986D01*
X100250565Y-112608303D01*
X100447899Y-112494739D01*
X100634691Y-112387164D01*
X100804224Y-112289448D01*
X100949786Y-112205460D01*
X101064662Y-112139071D01*
X101141600Y-112094463D01*
X101276409Y-112016142D01*
X101429273Y-111927499D01*
X101574362Y-111843509D01*
X101624200Y-111814705D01*
X101756749Y-111738080D01*
X101905022Y-111652258D01*
X102044329Y-111571536D01*
X102094100Y-111542664D01*
X102205874Y-111478005D01*
X102344686Y-111398016D01*
X102493443Y-111312531D01*
X102635053Y-111231386D01*
X102644932Y-111225735D01*
X102763658Y-111156201D01*
X102869379Y-111091231D01*
X102952725Y-111036806D01*
X103004329Y-110998910D01*
X103013232Y-110990575D01*
X103020016Y-110981327D01*
X103026112Y-110967594D01*
X103031563Y-110946721D01*
X103036414Y-110916052D01*
X103040708Y-110872931D01*
X103044487Y-110814703D01*
X103047796Y-110738712D01*
X103050676Y-110642304D01*
X103053173Y-110522821D01*
X103055328Y-110377610D01*
X103057186Y-110204014D01*
X103058789Y-109999378D01*
X103060181Y-109761046D01*
X103061406Y-109486362D01*
X103062506Y-109172672D01*
X103063525Y-108817320D01*
X103064506Y-108417650D01*
X103065492Y-107971006D01*
X103065940Y-107758431D01*
X103072580Y-104577188D01*
X103019647Y-104509894D01*
G37*
X103019647Y-104509894D02*
X102949113Y-104453613D01*
X102870550Y-104444139D01*
X102795491Y-104481488D01*
X102769044Y-104509526D01*
X102761221Y-104519932D01*
X102754214Y-104531989D01*
X102747978Y-104548406D01*
X102742469Y-104571894D01*
X102737640Y-104605163D01*
X102733448Y-104650921D01*
X102729848Y-104711879D01*
X102726794Y-104790746D01*
X102724241Y-104890233D01*
X102722145Y-105013048D01*
X102720460Y-105161901D01*
X102719142Y-105339503D01*
X102718145Y-105548562D01*
X102717425Y-105791789D01*
X102716937Y-106071893D01*
X102716635Y-106391584D01*
X102716475Y-106753571D01*
X102716412Y-107160565D01*
X102716401Y-107615275D01*
X102716400Y-107681988D01*
X102716400Y-110787525D01*
X102316350Y-111016556D01*
X102168368Y-111101369D01*
X102017404Y-111188052D01*
X101876384Y-111269170D01*
X101758236Y-111337292D01*
X101700400Y-111370748D01*
X101617772Y-111418583D01*
X101500041Y-111486651D01*
X101356110Y-111569808D01*
X101194883Y-111662911D01*
X101025266Y-111760815D01*
X100900300Y-111832918D01*
X100705851Y-111945106D01*
X100490841Y-112069180D01*
X100270019Y-112196628D01*
X100058137Y-112318937D01*
X99869943Y-112427594D01*
X99808100Y-112463307D01*
X99638142Y-112561416D01*
X99460068Y-112664132D01*
X99286336Y-112764275D01*
X99129404Y-112854665D01*
X99001727Y-112928121D01*
X98982600Y-112939113D01*
X98665100Y-113121540D01*
X98652400Y-110740531D01*
X98650229Y-110338993D01*
X98648211Y-109985160D01*
X98646270Y-109675937D01*
X98644327Y-109408230D01*
X98642305Y-109178944D01*
X98640126Y-108984984D01*
X98637713Y-108823257D01*
X98634988Y-108690667D01*
X98631873Y-108584120D01*
X98628291Y-108500522D01*
X98624164Y-108436777D01*
X98619415Y-108389791D01*
X98613965Y-108356470D01*
X98607737Y-108333719D01*
X98600654Y-108318443D01*
X98592637Y-108307548D01*
X98591314Y-108306061D01*
X98520641Y-108261441D01*
X98439481Y-108258579D01*
X98366279Y-108297474D01*
X98357887Y-108306061D01*
X98349895Y-108316328D01*
X98342807Y-108330425D01*
X98336551Y-108351376D01*
X98331055Y-108382203D01*
X98326247Y-108425925D01*
X98322053Y-108485567D01*
X98318401Y-108564148D01*
X98315220Y-108664692D01*
X98312435Y-108790219D01*
X98309976Y-108943751D01*
X98307768Y-109128310D01*
X98305741Y-109346918D01*
X98303820Y-109602596D01*
X98301935Y-109898366D01*
X98300011Y-110237250D01*
X98297978Y-110622270D01*
X98296800Y-110851969D01*
X98284100Y-113344416D01*
X97725300Y-113666030D01*
X97602925Y-113736508D01*
X97442224Y-113829128D01*
X97248861Y-113940623D01*
X97028501Y-114067725D01*
X96786805Y-114207167D01*
X96529438Y-114355681D01*
X96262062Y-114510001D01*
X95990342Y-114666859D01*
X95719941Y-114822986D01*
X95693300Y-114838370D01*
X94220100Y-115689095D01*
X94207228Y-108369991D01*
X94152087Y-108311296D01*
X94079090Y-108261334D01*
X94004097Y-108261784D01*
X93932674Y-108311126D01*
X93877692Y-108369651D01*
X93871096Y-112184637D01*
X93870475Y-112621752D01*
X93870134Y-113045518D01*
X93870064Y-113453101D01*
X93870255Y-113841667D01*
X93870697Y-114208382D01*
X93871380Y-114550411D01*
X93872294Y-114864921D01*
X93873429Y-115149077D01*
X93874774Y-115400045D01*
X93876321Y-115614992D01*
X93878058Y-115791082D01*
X93879975Y-115925482D01*
X93882064Y-116015359D01*
X93884313Y-116057876D01*
X93884815Y-116060554D01*
X93922214Y-116113856D01*
X93979129Y-116152137D01*
X94030765Y-116167661D01*
X94078740Y-116161985D01*
X94143546Y-116131662D01*
X94162015Y-116121388D01*
X94222897Y-116086747D01*
X94325709Y-116027862D01*
X94468399Y-115945913D01*
X94648920Y-115842081D01*
X94865221Y-115717548D01*
X95115252Y-115573494D01*
X95396964Y-115411101D01*
X95708307Y-115231550D01*
X96047231Y-115036021D01*
X96411686Y-114825696D01*
X96799623Y-114601756D01*
X96963300Y-114507254D01*
X97286419Y-114320685D01*
X97568776Y-114157646D01*
X97813601Y-114016270D01*
X98024126Y-113894687D01*
X98203583Y-113791028D01*
X98355203Y-113703424D01*
X98482218Y-113630007D01*
X98587859Y-113568907D01*
X98675357Y-113518256D01*
X98747945Y-113476184D01*
X98808853Y-113440823D01*
X98861313Y-113410303D01*
X98908556Y-113382757D01*
X98953815Y-113356314D01*
X98995300Y-113332044D01*
X99063974Y-113292086D01*
X99170323Y-113230510D01*
X99307967Y-113150994D01*
X99470528Y-113057219D01*
X99651628Y-112952864D01*
X99844888Y-112841608D01*
X100043930Y-112727131D01*
X100049400Y-112723986D01*
X100250565Y-112608303D01*
X100447899Y-112494739D01*
X100634691Y-112387164D01*
X100804224Y-112289448D01*
X100949786Y-112205460D01*
X101064662Y-112139071D01*
X101141600Y-112094463D01*
X101276409Y-112016142D01*
X101429273Y-111927499D01*
X101574362Y-111843509D01*
X101624200Y-111814705D01*
X101756749Y-111738080D01*
X101905022Y-111652258D01*
X102044329Y-111571536D01*
X102094100Y-111542664D01*
X102205874Y-111478005D01*
X102344686Y-111398016D01*
X102493443Y-111312531D01*
X102635053Y-111231386D01*
X102644932Y-111225735D01*
X102763658Y-111156201D01*
X102869379Y-111091231D01*
X102952725Y-111036806D01*
X103004329Y-110998910D01*
X103013232Y-110990575D01*
X103020016Y-110981327D01*
X103026112Y-110967594D01*
X103031563Y-110946721D01*
X103036414Y-110916052D01*
X103040708Y-110872931D01*
X103044487Y-110814703D01*
X103047796Y-110738712D01*
X103050676Y-110642304D01*
X103053173Y-110522821D01*
X103055328Y-110377610D01*
X103057186Y-110204014D01*
X103058789Y-109999378D01*
X103060181Y-109761046D01*
X103061406Y-109486362D01*
X103062506Y-109172672D01*
X103063525Y-108817320D01*
X103064506Y-108417650D01*
X103065492Y-107971006D01*
X103065940Y-107758431D01*
X103072580Y-104577188D01*
X103019647Y-104509894D01*
G36*
X116902947Y-141308868D02*
G01*
X116903100Y-141631612D01*
X116903446Y-141912582D01*
X116904043Y-142154787D01*
X116904953Y-142361235D01*
X116906235Y-142534937D01*
X116907950Y-142678899D01*
X116910158Y-142796131D01*
X116912920Y-142889642D01*
X116916295Y-142962441D01*
X116920344Y-143017536D01*
X116925127Y-143057936D01*
X116930704Y-143086649D01*
X116937136Y-143106685D01*
X116944483Y-143121052D01*
X116952805Y-143132759D01*
X116955243Y-143135874D01*
X117024594Y-143190011D01*
X117103996Y-143200539D01*
X117179052Y-143166655D01*
X117197113Y-143149338D01*
X117205091Y-143139091D01*
X117212168Y-143125018D01*
X117218415Y-143104104D01*
X117223905Y-143073333D01*
X117228710Y-143029688D01*
X117232902Y-142970155D01*
X117236552Y-142891718D01*
X117239734Y-142791361D01*
X117242519Y-142666069D01*
X117244979Y-142512825D01*
X117247186Y-142328614D01*
X117249213Y-142110421D01*
X117251131Y-141855229D01*
X117253013Y-141560023D01*
X117254930Y-141221787D01*
X117256955Y-140837506D01*
X117258200Y-140593890D01*
X117270900Y-138091903D01*
X117778900Y-137800406D01*
X118662343Y-137292813D01*
X119562534Y-136774265D01*
X120407800Y-136286221D01*
X120600824Y-136174813D01*
X120780804Y-136071236D01*
X120942837Y-135978289D01*
X121082023Y-135898770D01*
X121193460Y-135835477D01*
X121272247Y-135791208D01*
X121313483Y-135768761D01*
X121317842Y-135766683D01*
X121323039Y-135771703D01*
X121327673Y-135792635D01*
X121331767Y-135831921D01*
X121335345Y-135892004D01*
X121338432Y-135975327D01*
X121341052Y-136084332D01*
X121343229Y-136221461D01*
X121344986Y-136389157D01*
X121346349Y-136589863D01*
X121347340Y-136826021D01*
X121347985Y-137100074D01*
X121348308Y-137414463D01*
X121348331Y-137771632D01*
X121348081Y-138174023D01*
X121347580Y-138624079D01*
X121347396Y-138760667D01*
X121346875Y-139147963D01*
X121346409Y-139521498D01*
X121346001Y-139878086D01*
X121345651Y-140214540D01*
X121345363Y-140527672D01*
X121345139Y-140814295D01*
X121344980Y-141071222D01*
X121344888Y-141295266D01*
X121344866Y-141483239D01*
X121344916Y-141631954D01*
X121345040Y-141738223D01*
X121345240Y-141798861D01*
X121345403Y-141812150D01*
X121364162Y-141862471D01*
X121398400Y-141907400D01*
X121408084Y-141916173D01*
X121420593Y-141923874D01*
X121439105Y-141930571D01*
X121466802Y-141936336D01*
X121506864Y-141941237D01*
X121562473Y-141945346D01*
X121636809Y-141948731D01*
X121733052Y-141951463D01*
X121854384Y-141953612D01*
X122003985Y-141955247D01*
X122185036Y-141956439D01*
X122400718Y-141957258D01*
X122654210Y-141957774D01*
X122948696Y-141958056D01*
X123287354Y-141958174D01*
X123673365Y-141958199D01*
X123707851Y-141958200D01*
X125966502Y-141958200D01*
X126122800Y-141826684D01*
X126122800Y-134118455D01*
X126064012Y-134063227D01*
X125985266Y-134015674D01*
X125906637Y-134017485D01*
X125843400Y-134058800D01*
X125836372Y-134066507D01*
X125830019Y-134076534D01*
X125824303Y-134091375D01*
X125819185Y-134113525D01*
X125814627Y-134145475D01*
X125810591Y-134189722D01*
X125807038Y-134248757D01*
X125803930Y-134325076D01*
X125801228Y-134421172D01*
X125798895Y-134539538D01*
X125796891Y-134682669D01*
X125795178Y-134853058D01*
X125793719Y-135053200D01*
X125792473Y-135285587D01*
X125791404Y-135552715D01*
X125790473Y-135857075D01*
X125789641Y-136201164D01*
X125788870Y-136587473D01*
X125788122Y-137018498D01*
X125787358Y-137496731D01*
X125787007Y-137722750D01*
X125786343Y-138149359D01*
X125785690Y-138563404D01*
X125785055Y-138961898D01*
X125784442Y-139341856D01*
X125783856Y-139700289D01*
X125783302Y-140034214D01*
X125782786Y-140340642D01*
X125782311Y-140616587D01*
X125781885Y-140859064D01*
X125781511Y-141065086D01*
X125781194Y-141231667D01*
X125780940Y-141355820D01*
X125780754Y-141434559D01*
X125780657Y-141462900D01*
X125779900Y-141589900D01*
X123741550Y-141596401D01*
X121703199Y-141602902D01*
X121703199Y-135377290D01*
X121640854Y-135314945D01*
X121583779Y-135272050D01*
X121530009Y-135252691D01*
X121527128Y-135252600D01*
X121497906Y-135265078D01*
X121428038Y-135301290D01*
X121320774Y-135359403D01*
X121179364Y-135437584D01*
X121007061Y-135533999D01*
X120807113Y-135646816D01*
X120582773Y-135774202D01*
X120337289Y-135914322D01*
X120073915Y-136065345D01*
X119795899Y-136225437D01*
X119551124Y-136366916D01*
X119188587Y-136576814D01*
X118867155Y-136762903D01*
X118583973Y-136926834D01*
X118336187Y-137070256D01*
X118120939Y-137194819D01*
X117935377Y-137302173D01*
X117776643Y-137393967D01*
X117641884Y-137471853D01*
X117528244Y-137537479D01*
X117432868Y-137592496D01*
X117352900Y-137638553D01*
X117285485Y-137677301D01*
X117227769Y-137710388D01*
X117176896Y-137739466D01*
X117130011Y-137766183D01*
X117105800Y-137779952D01*
X117026290Y-137832000D01*
X116962938Y-137885783D01*
X116934724Y-137921227D01*
X116929325Y-137942878D01*
X116924527Y-137986929D01*
X116920300Y-138055793D01*
X116916615Y-138151889D01*
X116913442Y-138277630D01*
X116910752Y-138435435D01*
X116908515Y-138627718D01*
X116906702Y-138856895D01*
X116905284Y-139125383D01*
X116904230Y-139435598D01*
X116903512Y-139789955D01*
X116903100Y-140190871D01*
X116902974Y-140526024D01*
X116902925Y-140941342D01*
X116902947Y-141308868D01*
G37*
X116902947Y-141308868D02*
X116903100Y-141631612D01*
X116903446Y-141912582D01*
X116904043Y-142154787D01*
X116904953Y-142361235D01*
X116906235Y-142534937D01*
X116907950Y-142678899D01*
X116910158Y-142796131D01*
X116912920Y-142889642D01*
X116916295Y-142962441D01*
X116920344Y-143017536D01*
X116925127Y-143057936D01*
X116930704Y-143086649D01*
X116937136Y-143106685D01*
X116944483Y-143121052D01*
X116952805Y-143132759D01*
X116955243Y-143135874D01*
X117024594Y-143190011D01*
X117103996Y-143200539D01*
X117179052Y-143166655D01*
X117197113Y-143149338D01*
X117205091Y-143139091D01*
X117212168Y-143125018D01*
X117218415Y-143104104D01*
X117223905Y-143073333D01*
X117228710Y-143029688D01*
X117232902Y-142970155D01*
X117236552Y-142891718D01*
X117239734Y-142791361D01*
X117242519Y-142666069D01*
X117244979Y-142512825D01*
X117247186Y-142328614D01*
X117249213Y-142110421D01*
X117251131Y-141855229D01*
X117253013Y-141560023D01*
X117254930Y-141221787D01*
X117256955Y-140837506D01*
X117258200Y-140593890D01*
X117270900Y-138091903D01*
X117778900Y-137800406D01*
X118662343Y-137292813D01*
X119562534Y-136774265D01*
X120407800Y-136286221D01*
X120600824Y-136174813D01*
X120780804Y-136071236D01*
X120942837Y-135978289D01*
X121082023Y-135898770D01*
X121193460Y-135835477D01*
X121272247Y-135791208D01*
X121313483Y-135768761D01*
X121317842Y-135766683D01*
X121323039Y-135771703D01*
X121327673Y-135792635D01*
X121331767Y-135831921D01*
X121335345Y-135892004D01*
X121338432Y-135975327D01*
X121341052Y-136084332D01*
X121343229Y-136221461D01*
X121344986Y-136389157D01*
X121346349Y-136589863D01*
X121347340Y-136826021D01*
X121347985Y-137100074D01*
X121348308Y-137414463D01*
X121348331Y-137771632D01*
X121348081Y-138174023D01*
X121347580Y-138624079D01*
X121347396Y-138760667D01*
X121346875Y-139147963D01*
X121346409Y-139521498D01*
X121346001Y-139878086D01*
X121345651Y-140214540D01*
X121345363Y-140527672D01*
X121345139Y-140814295D01*
X121344980Y-141071222D01*
X121344888Y-141295266D01*
X121344866Y-141483239D01*
X121344916Y-141631954D01*
X121345040Y-141738223D01*
X121345240Y-141798861D01*
X121345403Y-141812150D01*
X121364162Y-141862471D01*
X121398400Y-141907400D01*
X121408084Y-141916173D01*
X121420593Y-141923874D01*
X121439105Y-141930571D01*
X121466802Y-141936336D01*
X121506864Y-141941237D01*
X121562473Y-141945346D01*
X121636809Y-141948731D01*
X121733052Y-141951463D01*
X121854384Y-141953612D01*
X122003985Y-141955247D01*
X122185036Y-141956439D01*
X122400718Y-141957258D01*
X122654210Y-141957774D01*
X122948696Y-141958056D01*
X123287354Y-141958174D01*
X123673365Y-141958199D01*
X123707851Y-141958200D01*
X125966502Y-141958200D01*
X126122800Y-141826684D01*
X126122800Y-134118455D01*
X126064012Y-134063227D01*
X125985266Y-134015674D01*
X125906637Y-134017485D01*
X125843400Y-134058800D01*
X125836372Y-134066507D01*
X125830019Y-134076534D01*
X125824303Y-134091375D01*
X125819185Y-134113525D01*
X125814627Y-134145475D01*
X125810591Y-134189722D01*
X125807038Y-134248757D01*
X125803930Y-134325076D01*
X125801228Y-134421172D01*
X125798895Y-134539538D01*
X125796891Y-134682669D01*
X125795178Y-134853058D01*
X125793719Y-135053200D01*
X125792473Y-135285587D01*
X125791404Y-135552715D01*
X125790473Y-135857075D01*
X125789641Y-136201164D01*
X125788870Y-136587473D01*
X125788122Y-137018498D01*
X125787358Y-137496731D01*
X125787007Y-137722750D01*
X125786343Y-138149359D01*
X125785690Y-138563404D01*
X125785055Y-138961898D01*
X125784442Y-139341856D01*
X125783856Y-139700289D01*
X125783302Y-140034214D01*
X125782786Y-140340642D01*
X125782311Y-140616587D01*
X125781885Y-140859064D01*
X125781511Y-141065086D01*
X125781194Y-141231667D01*
X125780940Y-141355820D01*
X125780754Y-141434559D01*
X125780657Y-141462900D01*
X125779900Y-141589900D01*
X123741550Y-141596401D01*
X121703199Y-141602902D01*
X121703199Y-135377290D01*
X121640854Y-135314945D01*
X121583779Y-135272050D01*
X121530009Y-135252691D01*
X121527128Y-135252600D01*
X121497906Y-135265078D01*
X121428038Y-135301290D01*
X121320774Y-135359403D01*
X121179364Y-135437584D01*
X121007061Y-135533999D01*
X120807113Y-135646816D01*
X120582773Y-135774202D01*
X120337289Y-135914322D01*
X120073915Y-136065345D01*
X119795899Y-136225437D01*
X119551124Y-136366916D01*
X119188587Y-136576814D01*
X118867155Y-136762903D01*
X118583973Y-136926834D01*
X118336187Y-137070256D01*
X118120939Y-137194819D01*
X117935377Y-137302173D01*
X117776643Y-137393967D01*
X117641884Y-137471853D01*
X117528244Y-137537479D01*
X117432868Y-137592496D01*
X117352900Y-137638553D01*
X117285485Y-137677301D01*
X117227769Y-137710388D01*
X117176896Y-137739466D01*
X117130011Y-137766183D01*
X117105800Y-137779952D01*
X117026290Y-137832000D01*
X116962938Y-137885783D01*
X116934724Y-137921227D01*
X116929325Y-137942878D01*
X116924527Y-137986929D01*
X116920300Y-138055793D01*
X116916615Y-138151889D01*
X116913442Y-138277630D01*
X116910752Y-138435435D01*
X116908515Y-138627718D01*
X116906702Y-138856895D01*
X116905284Y-139125383D01*
X116904230Y-139435598D01*
X116903512Y-139789955D01*
X116903100Y-140190871D01*
X116902974Y-140526024D01*
X116902925Y-140941342D01*
X116902947Y-141308868D01*
G36*
X116980353Y-135490106D02*
G01*
X117050887Y-135546387D01*
X117129450Y-135555861D01*
X117204509Y-135518512D01*
X117230956Y-135490474D01*
X117238779Y-135480068D01*
X117245786Y-135468011D01*
X117252022Y-135451594D01*
X117257531Y-135428106D01*
X117262360Y-135394837D01*
X117266552Y-135349079D01*
X117270152Y-135288121D01*
X117273206Y-135209254D01*
X117275759Y-135109767D01*
X117277855Y-134986952D01*
X117279540Y-134838099D01*
X117280858Y-134660497D01*
X117281855Y-134451438D01*
X117282575Y-134208211D01*
X117283063Y-133928107D01*
X117283365Y-133608416D01*
X117283525Y-133246429D01*
X117283588Y-132839435D01*
X117283599Y-132384725D01*
X117283600Y-132318012D01*
X117283600Y-129212475D01*
X117683650Y-128983444D01*
X117831632Y-128898631D01*
X117982596Y-128811948D01*
X118123616Y-128730830D01*
X118241764Y-128662708D01*
X118299600Y-128629252D01*
X118382228Y-128581417D01*
X118499959Y-128513349D01*
X118643890Y-128430192D01*
X118805117Y-128337089D01*
X118974734Y-128239185D01*
X119099700Y-128167082D01*
X119294149Y-128054894D01*
X119509159Y-127930820D01*
X119729981Y-127803372D01*
X119941863Y-127681063D01*
X120130057Y-127572406D01*
X120191900Y-127536693D01*
X120361858Y-127438584D01*
X120539932Y-127335868D01*
X120713664Y-127235725D01*
X120870596Y-127145335D01*
X120998273Y-127071879D01*
X121017400Y-127060887D01*
X121334900Y-126878460D01*
X121347600Y-129259469D01*
X121349771Y-129661007D01*
X121351789Y-130014840D01*
X121353730Y-130324063D01*
X121355673Y-130591770D01*
X121357695Y-130821056D01*
X121359874Y-131015016D01*
X121362287Y-131176743D01*
X121365012Y-131309333D01*
X121368127Y-131415880D01*
X121371709Y-131499478D01*
X121375836Y-131563223D01*
X121380585Y-131610209D01*
X121386035Y-131643530D01*
X121392263Y-131666281D01*
X121399346Y-131681557D01*
X121407363Y-131692452D01*
X121408686Y-131693939D01*
X121479359Y-131738559D01*
X121560519Y-131741421D01*
X121633721Y-131702526D01*
X121642113Y-131693939D01*
X121650105Y-131683672D01*
X121657193Y-131669575D01*
X121663449Y-131648624D01*
X121668945Y-131617797D01*
X121673753Y-131574075D01*
X121677947Y-131514433D01*
X121681599Y-131435852D01*
X121684780Y-131335308D01*
X121687565Y-131209781D01*
X121690024Y-131056249D01*
X121692232Y-130871690D01*
X121694259Y-130653082D01*
X121696180Y-130397404D01*
X121698065Y-130101634D01*
X121699989Y-129762750D01*
X121702022Y-129377730D01*
X121703200Y-129148031D01*
X121715900Y-126655584D01*
X122274700Y-126333970D01*
X122397075Y-126263492D01*
X122557776Y-126170872D01*
X122751139Y-126059377D01*
X122971499Y-125932275D01*
X123213195Y-125792833D01*
X123470562Y-125644319D01*
X123737938Y-125489999D01*
X124009658Y-125333141D01*
X124280059Y-125177014D01*
X124306700Y-125161630D01*
X125779900Y-124310905D01*
X125792772Y-131630009D01*
X125847913Y-131688704D01*
X125920910Y-131738666D01*
X125995903Y-131738216D01*
X126067326Y-131688874D01*
X126122308Y-131630349D01*
X126128904Y-127815363D01*
X126129525Y-127378248D01*
X126129866Y-126954482D01*
X126129936Y-126546899D01*
X126129745Y-126158333D01*
X126129303Y-125791618D01*
X126128620Y-125449589D01*
X126127706Y-125135079D01*
X126126571Y-124850923D01*
X126125226Y-124599955D01*
X126123679Y-124385008D01*
X126121942Y-124208918D01*
X126120025Y-124074518D01*
X126117936Y-123984641D01*
X126115687Y-123942124D01*
X126115185Y-123939446D01*
X126077786Y-123886144D01*
X126020871Y-123847863D01*
X125969235Y-123832339D01*
X125921260Y-123838015D01*
X125856454Y-123868338D01*
X125837985Y-123878612D01*
X125777103Y-123913253D01*
X125674291Y-123972138D01*
X125531601Y-124054087D01*
X125351080Y-124157919D01*
X125134779Y-124282452D01*
X124884748Y-124426506D01*
X124603036Y-124588899D01*
X124291693Y-124768450D01*
X123952769Y-124963979D01*
X123588314Y-125174304D01*
X123200377Y-125398244D01*
X123036700Y-125492746D01*
X122713581Y-125679315D01*
X122431224Y-125842354D01*
X122186399Y-125983730D01*
X121975874Y-126105313D01*
X121796417Y-126208972D01*
X121644797Y-126296576D01*
X121517782Y-126369993D01*
X121412141Y-126431093D01*
X121324643Y-126481744D01*
X121252055Y-126523816D01*
X121191147Y-126559177D01*
X121138687Y-126589697D01*
X121091444Y-126617243D01*
X121046185Y-126643686D01*
X121004700Y-126667956D01*
X120936026Y-126707914D01*
X120829677Y-126769490D01*
X120692033Y-126849006D01*
X120529472Y-126942781D01*
X120348372Y-127047136D01*
X120155112Y-127158392D01*
X119956070Y-127272869D01*
X119950600Y-127276014D01*
X119749435Y-127391697D01*
X119552101Y-127505261D01*
X119365309Y-127612836D01*
X119195776Y-127710552D01*
X119050214Y-127794540D01*
X118935338Y-127860929D01*
X118858400Y-127905537D01*
X118723591Y-127983858D01*
X118570727Y-128072501D01*
X118425638Y-128156491D01*
X118375800Y-128185295D01*
X118243251Y-128261920D01*
X118094978Y-128347742D01*
X117955671Y-128428464D01*
X117905900Y-128457336D01*
X117794126Y-128521995D01*
X117655314Y-128601984D01*
X117506557Y-128687469D01*
X117364947Y-128768614D01*
X117355068Y-128774265D01*
X117236342Y-128843799D01*
X117130621Y-128908769D01*
X117047275Y-128963194D01*
X116995671Y-129001090D01*
X116986768Y-129009425D01*
X116979984Y-129018673D01*
X116973888Y-129032406D01*
X116968437Y-129053279D01*
X116963586Y-129083948D01*
X116959292Y-129127069D01*
X116955513Y-129185297D01*
X116952204Y-129261288D01*
X116949324Y-129357696D01*
X116946827Y-129477179D01*
X116944672Y-129622390D01*
X116942814Y-129795986D01*
X116941211Y-130000622D01*
X116939819Y-130238954D01*
X116938594Y-130513638D01*
X116937494Y-130827328D01*
X116936475Y-131182680D01*
X116935494Y-131582350D01*
X116934508Y-132028994D01*
X116934060Y-132241569D01*
X116927420Y-135422812D01*
X116980353Y-135490106D01*
G37*
X116980353Y-135490106D02*
X117050887Y-135546387D01*
X117129450Y-135555861D01*
X117204509Y-135518512D01*
X117230956Y-135490474D01*
X117238779Y-135480068D01*
X117245786Y-135468011D01*
X117252022Y-135451594D01*
X117257531Y-135428106D01*
X117262360Y-135394837D01*
X117266552Y-135349079D01*
X117270152Y-135288121D01*
X117273206Y-135209254D01*
X117275759Y-135109767D01*
X117277855Y-134986952D01*
X117279540Y-134838099D01*
X117280858Y-134660497D01*
X117281855Y-134451438D01*
X117282575Y-134208211D01*
X117283063Y-133928107D01*
X117283365Y-133608416D01*
X117283525Y-133246429D01*
X117283588Y-132839435D01*
X117283599Y-132384725D01*
X117283600Y-132318012D01*
X117283600Y-129212475D01*
X117683650Y-128983444D01*
X117831632Y-128898631D01*
X117982596Y-128811948D01*
X118123616Y-128730830D01*
X118241764Y-128662708D01*
X118299600Y-128629252D01*
X118382228Y-128581417D01*
X118499959Y-128513349D01*
X118643890Y-128430192D01*
X118805117Y-128337089D01*
X118974734Y-128239185D01*
X119099700Y-128167082D01*
X119294149Y-128054894D01*
X119509159Y-127930820D01*
X119729981Y-127803372D01*
X119941863Y-127681063D01*
X120130057Y-127572406D01*
X120191900Y-127536693D01*
X120361858Y-127438584D01*
X120539932Y-127335868D01*
X120713664Y-127235725D01*
X120870596Y-127145335D01*
X120998273Y-127071879D01*
X121017400Y-127060887D01*
X121334900Y-126878460D01*
X121347600Y-129259469D01*
X121349771Y-129661007D01*
X121351789Y-130014840D01*
X121353730Y-130324063D01*
X121355673Y-130591770D01*
X121357695Y-130821056D01*
X121359874Y-131015016D01*
X121362287Y-131176743D01*
X121365012Y-131309333D01*
X121368127Y-131415880D01*
X121371709Y-131499478D01*
X121375836Y-131563223D01*
X121380585Y-131610209D01*
X121386035Y-131643530D01*
X121392263Y-131666281D01*
X121399346Y-131681557D01*
X121407363Y-131692452D01*
X121408686Y-131693939D01*
X121479359Y-131738559D01*
X121560519Y-131741421D01*
X121633721Y-131702526D01*
X121642113Y-131693939D01*
X121650105Y-131683672D01*
X121657193Y-131669575D01*
X121663449Y-131648624D01*
X121668945Y-131617797D01*
X121673753Y-131574075D01*
X121677947Y-131514433D01*
X121681599Y-131435852D01*
X121684780Y-131335308D01*
X121687565Y-131209781D01*
X121690024Y-131056249D01*
X121692232Y-130871690D01*
X121694259Y-130653082D01*
X121696180Y-130397404D01*
X121698065Y-130101634D01*
X121699989Y-129762750D01*
X121702022Y-129377730D01*
X121703200Y-129148031D01*
X121715900Y-126655584D01*
X122274700Y-126333970D01*
X122397075Y-126263492D01*
X122557776Y-126170872D01*
X122751139Y-126059377D01*
X122971499Y-125932275D01*
X123213195Y-125792833D01*
X123470562Y-125644319D01*
X123737938Y-125489999D01*
X124009658Y-125333141D01*
X124280059Y-125177014D01*
X124306700Y-125161630D01*
X125779900Y-124310905D01*
X125792772Y-131630009D01*
X125847913Y-131688704D01*
X125920910Y-131738666D01*
X125995903Y-131738216D01*
X126067326Y-131688874D01*
X126122308Y-131630349D01*
X126128904Y-127815363D01*
X126129525Y-127378248D01*
X126129866Y-126954482D01*
X126129936Y-126546899D01*
X126129745Y-126158333D01*
X126129303Y-125791618D01*
X126128620Y-125449589D01*
X126127706Y-125135079D01*
X126126571Y-124850923D01*
X126125226Y-124599955D01*
X126123679Y-124385008D01*
X126121942Y-124208918D01*
X126120025Y-124074518D01*
X126117936Y-123984641D01*
X126115687Y-123942124D01*
X126115185Y-123939446D01*
X126077786Y-123886144D01*
X126020871Y-123847863D01*
X125969235Y-123832339D01*
X125921260Y-123838015D01*
X125856454Y-123868338D01*
X125837985Y-123878612D01*
X125777103Y-123913253D01*
X125674291Y-123972138D01*
X125531601Y-124054087D01*
X125351080Y-124157919D01*
X125134779Y-124282452D01*
X124884748Y-124426506D01*
X124603036Y-124588899D01*
X124291693Y-124768450D01*
X123952769Y-124963979D01*
X123588314Y-125174304D01*
X123200377Y-125398244D01*
X123036700Y-125492746D01*
X122713581Y-125679315D01*
X122431224Y-125842354D01*
X122186399Y-125983730D01*
X121975874Y-126105313D01*
X121796417Y-126208972D01*
X121644797Y-126296576D01*
X121517782Y-126369993D01*
X121412141Y-126431093D01*
X121324643Y-126481744D01*
X121252055Y-126523816D01*
X121191147Y-126559177D01*
X121138687Y-126589697D01*
X121091444Y-126617243D01*
X121046185Y-126643686D01*
X121004700Y-126667956D01*
X120936026Y-126707914D01*
X120829677Y-126769490D01*
X120692033Y-126849006D01*
X120529472Y-126942781D01*
X120348372Y-127047136D01*
X120155112Y-127158392D01*
X119956070Y-127272869D01*
X119950600Y-127276014D01*
X119749435Y-127391697D01*
X119552101Y-127505261D01*
X119365309Y-127612836D01*
X119195776Y-127710552D01*
X119050214Y-127794540D01*
X118935338Y-127860929D01*
X118858400Y-127905537D01*
X118723591Y-127983858D01*
X118570727Y-128072501D01*
X118425638Y-128156491D01*
X118375800Y-128185295D01*
X118243251Y-128261920D01*
X118094978Y-128347742D01*
X117955671Y-128428464D01*
X117905900Y-128457336D01*
X117794126Y-128521995D01*
X117655314Y-128601984D01*
X117506557Y-128687469D01*
X117364947Y-128768614D01*
X117355068Y-128774265D01*
X117236342Y-128843799D01*
X117130621Y-128908769D01*
X117047275Y-128963194D01*
X116995671Y-129001090D01*
X116986768Y-129009425D01*
X116979984Y-129018673D01*
X116973888Y-129032406D01*
X116968437Y-129053279D01*
X116963586Y-129083948D01*
X116959292Y-129127069D01*
X116955513Y-129185297D01*
X116952204Y-129261288D01*
X116949324Y-129357696D01*
X116946827Y-129477179D01*
X116944672Y-129622390D01*
X116942814Y-129795986D01*
X116941211Y-130000622D01*
X116939819Y-130238954D01*
X116938594Y-130513638D01*
X116937494Y-130827328D01*
X116936475Y-131182680D01*
X116935494Y-131582350D01*
X116934508Y-132028994D01*
X116934060Y-132241569D01*
X116927420Y-135422812D01*
X116980353Y-135490106D01*
G36*
X116902947Y-113308868D02*
G01*
X116903100Y-113631612D01*
X116903446Y-113912582D01*
X116904043Y-114154787D01*
X116904953Y-114361235D01*
X116906235Y-114534937D01*
X116907950Y-114678899D01*
X116910158Y-114796131D01*
X116912920Y-114889642D01*
X116916295Y-114962441D01*
X116920344Y-115017536D01*
X116925127Y-115057936D01*
X116930704Y-115086649D01*
X116937136Y-115106685D01*
X116944483Y-115121052D01*
X116952805Y-115132759D01*
X116955243Y-115135874D01*
X117024594Y-115190011D01*
X117103996Y-115200539D01*
X117179052Y-115166655D01*
X117197113Y-115149338D01*
X117205091Y-115139091D01*
X117212168Y-115125018D01*
X117218415Y-115104104D01*
X117223905Y-115073333D01*
X117228710Y-115029688D01*
X117232902Y-114970155D01*
X117236552Y-114891718D01*
X117239734Y-114791361D01*
X117242519Y-114666069D01*
X117244979Y-114512825D01*
X117247186Y-114328614D01*
X117249213Y-114110421D01*
X117251131Y-113855229D01*
X117253013Y-113560023D01*
X117254930Y-113221787D01*
X117256955Y-112837506D01*
X117258200Y-112593890D01*
X117270900Y-110091903D01*
X117778900Y-109800406D01*
X118662343Y-109292813D01*
X119562534Y-108774265D01*
X120407800Y-108286221D01*
X120600824Y-108174813D01*
X120780804Y-108071236D01*
X120942837Y-107978289D01*
X121082023Y-107898770D01*
X121193460Y-107835477D01*
X121272247Y-107791208D01*
X121313483Y-107768761D01*
X121317842Y-107766683D01*
X121323039Y-107771703D01*
X121327673Y-107792635D01*
X121331767Y-107831921D01*
X121335345Y-107892004D01*
X121338432Y-107975327D01*
X121341052Y-108084332D01*
X121343229Y-108221461D01*
X121344986Y-108389157D01*
X121346349Y-108589863D01*
X121347340Y-108826021D01*
X121347985Y-109100074D01*
X121348308Y-109414463D01*
X121348331Y-109771632D01*
X121348081Y-110174023D01*
X121347580Y-110624079D01*
X121347396Y-110760667D01*
X121346875Y-111147963D01*
X121346409Y-111521498D01*
X121346001Y-111878086D01*
X121345651Y-112214540D01*
X121345363Y-112527672D01*
X121345139Y-112814295D01*
X121344980Y-113071222D01*
X121344888Y-113295266D01*
X121344866Y-113483239D01*
X121344916Y-113631954D01*
X121345040Y-113738223D01*
X121345240Y-113798861D01*
X121345403Y-113812150D01*
X121364162Y-113862471D01*
X121398400Y-113907400D01*
X121408084Y-113916173D01*
X121420593Y-113923874D01*
X121439105Y-113930571D01*
X121466802Y-113936336D01*
X121506864Y-113941237D01*
X121562473Y-113945346D01*
X121636809Y-113948731D01*
X121733052Y-113951463D01*
X121854384Y-113953612D01*
X122003985Y-113955247D01*
X122185036Y-113956439D01*
X122400718Y-113957258D01*
X122654210Y-113957774D01*
X122948696Y-113958056D01*
X123287354Y-113958174D01*
X123673365Y-113958199D01*
X123707851Y-113958200D01*
X125966502Y-113958200D01*
X126122800Y-113826684D01*
X126122800Y-106118455D01*
X126064012Y-106063227D01*
X125985266Y-106015674D01*
X125906637Y-106017485D01*
X125843400Y-106058800D01*
X125836372Y-106066507D01*
X125830019Y-106076534D01*
X125824303Y-106091375D01*
X125819185Y-106113525D01*
X125814627Y-106145475D01*
X125810591Y-106189722D01*
X125807038Y-106248757D01*
X125803930Y-106325076D01*
X125801228Y-106421172D01*
X125798895Y-106539538D01*
X125796891Y-106682669D01*
X125795178Y-106853058D01*
X125793719Y-107053200D01*
X125792473Y-107285587D01*
X125791404Y-107552715D01*
X125790473Y-107857075D01*
X125789641Y-108201164D01*
X125788870Y-108587473D01*
X125788122Y-109018498D01*
X125787358Y-109496731D01*
X125787007Y-109722750D01*
X125786343Y-110149359D01*
X125785690Y-110563404D01*
X125785055Y-110961898D01*
X125784442Y-111341856D01*
X125783856Y-111700289D01*
X125783302Y-112034214D01*
X125782786Y-112340642D01*
X125782311Y-112616587D01*
X125781885Y-112859064D01*
X125781511Y-113065086D01*
X125781194Y-113231667D01*
X125780940Y-113355820D01*
X125780754Y-113434559D01*
X125780657Y-113462900D01*
X125779900Y-113589900D01*
X123741550Y-113596401D01*
X121703199Y-113602902D01*
X121703199Y-107377290D01*
X121640854Y-107314945D01*
X121583779Y-107272050D01*
X121530009Y-107252691D01*
X121527128Y-107252600D01*
X121497906Y-107265078D01*
X121428038Y-107301290D01*
X121320774Y-107359403D01*
X121179364Y-107437584D01*
X121007061Y-107533999D01*
X120807113Y-107646816D01*
X120582773Y-107774202D01*
X120337289Y-107914322D01*
X120073915Y-108065345D01*
X119795899Y-108225437D01*
X119551124Y-108366916D01*
X119188587Y-108576814D01*
X118867155Y-108762903D01*
X118583973Y-108926834D01*
X118336187Y-109070256D01*
X118120939Y-109194819D01*
X117935377Y-109302173D01*
X117776643Y-109393967D01*
X117641884Y-109471853D01*
X117528244Y-109537479D01*
X117432868Y-109592496D01*
X117352900Y-109638553D01*
X117285485Y-109677301D01*
X117227769Y-109710388D01*
X117176896Y-109739466D01*
X117130011Y-109766183D01*
X117105800Y-109779952D01*
X117026290Y-109832000D01*
X116962938Y-109885783D01*
X116934724Y-109921227D01*
X116929325Y-109942878D01*
X116924527Y-109986929D01*
X116920300Y-110055793D01*
X116916615Y-110151889D01*
X116913442Y-110277630D01*
X116910752Y-110435435D01*
X116908515Y-110627718D01*
X116906702Y-110856895D01*
X116905284Y-111125383D01*
X116904230Y-111435598D01*
X116903512Y-111789955D01*
X116903100Y-112190871D01*
X116902974Y-112526024D01*
X116902925Y-112941342D01*
X116902947Y-113308868D01*
G37*
X116902947Y-113308868D02*
X116903100Y-113631612D01*
X116903446Y-113912582D01*
X116904043Y-114154787D01*
X116904953Y-114361235D01*
X116906235Y-114534937D01*
X116907950Y-114678899D01*
X116910158Y-114796131D01*
X116912920Y-114889642D01*
X116916295Y-114962441D01*
X116920344Y-115017536D01*
X116925127Y-115057936D01*
X116930704Y-115086649D01*
X116937136Y-115106685D01*
X116944483Y-115121052D01*
X116952805Y-115132759D01*
X116955243Y-115135874D01*
X117024594Y-115190011D01*
X117103996Y-115200539D01*
X117179052Y-115166655D01*
X117197113Y-115149338D01*
X117205091Y-115139091D01*
X117212168Y-115125018D01*
X117218415Y-115104104D01*
X117223905Y-115073333D01*
X117228710Y-115029688D01*
X117232902Y-114970155D01*
X117236552Y-114891718D01*
X117239734Y-114791361D01*
X117242519Y-114666069D01*
X117244979Y-114512825D01*
X117247186Y-114328614D01*
X117249213Y-114110421D01*
X117251131Y-113855229D01*
X117253013Y-113560023D01*
X117254930Y-113221787D01*
X117256955Y-112837506D01*
X117258200Y-112593890D01*
X117270900Y-110091903D01*
X117778900Y-109800406D01*
X118662343Y-109292813D01*
X119562534Y-108774265D01*
X120407800Y-108286221D01*
X120600824Y-108174813D01*
X120780804Y-108071236D01*
X120942837Y-107978289D01*
X121082023Y-107898770D01*
X121193460Y-107835477D01*
X121272247Y-107791208D01*
X121313483Y-107768761D01*
X121317842Y-107766683D01*
X121323039Y-107771703D01*
X121327673Y-107792635D01*
X121331767Y-107831921D01*
X121335345Y-107892004D01*
X121338432Y-107975327D01*
X121341052Y-108084332D01*
X121343229Y-108221461D01*
X121344986Y-108389157D01*
X121346349Y-108589863D01*
X121347340Y-108826021D01*
X121347985Y-109100074D01*
X121348308Y-109414463D01*
X121348331Y-109771632D01*
X121348081Y-110174023D01*
X121347580Y-110624079D01*
X121347396Y-110760667D01*
X121346875Y-111147963D01*
X121346409Y-111521498D01*
X121346001Y-111878086D01*
X121345651Y-112214540D01*
X121345363Y-112527672D01*
X121345139Y-112814295D01*
X121344980Y-113071222D01*
X121344888Y-113295266D01*
X121344866Y-113483239D01*
X121344916Y-113631954D01*
X121345040Y-113738223D01*
X121345240Y-113798861D01*
X121345403Y-113812150D01*
X121364162Y-113862471D01*
X121398400Y-113907400D01*
X121408084Y-113916173D01*
X121420593Y-113923874D01*
X121439105Y-113930571D01*
X121466802Y-113936336D01*
X121506864Y-113941237D01*
X121562473Y-113945346D01*
X121636809Y-113948731D01*
X121733052Y-113951463D01*
X121854384Y-113953612D01*
X122003985Y-113955247D01*
X122185036Y-113956439D01*
X122400718Y-113957258D01*
X122654210Y-113957774D01*
X122948696Y-113958056D01*
X123287354Y-113958174D01*
X123673365Y-113958199D01*
X123707851Y-113958200D01*
X125966502Y-113958200D01*
X126122800Y-113826684D01*
X126122800Y-106118455D01*
X126064012Y-106063227D01*
X125985266Y-106015674D01*
X125906637Y-106017485D01*
X125843400Y-106058800D01*
X125836372Y-106066507D01*
X125830019Y-106076534D01*
X125824303Y-106091375D01*
X125819185Y-106113525D01*
X125814627Y-106145475D01*
X125810591Y-106189722D01*
X125807038Y-106248757D01*
X125803930Y-106325076D01*
X125801228Y-106421172D01*
X125798895Y-106539538D01*
X125796891Y-106682669D01*
X125795178Y-106853058D01*
X125793719Y-107053200D01*
X125792473Y-107285587D01*
X125791404Y-107552715D01*
X125790473Y-107857075D01*
X125789641Y-108201164D01*
X125788870Y-108587473D01*
X125788122Y-109018498D01*
X125787358Y-109496731D01*
X125787007Y-109722750D01*
X125786343Y-110149359D01*
X125785690Y-110563404D01*
X125785055Y-110961898D01*
X125784442Y-111341856D01*
X125783856Y-111700289D01*
X125783302Y-112034214D01*
X125782786Y-112340642D01*
X125782311Y-112616587D01*
X125781885Y-112859064D01*
X125781511Y-113065086D01*
X125781194Y-113231667D01*
X125780940Y-113355820D01*
X125780754Y-113434559D01*
X125780657Y-113462900D01*
X125779900Y-113589900D01*
X123741550Y-113596401D01*
X121703199Y-113602902D01*
X121703199Y-107377290D01*
X121640854Y-107314945D01*
X121583779Y-107272050D01*
X121530009Y-107252691D01*
X121527128Y-107252600D01*
X121497906Y-107265078D01*
X121428038Y-107301290D01*
X121320774Y-107359403D01*
X121179364Y-107437584D01*
X121007061Y-107533999D01*
X120807113Y-107646816D01*
X120582773Y-107774202D01*
X120337289Y-107914322D01*
X120073915Y-108065345D01*
X119795899Y-108225437D01*
X119551124Y-108366916D01*
X119188587Y-108576814D01*
X118867155Y-108762903D01*
X118583973Y-108926834D01*
X118336187Y-109070256D01*
X118120939Y-109194819D01*
X117935377Y-109302173D01*
X117776643Y-109393967D01*
X117641884Y-109471853D01*
X117528244Y-109537479D01*
X117432868Y-109592496D01*
X117352900Y-109638553D01*
X117285485Y-109677301D01*
X117227769Y-109710388D01*
X117176896Y-109739466D01*
X117130011Y-109766183D01*
X117105800Y-109779952D01*
X117026290Y-109832000D01*
X116962938Y-109885783D01*
X116934724Y-109921227D01*
X116929325Y-109942878D01*
X116924527Y-109986929D01*
X116920300Y-110055793D01*
X116916615Y-110151889D01*
X116913442Y-110277630D01*
X116910752Y-110435435D01*
X116908515Y-110627718D01*
X116906702Y-110856895D01*
X116905284Y-111125383D01*
X116904230Y-111435598D01*
X116903512Y-111789955D01*
X116903100Y-112190871D01*
X116902974Y-112526024D01*
X116902925Y-112941342D01*
X116902947Y-113308868D01*
G36*
X116980353Y-107490106D02*
G01*
X117050887Y-107546387D01*
X117129450Y-107555861D01*
X117204509Y-107518512D01*
X117230956Y-107490474D01*
X117238779Y-107480068D01*
X117245786Y-107468011D01*
X117252022Y-107451594D01*
X117257531Y-107428106D01*
X117262360Y-107394837D01*
X117266552Y-107349079D01*
X117270152Y-107288121D01*
X117273206Y-107209254D01*
X117275759Y-107109767D01*
X117277855Y-106986952D01*
X117279540Y-106838099D01*
X117280858Y-106660497D01*
X117281855Y-106451438D01*
X117282575Y-106208211D01*
X117283063Y-105928107D01*
X117283365Y-105608416D01*
X117283525Y-105246429D01*
X117283588Y-104839435D01*
X117283599Y-104384725D01*
X117283600Y-104318012D01*
X117283600Y-101212475D01*
X117683650Y-100983444D01*
X117831632Y-100898631D01*
X117982596Y-100811948D01*
X118123616Y-100730830D01*
X118241764Y-100662708D01*
X118299600Y-100629252D01*
X118382228Y-100581417D01*
X118499959Y-100513349D01*
X118643890Y-100430192D01*
X118805117Y-100337089D01*
X118974734Y-100239185D01*
X119099700Y-100167082D01*
X119294149Y-100054894D01*
X119509159Y-99930820D01*
X119729981Y-99803372D01*
X119941863Y-99681063D01*
X120130057Y-99572406D01*
X120191900Y-99536693D01*
X120361858Y-99438584D01*
X120539932Y-99335868D01*
X120713664Y-99235725D01*
X120870596Y-99145335D01*
X120998273Y-99071879D01*
X121017400Y-99060887D01*
X121334900Y-98878460D01*
X121347600Y-101259469D01*
X121349771Y-101661007D01*
X121351789Y-102014840D01*
X121353730Y-102324063D01*
X121355673Y-102591770D01*
X121357695Y-102821056D01*
X121359874Y-103015016D01*
X121362287Y-103176743D01*
X121365012Y-103309333D01*
X121368127Y-103415880D01*
X121371709Y-103499478D01*
X121375836Y-103563223D01*
X121380585Y-103610209D01*
X121386035Y-103643530D01*
X121392263Y-103666281D01*
X121399346Y-103681557D01*
X121407363Y-103692452D01*
X121408686Y-103693939D01*
X121479359Y-103738559D01*
X121560519Y-103741421D01*
X121633721Y-103702526D01*
X121642113Y-103693939D01*
X121650105Y-103683672D01*
X121657193Y-103669575D01*
X121663449Y-103648624D01*
X121668945Y-103617797D01*
X121673753Y-103574075D01*
X121677947Y-103514433D01*
X121681599Y-103435852D01*
X121684780Y-103335308D01*
X121687565Y-103209781D01*
X121690024Y-103056249D01*
X121692232Y-102871690D01*
X121694259Y-102653082D01*
X121696180Y-102397404D01*
X121698065Y-102101634D01*
X121699989Y-101762750D01*
X121702022Y-101377730D01*
X121703200Y-101148031D01*
X121715900Y-98655584D01*
X122274700Y-98333970D01*
X122397075Y-98263492D01*
X122557776Y-98170872D01*
X122751139Y-98059377D01*
X122971499Y-97932275D01*
X123213195Y-97792833D01*
X123470562Y-97644319D01*
X123737938Y-97489999D01*
X124009658Y-97333141D01*
X124280059Y-97177014D01*
X124306700Y-97161630D01*
X125779900Y-96310905D01*
X125792772Y-103630009D01*
X125847913Y-103688704D01*
X125920910Y-103738666D01*
X125995903Y-103738216D01*
X126067326Y-103688874D01*
X126122308Y-103630349D01*
X126128904Y-99815363D01*
X126129525Y-99378248D01*
X126129866Y-98954482D01*
X126129936Y-98546899D01*
X126129745Y-98158333D01*
X126129303Y-97791618D01*
X126128620Y-97449589D01*
X126127706Y-97135079D01*
X126126571Y-96850923D01*
X126125226Y-96599955D01*
X126123679Y-96385008D01*
X126121942Y-96208918D01*
X126120025Y-96074518D01*
X126117936Y-95984641D01*
X126115687Y-95942124D01*
X126115185Y-95939446D01*
X126077786Y-95886144D01*
X126020871Y-95847863D01*
X125969235Y-95832339D01*
X125921260Y-95838015D01*
X125856454Y-95868338D01*
X125837985Y-95878612D01*
X125777103Y-95913253D01*
X125674291Y-95972138D01*
X125531601Y-96054087D01*
X125351080Y-96157919D01*
X125134779Y-96282452D01*
X124884748Y-96426506D01*
X124603036Y-96588899D01*
X124291693Y-96768450D01*
X123952769Y-96963979D01*
X123588314Y-97174304D01*
X123200377Y-97398244D01*
X123036700Y-97492746D01*
X122713581Y-97679315D01*
X122431224Y-97842354D01*
X122186399Y-97983730D01*
X121975874Y-98105313D01*
X121796417Y-98208972D01*
X121644797Y-98296576D01*
X121517782Y-98369993D01*
X121412141Y-98431093D01*
X121324643Y-98481744D01*
X121252055Y-98523816D01*
X121191147Y-98559177D01*
X121138687Y-98589697D01*
X121091444Y-98617243D01*
X121046185Y-98643686D01*
X121004700Y-98667956D01*
X120936026Y-98707914D01*
X120829677Y-98769490D01*
X120692033Y-98849006D01*
X120529472Y-98942781D01*
X120348372Y-99047136D01*
X120155112Y-99158392D01*
X119956070Y-99272869D01*
X119950600Y-99276014D01*
X119749435Y-99391697D01*
X119552101Y-99505261D01*
X119365309Y-99612836D01*
X119195776Y-99710552D01*
X119050214Y-99794540D01*
X118935338Y-99860929D01*
X118858400Y-99905537D01*
X118723591Y-99983858D01*
X118570727Y-100072501D01*
X118425638Y-100156491D01*
X118375800Y-100185295D01*
X118243251Y-100261920D01*
X118094978Y-100347742D01*
X117955671Y-100428464D01*
X117905900Y-100457336D01*
X117794126Y-100521995D01*
X117655314Y-100601984D01*
X117506557Y-100687469D01*
X117364947Y-100768614D01*
X117355068Y-100774265D01*
X117236342Y-100843799D01*
X117130621Y-100908769D01*
X117047275Y-100963194D01*
X116995671Y-101001090D01*
X116986768Y-101009425D01*
X116979984Y-101018673D01*
X116973888Y-101032406D01*
X116968437Y-101053279D01*
X116963586Y-101083948D01*
X116959292Y-101127069D01*
X116955513Y-101185297D01*
X116952204Y-101261288D01*
X116949324Y-101357696D01*
X116946827Y-101477179D01*
X116944672Y-101622390D01*
X116942814Y-101795986D01*
X116941211Y-102000622D01*
X116939819Y-102238954D01*
X116938594Y-102513638D01*
X116937494Y-102827328D01*
X116936475Y-103182680D01*
X116935494Y-103582350D01*
X116934508Y-104028994D01*
X116934060Y-104241569D01*
X116927420Y-107422812D01*
X116980353Y-107490106D01*
G37*
X116980353Y-107490106D02*
X117050887Y-107546387D01*
X117129450Y-107555861D01*
X117204509Y-107518512D01*
X117230956Y-107490474D01*
X117238779Y-107480068D01*
X117245786Y-107468011D01*
X117252022Y-107451594D01*
X117257531Y-107428106D01*
X117262360Y-107394837D01*
X117266552Y-107349079D01*
X117270152Y-107288121D01*
X117273206Y-107209254D01*
X117275759Y-107109767D01*
X117277855Y-106986952D01*
X117279540Y-106838099D01*
X117280858Y-106660497D01*
X117281855Y-106451438D01*
X117282575Y-106208211D01*
X117283063Y-105928107D01*
X117283365Y-105608416D01*
X117283525Y-105246429D01*
X117283588Y-104839435D01*
X117283599Y-104384725D01*
X117283600Y-104318012D01*
X117283600Y-101212475D01*
X117683650Y-100983444D01*
X117831632Y-100898631D01*
X117982596Y-100811948D01*
X118123616Y-100730830D01*
X118241764Y-100662708D01*
X118299600Y-100629252D01*
X118382228Y-100581417D01*
X118499959Y-100513349D01*
X118643890Y-100430192D01*
X118805117Y-100337089D01*
X118974734Y-100239185D01*
X119099700Y-100167082D01*
X119294149Y-100054894D01*
X119509159Y-99930820D01*
X119729981Y-99803372D01*
X119941863Y-99681063D01*
X120130057Y-99572406D01*
X120191900Y-99536693D01*
X120361858Y-99438584D01*
X120539932Y-99335868D01*
X120713664Y-99235725D01*
X120870596Y-99145335D01*
X120998273Y-99071879D01*
X121017400Y-99060887D01*
X121334900Y-98878460D01*
X121347600Y-101259469D01*
X121349771Y-101661007D01*
X121351789Y-102014840D01*
X121353730Y-102324063D01*
X121355673Y-102591770D01*
X121357695Y-102821056D01*
X121359874Y-103015016D01*
X121362287Y-103176743D01*
X121365012Y-103309333D01*
X121368127Y-103415880D01*
X121371709Y-103499478D01*
X121375836Y-103563223D01*
X121380585Y-103610209D01*
X121386035Y-103643530D01*
X121392263Y-103666281D01*
X121399346Y-103681557D01*
X121407363Y-103692452D01*
X121408686Y-103693939D01*
X121479359Y-103738559D01*
X121560519Y-103741421D01*
X121633721Y-103702526D01*
X121642113Y-103693939D01*
X121650105Y-103683672D01*
X121657193Y-103669575D01*
X121663449Y-103648624D01*
X121668945Y-103617797D01*
X121673753Y-103574075D01*
X121677947Y-103514433D01*
X121681599Y-103435852D01*
X121684780Y-103335308D01*
X121687565Y-103209781D01*
X121690024Y-103056249D01*
X121692232Y-102871690D01*
X121694259Y-102653082D01*
X121696180Y-102397404D01*
X121698065Y-102101634D01*
X121699989Y-101762750D01*
X121702022Y-101377730D01*
X121703200Y-101148031D01*
X121715900Y-98655584D01*
X122274700Y-98333970D01*
X122397075Y-98263492D01*
X122557776Y-98170872D01*
X122751139Y-98059377D01*
X122971499Y-97932275D01*
X123213195Y-97792833D01*
X123470562Y-97644319D01*
X123737938Y-97489999D01*
X124009658Y-97333141D01*
X124280059Y-97177014D01*
X124306700Y-97161630D01*
X125779900Y-96310905D01*
X125792772Y-103630009D01*
X125847913Y-103688704D01*
X125920910Y-103738666D01*
X125995903Y-103738216D01*
X126067326Y-103688874D01*
X126122308Y-103630349D01*
X126128904Y-99815363D01*
X126129525Y-99378248D01*
X126129866Y-98954482D01*
X126129936Y-98546899D01*
X126129745Y-98158333D01*
X126129303Y-97791618D01*
X126128620Y-97449589D01*
X126127706Y-97135079D01*
X126126571Y-96850923D01*
X126125226Y-96599955D01*
X126123679Y-96385008D01*
X126121942Y-96208918D01*
X126120025Y-96074518D01*
X126117936Y-95984641D01*
X126115687Y-95942124D01*
X126115185Y-95939446D01*
X126077786Y-95886144D01*
X126020871Y-95847863D01*
X125969235Y-95832339D01*
X125921260Y-95838015D01*
X125856454Y-95868338D01*
X125837985Y-95878612D01*
X125777103Y-95913253D01*
X125674291Y-95972138D01*
X125531601Y-96054087D01*
X125351080Y-96157919D01*
X125134779Y-96282452D01*
X124884748Y-96426506D01*
X124603036Y-96588899D01*
X124291693Y-96768450D01*
X123952769Y-96963979D01*
X123588314Y-97174304D01*
X123200377Y-97398244D01*
X123036700Y-97492746D01*
X122713581Y-97679315D01*
X122431224Y-97842354D01*
X122186399Y-97983730D01*
X121975874Y-98105313D01*
X121796417Y-98208972D01*
X121644797Y-98296576D01*
X121517782Y-98369993D01*
X121412141Y-98431093D01*
X121324643Y-98481744D01*
X121252055Y-98523816D01*
X121191147Y-98559177D01*
X121138687Y-98589697D01*
X121091444Y-98617243D01*
X121046185Y-98643686D01*
X121004700Y-98667956D01*
X120936026Y-98707914D01*
X120829677Y-98769490D01*
X120692033Y-98849006D01*
X120529472Y-98942781D01*
X120348372Y-99047136D01*
X120155112Y-99158392D01*
X119956070Y-99272869D01*
X119950600Y-99276014D01*
X119749435Y-99391697D01*
X119552101Y-99505261D01*
X119365309Y-99612836D01*
X119195776Y-99710552D01*
X119050214Y-99794540D01*
X118935338Y-99860929D01*
X118858400Y-99905537D01*
X118723591Y-99983858D01*
X118570727Y-100072501D01*
X118425638Y-100156491D01*
X118375800Y-100185295D01*
X118243251Y-100261920D01*
X118094978Y-100347742D01*
X117955671Y-100428464D01*
X117905900Y-100457336D01*
X117794126Y-100521995D01*
X117655314Y-100601984D01*
X117506557Y-100687469D01*
X117364947Y-100768614D01*
X117355068Y-100774265D01*
X117236342Y-100843799D01*
X117130621Y-100908769D01*
X117047275Y-100963194D01*
X116995671Y-101001090D01*
X116986768Y-101009425D01*
X116979984Y-101018673D01*
X116973888Y-101032406D01*
X116968437Y-101053279D01*
X116963586Y-101083948D01*
X116959292Y-101127069D01*
X116955513Y-101185297D01*
X116952204Y-101261288D01*
X116949324Y-101357696D01*
X116946827Y-101477179D01*
X116944672Y-101622390D01*
X116942814Y-101795986D01*
X116941211Y-102000622D01*
X116939819Y-102238954D01*
X116938594Y-102513638D01*
X116937494Y-102827328D01*
X116936475Y-103182680D01*
X116935494Y-103582350D01*
X116934508Y-104028994D01*
X116934060Y-104241569D01*
X116927420Y-107422812D01*
X116980353Y-107490106D01*
G36*
X116902947Y-85308868D02*
G01*
X116903100Y-85631612D01*
X116903446Y-85912582D01*
X116904043Y-86154787D01*
X116904953Y-86361235D01*
X116906235Y-86534937D01*
X116907950Y-86678899D01*
X116910158Y-86796131D01*
X116912920Y-86889642D01*
X116916295Y-86962441D01*
X116920344Y-87017536D01*
X116925127Y-87057936D01*
X116930704Y-87086649D01*
X116937136Y-87106685D01*
X116944483Y-87121052D01*
X116952805Y-87132759D01*
X116955243Y-87135874D01*
X117024594Y-87190011D01*
X117103996Y-87200539D01*
X117179052Y-87166655D01*
X117197113Y-87149338D01*
X117205091Y-87139091D01*
X117212168Y-87125018D01*
X117218415Y-87104104D01*
X117223905Y-87073333D01*
X117228710Y-87029688D01*
X117232902Y-86970155D01*
X117236552Y-86891718D01*
X117239734Y-86791361D01*
X117242519Y-86666069D01*
X117244979Y-86512825D01*
X117247186Y-86328614D01*
X117249213Y-86110421D01*
X117251131Y-85855229D01*
X117253013Y-85560023D01*
X117254930Y-85221787D01*
X117256955Y-84837506D01*
X117258200Y-84593890D01*
X117270900Y-82091903D01*
X117778900Y-81800406D01*
X118662343Y-81292813D01*
X119562534Y-80774265D01*
X120407800Y-80286221D01*
X120600824Y-80174813D01*
X120780804Y-80071236D01*
X120942837Y-79978289D01*
X121082023Y-79898770D01*
X121193460Y-79835477D01*
X121272247Y-79791208D01*
X121313483Y-79768761D01*
X121317842Y-79766683D01*
X121323039Y-79771703D01*
X121327673Y-79792635D01*
X121331767Y-79831921D01*
X121335345Y-79892004D01*
X121338432Y-79975327D01*
X121341052Y-80084332D01*
X121343229Y-80221461D01*
X121344986Y-80389157D01*
X121346349Y-80589863D01*
X121347340Y-80826021D01*
X121347985Y-81100074D01*
X121348308Y-81414463D01*
X121348331Y-81771632D01*
X121348081Y-82174023D01*
X121347580Y-82624079D01*
X121347396Y-82760667D01*
X121346875Y-83147963D01*
X121346409Y-83521498D01*
X121346001Y-83878086D01*
X121345651Y-84214540D01*
X121345363Y-84527672D01*
X121345139Y-84814295D01*
X121344980Y-85071222D01*
X121344888Y-85295266D01*
X121344866Y-85483239D01*
X121344916Y-85631954D01*
X121345040Y-85738223D01*
X121345240Y-85798861D01*
X121345403Y-85812150D01*
X121364162Y-85862471D01*
X121398400Y-85907400D01*
X121408084Y-85916173D01*
X121420593Y-85923874D01*
X121439105Y-85930571D01*
X121466802Y-85936336D01*
X121506864Y-85941237D01*
X121562473Y-85945346D01*
X121636809Y-85948731D01*
X121733052Y-85951463D01*
X121854384Y-85953612D01*
X122003985Y-85955247D01*
X122185036Y-85956439D01*
X122400718Y-85957258D01*
X122654210Y-85957774D01*
X122948696Y-85958056D01*
X123287354Y-85958174D01*
X123673365Y-85958199D01*
X123707851Y-85958200D01*
X125966502Y-85958200D01*
X126122800Y-85826684D01*
X126122800Y-78118455D01*
X126064012Y-78063227D01*
X125985266Y-78015674D01*
X125906637Y-78017485D01*
X125843400Y-78058800D01*
X125836372Y-78066507D01*
X125830019Y-78076534D01*
X125824303Y-78091375D01*
X125819185Y-78113525D01*
X125814627Y-78145475D01*
X125810591Y-78189722D01*
X125807038Y-78248757D01*
X125803930Y-78325076D01*
X125801228Y-78421172D01*
X125798895Y-78539538D01*
X125796891Y-78682669D01*
X125795178Y-78853058D01*
X125793719Y-79053200D01*
X125792473Y-79285587D01*
X125791404Y-79552715D01*
X125790473Y-79857075D01*
X125789641Y-80201164D01*
X125788870Y-80587473D01*
X125788122Y-81018498D01*
X125787358Y-81496731D01*
X125787007Y-81722750D01*
X125786343Y-82149359D01*
X125785690Y-82563404D01*
X125785055Y-82961898D01*
X125784442Y-83341856D01*
X125783856Y-83700289D01*
X125783302Y-84034214D01*
X125782786Y-84340642D01*
X125782311Y-84616587D01*
X125781885Y-84859064D01*
X125781511Y-85065086D01*
X125781194Y-85231667D01*
X125780940Y-85355820D01*
X125780754Y-85434559D01*
X125780657Y-85462900D01*
X125779900Y-85589900D01*
X123741550Y-85596401D01*
X121703199Y-85602902D01*
X121703199Y-79377290D01*
X121640854Y-79314945D01*
X121583779Y-79272050D01*
X121530009Y-79252691D01*
X121527128Y-79252600D01*
X121497906Y-79265078D01*
X121428038Y-79301290D01*
X121320774Y-79359403D01*
X121179364Y-79437584D01*
X121007061Y-79533999D01*
X120807113Y-79646816D01*
X120582773Y-79774202D01*
X120337289Y-79914322D01*
X120073915Y-80065345D01*
X119795899Y-80225437D01*
X119551124Y-80366916D01*
X119188587Y-80576814D01*
X118867155Y-80762903D01*
X118583973Y-80926834D01*
X118336187Y-81070256D01*
X118120939Y-81194819D01*
X117935377Y-81302173D01*
X117776643Y-81393967D01*
X117641884Y-81471853D01*
X117528244Y-81537479D01*
X117432868Y-81592496D01*
X117352900Y-81638553D01*
X117285485Y-81677301D01*
X117227769Y-81710388D01*
X117176896Y-81739466D01*
X117130011Y-81766183D01*
X117105800Y-81779952D01*
X117026290Y-81832000D01*
X116962938Y-81885783D01*
X116934724Y-81921227D01*
X116929325Y-81942878D01*
X116924527Y-81986929D01*
X116920300Y-82055793D01*
X116916615Y-82151889D01*
X116913442Y-82277630D01*
X116910752Y-82435435D01*
X116908515Y-82627718D01*
X116906702Y-82856895D01*
X116905284Y-83125383D01*
X116904230Y-83435598D01*
X116903512Y-83789955D01*
X116903100Y-84190871D01*
X116902974Y-84526024D01*
X116902925Y-84941342D01*
X116902947Y-85308868D01*
G37*
X116902947Y-85308868D02*
X116903100Y-85631612D01*
X116903446Y-85912582D01*
X116904043Y-86154787D01*
X116904953Y-86361235D01*
X116906235Y-86534937D01*
X116907950Y-86678899D01*
X116910158Y-86796131D01*
X116912920Y-86889642D01*
X116916295Y-86962441D01*
X116920344Y-87017536D01*
X116925127Y-87057936D01*
X116930704Y-87086649D01*
X116937136Y-87106685D01*
X116944483Y-87121052D01*
X116952805Y-87132759D01*
X116955243Y-87135874D01*
X117024594Y-87190011D01*
X117103996Y-87200539D01*
X117179052Y-87166655D01*
X117197113Y-87149338D01*
X117205091Y-87139091D01*
X117212168Y-87125018D01*
X117218415Y-87104104D01*
X117223905Y-87073333D01*
X117228710Y-87029688D01*
X117232902Y-86970155D01*
X117236552Y-86891718D01*
X117239734Y-86791361D01*
X117242519Y-86666069D01*
X117244979Y-86512825D01*
X117247186Y-86328614D01*
X117249213Y-86110421D01*
X117251131Y-85855229D01*
X117253013Y-85560023D01*
X117254930Y-85221787D01*
X117256955Y-84837506D01*
X117258200Y-84593890D01*
X117270900Y-82091903D01*
X117778900Y-81800406D01*
X118662343Y-81292813D01*
X119562534Y-80774265D01*
X120407800Y-80286221D01*
X120600824Y-80174813D01*
X120780804Y-80071236D01*
X120942837Y-79978289D01*
X121082023Y-79898770D01*
X121193460Y-79835477D01*
X121272247Y-79791208D01*
X121313483Y-79768761D01*
X121317842Y-79766683D01*
X121323039Y-79771703D01*
X121327673Y-79792635D01*
X121331767Y-79831921D01*
X121335345Y-79892004D01*
X121338432Y-79975327D01*
X121341052Y-80084332D01*
X121343229Y-80221461D01*
X121344986Y-80389157D01*
X121346349Y-80589863D01*
X121347340Y-80826021D01*
X121347985Y-81100074D01*
X121348308Y-81414463D01*
X121348331Y-81771632D01*
X121348081Y-82174023D01*
X121347580Y-82624079D01*
X121347396Y-82760667D01*
X121346875Y-83147963D01*
X121346409Y-83521498D01*
X121346001Y-83878086D01*
X121345651Y-84214540D01*
X121345363Y-84527672D01*
X121345139Y-84814295D01*
X121344980Y-85071222D01*
X121344888Y-85295266D01*
X121344866Y-85483239D01*
X121344916Y-85631954D01*
X121345040Y-85738223D01*
X121345240Y-85798861D01*
X121345403Y-85812150D01*
X121364162Y-85862471D01*
X121398400Y-85907400D01*
X121408084Y-85916173D01*
X121420593Y-85923874D01*
X121439105Y-85930571D01*
X121466802Y-85936336D01*
X121506864Y-85941237D01*
X121562473Y-85945346D01*
X121636809Y-85948731D01*
X121733052Y-85951463D01*
X121854384Y-85953612D01*
X122003985Y-85955247D01*
X122185036Y-85956439D01*
X122400718Y-85957258D01*
X122654210Y-85957774D01*
X122948696Y-85958056D01*
X123287354Y-85958174D01*
X123673365Y-85958199D01*
X123707851Y-85958200D01*
X125966502Y-85958200D01*
X126122800Y-85826684D01*
X126122800Y-78118455D01*
X126064012Y-78063227D01*
X125985266Y-78015674D01*
X125906637Y-78017485D01*
X125843400Y-78058800D01*
X125836372Y-78066507D01*
X125830019Y-78076534D01*
X125824303Y-78091375D01*
X125819185Y-78113525D01*
X125814627Y-78145475D01*
X125810591Y-78189722D01*
X125807038Y-78248757D01*
X125803930Y-78325076D01*
X125801228Y-78421172D01*
X125798895Y-78539538D01*
X125796891Y-78682669D01*
X125795178Y-78853058D01*
X125793719Y-79053200D01*
X125792473Y-79285587D01*
X125791404Y-79552715D01*
X125790473Y-79857075D01*
X125789641Y-80201164D01*
X125788870Y-80587473D01*
X125788122Y-81018498D01*
X125787358Y-81496731D01*
X125787007Y-81722750D01*
X125786343Y-82149359D01*
X125785690Y-82563404D01*
X125785055Y-82961898D01*
X125784442Y-83341856D01*
X125783856Y-83700289D01*
X125783302Y-84034214D01*
X125782786Y-84340642D01*
X125782311Y-84616587D01*
X125781885Y-84859064D01*
X125781511Y-85065086D01*
X125781194Y-85231667D01*
X125780940Y-85355820D01*
X125780754Y-85434559D01*
X125780657Y-85462900D01*
X125779900Y-85589900D01*
X123741550Y-85596401D01*
X121703199Y-85602902D01*
X121703199Y-79377290D01*
X121640854Y-79314945D01*
X121583779Y-79272050D01*
X121530009Y-79252691D01*
X121527128Y-79252600D01*
X121497906Y-79265078D01*
X121428038Y-79301290D01*
X121320774Y-79359403D01*
X121179364Y-79437584D01*
X121007061Y-79533999D01*
X120807113Y-79646816D01*
X120582773Y-79774202D01*
X120337289Y-79914322D01*
X120073915Y-80065345D01*
X119795899Y-80225437D01*
X119551124Y-80366916D01*
X119188587Y-80576814D01*
X118867155Y-80762903D01*
X118583973Y-80926834D01*
X118336187Y-81070256D01*
X118120939Y-81194819D01*
X117935377Y-81302173D01*
X117776643Y-81393967D01*
X117641884Y-81471853D01*
X117528244Y-81537479D01*
X117432868Y-81592496D01*
X117352900Y-81638553D01*
X117285485Y-81677301D01*
X117227769Y-81710388D01*
X117176896Y-81739466D01*
X117130011Y-81766183D01*
X117105800Y-81779952D01*
X117026290Y-81832000D01*
X116962938Y-81885783D01*
X116934724Y-81921227D01*
X116929325Y-81942878D01*
X116924527Y-81986929D01*
X116920300Y-82055793D01*
X116916615Y-82151889D01*
X116913442Y-82277630D01*
X116910752Y-82435435D01*
X116908515Y-82627718D01*
X116906702Y-82856895D01*
X116905284Y-83125383D01*
X116904230Y-83435598D01*
X116903512Y-83789955D01*
X116903100Y-84190871D01*
X116902974Y-84526024D01*
X116902925Y-84941342D01*
X116902947Y-85308868D01*
G36*
X116980353Y-79490106D02*
G01*
X117050887Y-79546387D01*
X117129450Y-79555861D01*
X117204509Y-79518512D01*
X117230956Y-79490474D01*
X117238779Y-79480068D01*
X117245786Y-79468011D01*
X117252022Y-79451594D01*
X117257531Y-79428106D01*
X117262360Y-79394837D01*
X117266552Y-79349079D01*
X117270152Y-79288121D01*
X117273206Y-79209254D01*
X117275759Y-79109767D01*
X117277855Y-78986952D01*
X117279540Y-78838099D01*
X117280858Y-78660497D01*
X117281855Y-78451438D01*
X117282575Y-78208211D01*
X117283063Y-77928107D01*
X117283365Y-77608416D01*
X117283525Y-77246429D01*
X117283588Y-76839435D01*
X117283599Y-76384725D01*
X117283600Y-76318012D01*
X117283600Y-73212475D01*
X117683650Y-72983444D01*
X117831632Y-72898631D01*
X117982596Y-72811948D01*
X118123616Y-72730830D01*
X118241764Y-72662708D01*
X118299600Y-72629252D01*
X118382228Y-72581417D01*
X118499959Y-72513349D01*
X118643890Y-72430192D01*
X118805117Y-72337089D01*
X118974734Y-72239185D01*
X119099700Y-72167082D01*
X119294149Y-72054894D01*
X119509159Y-71930820D01*
X119729981Y-71803372D01*
X119941863Y-71681063D01*
X120130057Y-71572406D01*
X120191900Y-71536693D01*
X120361858Y-71438584D01*
X120539932Y-71335868D01*
X120713664Y-71235725D01*
X120870596Y-71145335D01*
X120998273Y-71071879D01*
X121017400Y-71060887D01*
X121334900Y-70878460D01*
X121347600Y-73259469D01*
X121349771Y-73661007D01*
X121351789Y-74014840D01*
X121353730Y-74324063D01*
X121355673Y-74591770D01*
X121357695Y-74821056D01*
X121359874Y-75015016D01*
X121362287Y-75176743D01*
X121365012Y-75309333D01*
X121368127Y-75415880D01*
X121371709Y-75499478D01*
X121375836Y-75563223D01*
X121380585Y-75610209D01*
X121386035Y-75643530D01*
X121392263Y-75666281D01*
X121399346Y-75681557D01*
X121407363Y-75692452D01*
X121408686Y-75693939D01*
X121479359Y-75738559D01*
X121560519Y-75741421D01*
X121633721Y-75702526D01*
X121642113Y-75693939D01*
X121650105Y-75683672D01*
X121657193Y-75669575D01*
X121663449Y-75648624D01*
X121668945Y-75617797D01*
X121673753Y-75574075D01*
X121677947Y-75514433D01*
X121681599Y-75435852D01*
X121684780Y-75335308D01*
X121687565Y-75209781D01*
X121690024Y-75056249D01*
X121692232Y-74871690D01*
X121694259Y-74653082D01*
X121696180Y-74397404D01*
X121698065Y-74101634D01*
X121699989Y-73762750D01*
X121702022Y-73377730D01*
X121703200Y-73148031D01*
X121715900Y-70655584D01*
X122274700Y-70333970D01*
X122397075Y-70263492D01*
X122557776Y-70170872D01*
X122751139Y-70059377D01*
X122971499Y-69932275D01*
X123213195Y-69792833D01*
X123470562Y-69644319D01*
X123737938Y-69489999D01*
X124009658Y-69333141D01*
X124280059Y-69177014D01*
X124306700Y-69161630D01*
X125779900Y-68310905D01*
X125792772Y-75630009D01*
X125847913Y-75688704D01*
X125920910Y-75738666D01*
X125995903Y-75738216D01*
X126067326Y-75688874D01*
X126122308Y-75630349D01*
X126128904Y-71815363D01*
X126129525Y-71378248D01*
X126129866Y-70954482D01*
X126129936Y-70546899D01*
X126129745Y-70158333D01*
X126129303Y-69791618D01*
X126128620Y-69449589D01*
X126127706Y-69135079D01*
X126126571Y-68850923D01*
X126125226Y-68599955D01*
X126123679Y-68385008D01*
X126121942Y-68208918D01*
X126120025Y-68074518D01*
X126117936Y-67984641D01*
X126115687Y-67942124D01*
X126115185Y-67939446D01*
X126077786Y-67886144D01*
X126020871Y-67847863D01*
X125969235Y-67832339D01*
X125921260Y-67838015D01*
X125856454Y-67868338D01*
X125837985Y-67878612D01*
X125777103Y-67913253D01*
X125674291Y-67972138D01*
X125531601Y-68054087D01*
X125351080Y-68157919D01*
X125134779Y-68282452D01*
X124884748Y-68426506D01*
X124603036Y-68588899D01*
X124291693Y-68768450D01*
X123952769Y-68963979D01*
X123588314Y-69174304D01*
X123200377Y-69398244D01*
X123036700Y-69492746D01*
X122713581Y-69679315D01*
X122431224Y-69842354D01*
X122186399Y-69983730D01*
X121975874Y-70105313D01*
X121796417Y-70208972D01*
X121644797Y-70296576D01*
X121517782Y-70369993D01*
X121412141Y-70431093D01*
X121324643Y-70481744D01*
X121252055Y-70523816D01*
X121191147Y-70559177D01*
X121138687Y-70589697D01*
X121091444Y-70617243D01*
X121046185Y-70643686D01*
X121004700Y-70667956D01*
X120936026Y-70707914D01*
X120829677Y-70769490D01*
X120692033Y-70849006D01*
X120529472Y-70942781D01*
X120348372Y-71047136D01*
X120155112Y-71158392D01*
X119956070Y-71272869D01*
X119950600Y-71276014D01*
X119749435Y-71391697D01*
X119552101Y-71505261D01*
X119365309Y-71612836D01*
X119195776Y-71710552D01*
X119050214Y-71794540D01*
X118935338Y-71860929D01*
X118858400Y-71905537D01*
X118723591Y-71983858D01*
X118570727Y-72072501D01*
X118425638Y-72156491D01*
X118375800Y-72185295D01*
X118243251Y-72261920D01*
X118094978Y-72347742D01*
X117955671Y-72428464D01*
X117905900Y-72457336D01*
X117794126Y-72521995D01*
X117655314Y-72601984D01*
X117506557Y-72687469D01*
X117364947Y-72768614D01*
X117355068Y-72774265D01*
X117236342Y-72843799D01*
X117130621Y-72908769D01*
X117047275Y-72963194D01*
X116995671Y-73001090D01*
X116986768Y-73009425D01*
X116979984Y-73018673D01*
X116973888Y-73032406D01*
X116968437Y-73053279D01*
X116963586Y-73083948D01*
X116959292Y-73127069D01*
X116955513Y-73185297D01*
X116952204Y-73261288D01*
X116949324Y-73357696D01*
X116946827Y-73477179D01*
X116944672Y-73622390D01*
X116942814Y-73795986D01*
X116941211Y-74000622D01*
X116939819Y-74238954D01*
X116938594Y-74513638D01*
X116937494Y-74827328D01*
X116936475Y-75182680D01*
X116935494Y-75582350D01*
X116934508Y-76028994D01*
X116934060Y-76241569D01*
X116927420Y-79422812D01*
X116980353Y-79490106D01*
G37*
X116980353Y-79490106D02*
X117050887Y-79546387D01*
X117129450Y-79555861D01*
X117204509Y-79518512D01*
X117230956Y-79490474D01*
X117238779Y-79480068D01*
X117245786Y-79468011D01*
X117252022Y-79451594D01*
X117257531Y-79428106D01*
X117262360Y-79394837D01*
X117266552Y-79349079D01*
X117270152Y-79288121D01*
X117273206Y-79209254D01*
X117275759Y-79109767D01*
X117277855Y-78986952D01*
X117279540Y-78838099D01*
X117280858Y-78660497D01*
X117281855Y-78451438D01*
X117282575Y-78208211D01*
X117283063Y-77928107D01*
X117283365Y-77608416D01*
X117283525Y-77246429D01*
X117283588Y-76839435D01*
X117283599Y-76384725D01*
X117283600Y-76318012D01*
X117283600Y-73212475D01*
X117683650Y-72983444D01*
X117831632Y-72898631D01*
X117982596Y-72811948D01*
X118123616Y-72730830D01*
X118241764Y-72662708D01*
X118299600Y-72629252D01*
X118382228Y-72581417D01*
X118499959Y-72513349D01*
X118643890Y-72430192D01*
X118805117Y-72337089D01*
X118974734Y-72239185D01*
X119099700Y-72167082D01*
X119294149Y-72054894D01*
X119509159Y-71930820D01*
X119729981Y-71803372D01*
X119941863Y-71681063D01*
X120130057Y-71572406D01*
X120191900Y-71536693D01*
X120361858Y-71438584D01*
X120539932Y-71335868D01*
X120713664Y-71235725D01*
X120870596Y-71145335D01*
X120998273Y-71071879D01*
X121017400Y-71060887D01*
X121334900Y-70878460D01*
X121347600Y-73259469D01*
X121349771Y-73661007D01*
X121351789Y-74014840D01*
X121353730Y-74324063D01*
X121355673Y-74591770D01*
X121357695Y-74821056D01*
X121359874Y-75015016D01*
X121362287Y-75176743D01*
X121365012Y-75309333D01*
X121368127Y-75415880D01*
X121371709Y-75499478D01*
X121375836Y-75563223D01*
X121380585Y-75610209D01*
X121386035Y-75643530D01*
X121392263Y-75666281D01*
X121399346Y-75681557D01*
X121407363Y-75692452D01*
X121408686Y-75693939D01*
X121479359Y-75738559D01*
X121560519Y-75741421D01*
X121633721Y-75702526D01*
X121642113Y-75693939D01*
X121650105Y-75683672D01*
X121657193Y-75669575D01*
X121663449Y-75648624D01*
X121668945Y-75617797D01*
X121673753Y-75574075D01*
X121677947Y-75514433D01*
X121681599Y-75435852D01*
X121684780Y-75335308D01*
X121687565Y-75209781D01*
X121690024Y-75056249D01*
X121692232Y-74871690D01*
X121694259Y-74653082D01*
X121696180Y-74397404D01*
X121698065Y-74101634D01*
X121699989Y-73762750D01*
X121702022Y-73377730D01*
X121703200Y-73148031D01*
X121715900Y-70655584D01*
X122274700Y-70333970D01*
X122397075Y-70263492D01*
X122557776Y-70170872D01*
X122751139Y-70059377D01*
X122971499Y-69932275D01*
X123213195Y-69792833D01*
X123470562Y-69644319D01*
X123737938Y-69489999D01*
X124009658Y-69333141D01*
X124280059Y-69177014D01*
X124306700Y-69161630D01*
X125779900Y-68310905D01*
X125792772Y-75630009D01*
X125847913Y-75688704D01*
X125920910Y-75738666D01*
X125995903Y-75738216D01*
X126067326Y-75688874D01*
X126122308Y-75630349D01*
X126128904Y-71815363D01*
X126129525Y-71378248D01*
X126129866Y-70954482D01*
X126129936Y-70546899D01*
X126129745Y-70158333D01*
X126129303Y-69791618D01*
X126128620Y-69449589D01*
X126127706Y-69135079D01*
X126126571Y-68850923D01*
X126125226Y-68599955D01*
X126123679Y-68385008D01*
X126121942Y-68208918D01*
X126120025Y-68074518D01*
X126117936Y-67984641D01*
X126115687Y-67942124D01*
X126115185Y-67939446D01*
X126077786Y-67886144D01*
X126020871Y-67847863D01*
X125969235Y-67832339D01*
X125921260Y-67838015D01*
X125856454Y-67868338D01*
X125837985Y-67878612D01*
X125777103Y-67913253D01*
X125674291Y-67972138D01*
X125531601Y-68054087D01*
X125351080Y-68157919D01*
X125134779Y-68282452D01*
X124884748Y-68426506D01*
X124603036Y-68588899D01*
X124291693Y-68768450D01*
X123952769Y-68963979D01*
X123588314Y-69174304D01*
X123200377Y-69398244D01*
X123036700Y-69492746D01*
X122713581Y-69679315D01*
X122431224Y-69842354D01*
X122186399Y-69983730D01*
X121975874Y-70105313D01*
X121796417Y-70208972D01*
X121644797Y-70296576D01*
X121517782Y-70369993D01*
X121412141Y-70431093D01*
X121324643Y-70481744D01*
X121252055Y-70523816D01*
X121191147Y-70559177D01*
X121138687Y-70589697D01*
X121091444Y-70617243D01*
X121046185Y-70643686D01*
X121004700Y-70667956D01*
X120936026Y-70707914D01*
X120829677Y-70769490D01*
X120692033Y-70849006D01*
X120529472Y-70942781D01*
X120348372Y-71047136D01*
X120155112Y-71158392D01*
X119956070Y-71272869D01*
X119950600Y-71276014D01*
X119749435Y-71391697D01*
X119552101Y-71505261D01*
X119365309Y-71612836D01*
X119195776Y-71710552D01*
X119050214Y-71794540D01*
X118935338Y-71860929D01*
X118858400Y-71905537D01*
X118723591Y-71983858D01*
X118570727Y-72072501D01*
X118425638Y-72156491D01*
X118375800Y-72185295D01*
X118243251Y-72261920D01*
X118094978Y-72347742D01*
X117955671Y-72428464D01*
X117905900Y-72457336D01*
X117794126Y-72521995D01*
X117655314Y-72601984D01*
X117506557Y-72687469D01*
X117364947Y-72768614D01*
X117355068Y-72774265D01*
X117236342Y-72843799D01*
X117130621Y-72908769D01*
X117047275Y-72963194D01*
X116995671Y-73001090D01*
X116986768Y-73009425D01*
X116979984Y-73018673D01*
X116973888Y-73032406D01*
X116968437Y-73053279D01*
X116963586Y-73083948D01*
X116959292Y-73127069D01*
X116955513Y-73185297D01*
X116952204Y-73261288D01*
X116949324Y-73357696D01*
X116946827Y-73477179D01*
X116944672Y-73622390D01*
X116942814Y-73795986D01*
X116941211Y-74000622D01*
X116939819Y-74238954D01*
X116938594Y-74513638D01*
X116937494Y-74827328D01*
X116936475Y-75182680D01*
X116935494Y-75582350D01*
X116934508Y-76028994D01*
X116934060Y-76241569D01*
X116927420Y-79422812D01*
X116980353Y-79490106D01*
G36*
X103097053Y-70691132D02*
G01*
X103096900Y-70368388D01*
X103096554Y-70087418D01*
X103095957Y-69845213D01*
X103095047Y-69638765D01*
X103093765Y-69465063D01*
X103092050Y-69321101D01*
X103089842Y-69203869D01*
X103087080Y-69110358D01*
X103083705Y-69037559D01*
X103079656Y-68982464D01*
X103074873Y-68942064D01*
X103069296Y-68913351D01*
X103062864Y-68893315D01*
X103055517Y-68878948D01*
X103047195Y-68867241D01*
X103044757Y-68864126D01*
X102975406Y-68809989D01*
X102896004Y-68799461D01*
X102820948Y-68833345D01*
X102802887Y-68850662D01*
X102794909Y-68860909D01*
X102787832Y-68874982D01*
X102781585Y-68895896D01*
X102776095Y-68926667D01*
X102771290Y-68970312D01*
X102767098Y-69029845D01*
X102763448Y-69108282D01*
X102760266Y-69208639D01*
X102757481Y-69333931D01*
X102755021Y-69487175D01*
X102752814Y-69671386D01*
X102750787Y-69889579D01*
X102748869Y-70144771D01*
X102746987Y-70439977D01*
X102745070Y-70778213D01*
X102743045Y-71162494D01*
X102741800Y-71406110D01*
X102729100Y-73908097D01*
X102221100Y-74199594D01*
X101337657Y-74707187D01*
X100437466Y-75225735D01*
X99592200Y-75713779D01*
X99399176Y-75825187D01*
X99219196Y-75928764D01*
X99057163Y-76021711D01*
X98917977Y-76101230D01*
X98806540Y-76164523D01*
X98727753Y-76208792D01*
X98686517Y-76231239D01*
X98682158Y-76233317D01*
X98676961Y-76228297D01*
X98672327Y-76207365D01*
X98668233Y-76168079D01*
X98664655Y-76107996D01*
X98661568Y-76024673D01*
X98658948Y-75915668D01*
X98656771Y-75778539D01*
X98655014Y-75610843D01*
X98653651Y-75410137D01*
X98652660Y-75173979D01*
X98652015Y-74899926D01*
X98651692Y-74585537D01*
X98651669Y-74228368D01*
X98651919Y-73825977D01*
X98652420Y-73375921D01*
X98652604Y-73239333D01*
X98653125Y-72852037D01*
X98653591Y-72478502D01*
X98653999Y-72121914D01*
X98654349Y-71785460D01*
X98654637Y-71472328D01*
X98654861Y-71185705D01*
X98655020Y-70928778D01*
X98655112Y-70704734D01*
X98655134Y-70516761D01*
X98655084Y-70368046D01*
X98654960Y-70261777D01*
X98654760Y-70201139D01*
X98654597Y-70187850D01*
X98635838Y-70137529D01*
X98601600Y-70092600D01*
X98591916Y-70083827D01*
X98579407Y-70076126D01*
X98560895Y-70069429D01*
X98533198Y-70063664D01*
X98493136Y-70058763D01*
X98437527Y-70054654D01*
X98363191Y-70051269D01*
X98266948Y-70048537D01*
X98145616Y-70046388D01*
X97996015Y-70044753D01*
X97814964Y-70043561D01*
X97599282Y-70042742D01*
X97345790Y-70042226D01*
X97051304Y-70041944D01*
X96712646Y-70041826D01*
X96326635Y-70041801D01*
X96292149Y-70041800D01*
X94033498Y-70041800D01*
X93877200Y-70173316D01*
X93877200Y-77881545D01*
X93935988Y-77936773D01*
X94014734Y-77984326D01*
X94093363Y-77982515D01*
X94156600Y-77941200D01*
X94163628Y-77933493D01*
X94169981Y-77923466D01*
X94175697Y-77908625D01*
X94180815Y-77886475D01*
X94185373Y-77854525D01*
X94189409Y-77810278D01*
X94192962Y-77751243D01*
X94196070Y-77674924D01*
X94198772Y-77578828D01*
X94201105Y-77460462D01*
X94203109Y-77317331D01*
X94204822Y-77146942D01*
X94206281Y-76946800D01*
X94207527Y-76714413D01*
X94208596Y-76447285D01*
X94209527Y-76142925D01*
X94210359Y-75798836D01*
X94211130Y-75412527D01*
X94211878Y-74981502D01*
X94212642Y-74503269D01*
X94212993Y-74277250D01*
X94213657Y-73850641D01*
X94214310Y-73436596D01*
X94214945Y-73038102D01*
X94215558Y-72658144D01*
X94216144Y-72299711D01*
X94216698Y-71965786D01*
X94217214Y-71659358D01*
X94217689Y-71383413D01*
X94218115Y-71140936D01*
X94218489Y-70934914D01*
X94218806Y-70768333D01*
X94219060Y-70644180D01*
X94219246Y-70565441D01*
X94219343Y-70537100D01*
X94220100Y-70410100D01*
X96258450Y-70403599D01*
X98296801Y-70397098D01*
X98296801Y-76622710D01*
X98359146Y-76685055D01*
X98416221Y-76727950D01*
X98469991Y-76747309D01*
X98472872Y-76747400D01*
X98502094Y-76734922D01*
X98571962Y-76698710D01*
X98679226Y-76640597D01*
X98820636Y-76562416D01*
X98992939Y-76466001D01*
X99192887Y-76353184D01*
X99417227Y-76225798D01*
X99662711Y-76085678D01*
X99926085Y-75934655D01*
X100204101Y-75774563D01*
X100448876Y-75633084D01*
X100811413Y-75423186D01*
X101132845Y-75237097D01*
X101416027Y-75073166D01*
X101663813Y-74929744D01*
X101879061Y-74805181D01*
X102064623Y-74697827D01*
X102223357Y-74606033D01*
X102358116Y-74528147D01*
X102471756Y-74462521D01*
X102567132Y-74407504D01*
X102647100Y-74361447D01*
X102714515Y-74322699D01*
X102772231Y-74289612D01*
X102823104Y-74260534D01*
X102869989Y-74233817D01*
X102894200Y-74220048D01*
X102973710Y-74168000D01*
X103037062Y-74114217D01*
X103065276Y-74078773D01*
X103070675Y-74057122D01*
X103075473Y-74013071D01*
X103079700Y-73944207D01*
X103083385Y-73848111D01*
X103086558Y-73722370D01*
X103089248Y-73564565D01*
X103091485Y-73372282D01*
X103093298Y-73143105D01*
X103094716Y-72874617D01*
X103095770Y-72564402D01*
X103096488Y-72210045D01*
X103096900Y-71809129D01*
X103097026Y-71473976D01*
X103097075Y-71058658D01*
X103097053Y-70691132D01*
G37*
X103097053Y-70691132D02*
X103096900Y-70368388D01*
X103096554Y-70087418D01*
X103095957Y-69845213D01*
X103095047Y-69638765D01*
X103093765Y-69465063D01*
X103092050Y-69321101D01*
X103089842Y-69203869D01*
X103087080Y-69110358D01*
X103083705Y-69037559D01*
X103079656Y-68982464D01*
X103074873Y-68942064D01*
X103069296Y-68913351D01*
X103062864Y-68893315D01*
X103055517Y-68878948D01*
X103047195Y-68867241D01*
X103044757Y-68864126D01*
X102975406Y-68809989D01*
X102896004Y-68799461D01*
X102820948Y-68833345D01*
X102802887Y-68850662D01*
X102794909Y-68860909D01*
X102787832Y-68874982D01*
X102781585Y-68895896D01*
X102776095Y-68926667D01*
X102771290Y-68970312D01*
X102767098Y-69029845D01*
X102763448Y-69108282D01*
X102760266Y-69208639D01*
X102757481Y-69333931D01*
X102755021Y-69487175D01*
X102752814Y-69671386D01*
X102750787Y-69889579D01*
X102748869Y-70144771D01*
X102746987Y-70439977D01*
X102745070Y-70778213D01*
X102743045Y-71162494D01*
X102741800Y-71406110D01*
X102729100Y-73908097D01*
X102221100Y-74199594D01*
X101337657Y-74707187D01*
X100437466Y-75225735D01*
X99592200Y-75713779D01*
X99399176Y-75825187D01*
X99219196Y-75928764D01*
X99057163Y-76021711D01*
X98917977Y-76101230D01*
X98806540Y-76164523D01*
X98727753Y-76208792D01*
X98686517Y-76231239D01*
X98682158Y-76233317D01*
X98676961Y-76228297D01*
X98672327Y-76207365D01*
X98668233Y-76168079D01*
X98664655Y-76107996D01*
X98661568Y-76024673D01*
X98658948Y-75915668D01*
X98656771Y-75778539D01*
X98655014Y-75610843D01*
X98653651Y-75410137D01*
X98652660Y-75173979D01*
X98652015Y-74899926D01*
X98651692Y-74585537D01*
X98651669Y-74228368D01*
X98651919Y-73825977D01*
X98652420Y-73375921D01*
X98652604Y-73239333D01*
X98653125Y-72852037D01*
X98653591Y-72478502D01*
X98653999Y-72121914D01*
X98654349Y-71785460D01*
X98654637Y-71472328D01*
X98654861Y-71185705D01*
X98655020Y-70928778D01*
X98655112Y-70704734D01*
X98655134Y-70516761D01*
X98655084Y-70368046D01*
X98654960Y-70261777D01*
X98654760Y-70201139D01*
X98654597Y-70187850D01*
X98635838Y-70137529D01*
X98601600Y-70092600D01*
X98591916Y-70083827D01*
X98579407Y-70076126D01*
X98560895Y-70069429D01*
X98533198Y-70063664D01*
X98493136Y-70058763D01*
X98437527Y-70054654D01*
X98363191Y-70051269D01*
X98266948Y-70048537D01*
X98145616Y-70046388D01*
X97996015Y-70044753D01*
X97814964Y-70043561D01*
X97599282Y-70042742D01*
X97345790Y-70042226D01*
X97051304Y-70041944D01*
X96712646Y-70041826D01*
X96326635Y-70041801D01*
X96292149Y-70041800D01*
X94033498Y-70041800D01*
X93877200Y-70173316D01*
X93877200Y-77881545D01*
X93935988Y-77936773D01*
X94014734Y-77984326D01*
X94093363Y-77982515D01*
X94156600Y-77941200D01*
X94163628Y-77933493D01*
X94169981Y-77923466D01*
X94175697Y-77908625D01*
X94180815Y-77886475D01*
X94185373Y-77854525D01*
X94189409Y-77810278D01*
X94192962Y-77751243D01*
X94196070Y-77674924D01*
X94198772Y-77578828D01*
X94201105Y-77460462D01*
X94203109Y-77317331D01*
X94204822Y-77146942D01*
X94206281Y-76946800D01*
X94207527Y-76714413D01*
X94208596Y-76447285D01*
X94209527Y-76142925D01*
X94210359Y-75798836D01*
X94211130Y-75412527D01*
X94211878Y-74981502D01*
X94212642Y-74503269D01*
X94212993Y-74277250D01*
X94213657Y-73850641D01*
X94214310Y-73436596D01*
X94214945Y-73038102D01*
X94215558Y-72658144D01*
X94216144Y-72299711D01*
X94216698Y-71965786D01*
X94217214Y-71659358D01*
X94217689Y-71383413D01*
X94218115Y-71140936D01*
X94218489Y-70934914D01*
X94218806Y-70768333D01*
X94219060Y-70644180D01*
X94219246Y-70565441D01*
X94219343Y-70537100D01*
X94220100Y-70410100D01*
X96258450Y-70403599D01*
X98296801Y-70397098D01*
X98296801Y-76622710D01*
X98359146Y-76685055D01*
X98416221Y-76727950D01*
X98469991Y-76747309D01*
X98472872Y-76747400D01*
X98502094Y-76734922D01*
X98571962Y-76698710D01*
X98679226Y-76640597D01*
X98820636Y-76562416D01*
X98992939Y-76466001D01*
X99192887Y-76353184D01*
X99417227Y-76225798D01*
X99662711Y-76085678D01*
X99926085Y-75934655D01*
X100204101Y-75774563D01*
X100448876Y-75633084D01*
X100811413Y-75423186D01*
X101132845Y-75237097D01*
X101416027Y-75073166D01*
X101663813Y-74929744D01*
X101879061Y-74805181D01*
X102064623Y-74697827D01*
X102223357Y-74606033D01*
X102358116Y-74528147D01*
X102471756Y-74462521D01*
X102567132Y-74407504D01*
X102647100Y-74361447D01*
X102714515Y-74322699D01*
X102772231Y-74289612D01*
X102823104Y-74260534D01*
X102869989Y-74233817D01*
X102894200Y-74220048D01*
X102973710Y-74168000D01*
X103037062Y-74114217D01*
X103065276Y-74078773D01*
X103070675Y-74057122D01*
X103075473Y-74013071D01*
X103079700Y-73944207D01*
X103083385Y-73848111D01*
X103086558Y-73722370D01*
X103089248Y-73564565D01*
X103091485Y-73372282D01*
X103093298Y-73143105D01*
X103094716Y-72874617D01*
X103095770Y-72564402D01*
X103096488Y-72210045D01*
X103096900Y-71809129D01*
X103097026Y-71473976D01*
X103097075Y-71058658D01*
X103097053Y-70691132D01*
G36*
X103019647Y-76509894D02*
G01*
X102949113Y-76453613D01*
X102870550Y-76444139D01*
X102795491Y-76481488D01*
X102769044Y-76509526D01*
X102761221Y-76519932D01*
X102754214Y-76531989D01*
X102747978Y-76548406D01*
X102742469Y-76571894D01*
X102737640Y-76605163D01*
X102733448Y-76650921D01*
X102729848Y-76711879D01*
X102726794Y-76790746D01*
X102724241Y-76890233D01*
X102722145Y-77013048D01*
X102720460Y-77161901D01*
X102719142Y-77339503D01*
X102718145Y-77548562D01*
X102717425Y-77791789D01*
X102716937Y-78071893D01*
X102716635Y-78391584D01*
X102716475Y-78753571D01*
X102716412Y-79160565D01*
X102716401Y-79615275D01*
X102716400Y-79681988D01*
X102716400Y-82787525D01*
X102316350Y-83016556D01*
X102168368Y-83101369D01*
X102017404Y-83188052D01*
X101876384Y-83269170D01*
X101758236Y-83337292D01*
X101700400Y-83370748D01*
X101617772Y-83418583D01*
X101500041Y-83486651D01*
X101356110Y-83569808D01*
X101194883Y-83662911D01*
X101025266Y-83760815D01*
X100900300Y-83832918D01*
X100705851Y-83945106D01*
X100490841Y-84069180D01*
X100270019Y-84196628D01*
X100058137Y-84318937D01*
X99869943Y-84427594D01*
X99808100Y-84463307D01*
X99638142Y-84561416D01*
X99460068Y-84664132D01*
X99286336Y-84764275D01*
X99129404Y-84854665D01*
X99001727Y-84928121D01*
X98982600Y-84939113D01*
X98665100Y-85121540D01*
X98652400Y-82740531D01*
X98650229Y-82338993D01*
X98648211Y-81985160D01*
X98646270Y-81675937D01*
X98644327Y-81408230D01*
X98642305Y-81178944D01*
X98640126Y-80984984D01*
X98637713Y-80823257D01*
X98634988Y-80690667D01*
X98631873Y-80584120D01*
X98628291Y-80500522D01*
X98624164Y-80436777D01*
X98619415Y-80389791D01*
X98613965Y-80356470D01*
X98607737Y-80333719D01*
X98600654Y-80318443D01*
X98592637Y-80307548D01*
X98591314Y-80306061D01*
X98520641Y-80261441D01*
X98439481Y-80258579D01*
X98366279Y-80297474D01*
X98357887Y-80306061D01*
X98349895Y-80316328D01*
X98342807Y-80330425D01*
X98336551Y-80351376D01*
X98331055Y-80382203D01*
X98326247Y-80425925D01*
X98322053Y-80485567D01*
X98318401Y-80564148D01*
X98315220Y-80664692D01*
X98312435Y-80790219D01*
X98309976Y-80943751D01*
X98307768Y-81128310D01*
X98305741Y-81346918D01*
X98303820Y-81602596D01*
X98301935Y-81898366D01*
X98300011Y-82237250D01*
X98297978Y-82622270D01*
X98296800Y-82851969D01*
X98284100Y-85344416D01*
X97725300Y-85666030D01*
X97602925Y-85736508D01*
X97442224Y-85829128D01*
X97248861Y-85940623D01*
X97028501Y-86067725D01*
X96786805Y-86207167D01*
X96529438Y-86355681D01*
X96262062Y-86510001D01*
X95990342Y-86666859D01*
X95719941Y-86822986D01*
X95693300Y-86838370D01*
X94220100Y-87689095D01*
X94207228Y-80369991D01*
X94152087Y-80311296D01*
X94079090Y-80261334D01*
X94004097Y-80261784D01*
X93932674Y-80311126D01*
X93877692Y-80369651D01*
X93871096Y-84184637D01*
X93870475Y-84621752D01*
X93870134Y-85045518D01*
X93870064Y-85453101D01*
X93870255Y-85841667D01*
X93870697Y-86208382D01*
X93871380Y-86550411D01*
X93872294Y-86864921D01*
X93873429Y-87149077D01*
X93874774Y-87400045D01*
X93876321Y-87614992D01*
X93878058Y-87791082D01*
X93879975Y-87925482D01*
X93882064Y-88015359D01*
X93884313Y-88057876D01*
X93884815Y-88060554D01*
X93922214Y-88113856D01*
X93979129Y-88152137D01*
X94030765Y-88167661D01*
X94078740Y-88161985D01*
X94143546Y-88131662D01*
X94162015Y-88121388D01*
X94222897Y-88086747D01*
X94325709Y-88027862D01*
X94468399Y-87945913D01*
X94648920Y-87842081D01*
X94865221Y-87717548D01*
X95115252Y-87573494D01*
X95396964Y-87411101D01*
X95708307Y-87231550D01*
X96047231Y-87036021D01*
X96411686Y-86825696D01*
X96799623Y-86601756D01*
X96963300Y-86507254D01*
X97286419Y-86320685D01*
X97568776Y-86157646D01*
X97813601Y-86016270D01*
X98024126Y-85894687D01*
X98203583Y-85791028D01*
X98355203Y-85703424D01*
X98482218Y-85630007D01*
X98587859Y-85568907D01*
X98675357Y-85518256D01*
X98747945Y-85476184D01*
X98808853Y-85440823D01*
X98861313Y-85410303D01*
X98908556Y-85382757D01*
X98953815Y-85356314D01*
X98995300Y-85332044D01*
X99063974Y-85292086D01*
X99170323Y-85230510D01*
X99307967Y-85150994D01*
X99470528Y-85057219D01*
X99651628Y-84952864D01*
X99844888Y-84841608D01*
X100043930Y-84727131D01*
X100049400Y-84723986D01*
X100250565Y-84608303D01*
X100447899Y-84494739D01*
X100634691Y-84387164D01*
X100804224Y-84289448D01*
X100949786Y-84205460D01*
X101064662Y-84139071D01*
X101141600Y-84094463D01*
X101276409Y-84016142D01*
X101429273Y-83927499D01*
X101574362Y-83843509D01*
X101624200Y-83814705D01*
X101756749Y-83738080D01*
X101905022Y-83652258D01*
X102044329Y-83571536D01*
X102094100Y-83542664D01*
X102205874Y-83478005D01*
X102344686Y-83398016D01*
X102493443Y-83312531D01*
X102635053Y-83231386D01*
X102644932Y-83225735D01*
X102763658Y-83156201D01*
X102869379Y-83091231D01*
X102952725Y-83036806D01*
X103004329Y-82998910D01*
X103013232Y-82990575D01*
X103020016Y-82981327D01*
X103026112Y-82967594D01*
X103031563Y-82946721D01*
X103036414Y-82916052D01*
X103040708Y-82872931D01*
X103044487Y-82814703D01*
X103047796Y-82738712D01*
X103050676Y-82642304D01*
X103053173Y-82522821D01*
X103055328Y-82377610D01*
X103057186Y-82204014D01*
X103058789Y-81999378D01*
X103060181Y-81761046D01*
X103061406Y-81486362D01*
X103062506Y-81172672D01*
X103063525Y-80817320D01*
X103064506Y-80417650D01*
X103065492Y-79971006D01*
X103065940Y-79758431D01*
X103072580Y-76577188D01*
X103019647Y-76509894D01*
G37*
X103019647Y-76509894D02*
X102949113Y-76453613D01*
X102870550Y-76444139D01*
X102795491Y-76481488D01*
X102769044Y-76509526D01*
X102761221Y-76519932D01*
X102754214Y-76531989D01*
X102747978Y-76548406D01*
X102742469Y-76571894D01*
X102737640Y-76605163D01*
X102733448Y-76650921D01*
X102729848Y-76711879D01*
X102726794Y-76790746D01*
X102724241Y-76890233D01*
X102722145Y-77013048D01*
X102720460Y-77161901D01*
X102719142Y-77339503D01*
X102718145Y-77548562D01*
X102717425Y-77791789D01*
X102716937Y-78071893D01*
X102716635Y-78391584D01*
X102716475Y-78753571D01*
X102716412Y-79160565D01*
X102716401Y-79615275D01*
X102716400Y-79681988D01*
X102716400Y-82787525D01*
X102316350Y-83016556D01*
X102168368Y-83101369D01*
X102017404Y-83188052D01*
X101876384Y-83269170D01*
X101758236Y-83337292D01*
X101700400Y-83370748D01*
X101617772Y-83418583D01*
X101500041Y-83486651D01*
X101356110Y-83569808D01*
X101194883Y-83662911D01*
X101025266Y-83760815D01*
X100900300Y-83832918D01*
X100705851Y-83945106D01*
X100490841Y-84069180D01*
X100270019Y-84196628D01*
X100058137Y-84318937D01*
X99869943Y-84427594D01*
X99808100Y-84463307D01*
X99638142Y-84561416D01*
X99460068Y-84664132D01*
X99286336Y-84764275D01*
X99129404Y-84854665D01*
X99001727Y-84928121D01*
X98982600Y-84939113D01*
X98665100Y-85121540D01*
X98652400Y-82740531D01*
X98650229Y-82338993D01*
X98648211Y-81985160D01*
X98646270Y-81675937D01*
X98644327Y-81408230D01*
X98642305Y-81178944D01*
X98640126Y-80984984D01*
X98637713Y-80823257D01*
X98634988Y-80690667D01*
X98631873Y-80584120D01*
X98628291Y-80500522D01*
X98624164Y-80436777D01*
X98619415Y-80389791D01*
X98613965Y-80356470D01*
X98607737Y-80333719D01*
X98600654Y-80318443D01*
X98592637Y-80307548D01*
X98591314Y-80306061D01*
X98520641Y-80261441D01*
X98439481Y-80258579D01*
X98366279Y-80297474D01*
X98357887Y-80306061D01*
X98349895Y-80316328D01*
X98342807Y-80330425D01*
X98336551Y-80351376D01*
X98331055Y-80382203D01*
X98326247Y-80425925D01*
X98322053Y-80485567D01*
X98318401Y-80564148D01*
X98315220Y-80664692D01*
X98312435Y-80790219D01*
X98309976Y-80943751D01*
X98307768Y-81128310D01*
X98305741Y-81346918D01*
X98303820Y-81602596D01*
X98301935Y-81898366D01*
X98300011Y-82237250D01*
X98297978Y-82622270D01*
X98296800Y-82851969D01*
X98284100Y-85344416D01*
X97725300Y-85666030D01*
X97602925Y-85736508D01*
X97442224Y-85829128D01*
X97248861Y-85940623D01*
X97028501Y-86067725D01*
X96786805Y-86207167D01*
X96529438Y-86355681D01*
X96262062Y-86510001D01*
X95990342Y-86666859D01*
X95719941Y-86822986D01*
X95693300Y-86838370D01*
X94220100Y-87689095D01*
X94207228Y-80369991D01*
X94152087Y-80311296D01*
X94079090Y-80261334D01*
X94004097Y-80261784D01*
X93932674Y-80311126D01*
X93877692Y-80369651D01*
X93871096Y-84184637D01*
X93870475Y-84621752D01*
X93870134Y-85045518D01*
X93870064Y-85453101D01*
X93870255Y-85841667D01*
X93870697Y-86208382D01*
X93871380Y-86550411D01*
X93872294Y-86864921D01*
X93873429Y-87149077D01*
X93874774Y-87400045D01*
X93876321Y-87614992D01*
X93878058Y-87791082D01*
X93879975Y-87925482D01*
X93882064Y-88015359D01*
X93884313Y-88057876D01*
X93884815Y-88060554D01*
X93922214Y-88113856D01*
X93979129Y-88152137D01*
X94030765Y-88167661D01*
X94078740Y-88161985D01*
X94143546Y-88131662D01*
X94162015Y-88121388D01*
X94222897Y-88086747D01*
X94325709Y-88027862D01*
X94468399Y-87945913D01*
X94648920Y-87842081D01*
X94865221Y-87717548D01*
X95115252Y-87573494D01*
X95396964Y-87411101D01*
X95708307Y-87231550D01*
X96047231Y-87036021D01*
X96411686Y-86825696D01*
X96799623Y-86601756D01*
X96963300Y-86507254D01*
X97286419Y-86320685D01*
X97568776Y-86157646D01*
X97813601Y-86016270D01*
X98024126Y-85894687D01*
X98203583Y-85791028D01*
X98355203Y-85703424D01*
X98482218Y-85630007D01*
X98587859Y-85568907D01*
X98675357Y-85518256D01*
X98747945Y-85476184D01*
X98808853Y-85440823D01*
X98861313Y-85410303D01*
X98908556Y-85382757D01*
X98953815Y-85356314D01*
X98995300Y-85332044D01*
X99063974Y-85292086D01*
X99170323Y-85230510D01*
X99307967Y-85150994D01*
X99470528Y-85057219D01*
X99651628Y-84952864D01*
X99844888Y-84841608D01*
X100043930Y-84727131D01*
X100049400Y-84723986D01*
X100250565Y-84608303D01*
X100447899Y-84494739D01*
X100634691Y-84387164D01*
X100804224Y-84289448D01*
X100949786Y-84205460D01*
X101064662Y-84139071D01*
X101141600Y-84094463D01*
X101276409Y-84016142D01*
X101429273Y-83927499D01*
X101574362Y-83843509D01*
X101624200Y-83814705D01*
X101756749Y-83738080D01*
X101905022Y-83652258D01*
X102044329Y-83571536D01*
X102094100Y-83542664D01*
X102205874Y-83478005D01*
X102344686Y-83398016D01*
X102493443Y-83312531D01*
X102635053Y-83231386D01*
X102644932Y-83225735D01*
X102763658Y-83156201D01*
X102869379Y-83091231D01*
X102952725Y-83036806D01*
X103004329Y-82998910D01*
X103013232Y-82990575D01*
X103020016Y-82981327D01*
X103026112Y-82967594D01*
X103031563Y-82946721D01*
X103036414Y-82916052D01*
X103040708Y-82872931D01*
X103044487Y-82814703D01*
X103047796Y-82738712D01*
X103050676Y-82642304D01*
X103053173Y-82522821D01*
X103055328Y-82377610D01*
X103057186Y-82204014D01*
X103058789Y-81999378D01*
X103060181Y-81761046D01*
X103061406Y-81486362D01*
X103062506Y-81172672D01*
X103063525Y-80817320D01*
X103064506Y-80417650D01*
X103065492Y-79971006D01*
X103065940Y-79758431D01*
X103072580Y-76577188D01*
X103019647Y-76509894D01*
%TD*%
M02*
