%TF.GenerationSoftware,KiCad,Pcbnew,5.1.5+dfsg1-2build2*%
%TF.CreationDate,2021-11-04T16:47:03+02:00*%
%TF.ProjectId,LED_Wled,4c45445f-576c-4656-942e-6b696361645f,rev?*%
%TF.SameCoordinates,Original*%
%TF.FileFunction,Profile,NP*%
%FSLAX46Y46*%
G04 Gerber Fmt 4.6, Leading zero omitted, Abs format (unit mm)*
G04 Created by KiCad (PCBNEW 5.1.5+dfsg1-2build2) date 2021-11-04 16:47:03*
%MOMM*%
%LPD*%
G04 APERTURE LIST*
%TA.AperFunction,Profile*%
%ADD10C,0.050000*%
%TD*%
%TA.AperFunction,Profile*%
%ADD11C,0.100000*%
%TD*%
G04 APERTURE END LIST*
D10*
X152000000Y-76000000D02*
X152000000Y-65000000D01*
X152000000Y-80000000D02*
X152000000Y-91000000D01*
X152000000Y-104000000D02*
X152000000Y-93000000D01*
X152000000Y-108000000D02*
X152000000Y-119000000D01*
X152000000Y-132000000D02*
X152000000Y-121000000D01*
X152000000Y-136000000D02*
X152000000Y-147000000D01*
X129500000Y-147000000D02*
X111000000Y-147000000D01*
X86500000Y-147000000D02*
X68000000Y-147000000D01*
X68000000Y-136000000D02*
X68000000Y-147000000D01*
X68000000Y-121000000D02*
X68000000Y-132000000D01*
X68000000Y-108000000D02*
X68000000Y-119000000D01*
X68000000Y-93000000D02*
X68000000Y-104000000D01*
X68000000Y-80000000D02*
X68000000Y-91000000D01*
X68000000Y-65000000D02*
X68000000Y-76000000D01*
X86500000Y-65000000D02*
X68000000Y-65000000D01*
X90500000Y-65000000D02*
X109000000Y-65000000D01*
X129500000Y-65000000D02*
X111000000Y-65000000D01*
X133500000Y-65000000D02*
X152000000Y-65000000D01*
X90500000Y-63000000D02*
X129500000Y-63000000D01*
X66000000Y-63000000D02*
X86500000Y-63000000D01*
X66000000Y-76000000D02*
X66000000Y-63000000D01*
X66000000Y-104000000D02*
X66000000Y-80000000D01*
X66000000Y-132000000D02*
X66000000Y-108000000D01*
X66000000Y-149000000D02*
X66000000Y-136000000D01*
X86500000Y-149000000D02*
X66000000Y-149000000D01*
X86500000Y-147000000D02*
G75*
G02X86500000Y-149000000I0J-1000000D01*
G01*
X129500000Y-149000000D02*
X90500000Y-149000000D01*
X154000000Y-149000000D02*
X133500000Y-149000000D01*
X154000000Y-136000000D02*
X154000000Y-149000000D01*
X154000000Y-63000000D02*
X154000000Y-76000000D01*
X133500000Y-63000000D02*
X154000000Y-63000000D01*
X154000000Y-104000000D02*
X154000000Y-80000000D01*
X154000000Y-132000000D02*
X154000000Y-108000000D01*
D11*
X160000000Y-57500000D02*
X160000000Y-155000000D01*
X60000000Y-57500000D02*
X160000000Y-57500000D01*
X60000000Y-155000000D02*
X60000000Y-57500000D01*
X160000000Y-155000000D02*
X60000000Y-155000000D01*
D10*
X90500000Y-149000000D02*
G75*
G02X90500000Y-147000000I0J1000000D01*
G01*
X129500000Y-147000000D02*
G75*
G02X129500000Y-149000000I0J-1000000D01*
G01*
X133500000Y-149000000D02*
G75*
G02X133500000Y-147000000I0J1000000D01*
G01*
X152000000Y-136000000D02*
G75*
G02X154000000Y-136000000I1000000J0D01*
G01*
X154000000Y-132000000D02*
G75*
G02X152000000Y-132000000I-1000000J0D01*
G01*
X152000000Y-108000000D02*
G75*
G02X154000000Y-108000000I1000000J0D01*
G01*
X154000000Y-104000000D02*
G75*
G02X152000000Y-104000000I-1000000J0D01*
G01*
X152000000Y-80000000D02*
G75*
G02X154000000Y-80000000I1000000J0D01*
G01*
X154000000Y-76000000D02*
G75*
G02X152000000Y-76000000I-1000000J0D01*
G01*
X133500000Y-65000000D02*
G75*
G02X133500000Y-63000000I0J1000000D01*
G01*
X129500000Y-63000000D02*
G75*
G02X129500000Y-65000000I0J-1000000D01*
G01*
X90500000Y-65000000D02*
G75*
G02X90500000Y-63000000I0J1000000D01*
G01*
X86500000Y-63000000D02*
G75*
G02X86500000Y-65000000I0J-1000000D01*
G01*
X66000000Y-108000000D02*
G75*
G02X68000000Y-108000000I1000000J0D01*
G01*
X66000000Y-80000000D02*
G75*
G02X68000000Y-80000000I1000000J0D01*
G01*
X68000000Y-76000000D02*
G75*
G02X66000000Y-76000000I-1000000J0D01*
G01*
X68000000Y-104000000D02*
G75*
G02X66000000Y-104000000I-1000000J0D01*
G01*
X68000000Y-132000000D02*
G75*
G02X66000000Y-132000000I-1000000J0D01*
G01*
X66000000Y-136000000D02*
G75*
G02X68000000Y-136000000I1000000J0D01*
G01*
X129500000Y-121000000D02*
X111000000Y-121000000D01*
X133500000Y-121000000D02*
X152000000Y-121000000D01*
X90500000Y-121000000D02*
X109000000Y-121000000D01*
X68000000Y-121000000D02*
X86500000Y-121000000D01*
X109000000Y-136000000D02*
G75*
G02X111000000Y-136000000I1000000J0D01*
G01*
X133500000Y-147000000D02*
X152000000Y-147000000D01*
X111000000Y-136000000D02*
X111000000Y-147000000D01*
X111000000Y-132000000D02*
G75*
G02X109000000Y-132000000I-1000000J0D01*
G01*
X109000000Y-147000000D02*
X109000000Y-136000000D01*
X109000000Y-132000000D02*
X109000000Y-121000000D01*
X111000000Y-132000000D02*
X111000000Y-121000000D01*
X90500000Y-147000000D02*
X109000000Y-147000000D01*
X86500000Y-93000000D02*
X68000000Y-93000000D01*
X90500000Y-93000000D02*
X109000000Y-93000000D01*
X129500000Y-93000000D02*
X111000000Y-93000000D01*
X133500000Y-93000000D02*
X152000000Y-93000000D01*
X133500000Y-121000000D02*
G75*
G02X133500000Y-119000000I0J1000000D01*
G01*
X129500000Y-119000000D02*
X111000000Y-119000000D01*
X109000000Y-108000000D02*
G75*
G02X111000000Y-108000000I1000000J0D01*
G01*
X133500000Y-119000000D02*
X152000000Y-119000000D01*
X111000000Y-108000000D02*
X111000000Y-119000000D01*
X111000000Y-104000000D02*
G75*
G02X109000000Y-104000000I-1000000J0D01*
G01*
X109000000Y-119000000D02*
X109000000Y-108000000D01*
X90500000Y-121000000D02*
G75*
G02X90500000Y-119000000I0J1000000D01*
G01*
X109000000Y-104000000D02*
X109000000Y-93000000D01*
X86500000Y-119000000D02*
G75*
G02X86500000Y-121000000I0J-1000000D01*
G01*
X111000000Y-104000000D02*
X111000000Y-93000000D01*
X129500000Y-119000000D02*
G75*
G02X129500000Y-121000000I0J-1000000D01*
G01*
X86500000Y-119000000D02*
X68000000Y-119000000D01*
X90500000Y-119000000D02*
X109000000Y-119000000D01*
X129500000Y-91000000D02*
X111000000Y-91000000D01*
X133500000Y-91000000D02*
X152000000Y-91000000D01*
X111000000Y-76000000D02*
X111000000Y-65000000D01*
X111000000Y-80000000D02*
X111000000Y-91000000D01*
X109000000Y-76000000D02*
X109000000Y-65000000D01*
X109000000Y-91000000D02*
X109000000Y-80000000D01*
X86500000Y-91000000D02*
X68000000Y-91000000D01*
X90500000Y-91000000D02*
X109000000Y-91000000D01*
X86500000Y-91000000D02*
G75*
G02X86500000Y-93000000I0J-1000000D01*
G01*
X90500000Y-93000000D02*
G75*
G02X90500000Y-91000000I0J1000000D01*
G01*
X133500000Y-93000000D02*
G75*
G02X133500000Y-91000000I0J1000000D01*
G01*
X129500000Y-91000000D02*
G75*
G02X129500000Y-93000000I0J-1000000D01*
G01*
X111000000Y-76000000D02*
G75*
G02X109000000Y-76000000I-1000000J0D01*
G01*
X109000000Y-80000000D02*
G75*
G02X111000000Y-80000000I1000000J0D01*
G01*
M02*
